<?xml version="1.0" encoding="UTF-8" standalone="no"?> <svg width="64" height="64" viewBox="0 0 64 64" fill="none" xmlns="http://www.w3.org/2000/svg">
<path d="M28 49H36C36.5304 49 37.0391 48.7893 37.4142 48.4142C37.7893 48.0391 38 47.5304 38 47V27H23V44C23 45.3261 23.5268 46.5979 24.4645 47.5355C25.4021 48.4732 26.6739 49 28 49V49Z" fill="#CFF09E"/>
<path d="M42 27H46V37C46 37.5304 45.7893 38.0391 45.4142 38.4142C45.0391 38.7893 44.5304 39 44 39C43.4696 39 42.9609 38.7893 42.5858 38.4142C42.2107 38.0391 42 37.5304 42 37V27Z" fill="#CFF09E"/>
<path d="M14 27H18V37C18 37.5304 17.7893 38.0391 17.4142 38.4142C17.0391 38.7893 16.5304 39 16 39V39C15.4696 39 14.9609 38.7893 14.5858 38.4142C14.2107 38.0391 14 37.5304 14 37V27Z" fill="#CFF09E"/>
<path d="M60.482 52H24.718C23.1428 51.9996 21.5899 51.6271 20.1859 50.9129C18.782 50.1986 17.5666 49.1628 16.6388 47.8897C15.711 46.6167 15.0971 45.1425 14.8471 43.5873C14.5971 42.032 14.718 40.4397 15.2 38.94L19.036 27H13.1C12.2134 27.0002 11.352 27.295 10.6511 27.838C9.95025 28.381 9.44967 29.1415 9.22801 30L3.20001 53.234C2.96192 54.1515 2.93715 55.1114 3.1276 56.04C3.31804 56.9686 3.71864 57.8413 4.29867 58.591C4.87871 59.3408 5.62276 59.9477 6.47375 60.3653C7.32475 60.7829 8.26008 61 9.20801 61H54.792C55.7399 61 56.6753 60.7829 57.5263 60.3653C58.3773 59.9477 59.1213 59.3408 59.7014 58.591C60.2814 57.8413 60.682 56.9686 60.8724 56.04C61.0629 55.1114 61.0381 54.1515 60.8 53.234L60.482 52Z" fill="#CFF09E"/>
<path d="M44 23H48V34C48 34.5304 47.7893 35.0391 47.4142 35.4142C47.0391 35.7893 46.5304 36 46 36C45.4696 36 44.9609 35.7893 44.5858 35.4142C44.2107 35.0391 44 34.5304 44 34V23Z" fill="#A8DBA8"/>
<path d="M16 19H20C20 15.8174 21.2643 12.7652 23.5147 10.5147C25.7652 8.26428 28.8174 7 32 7V7C35.1826 7 38.2348 8.26428 40.4853 10.5147C42.7357 12.7652 44 15.8174 44 19H48C48 14.7565 46.3143 10.6869 43.3137 7.68629C40.3131 4.68571 36.2435 3 32 3V3C27.7565 3 23.6869 4.68571 20.6863 7.68629C17.6857 10.6869 16 14.7565 16 19V19Z" fill="#A8DBA8"/>
<path d="M16 23H20V34C20 34.5304 19.7893 35.0391 19.4142 35.4142C19.0391 35.7893 18.5304 36 18 36C17.4696 36 16.9609 35.7893 16.5858 35.4142C16.2107 35.0391 16 34.5304 16 34V23Z" fill="#A8DBA8"/>
<path d="M36 23H28C26.8954 23 26 23.8954 26 25V45C26 46.1046 26.8954 47 28 47H36C37.1046 47 38 46.1046 38 45V25C38 23.8954 37.1046 23 36 23Z" fill="#79BD9A"/>
<path d="M36 23H28C27.4696 23 26.9609 23.2107 26.5858 23.5858C26.2107 23.9609 26 24.4696 26 25V39H30V43H34V39H38V25C38 24.4696 37.7893 23.9609 37.4142 23.5858C37.0391 23.2107 36.5304 23 36 23Z" fill="#79BD9A"/>
<path d="M60.22 50.992C51.2092 54.4112 41.6371 56.1099 32 56C22.363 56.1099 12.7908 54.4112 3.78001 50.992L3.20001 53.234C2.96192 54.1515 2.93715 55.1114 3.1276 56.04C3.31804 56.9686 3.71864 57.8413 4.29867 58.591C4.87871 59.3408 5.62276 59.9477 6.47375 60.3653C7.32475 60.7829 8.26008 61 9.20801 61H54.792C55.7399 61 56.6753 60.7829 57.5263 60.3653C58.3773 59.9477 59.1213 59.3408 59.7014 58.591C60.2814 57.8413 60.682 56.9686 60.8724 56.04C61.0629 55.1114 61.0381 54.1515 60.8 53.234L60.22 50.992Z" fill="#79BD9A"/>
<path d="M26 39H30V43H34V39H38V31H26V39Z" fill="#A8DBA8"/>
<path d="M61.77 52.982L55.744 29.745C55.4658 28.6722 54.8391 27.7222 53.9623 27.0443C53.0855 26.3664 52.0083 25.9991 50.9 26H49V24C49.7957 24 50.5587 23.6839 51.1213 23.1213C51.6839 22.5587 52 21.7956 52 21V17C52 16.2043 51.6839 15.4413 51.1213 14.8787C50.5587 14.3161 49.7957 14 49 14H48.247C47.1772 10.5262 45.0221 7.48671 42.098 5.32761C39.174 3.16852 35.6348 2.00349 32 2.00349C28.3652 2.00349 24.8261 3.16852 21.902 5.32761C18.9779 7.48671 16.8228 10.5262 15.753 14H15C14.2044 14 13.4413 14.3161 12.8787 14.8787C12.3161 15.4413 12 16.2043 12 17V21C12 21.7956 12.3161 22.5587 12.8787 23.1213C13.4413 23.6839 14.2044 24 15 24V26H13.1C11.9924 26 10.9162 26.3677 10.0402 27.0455C9.16416 27.7234 8.53803 28.6728 8.26002 29.745L2.23002 52.982C1.95421 54.0475 1.92597 55.1621 2.14747 56.2402C2.36898 57.3183 2.83434 58.3314 3.5079 59.2019C4.18147 60.0724 5.04537 60.7771 6.03339 61.2621C7.02142 61.7472 8.10737 61.9996 9.20802 62H54.792C55.8927 61.9996 56.9786 61.7472 57.9666 61.2621C58.9547 60.7771 59.8186 60.0724 60.4921 59.2019C61.1657 58.3314 61.6311 57.3183 61.8526 56.2402C62.0741 55.1621 62.0458 54.0475 61.77 52.982ZM47 30H45V24H47V30ZM45 32H47V34C47 34.2652 46.8947 34.5196 46.7071 34.7071C46.5196 34.8946 46.2652 35 46 35C45.7348 35 45.4804 34.8946 45.2929 34.7071C45.1054 34.5196 45 34.2652 45 34V32ZM30 38H27V32H37V38H34C33.7348 38 33.4804 38.1054 33.2929 38.2929C33.1054 38.4804 33 38.7348 33 39V42H31V39C31 38.7348 30.8947 38.4804 30.7071 38.2929C30.5196 38.1054 30.2652 38 30 38ZM37 30H27V25C27 24.7348 27.1054 24.4804 27.2929 24.2929C27.4804 24.1054 27.7348 24 28 24H36C36.2652 24 36.5196 24.1054 36.7071 24.2929C36.8947 24.4804 37 24.7348 37 25V30ZM27 40H29V43C29 43.2652 29.1054 43.5196 29.2929 43.7071C29.4804 43.8946 29.7348 44 30 44H34C34.2652 44 34.5196 43.8946 34.7071 43.7071C34.8947 43.5196 35 43.2652 35 43V40H37V45C37 45.2652 36.8947 45.5196 36.7071 45.7071C36.5196 45.8946 36.2652 46 36 46H28C27.7348 46 27.4804 45.8946 27.2929 45.7071C27.1054 45.5196 27 45.2652 27 45V40ZM36 22H28C27.2044 22 26.4413 22.3161 25.8787 22.8787C25.3161 23.4413 25 24.2043 25 25V26H21V24C21.7957 24 22.5587 23.6839 23.1213 23.1213C23.6839 22.5587 24 21.7956 24 21V17C23.9989 16.4004 23.8182 15.8149 23.4811 15.319C23.1441 14.8231 22.6661 14.4396 22.109 14.218C23.005 12.3555 24.4087 10.7838 26.1585 9.68378C27.9083 8.58379 29.9332 8.00022 32 8.00022C34.0669 8.00022 36.0917 8.58379 37.8415 9.68378C39.5913 10.7838 40.995 12.3555 41.891 14.218C41.3339 14.4396 40.856 14.8231 40.5189 15.319C40.1819 15.8149 40.0011 16.4004 40 17V21C40 21.7956 40.3161 22.5587 40.8787 23.1213C41.4413 23.6839 42.2044 24 43 24V26H39V25C39 24.2043 38.6839 23.4413 38.1213 22.8787C37.5587 22.3161 36.7957 22 36 22ZM17.318 16H19.363C19.2026 16.6571 19.0939 17.3259 19.038 18H17.038C17.0862 17.3278 17.1797 16.6596 17.318 16V16ZM46.967 18H44.967C44.9111 17.3259 44.8025 16.6571 44.642 16H46.687C46.8253 16.6596 46.9189 17.3278 46.967 18ZM49 16C49.2652 16 49.5196 16.1054 49.7071 16.2929C49.8947 16.4804 50 16.7348 50 17V21C50 21.2652 49.8947 21.5196 49.7071 21.7071C49.5196 21.8946 49.2652 22 49 22H43C42.7348 22 42.4804 21.8946 42.2929 21.7071C42.1054 21.5196 42 21.2652 42 21V17C42.0011 16.8064 42.0584 16.6172 42.1649 16.4555C42.2714 16.2938 42.4225 16.1664 42.6 16.089C42.8638 17.0369 42.9983 18.0161 43 19C43 19.2652 43.1054 19.5196 43.2929 19.7071C43.4804 19.8946 43.7348 20 44 20H48C48.2652 20 48.5196 19.8946 48.7071 19.7071C48.8947 19.5196 49 19.2652 49 19C48.9951 17.9937 48.901 16.9897 48.719 16H49ZM32 4C35.0999 4.00459 38.1223 4.96817 40.6529 6.75855C43.1834 8.54893 45.098 11.0784 46.134 14H43.986C43.0021 11.6315 41.3385 9.60751 39.2053 8.18369C37.0721 6.75986 34.5648 5.99998 32 5.99998C29.4353 5.99998 26.928 6.75986 24.7947 8.18369C22.6615 9.60751 20.9979 11.6315 20.014 14H17.866C18.902 11.0784 20.8166 8.54893 23.3472 6.75855C25.8777 4.96817 28.9002 4.00459 32 4V4ZM14 21V17C14 16.7348 14.1054 16.4804 14.2929 16.2929C14.4804 16.1054 14.7348 16 15 16H15.281C15.099 16.9897 15.005 17.9937 15 19C15 19.2652 15.1054 19.5196 15.2929 19.7071C15.4804 19.8946 15.7348 20 16 20H20C20.2652 20 20.5196 19.8946 20.7071 19.7071C20.8947 19.5196 21 19.2652 21 19C21.0017 18.0161 21.1363 17.0369 21.4 16.089C21.5775 16.1664 21.7287 16.2938 21.8352 16.4555C21.9417 16.6172 21.9989 16.8064 22 17V21C22 21.2652 21.8947 21.5196 21.7071 21.7071C21.5196 21.8946 21.2652 22 21 22H15C14.7348 22 14.4804 21.8946 14.2929 21.7071C14.1054 21.5196 14 21.2652 14 21ZM19 24V30H17V24H19ZM17 32H19V34C19 34.2652 18.8947 34.5196 18.7071 34.7071C18.5196 34.8946 18.2652 35 18 35C17.7348 35 17.4804 34.8946 17.2929 34.7071C17.1054 34.5196 17 34.2652 17 34V32ZM10.191 30.247C10.358 29.6029 10.7345 29.0326 11.2611 28.6258C11.7877 28.219 12.4346 27.9989 13.1 28H15V30H14C13.7348 30 13.4804 30.1054 13.2929 30.2929C13.1054 30.4804 13 30.7348 13 31C13 31.2652 13.1054 31.5196 13.2929 31.7071C13.4804 31.8946 13.7348 32 14 32H15V34C15 34.7956 15.3161 35.5587 15.8787 36.1213C16.4413 36.6839 17.2044 37 18 37C18.7957 37 19.5587 36.6839 20.1213 36.1213C20.6839 35.5587 21 34.7956 21 34V32H22C22.2652 32 22.5196 31.8946 22.7071 31.7071C22.8947 31.5196 23 31.2652 23 31C23 30.7348 22.8947 30.4804 22.7071 30.2929C22.5196 30.1054 22.2652 30 22 30H21V28H25V45C25 45.7956 25.3161 46.5587 25.8787 47.1213C26.4413 47.6839 27.2044 48 28 48H36C36.7957 48 37.5587 47.6839 38.1213 47.1213C38.6839 46.5587 39 45.7956 39 45V28H43V30H42C41.7348 30 41.4804 30.1054 41.2929 30.2929C41.1054 30.4804 41 30.7348 41 31C41 31.2652 41.1054 31.5196 41.2929 31.7071C41.4804 31.8946 41.7348 32 42 32H43V34C43 34.7956 43.3161 35.5587 43.8787 36.1213C44.4413 36.6839 45.2044 37 46 37C46.7957 37 47.5587 36.6839 48.1213 36.1213C48.6839 35.5587 49 34.7956 49 34V32H50C50.2652 32 50.5196 31.8946 50.7071 31.7071C50.8947 31.5196 51 31.2652 51 31C51 30.7348 50.8947 30.4804 50.7071 30.2929C50.5196 30.1054 50.2652 30 50 30H49V28H50.9C51.5639 28.0009 52.2087 28.2219 52.7335 28.6285C53.2583 29.0352 53.6334 29.6044 53.8 30.247L59.016 50.366C50.3638 53.5272 41.2111 55.0971 32 55C22.7859 55.0982 13.6301 53.5282 4.97502 50.366L10.191 30.247ZM54.792 60H9.20802C8.41278 59.9995 7.62819 59.8171 6.91435 59.4666C6.20051 59.1161 5.57636 58.6069 5.08969 57.978C4.60303 57.349 4.26677 56.6171 4.10667 55.8381C3.94656 55.0592 3.96686 54.2539 4.16602 53.484L4.46602 52.311C13.2903 55.506 22.6156 57.0941 32 57C41.3831 57.0936 50.707 55.5055 59.53 52.311L59.83 53.484C60.0291 54.2536 60.0495 55.0585 59.8896 55.8371C59.7297 56.6158 59.3938 57.3475 58.9076 57.9764C58.4214 58.6053 57.7977 59.1146 57.0844 59.4653C56.371 59.816 55.5869 59.9989 54.792 60V60Z" fill="#3B8686"/>
<path d="M33 36C33.2652 36 33.5196 35.8946 33.7071 35.7071C33.8946 35.5196 34 35.2652 34 35C34 34.7348 33.8946 34.4804 33.7071 34.2929C33.5196 34.1054 33.2652 34 33 34H31C30.7348 34 30.4804 34.1054 30.2929 34.2929C30.1054 34.4804 30 34.7348 30 35C30 35.2652 30.1054 35.5196 30.2929 35.7071C30.4804 35.8946 30.7348 36 31 36H33Z" fill="#3B8686"/>
</svg>
