<?xml version="1.0" encoding="UTF-8" standalone="no"?> <svg xmlns="http://www.w3.org/2000/svg" viewBox="0 0 64 64"><g id="warehouse"><path d="M61.527,20.15l-29-18a1,1,0,0,0-1.054,0l-29,18A1,1,0,0,0,2,21V61a1,1,0,0,0,1,1H61a1,1,0,0,0,1-1V21A1,1,0,0,0,61.527,20.15ZM8,26V24H56v2Zm46,2V60H42V47a1,1,0,0,0-1-1H26V33a1,1,0,0,0-1-1H10V28ZM30,48h6v4.382l-3,1.5-3-1.5ZM14,48h6v4.382l-3,1.5-3-1.5Zm-4-2V34h2v5a1,1,0,0,0,.553.9l4,2a1,1,0,0,0,.894,0l4-2A1,1,0,0,0,22,39V34h2V46Zm4-12h6v4.382l-3,1.5-3-1.5ZM10,48h2v5a1,1,0,0,0,.553.9l4,2a1,1,0,0,0,.894,0l4-2A1,1,0,0,0,22,53V48h2V60H10ZM26,60V48h2v5a1,1,0,0,0,.553.9l4,2a1,1,0,0,0,.894,0l4-2A1,1,0,0,0,38,53V48h2V60Zm34,0H56V28h1a1,1,0,0,0,1-1V23a1,1,0,0,0-1-1H7a1,1,0,0,0-1,1v4a1,1,0,0,0,1,1H8V60H4V21.556L32,4.177,60,21.556Z"/><rect x="15" y="49" width="4" height="2"/><rect x="15" y="35" width="4" height="2"/><rect x="31" y="49" width="4" height="2"/><path d="M24,13v4a1,1,0,0,0,1,1H39a1,1,0,0,0,1-1V13a1,1,0,0,0-1-1H25A1,1,0,0,0,24,13Zm2,1H38v2H26Z"/><rect x="29" y="8" width="6" height="2"/></g></svg>
