<svg xmlns="http://www.w3.org/2000/svg" xmlns:xlink="http://www.w3.org/1999/xlink" width="75" zoomAndPan="magnify" viewBox="0 0 56.879997 56.999997" height="75" preserveAspectRatio="xMidYMid meet" version="1.0"><defs><clipPath id="06f911fc31"><path d="M 1.078125 1.136719 L 55.710938 1.136719 L 55.710938 55.769531 L 1.078125 55.769531 Z M 1.078125 1.136719 " clip-rule="nonzero"/></clipPath></defs><path fill="#6938ef" d="M 39.507812 17.914062 L 34.859375 39.777344 C 34.628906 40.859375 33.339844 41.339844 32.445312 40.695312 L 21.375 32.457031 L 33.59375 21.410156 C 33.59375 21.410156 34.421875 20.742188 34.191406 20.535156 C 33.941406 20.285156 33.042969 20.835938 32.558594 21.160156 C 32.097656 21.480469 17.601562 30.640625 17.601562 30.640625 L 10.28125 28.339844 C 9.453125 28.085938 9.453125 26.957031 10.648438 26.453125 L 37.667969 16.050781 C 38.820312 15.472656 39.761719 16.808594 39.507812 17.914062 Z M 39.507812 17.914062 " fill-opacity="1" fill-rule="nonzero"/><g clip-path="url(#06f911fc31)"><path fill="#6938ef" d="M 28.394531 55.769531 C 13.34375 55.769531 1.078125 43.527344 1.078125 28.453125 C 1.078125 13.402344 13.34375 1.136719 28.394531 1.136719 C 43.46875 1.136719 55.710938 13.402344 55.710938 28.453125 C 55.710938 43.527344 43.46875 55.769531 28.394531 55.769531 Z M 28.394531 2.632812 C 14.148438 2.632812 2.570312 14.207031 2.570312 28.453125 C 2.570312 42.699219 14.148438 54.273438 28.394531 54.273438 C 42.640625 54.273438 54.214844 42.699219 54.214844 28.453125 C 54.214844 14.207031 42.640625 2.632812 28.394531 2.632812 Z M 28.394531 2.632812 " fill-opacity="1" fill-rule="nonzero"/></g></svg>