<svg xmlns="http://www.w3.org/2000/svg" xmlns:xlink="http://www.w3.org/1999/xlink" width="75" zoomAndPan="magnify" viewBox="0 0 56.879997 56.999997" height="75" preserveAspectRatio="xMidYMid meet" version="1.0"><defs><clipPath id="ddc80bce02"><path d="M 19 38 L 40 38 L 40 45.902344 L 19 45.902344 Z M 19 38 " clip-rule="nonzero"/></clipPath><clipPath id="14399a9aad"><path d="M 37 21 L 46.816406 21 L 46.816406 42 L 37 42 Z M 37 21 " clip-rule="nonzero"/></clipPath><clipPath id="b1aa294fb2"><path d="M 9.398438 19 L 22 19 L 22 42 L 9.398438 42 Z M 9.398438 19 " clip-rule="nonzero"/></clipPath><clipPath id="a0b6f85154"><path d="M 28 10.726562 L 45 10.726562 L 45 24 L 28 24 Z M 28 10.726562 " clip-rule="nonzero"/></clipPath></defs><g clip-path="url(#ddc80bce02)"><path fill="#7d1a2a" d="M 35.328125 39.023438 C 31.957031 41.101562 27.65625 41.285156 24.097656 39.503906 L 23.5625 39.238281 L 19.300781 42.636719 L 20.441406 43.351562 C 20.707031 43.515625 20.976562 43.675781 21.246094 43.824219 C 22.1875 44.34375 23.191406 44.777344 24.21875 45.105469 C 25.234375 45.429688 26.289062 45.65625 27.351562 45.78125 C 27.996094 45.855469 28.644531 45.894531 29.292969 45.894531 C 29.714844 45.894531 30.136719 45.878906 30.558594 45.84375 C 31.632812 45.761719 32.707031 45.574219 33.742188 45.285156 C 35.378906 44.828125 36.929688 44.128906 38.351562 43.199219 L 39.222656 42.632812 L 36.042969 38.582031 L 35.328125 39.023438 " fill-opacity="1" fill-rule="nonzero"/></g><g clip-path="url(#14399a9aad)"><path fill="#e9a4af" d="M 46.707031 27 C 46.625 25.914062 46.4375 24.835938 46.148438 23.789062 C 46.070312 23.492188 45.976562 23.191406 45.875 22.890625 L 45.449219 21.613281 L 41.1875 25.011719 L 41.324219 25.601562 C 42.230469 29.496094 41.066406 33.675781 38.285156 36.503906 L 37.699219 37.101562 L 40.878906 41.152344 L 41.628906 40.425781 C 42.851562 39.246094 43.886719 37.882812 44.699219 36.382812 C 45.214844 35.433594 45.644531 34.425781 45.96875 33.386719 C 46.292969 32.363281 46.519531 31.300781 46.640625 30.230469 C 46.765625 29.160156 46.785156 28.070312 46.707031 27 " fill-opacity="1" fill-rule="nonzero"/></g><g clip-path="url(#b1aa294fb2)"><path fill="#e9a4af" d="M 20.894531 37.09375 C 20.363281 36.625 19.871094 36.105469 19.433594 35.546875 C 17.617188 33.234375 16.75 30.351562 16.960938 27.445312 C 17.417969 27.761719 17.902344 28.039062 18.367188 28.253906 L 19.015625 28.550781 C 19.460938 28.753906 19.980469 28.644531 20.308594 28.277344 C 20.636719 27.910156 20.6875 27.378906 20.4375 26.949219 L 20.074219 26.335938 C 18.984375 24.472656 18.410156 22.546875 18.410156 20.757812 L 18.410156 20.203125 C 18.410156 19.746094 18.140625 19.335938 17.71875 19.160156 C 17.296875 18.988281 16.816406 19.085938 16.496094 19.414062 L 16.113281 19.804688 C 14.664062 21.285156 12.59375 22.03125 10.953125 22.511719 L 10.261719 22.71875 C 9.789062 22.855469 9.464844 23.285156 9.457031 23.78125 C 9.449219 24.277344 9.757812 24.714844 10.226562 24.867188 L 10.914062 25.09375 C 11.300781 25.226562 11.683594 25.332031 12.050781 25.421875 C 12 25.730469 11.953125 26.035156 11.917969 26.34375 C 11.796875 27.414062 11.773438 28.5 11.855469 29.574219 C 11.9375 30.65625 12.121094 31.738281 12.410156 32.78125 C 13.007812 34.960938 14.019531 36.964844 15.421875 38.746094 C 15.921875 39.386719 16.472656 39.992188 17.058594 40.550781 L 17.648438 41.113281 L 21.746094 37.84375 L 20.894531 37.09375 " fill-opacity="1" fill-rule="nonzero"/></g><g clip-path="url(#a0b6f85154)"><path fill="#7d1a2a" d="M 30.730469 15.933594 C 33.765625 16.320312 36.484375 17.859375 38.375 20.269531 C 38.816406 20.828125 39.207031 21.429688 39.535156 22.058594 L 40.066406 23.066406 L 44.164062 19.796875 L 43.753906 19.085938 C 43.351562 18.386719 42.890625 17.707031 42.386719 17.066406 C 40.988281 15.285156 39.28125 13.832031 37.316406 12.746094 C 36.371094 12.226562 35.371094 11.796875 34.34375 11.46875 C 33.324219 11.144531 32.269531 10.914062 31.210938 10.792969 L 31.195312 10.789062 C 30.625 10.722656 30.050781 10.90625 29.621094 11.292969 C 29.191406 11.679688 28.941406 12.238281 28.941406 12.820312 L 28.941406 13.894531 C 28.941406 14.929688 29.710938 15.804688 30.730469 15.933594 " fill-opacity="1" fill-rule="nonzero"/></g></svg>