<svg width="87" height="88" viewBox="0 0 87 88" fill="none" xmlns="http://www.w3.org/2000/svg">
<path d="M79.961 42.546L68.6775 40.04C68.5857 39.4101 68.4678 38.6998 68.3236 38.1504L78.1787 32.4951C80.0378 31.2151 81.3578 29.2667 81.8764 27.0371C82.3951 24.8075 82.0745 22.46 80.9782 20.4611C79.882 18.4622 78.0903 16.9582 75.9594 16.248C73.8286 15.5379 71.5144 15.6736 69.4769 16.6282L59.1107 22.5783C58.9403 22.6721 58.8092 22.7927 58.652 22.8999C58.154 22.5247 57.6429 22.1629 57.1187 21.8279L59.399 11.0399C59.8978 8.6764 59.4579 6.20707 58.1762 4.17515C56.8945 2.14323 54.876 0.715188 52.5647 0.205161C50.2533 -0.304866 47.8385 0.144912 45.8515 1.45554C43.8644 2.76617 42.4679 4.83029 41.9691 7.19383L39.6888 17.9147C38.8067 18.0352 37.9317 18.2052 37.0678 18.424C36.8799 18.0651 36.6743 17.7163 36.4519 17.3787L29.2964 7.70308C27.8731 5.77315 25.7584 4.50044 23.4174 4.16492C21.0765 3.82941 18.7011 4.4586 16.8138 5.91404C14.9265 7.36949 13.6819 9.53195 13.3538 11.9258C13.0257 14.3196 13.641 16.7487 15.0643 18.6786L22.2197 28.3944C22.2197 28.4748 22.3507 28.5284 22.4162 28.6088C22.1672 28.9572 21.9576 29.3191 21.7217 29.6675L10.8051 27.2553C8.49393 26.7457 6.07945 27.1946 4.0917 28.5037C2.10395 29.8127 0.705369 31.8748 0.203008 34.2373C-0.0455521 35.4076 -0.0660766 36.6166 0.142617 37.7951C0.351311 38.9735 0.785131 40.0984 1.41926 41.1053C2.05338 42.1122 2.87539 42.9814 3.83826 43.6632C4.80113 44.345 5.886 44.826 7.0308 45.0788L17.8556 47.4775C17.8556 47.7456 17.9212 48.0136 17.9605 48.2816H17.8687L7.48949 54.2317C5.51794 55.4627 4.08994 57.4274 3.50577 59.7128C2.92161 61.9982 3.22677 64.4262 4.3571 66.4863C5.48743 68.5464 7.35488 70.078 9.56677 70.7592C11.7787 71.4404 14.1626 71.218 16.2175 70.1388L26.5968 64.1887C26.6754 64.1887 26.7278 64.0815 26.8065 64.0413C27.6393 64.753 28.5147 65.411 29.4275 66.0113L27.1603 76.7322C26.8809 77.9155 26.8359 79.1439 27.0278 80.3453C27.2198 81.5467 27.6448 82.6966 28.2779 83.7275C28.911 84.7583 29.7394 85.6492 30.7143 86.3478C31.6892 87.0463 32.7909 87.5384 33.9545 87.795C35.1182 88.0515 36.3203 88.0675 37.49 87.8418C38.6598 87.6162 39.7736 87.1535 40.7659 86.481C41.7582 85.8086 42.6089 84.9399 43.2679 83.9262C43.9269 82.9125 44.3809 81.7742 44.6033 80.5783L46.8573 69.8574C47.5126 69.7636 48.1679 69.643 48.81 69.4956L55.7426 78.8763C56.4078 79.9201 57.275 80.8135 58.2906 81.5015C59.3063 82.1896 60.449 82.6577 61.6482 82.8771C62.8475 83.0964 64.078 83.0623 65.2639 82.7769C66.4498 82.4916 67.566 81.9609 68.5438 81.2177C69.5216 80.4744 70.3401 79.5344 70.9491 78.4554C71.5581 77.3764 71.9447 76.1813 72.0849 74.9437C72.2251 73.7062 72.116 72.4524 71.7644 71.2596C71.4128 70.0667 70.826 68.9602 70.0404 68.008L63.881 59.6324C64.2741 59.0829 64.6542 58.5201 65.008 57.9304L76.1867 60.4096C77.3312 60.6638 78.5135 60.6848 79.6659 60.4714C80.8183 60.2579 81.9184 59.8143 82.903 59.1659C83.8877 58.5174 84.7377 57.6769 85.4044 56.6923C86.0712 55.7077 86.5416 54.5983 86.7887 53.4276C87.0431 52.2545 87.068 51.0414 86.8621 49.8584C86.6562 48.6753 86.2235 47.5456 85.5889 46.5342C84.9543 45.5228 84.1303 44.6497 83.1644 43.9653C82.1986 43.2808 81.1099 42.7984 79.961 42.546Z" fill="#FFC1EB"/>
<path d="M79.961 42.546L68.6775 40.04C68.5857 39.4101 68.4678 38.6998 68.3236 38.1504L78.1787 32.4951C80.0378 31.2151 81.3578 29.2667 81.8764 27.0371C82.3951 24.8075 82.0745 22.46 80.9782 20.4611C79.882 18.4622 78.0903 16.9582 75.9594 16.248C73.8286 15.5379 71.5144 15.6736 69.4769 16.6282L59.1107 22.5783C58.9403 22.6721 58.8092 22.7927 58.652 22.8999C58.154 22.5247 57.6429 22.1629 57.1187 21.8279L59.399 11.0399C59.8978 8.6764 59.4579 6.20707 58.1762 4.17515C56.8945 2.14323 54.876 0.715188 52.5647 0.205161C50.2533 -0.304866 47.8385 0.144912 45.8515 1.45554C43.8644 2.76617 42.4679 4.83029 41.9691 7.19383L39.6888 17.9147C38.8067 18.0352 37.9317 18.2052 37.0678 18.424C36.8799 18.0651 36.6743 17.7163 36.4519 17.3787L29.2964 7.70308C27.8731 5.77315 25.7584 4.50044 23.4174 4.16492C21.0765 3.82941 18.7011 4.4586 16.8138 5.91404C14.9265 7.36949 13.6819 9.53195 13.3538 11.9258C13.0257 14.3196 13.641 16.7487 15.0643 18.6786L22.2197 28.3944C22.2197 28.4748 22.3507 28.5284 22.4162 28.6088C22.1672 28.9572 21.9576 29.3191 21.7217 29.6675L10.8051 27.2553C8.49393 26.7457 6.07945 27.1946 4.0917 28.5037C2.10395 29.8127 0.705369 31.8748 0.203008 34.2373C-0.0455521 35.4076 -0.0660766 36.6166 0.142617 37.7951C0.351311 38.9735 0.785131 40.0984 1.41926 41.1053C2.05338 42.1122 2.87539 42.9814 3.83826 43.6632C4.80113 44.345 5.886 44.826 7.0308 45.0788L17.8556 47.4775C17.8556 47.7456 17.9212 48.0136 17.9605 48.2816H17.8687L7.48949 54.2317C5.51794 55.4627 4.08994 57.4274 3.50577 59.7128C2.92161 61.9982 3.22677 64.4262 4.3571 66.4863C5.48743 68.5464 7.35488 70.078 9.56677 70.7592C11.7787 71.4404 14.1626 71.218 16.2175 70.1388L26.5968 64.1887C26.6754 64.1887 26.7278 64.0815 26.8065 64.0413C27.6393 64.753 28.5147 65.411 29.4275 66.0113L27.1603 76.7322C26.8809 77.9155 26.8359 79.1439 27.0278 80.3453C27.2198 81.5467 27.6448 82.6966 28.2779 83.7275C28.911 84.7583 29.7394 85.6492 30.7143 86.3478C31.6892 87.0463 32.7909 87.5384 33.9545 87.795C35.1182 88.0515 36.3203 88.0675 37.49 87.8418C38.6598 87.6162 39.7736 87.1535 40.7659 86.481C41.7582 85.8086 42.6089 84.9399 43.2679 83.9262C43.9269 82.9125 44.3809 81.7742 44.6033 80.5783L46.8573 69.8574C47.5126 69.7636 48.1679 69.643 48.81 69.4956L55.7426 78.8763C56.4078 79.9201 57.275 80.8135 58.2906 81.5015C59.3063 82.1896 60.449 82.6577 61.6482 82.8771C62.8475 83.0964 64.078 83.0623 65.2639 82.7769C66.4498 82.4916 67.566 81.9609 68.5438 81.2177C69.5216 80.4744 70.3401 79.5344 70.9491 78.4554C71.5581 77.3764 71.9447 76.1813 72.0849 74.9437C72.2251 73.7062 72.116 72.4524 71.7644 71.2596C71.4128 70.0667 70.826 68.9602 70.0404 68.008L63.881 59.6324C64.2741 59.0829 64.6542 58.5201 65.008 57.9304L76.1867 60.4096C77.3312 60.6638 78.5135 60.6848 79.6659 60.4714C80.8183 60.2579 81.9184 59.8143 82.903 59.1659C83.8877 58.5174 84.7377 57.6769 85.4044 56.6923C86.0712 55.7077 86.5416 54.5983 86.7887 53.4276C87.0431 52.2545 87.068 51.0414 86.8621 49.8584C86.6562 48.6753 86.2235 47.5456 85.5889 46.5342C84.9543 45.5228 84.1303 44.6497 83.1644 43.9653C82.1986 43.2808 81.1099 42.7984 79.961 42.546Z" fill="#FFC1EB"/>
<path d="M79.961 42.546L68.6775 40.04C68.5857 39.4101 68.4678 38.6998 68.3236 38.1504L78.1787 32.4951C80.0378 31.2151 81.3578 29.2667 81.8764 27.0371C82.3951 24.8075 82.0745 22.46 80.9782 20.4611C79.882 18.4622 78.0903 16.9582 75.9594 16.248C73.8286 15.5379 71.5144 15.6736 69.4769 16.6282L59.1107 22.5783C58.9403 22.6721 58.8092 22.7927 58.652 22.8999C58.154 22.5247 57.6429 22.1629 57.1187 21.8279L59.399 11.0399C59.8978 8.6764 59.4579 6.20707 58.1762 4.17515C56.8945 2.14323 54.876 0.715188 52.5647 0.205161C50.2533 -0.304866 47.8385 0.144912 45.8515 1.45554C43.8644 2.76617 42.4679 4.83029 41.9691 7.19383L39.6888 17.9147C38.8067 18.0352 37.9317 18.2052 37.0678 18.424C36.8799 18.0651 36.6743 17.7163 36.4519 17.3787L29.2964 7.70308C27.8731 5.77315 25.7584 4.50044 23.4174 4.16492C21.0765 3.82941 18.7011 4.4586 16.8138 5.91404C14.9265 7.36949 13.6819 9.53195 13.3538 11.9258C13.0257 14.3196 13.641 16.7487 15.0643 18.6786L22.2197 28.3944C22.2197 28.4748 22.3507 28.5284 22.4162 28.6088C22.1672 28.9572 21.9576 29.3191 21.7217 29.6675L10.8051 27.2553C8.49393 26.7457 6.07945 27.1946 4.0917 28.5037C2.10395 29.8127 0.705369 31.8748 0.203008 34.2373C-0.0455521 35.4076 -0.0660766 36.6166 0.142617 37.7951C0.351311 38.9735 0.785131 40.0984 1.41926 41.1053C2.05338 42.1122 2.87539 42.9814 3.83826 43.6632C4.80113 44.345 5.886 44.826 7.0308 45.0788L17.8556 47.4775C17.8556 47.7456 17.9212 48.0136 17.9605 48.2816H17.8687L7.48949 54.2317C5.51794 55.4627 4.08994 57.4274 3.50577 59.7128C2.92161 61.9982 3.22677 64.4262 4.3571 66.4863C5.48743 68.5464 7.35488 70.078 9.56677 70.7592C11.7787 71.4404 14.1626 71.218 16.2175 70.1388L26.5968 64.1887C26.6754 64.1887 26.7278 64.0815 26.8065 64.0413C27.6393 64.753 28.5147 65.411 29.4275 66.0113L27.1603 76.7322C26.8809 77.9155 26.8359 79.1439 27.0278 80.3453C27.2198 81.5467 27.6448 82.6966 28.2779 83.7275C28.911 84.7583 29.7394 85.6492 30.7143 86.3478C31.6892 87.0463 32.7909 87.5384 33.9545 87.795C35.1182 88.0515 36.3203 88.0675 37.49 87.8418C38.6598 87.6162 39.7736 87.1535 40.7659 86.481C41.7582 85.8086 42.6089 84.9399 43.2679 83.9262C43.9269 82.9125 44.3809 81.7742 44.6033 80.5783L46.8573 69.8574C47.5126 69.7636 48.1679 69.643 48.81 69.4956L55.7426 78.8763C56.4078 79.9201 57.275 80.8135 58.2906 81.5015C59.3063 82.1896 60.449 82.6577 61.6482 82.8771C62.8475 83.0964 64.078 83.0623 65.2639 82.7769C66.4498 82.4916 67.566 81.9609 68.5438 81.2177C69.5216 80.4744 70.3401 79.5344 70.9491 78.4554C71.5581 77.3764 71.9447 76.1813 72.0849 74.9437C72.2251 73.7062 72.116 72.4524 71.7644 71.2596C71.4128 70.0667 70.826 68.9602 70.0404 68.008L63.881 59.6324C64.2741 59.0829 64.6542 58.5201 65.008 57.9304L76.1867 60.4096C77.3312 60.6638 78.5135 60.6848 79.6659 60.4714C80.8183 60.2579 81.9184 59.8143 82.903 59.1659C83.8877 58.5174 84.7377 57.6769 85.4044 56.6923C86.0712 55.7077 86.5416 54.5983 86.7887 53.4276C87.0431 52.2545 87.068 51.0414 86.8621 49.8584C86.6562 48.6753 86.2235 47.5456 85.5889 46.5342C84.9543 45.5228 84.1303 44.6497 83.1644 43.9653C82.1986 43.2808 81.1099 42.7984 79.961 42.546Z" fill="#FFC1EB"/>
<path d="M79.961 42.546L68.6775 40.04C68.5857 39.4101 68.4678 38.6998 68.3236 38.1504L78.1787 32.4951C80.0378 31.2151 81.3578 29.2667 81.8764 27.0371C82.3951 24.8075 82.0745 22.46 80.9782 20.4611C79.882 18.4622 78.0903 16.9582 75.9594 16.248C73.8286 15.5379 71.5144 15.6736 69.4769 16.6282L59.1107 22.5783C58.9403 22.6721 58.8092 22.7927 58.652 22.8999C58.154 22.5247 57.6429 22.1629 57.1187 21.8279L59.399 11.0399C59.8978 8.6764 59.4579 6.20707 58.1762 4.17515C56.8945 2.14323 54.876 0.715188 52.5647 0.205161C50.2533 -0.304866 47.8385 0.144912 45.8515 1.45554C43.8644 2.76617 42.4679 4.83029 41.9691 7.19383L39.6888 17.9147C38.8067 18.0352 37.9317 18.2052 37.0678 18.424C36.8799 18.0651 36.6743 17.7163 36.4519 17.3787L29.2964 7.70308C27.8731 5.77315 25.7584 4.50044 23.4174 4.16492C21.0765 3.82941 18.7011 4.4586 16.8138 5.91404C14.9265 7.36949 13.6819 9.53195 13.3538 11.9258C13.0257 14.3196 13.641 16.7487 15.0643 18.6786L22.2197 28.3944C22.2197 28.4748 22.3507 28.5284 22.4162 28.6088C22.1672 28.9572 21.9576 29.3191 21.7217 29.6675L10.8051 27.2553C8.49393 26.7457 6.07945 27.1946 4.0917 28.5037C2.10395 29.8127 0.705369 31.8748 0.203008 34.2373C-0.0455521 35.4076 -0.0660766 36.6166 0.142617 37.7951C0.351311 38.9735 0.785131 40.0984 1.41926 41.1053C2.05338 42.1122 2.87539 42.9814 3.83826 43.6632C4.80113 44.345 5.886 44.826 7.0308 45.0788L17.8556 47.4775C17.8556 47.7456 17.9212 48.0136 17.9605 48.2816H17.8687L7.48949 54.2317C5.51794 55.4627 4.08994 57.4274 3.50577 59.7128C2.92161 61.9982 3.22677 64.4262 4.3571 66.4863C5.48743 68.5464 7.35488 70.078 9.56677 70.7592C11.7787 71.4404 14.1626 71.218 16.2175 70.1388L26.5968 64.1887C26.6754 64.1887 26.7278 64.0815 26.8065 64.0413C27.6393 64.753 28.5147 65.411 29.4275 66.0113L27.1603 76.7322C26.8809 77.9155 26.8359 79.1439 27.0278 80.3453C27.2198 81.5467 27.6448 82.6966 28.2779 83.7275C28.911 84.7583 29.7394 85.6492 30.7143 86.3478C31.6892 87.0463 32.7909 87.5384 33.9545 87.795C35.1182 88.0515 36.3203 88.0675 37.49 87.8418C38.6598 87.6162 39.7736 87.1535 40.7659 86.481C41.7582 85.8086 42.6089 84.9399 43.2679 83.9262C43.9269 82.9125 44.3809 81.7742 44.6033 80.5783L46.8573 69.8574C47.5126 69.7636 48.1679 69.643 48.81 69.4956L55.7426 78.8763C56.4078 79.9201 57.275 80.8135 58.2906 81.5015C59.3063 82.1896 60.449 82.6577 61.6482 82.8771C62.8475 83.0964 64.078 83.0623 65.2639 82.7769C66.4498 82.4916 67.566 81.9609 68.5438 81.2177C69.5216 80.4744 70.3401 79.5344 70.9491 78.4554C71.5581 77.3764 71.9447 76.1813 72.0849 74.9437C72.2251 73.7062 72.116 72.4524 71.7644 71.2596C71.4128 70.0667 70.826 68.9602 70.0404 68.008L63.881 59.6324C64.2741 59.0829 64.6542 58.5201 65.008 57.9304L76.1867 60.4096C77.3312 60.6638 78.5135 60.6848 79.6659 60.4714C80.8183 60.2579 81.9184 59.8143 82.903 59.1659C83.8877 58.5174 84.7377 57.6769 85.4044 56.6923C86.0712 55.7077 86.5416 54.5983 86.7887 53.4276C87.0431 52.2545 87.068 51.0414 86.8621 49.8584C86.6562 48.6753 86.2235 47.5456 85.5889 46.5342C84.9543 45.5228 84.1303 44.6497 83.1644 43.9653C82.1986 43.2808 81.1099 42.7984 79.961 42.546Z" fill="#FFC1EB"/>
<path d="M79.961 42.546L68.6775 40.04C68.5857 39.4101 68.4678 38.6998 68.3236 38.1504L78.1787 32.4951C80.0378 31.2151 81.3578 29.2667 81.8764 27.0371C82.3951 24.8075 82.0745 22.46 80.9782 20.4611C79.882 18.4622 78.0903 16.9582 75.9594 16.248C73.8286 15.5379 71.5144 15.6736 69.4769 16.6282L59.1107 22.5783C58.9403 22.6721 58.8092 22.7927 58.652 22.8999C58.154 22.5247 57.6429 22.1629 57.1187 21.8279L59.399 11.0399C59.8978 8.6764 59.4579 6.20707 58.1762 4.17515C56.8945 2.14323 54.876 0.715188 52.5647 0.205161C50.2533 -0.304866 47.8385 0.144912 45.8515 1.45554C43.8644 2.76617 42.4679 4.83029 41.9691 7.19383L39.6888 17.9147C38.8067 18.0352 37.9317 18.2052 37.0678 18.424C36.8799 18.0651 36.6743 17.7163 36.4519 17.3787L29.2964 7.70308C27.8731 5.77315 25.7584 4.50044 23.4174 4.16492C21.0765 3.82941 18.7011 4.4586 16.8138 5.91404C14.9265 7.36949 13.6819 9.53195 13.3538 11.9258C13.0257 14.3196 13.641 16.7487 15.0643 18.6786L22.2197 28.3944C22.2197 28.4748 22.3507 28.5284 22.4162 28.6088C22.1672 28.9572 21.9576 29.3191 21.7217 29.6675L10.8051 27.2553C8.49393 26.7457 6.07945 27.1946 4.0917 28.5037C2.10395 29.8127 0.705369 31.8748 0.203008 34.2373C-0.0455521 35.4076 -0.0660766 36.6166 0.142617 37.7951C0.351311 38.9735 0.785131 40.0984 1.41926 41.1053C2.05338 42.1122 2.87539 42.9814 3.83826 43.6632C4.80113 44.345 5.886 44.826 7.0308 45.0788L17.8556 47.4775C17.8556 47.7456 17.9212 48.0136 17.9605 48.2816H17.8687L7.48949 54.2317C5.51794 55.4627 4.08994 57.4274 3.50577 59.7128C2.92161 61.9982 3.22677 64.4262 4.3571 66.4863C5.48743 68.5464 7.35488 70.078 9.56677 70.7592C11.7787 71.4404 14.1626 71.218 16.2175 70.1388L26.5968 64.1887C26.6754 64.1887 26.7278 64.0815 26.8065 64.0413C27.6393 64.753 28.5147 65.411 29.4275 66.0113L27.1603 76.7322C26.8809 77.9155 26.8359 79.1439 27.0278 80.3453C27.2198 81.5467 27.6448 82.6966 28.2779 83.7275C28.911 84.7583 29.7394 85.6492 30.7143 86.3478C31.6892 87.0463 32.7909 87.5384 33.9545 87.795C35.1182 88.0515 36.3203 88.0675 37.49 87.8418C38.6598 87.6162 39.7736 87.1535 40.7659 86.481C41.7582 85.8086 42.6089 84.9399 43.2679 83.9262C43.9269 82.9125 44.3809 81.7742 44.6033 80.5783L46.8573 69.8574C47.5126 69.7636 48.1679 69.643 48.81 69.4956L55.7426 78.8763C56.4078 79.9201 57.275 80.8135 58.2906 81.5015C59.3063 82.1896 60.449 82.6577 61.6482 82.8771C62.8475 83.0964 64.078 83.0623 65.2639 82.7769C66.4498 82.4916 67.566 81.9609 68.5438 81.2177C69.5216 80.4744 70.3401 79.5344 70.9491 78.4554C71.5581 77.3764 71.9447 76.1813 72.0849 74.9437C72.2251 73.7062 72.116 72.4524 71.7644 71.2596C71.4128 70.0667 70.826 68.9602 70.0404 68.008L63.881 59.6324C64.2741 59.0829 64.6542 58.5201 65.008 57.9304L76.1867 60.4096C77.3312 60.6638 78.5135 60.6848 79.6659 60.4714C80.8183 60.2579 81.9184 59.8143 82.903 59.1659C83.8877 58.5174 84.7377 57.6769 85.4044 56.6923C86.0712 55.7077 86.5416 54.5983 86.7887 53.4276C87.0431 52.2545 87.068 51.0414 86.8621 49.8584C86.6562 48.6753 86.2235 47.5456 85.5889 46.5342C84.9543 45.5228 84.1303 44.6497 83.1644 43.9653C82.1986 43.2808 81.1099 42.7984 79.961 42.546Z" fill="#FFC1EB"/>
<path d="M79.961 42.546L68.6775 40.04C68.5857 39.4101 68.4678 38.6998 68.3236 38.1504L78.1787 32.4951C80.0378 31.2151 81.3578 29.2667 81.8764 27.0371C82.3951 24.8075 82.0745 22.46 80.9782 20.4611C79.882 18.4622 78.0903 16.9582 75.9594 16.248C73.8286 15.5379 71.5144 15.6736 69.4769 16.6282L59.1107 22.5783C58.9403 22.6721 58.8092 22.7927 58.652 22.8999C58.154 22.5247 57.6429 22.1629 57.1187 21.8279L59.399 11.0399C59.8978 8.6764 59.4579 6.20707 58.1762 4.17515C56.8945 2.14323 54.876 0.715188 52.5647 0.205161C50.2533 -0.304866 47.8385 0.144912 45.8515 1.45554C43.8644 2.76617 42.4679 4.83029 41.9691 7.19383L39.6888 17.9147C38.8067 18.0352 37.9317 18.2052 37.0678 18.424C36.8799 18.0651 36.6743 17.7163 36.4519 17.3787L29.2964 7.70308C27.8731 5.77315 25.7584 4.50044 23.4174 4.16492C21.0765 3.82941 18.7011 4.4586 16.8138 5.91404C14.9265 7.36949 13.6819 9.53195 13.3538 11.9258C13.0257 14.3196 13.641 16.7487 15.0643 18.6786L22.2197 28.3944C22.2197 28.4748 22.3507 28.5284 22.4162 28.6088C22.1672 28.9572 21.9576 29.3191 21.7217 29.6675L10.8051 27.2553C8.49393 26.7457 6.07945 27.1946 4.0917 28.5037C2.10395 29.8127 0.705369 31.8748 0.203008 34.2373C-0.0455521 35.4076 -0.0660766 36.6166 0.142617 37.7951C0.351311 38.9735 0.785131 40.0984 1.41926 41.1053C2.05338 42.1122 2.87539 42.9814 3.83826 43.6632C4.80113 44.345 5.886 44.826 7.0308 45.0788L17.8556 47.4775C17.8556 47.7456 17.9212 48.0136 17.9605 48.2816H17.8687L7.48949 54.2317C5.51794 55.4627 4.08994 57.4274 3.50577 59.7128C2.92161 61.9982 3.22677 64.4262 4.3571 66.4863C5.48743 68.5464 7.35488 70.078 9.56677 70.7592C11.7787 71.4404 14.1626 71.218 16.2175 70.1388L26.5968 64.1887C26.6754 64.1887 26.7278 64.0815 26.8065 64.0413C27.6393 64.753 28.5147 65.411 29.4275 66.0113L27.1603 76.7322C26.8809 77.9155 26.8359 79.1439 27.0278 80.3453C27.2198 81.5467 27.6448 82.6966 28.2779 83.7275C28.911 84.7583 29.7394 85.6492 30.7143 86.3478C31.6892 87.0463 32.7909 87.5384 33.9545 87.795C35.1182 88.0515 36.3203 88.0675 37.49 87.8418C38.6598 87.6162 39.7736 87.1535 40.7659 86.481C41.7582 85.8086 42.6089 84.9399 43.2679 83.9262C43.9269 82.9125 44.3809 81.7742 44.6033 80.5783L46.8573 69.8574C47.5126 69.7636 48.1679 69.643 48.81 69.4956L55.7426 78.8763C56.4078 79.9201 57.275 80.8135 58.2906 81.5015C59.3063 82.1896 60.449 82.6577 61.6482 82.8771C62.8475 83.0964 64.078 83.0623 65.2639 82.7769C66.4498 82.4916 67.566 81.9609 68.5438 81.2177C69.5216 80.4744 70.3401 79.5344 70.9491 78.4554C71.5581 77.3764 71.9447 76.1813 72.0849 74.9437C72.2251 73.7062 72.116 72.4524 71.7644 71.2596C71.4128 70.0667 70.826 68.9602 70.0404 68.008L63.881 59.6324C64.2741 59.0829 64.6542 58.5201 65.008 57.9304L76.1867 60.4096C77.3312 60.6638 78.5135 60.6848 79.6659 60.4714C80.8183 60.2579 81.9184 59.8143 82.903 59.1659C83.8877 58.5174 84.7377 57.6769 85.4044 56.6923C86.0712 55.7077 86.5416 54.5983 86.7887 53.4276C87.0431 52.2545 87.068 51.0414 86.8621 49.8584C86.6562 48.6753 86.2235 47.5456 85.5889 46.5342C84.9543 45.5228 84.1303 44.6497 83.1644 43.9653C82.1986 43.2808 81.1099 42.7984 79.961 42.546Z" fill="#FFC1EB"/>
<path d="M79.961 42.546L68.6775 40.04C68.5857 39.4101 68.4678 38.6998 68.3236 38.1504L78.1787 32.4951C80.0378 31.2151 81.3578 29.2667 81.8764 27.0371C82.3951 24.8075 82.0745 22.46 80.9782 20.4611C79.882 18.4622 78.0903 16.9582 75.9594 16.248C73.8286 15.5379 71.5144 15.6736 69.4769 16.6282L59.1107 22.5783C58.9403 22.6721 58.8092 22.7927 58.652 22.8999C58.154 22.5247 57.6429 22.1629 57.1187 21.8279L59.399 11.0399C59.8978 8.6764 59.4579 6.20707 58.1762 4.17515C56.8945 2.14323 54.876 0.715188 52.5647 0.205161C50.2533 -0.304866 47.8385 0.144912 45.8515 1.45554C43.8644 2.76617 42.4679 4.83029 41.9691 7.19383L39.6888 17.9147C38.8067 18.0352 37.9317 18.2052 37.0678 18.424C36.8799 18.0651 36.6743 17.7163 36.4519 17.3787L29.2964 7.70308C27.8731 5.77315 25.7584 4.50044 23.4174 4.16492C21.0765 3.82941 18.7011 4.4586 16.8138 5.91404C14.9265 7.36949 13.6819 9.53195 13.3538 11.9258C13.0257 14.3196 13.641 16.7487 15.0643 18.6786L22.2197 28.3944C22.2197 28.4748 22.3507 28.5284 22.4162 28.6088C22.1672 28.9572 21.9576 29.3191 21.7217 29.6675L10.8051 27.2553C8.49393 26.7457 6.07945 27.1946 4.0917 28.5037C2.10395 29.8127 0.705369 31.8748 0.203008 34.2373C-0.0455521 35.4076 -0.0660766 36.6166 0.142617 37.7951C0.351311 38.9735 0.785131 40.0984 1.41926 41.1053C2.05338 42.1122 2.87539 42.9814 3.83826 43.6632C4.80113 44.345 5.886 44.826 7.0308 45.0788L17.8556 47.4775C17.8556 47.7456 17.9212 48.0136 17.9605 48.2816H17.8687L7.48949 54.2317C5.51794 55.4627 4.08994 57.4274 3.50577 59.7128C2.92161 61.9982 3.22677 64.4262 4.3571 66.4863C5.48743 68.5464 7.35488 70.078 9.56677 70.7592C11.7787 71.4404 14.1626 71.218 16.2175 70.1388L26.5968 64.1887C26.6754 64.1887 26.7278 64.0815 26.8065 64.0413C27.6393 64.753 28.5147 65.411 29.4275 66.0113L27.1603 76.7322C26.8809 77.9155 26.8359 79.1439 27.0278 80.3453C27.2198 81.5467 27.6448 82.6966 28.2779 83.7275C28.911 84.7583 29.7394 85.6492 30.7143 86.3478C31.6892 87.0463 32.7909 87.5384 33.9545 87.795C35.1182 88.0515 36.3203 88.0675 37.49 87.8418C38.6598 87.6162 39.7736 87.1535 40.7659 86.481C41.7582 85.8086 42.6089 84.9399 43.2679 83.9262C43.9269 82.9125 44.3809 81.7742 44.6033 80.5783L46.8573 69.8574C47.5126 69.7636 48.1679 69.643 48.81 69.4956L55.7426 78.8763C56.4078 79.9201 57.275 80.8135 58.2906 81.5015C59.3063 82.1896 60.449 82.6577 61.6482 82.8771C62.8475 83.0964 64.078 83.0623 65.2639 82.7769C66.4498 82.4916 67.566 81.9609 68.5438 81.2177C69.5216 80.4744 70.3401 79.5344 70.9491 78.4554C71.5581 77.3764 71.9447 76.1813 72.0849 74.9437C72.2251 73.7062 72.116 72.4524 71.7644 71.2596C71.4128 70.0667 70.826 68.9602 70.0404 68.008L63.881 59.6324C64.2741 59.0829 64.6542 58.5201 65.008 57.9304L76.1867 60.4096C77.3312 60.6638 78.5135 60.6848 79.6659 60.4714C80.8183 60.2579 81.9184 59.8143 82.903 59.1659C83.8877 58.5174 84.7377 57.6769 85.4044 56.6923C86.0712 55.7077 86.5416 54.5983 86.7887 53.4276C87.0431 52.2545 87.068 51.0414 86.8621 49.8584C86.6562 48.6753 86.2235 47.5456 85.5889 46.5342C84.9543 45.5228 84.1303 44.6497 83.1644 43.9653C82.1986 43.2808 81.1099 42.7984 79.961 42.546Z" fill="#E9A4AF"/>
<path d="M44 56C50.6274 56 56 50.6274 56 44C56 37.3726 50.6274 32 44 32C37.3726 32 32 37.3726 32 44C32 50.6274 37.3726 56 44 56Z" fill="white"/>
</svg>
