<svg width="636" height="722" viewBox="0 0 636 722" fill="none" xmlns="http://www.w3.org/2000/svg">
<g filter="url(#filter0_d_438_948)">
<path d="M377.823 106.122H487.359C493.751 106.122 499.881 109.008 504.402 114.145C508.923 119.283 511.465 126.251 511.468 133.518V407.694C511.468 415.579 508.713 423.141 503.809 428.717C498.905 434.293 492.254 437.425 485.318 437.425H419.573C418.763 425.883 419.374 414.268 421.388 402.918C431.059 348.875 470.246 318.666 482.304 310.098C468.824 307.71 455.852 302.497 444.046 294.725C371.066 246.259 377.34 115.511 377.905 106.101" fill="#C7B8F8"/>
<path d="M511.468 326.641C511.323 326.639 511.178 326.61 511.041 326.555C500.564 322.228 490.614 316.403 481.431 309.219C453.303 287.121 433.496 252.756 422.562 207.06C415.095 175.851 413.601 147.012 413.67 128.313C413.67 127.934 413.802 127.571 414.038 127.303C414.273 127.035 414.593 126.885 414.926 126.885C415.259 126.885 415.578 127.035 415.814 127.303C416.049 127.571 416.182 127.934 416.182 128.313C416.113 146.834 417.588 175.394 424.974 206.296C435.75 251.314 455.224 285.143 482.85 306.848C491.854 313.897 501.613 319.61 511.889 323.849C512.167 323.964 512.4 324.186 512.548 324.477C512.696 324.769 512.749 325.11 512.697 325.441C512.645 325.772 512.492 326.072 512.265 326.287C512.038 326.503 511.751 326.62 511.456 326.619L511.468 326.641Z" fill="black"/>
<path d="M511.474 326.641C511.274 326.641 511.076 326.586 510.898 326.482C510.72 326.378 510.567 326.226 510.45 326.041C502.045 312.708 494.742 298.52 488.634 283.658C475.962 252.655 468.605 219.19 466.955 185.054C466.946 184.867 466.969 184.679 467.023 184.502C467.078 184.324 467.162 184.161 467.272 184.021C467.382 183.88 467.515 183.766 467.664 183.684C467.813 183.603 467.974 183.555 468.139 183.544C468.304 183.534 468.469 183.56 468.625 183.622C468.781 183.683 468.925 183.78 469.048 183.905C469.172 184.03 469.272 184.181 469.344 184.35C469.416 184.519 469.458 184.703 469.467 184.89C471.097 218.663 478.378 251.773 490.92 282.444C496.956 297.15 504.18 311.188 512.498 324.377C512.692 324.685 512.77 325.068 512.716 325.441C512.662 325.815 512.479 326.149 512.209 326.369C511.996 326.548 511.738 326.643 511.474 326.641Z" fill="black"/>
<path d="M302.055 106.122H192.525C186.133 106.122 180.002 109.008 175.48 114.145C170.958 119.282 168.415 126.25 168.41 133.518V407.694C168.41 415.579 171.165 423.141 176.069 428.717C180.973 434.293 187.625 437.425 194.56 437.425H260.305C261.118 425.883 260.508 414.268 258.49 402.918C248.819 348.875 209.632 318.666 197.574 310.098C211.054 307.71 224.026 302.497 235.832 294.725C308.812 246.259 302.538 115.511 301.979 106.101" fill="#C7B8F8"/>
<path d="M168.41 326.641C168.114 326.642 167.828 326.524 167.601 326.309C167.374 326.093 167.221 325.794 167.169 325.463C167.117 325.132 167.17 324.79 167.318 324.499C167.465 324.208 167.699 323.985 167.977 323.87C178.253 319.631 188.012 313.918 197.016 306.87C224.648 285.164 244.116 251.335 254.892 206.317C262.29 175.415 263.766 146.855 263.684 128.334C263.684 127.956 263.816 127.592 264.052 127.325C264.288 127.057 264.607 126.906 264.94 126.906C265.273 126.906 265.593 127.057 265.828 127.325C266.064 127.592 266.196 127.956 266.196 128.334C266.265 147.034 264.777 175.872 257.304 207.081C246.408 252.756 226.576 287.121 198.447 309.219C189.264 316.403 179.314 322.228 168.837 326.555C168.7 326.611 168.556 326.64 168.41 326.641Z" fill="black"/>
<path d="M168.411 326.641C168.147 326.64 167.89 326.545 167.676 326.369C167.405 326.149 167.223 325.815 167.169 325.441C167.114 325.068 167.193 324.685 167.387 324.377C175.704 311.187 182.93 297.149 188.971 282.444C201.504 251.782 208.782 218.686 210.417 184.926C210.437 184.547 210.587 184.193 210.836 183.94C211.085 183.688 211.413 183.558 211.746 183.58C212.079 183.602 212.391 183.773 212.613 184.056C212.835 184.34 212.949 184.711 212.929 185.09C211.276 219.226 203.916 252.69 191.245 283.693C185.138 298.556 177.834 312.744 169.428 326.077C169.309 326.255 169.155 326.398 168.978 326.496C168.802 326.594 168.607 326.644 168.411 326.641Z" fill="black"/>
<path d="M488.446 438.882H192.45C185.845 438.874 179.512 435.886 174.842 430.574C170.172 425.262 167.547 418.06 167.544 410.55V133.004C167.552 125.497 170.179 118.301 174.848 112.994C179.518 107.686 185.848 104.701 192.45 104.694H488.446C495.048 104.701 501.378 107.686 506.048 112.994C510.717 118.301 513.344 125.497 513.352 133.004V410.55C513.349 418.06 510.724 425.262 506.054 430.574C501.384 435.886 495.051 438.874 488.446 438.882ZM192.45 107.586C186.514 107.593 180.823 110.277 176.625 115.049C172.427 119.821 170.064 126.29 170.056 133.04V410.55C170.063 417.3 172.424 423.772 176.622 428.545C180.821 433.319 186.513 436.004 192.45 436.011H488.446C494.383 436.004 500.075 433.319 504.274 428.545C508.472 423.772 510.834 417.3 510.84 410.55V133.004C510.832 126.255 508.47 119.785 504.271 115.013C500.073 110.241 494.382 107.557 488.446 107.55L192.45 107.586Z" fill="#C7B8F8"/>
<path d="M310.747 266.429C295.411 281.38 290.255 303.322 297 319.265C301.628 330.197 310.577 335.302 314.533 337.208L353.118 326.627L343.403 283.787L310.747 266.429Z" fill="#202020"/>
<path d="M262.108 543.804H90.8463C90.5132 543.804 90.1938 543.653 89.9582 543.385C89.7227 543.118 89.5903 542.754 89.5903 542.376C89.5903 541.997 89.7227 541.634 89.9582 541.366C90.1938 541.098 90.5132 540.948 90.8463 540.948H262.108C262.441 540.948 262.761 541.098 262.996 541.366C263.232 541.634 263.364 541.997 263.364 542.376C263.364 542.754 263.232 543.118 262.996 543.385C262.761 543.653 262.441 543.804 262.108 543.804Z" fill="black"/>
<path d="M415.688 212.772C427.052 253.363 443.064 269.763 456.226 277.032C463.826 281.23 473.486 284.043 481.922 294.932C491.03 306.692 493.558 321.207 494.223 331.881L401.329 323.228L382.119 219.976L415.688 212.772Z" fill="#202020"/>
<path d="M332.949 179.302L360.899 173.24C373.396 170.529 386.327 173.574 396.849 181.704C407.37 189.834 414.621 202.382 417.004 216.59L419.251 229.979L306.868 254.353L302.75 229.805C300.865 218.555 302.988 206.915 308.651 197.444C314.315 187.973 323.054 181.447 332.949 179.302Z" fill="#202020"/>
<path d="M403.515 255.469C403.177 250.973 401.292 246.809 398.271 243.883C395.249 240.957 391.334 239.504 387.375 239.84L383.544 216.913C381.032 201.562 368.209 191.459 354.97 194.351L318.214 202.39C308.247 204.575 301.729 215.714 303.644 227.273L312.185 278.781C315.224 297.074 330.466 309.112 346.229 305.663L347.931 305.292L352.672 333.852L401.229 323.228L395.621 289.413H395.571L392.99 273.705C396.323 272.509 399.191 270.041 401.109 266.718C403.027 263.396 403.877 259.422 403.515 255.469Z" fill="white"/>
<path d="M351.667 335.516L346.932 306.956L346.467 307.056C342.594 307.91 338.609 307.879 334.746 306.966C330.883 306.053 327.219 304.275 323.966 301.736C320.583 299.122 317.69 295.769 315.456 291.872C313.222 287.975 311.692 283.613 310.954 279.038L302.407 227.53C300.366 215.221 307.324 203.312 318 200.991L354.763 192.951C358.04 192.23 361.41 192.256 364.677 193.028C367.945 193.801 371.045 195.304 373.798 197.45C376.66 199.661 379.108 202.496 380.998 205.793C382.888 209.089 384.182 212.779 384.806 216.649L388.43 238.355H388.612C392.678 238.411 396.582 240.177 399.57 243.312C402.559 246.448 404.42 250.73 404.796 255.334C405.155 259.395 404.338 263.478 402.47 266.964C400.603 270.45 397.785 273.148 394.446 274.647L396.613 287.806L396.877 289.141L402.717 324.356L351.667 335.516ZM348.935 303.621L353.67 332.181L399.759 322.107L394.616 291.076L394.339 289.648L391.545 272.677L392.625 272.305C395.672 271.202 398.293 268.941 400.048 265.902C401.803 262.862 402.586 259.229 402.265 255.612C401.536 247.001 394.892 240.561 387.475 241.268L386.351 241.375L382.313 217.192C381.75 213.691 380.58 210.352 378.871 207.369C377.162 204.387 374.949 201.821 372.359 199.82C369.881 197.883 367.088 196.527 364.143 195.831C361.198 195.135 358.161 195.112 355.209 195.765L318.452 203.804C309.176 205.832 303.091 216.242 304.875 227.016L313.422 278.524C314.095 282.727 315.497 286.736 317.545 290.318C319.594 293.9 322.248 296.983 325.354 299.387C328.334 301.714 331.692 303.344 335.231 304.182C338.77 305.021 342.421 305.051 345.971 304.271L348.935 303.621Z" fill="black"/>
<path d="M388.995 263.994C388.012 263.993 387.051 263.668 386.228 263.058C385.405 262.447 384.755 261.578 384.358 260.556C383.961 259.534 383.833 258.403 383.991 257.3C384.149 256.197 384.585 255.17 385.246 254.343C385.907 253.517 386.765 252.926 387.716 252.644C388.667 252.361 389.67 252.398 390.602 252.751C391.535 253.104 392.357 253.757 392.969 254.632C393.581 255.506 393.957 256.563 394.051 257.675C394.178 259.197 393.77 260.713 392.915 261.893C392.061 263.072 390.829 263.818 389.491 263.966C389.327 263.986 389.161 263.995 388.995 263.994ZM388.995 255.312H388.744C388.409 255.348 388.083 255.46 387.785 255.64C387.488 255.82 387.225 256.065 387.011 256.362C386.687 256.805 386.486 257.349 386.434 257.923C386.383 258.496 386.482 259.075 386.721 259.584C386.959 260.093 387.325 260.51 387.773 260.782C388.221 261.054 388.729 261.168 389.234 261.11C389.91 261.036 390.533 260.659 390.965 260.064C391.397 259.468 391.603 258.701 391.539 257.932C391.471 257.163 391.139 256.455 390.616 255.962C390.161 255.542 389.593 255.312 389.008 255.312H388.995Z" fill="black"/>
<path d="M347.836 303.928L377.17 296.524C377.357 296.478 377.553 296.508 377.722 296.61C377.891 296.711 378.024 296.878 378.095 297.08C378.167 297.282 378.173 297.506 378.113 297.713C378.053 297.92 377.93 298.096 377.767 298.209L349.589 313.81L347.836 303.928Z" fill="black"/>
<path d="M385.523 261.452C385.254 261.452 384.993 261.354 384.777 261.173C384.561 260.992 384.402 260.737 384.323 260.446C383.862 258.724 383.806 256.895 384.16 255.141C384.515 253.387 385.269 251.769 386.345 250.45C389.567 246.544 394.001 247.294 394.509 247.394C394.672 247.425 394.828 247.493 394.968 247.594C395.108 247.694 395.229 247.825 395.324 247.978C395.42 248.132 395.487 248.306 395.524 248.489C395.56 248.673 395.564 248.863 395.535 249.048C395.507 249.233 395.446 249.41 395.357 249.569C395.268 249.727 395.153 249.864 395.017 249.972C394.882 250.08 394.729 250.156 394.567 250.196C394.406 250.237 394.239 250.24 394.076 250.207C393.931 250.207 390.559 249.543 388.198 252.406C387.421 253.358 386.877 254.525 386.621 255.79C386.365 257.056 386.407 258.376 386.741 259.617C386.789 259.797 386.806 259.986 386.79 260.173C386.775 260.36 386.727 260.541 386.649 260.707C386.571 260.873 386.466 261.02 386.338 261.139C386.211 261.258 386.064 261.348 385.906 261.402C385.781 261.442 385.652 261.459 385.523 261.452Z" fill="black"/>
<path d="M318.49 261.709C320.113 261.709 321.429 260.213 321.429 258.368C321.429 256.522 320.113 255.026 318.49 255.026C316.867 255.026 315.551 256.522 315.551 258.368C315.551 260.213 316.867 261.709 318.49 261.709Z" fill="black"/>
<path d="M347.441 254.891C349.064 254.891 350.38 253.395 350.38 251.55C350.38 249.704 349.064 248.208 347.441 248.208C345.817 248.208 344.501 249.704 344.501 251.55C344.501 253.395 345.817 254.891 347.441 254.891Z" fill="black"/>
<path d="M332.149 270.092H331.967C329.756 269.728 327.458 269.099 327.137 267.107C327.094 266.729 327.118 266.344 327.207 265.976C327.297 265.609 327.45 265.265 327.659 264.965C327.778 264.751 327.916 264.494 328.067 264.159C328.62 262.895 328.838 261.476 328.695 260.075L327.42 245.616C327.403 245.428 327.42 245.239 327.467 245.059C327.515 244.878 327.594 244.71 327.699 244.564C327.804 244.419 327.933 244.298 328.079 244.209C328.225 244.119 328.385 244.064 328.55 244.045C328.715 244.026 328.882 244.045 329.041 244.099C329.199 244.154 329.347 244.243 329.475 244.362C329.604 244.482 329.71 244.629 329.788 244.795C329.867 244.961 329.915 245.143 329.932 245.33L331.188 259.81C331.382 261.744 331.081 263.7 330.321 265.444C330.114 265.901 329.938 266.222 329.794 266.493V266.543C330.611 266.921 331.472 267.161 332.35 267.257C332.683 267.284 332.993 267.46 333.212 267.746C333.431 268.033 333.541 268.407 333.518 268.785C333.495 269.164 333.34 269.517 333.088 269.766C332.836 270.015 332.507 270.14 332.174 270.113L332.149 270.092Z" fill="black"/>
<path d="M337.154 284.172C335.654 284.161 334.167 283.856 332.758 283.272C332.447 283.13 332.198 282.853 332.066 282.502C331.934 282.152 331.93 281.756 332.055 281.402C332.18 281.047 332.423 280.764 332.732 280.614C333.04 280.464 333.389 280.46 333.7 280.602C333.75 280.602 337.129 282.108 339.98 280.695C340.756 280.274 341.448 279.677 342.013 278.94C342.578 278.203 343.004 277.342 343.265 276.411C343.324 276.235 343.412 276.075 343.526 275.939C343.639 275.802 343.775 275.693 343.926 275.616C344.077 275.539 344.239 275.497 344.404 275.492C344.569 275.487 344.734 275.519 344.888 275.586C345.042 275.653 345.183 275.754 345.303 275.883C345.423 276.012 345.519 276.167 345.587 276.338C345.654 276.509 345.691 276.694 345.696 276.882C345.7 277.069 345.672 277.256 345.613 277.432C345.232 278.716 344.624 279.898 343.826 280.905C343.027 281.912 342.056 282.722 340.972 283.286C339.767 283.879 338.467 284.18 337.154 284.172Z" fill="black"/>
<path d="M275.962 550.851L343.39 552.843L488.025 557.127C474.355 476.245 460.686 395.365 447.016 314.488C408.166 317.292 369.503 322.798 331.245 330.975C330.441 331.146 326.924 331.689 322.252 332.71C307.399 336.065 285.137 341.092 274.228 354.986C264.136 367.838 265.003 386.681 265.832 401.089C268.432 446.25 271.635 496.051 275.962 550.851Z" fill="#6DC8C2"/>
<path d="M413.89 197.128C427.312 197.128 438.193 184.757 438.193 169.497C438.193 154.236 427.312 141.865 413.89 141.865C400.467 141.865 389.586 154.236 389.586 169.497C389.586 184.757 400.467 197.128 413.89 197.128Z" fill="#202020"/>
<path d="M543.282 563.553L456.618 589.664L401.938 321.143L444.592 314.16C460.9 311.496 477.482 316.107 490.867 327.028C504.252 337.949 513.403 354.333 516.404 372.751L543.282 563.553Z" fill="#6DC8C2"/>
<path d="M405.795 335.58L350.034 345.576L345.72 318.972C345.527 317.79 345.754 316.569 346.35 315.576C346.947 314.583 347.865 313.9 348.904 313.674L394.874 303.678C395.879 303.459 396.919 303.685 397.782 304.311C398.645 304.936 399.265 305.913 399.515 307.041L405.795 335.58Z" fill="#6DC8C2"/>
<path d="M412.132 447.569L432.591 432.157C439.655 426.834 448.289 424.921 456.594 426.837C464.9 428.753 472.195 434.341 476.876 442.373L537.762 546.84C542.875 555.612 544.713 566.334 542.873 576.647C541.032 586.96 535.664 596.019 527.948 601.831C516.111 610.75 501.642 613.956 487.725 610.746C473.808 607.535 461.583 598.17 453.739 584.712L403.152 497.915C398.471 489.885 396.788 480.07 398.472 470.628C400.156 461.187 405.07 452.892 412.132 447.569Z" fill="#6DC8C2"/>
<path d="M365.257 330.818C364.953 330.821 364.658 330.7 364.428 330.475C364.197 330.251 364.045 329.939 364.001 329.597L361.74 312.018C361.692 311.639 361.778 311.254 361.979 310.948C362.181 310.641 362.481 310.438 362.814 310.383C363.147 310.328 363.486 310.426 363.756 310.655C364.025 310.884 364.204 311.225 364.252 311.604L366.507 329.154C366.531 329.34 366.522 329.529 366.482 329.711C366.442 329.893 366.37 330.064 366.271 330.215C366.173 330.365 366.049 330.492 365.907 330.588C365.766 330.684 365.609 330.748 365.445 330.775L365.257 330.818Z" fill="black"/>
<path d="M382.52 327.055C382.217 327.059 381.922 326.937 381.691 326.713C381.46 326.488 381.309 326.176 381.264 325.834L378.985 308.255C378.961 308.068 378.97 307.877 379.011 307.693C379.052 307.51 379.124 307.337 379.224 307.185C379.324 307.033 379.449 306.905 379.592 306.808C379.735 306.711 379.894 306.648 380.059 306.62C380.224 306.593 380.392 306.603 380.553 306.65C380.715 306.697 380.867 306.779 381 306.892C381.134 307.006 381.246 307.148 381.332 307.311C381.417 307.473 381.473 307.654 381.497 307.841L383.776 325.42C383.797 325.606 383.784 325.795 383.74 325.976C383.696 326.156 383.622 326.326 383.52 326.473C383.419 326.621 383.293 326.745 383.149 326.837C383.006 326.93 382.847 326.989 382.684 327.012L382.52 327.055Z" fill="black"/>
<path d="M522.264 521.677C522.056 521.677 521.851 521.618 521.668 521.506C521.485 521.394 521.329 521.232 521.215 521.034L478.567 447.864C476.52 444.008 470.654 434.747 459.916 430.906C454.608 429.043 448.975 428.724 443.531 429.978C443.368 430.02 443.199 430.025 443.034 429.991C442.869 429.958 442.711 429.888 442.571 429.784C442.43 429.681 442.309 429.546 442.215 429.389C442.121 429.231 442.055 429.054 442.022 428.867C441.989 428.681 441.989 428.488 442.022 428.302C442.055 428.115 442.121 427.938 442.216 427.78C442.31 427.623 442.431 427.489 442.572 427.386C442.713 427.282 442.87 427.212 443.035 427.179C448.892 425.827 454.954 426.173 460.663 428.186C472.224 432.313 478.517 442.259 480.69 446.336L523.306 519.456C523.49 519.772 523.556 520.157 523.49 520.528C523.424 520.899 523.231 521.225 522.954 521.434C522.75 521.59 522.51 521.675 522.264 521.677Z" fill="black"/>
<path d="M436.654 556.848C436.446 556.848 436.242 556.79 436.059 556.677C435.876 556.565 435.72 556.403 435.606 556.206L411.641 515.087C410.668 513.409 409.581 511.659 408.225 509.582C398.579 494.78 397.172 485.191 397.053 484.249C393.077 462.686 404.206 453.547 404.683 453.19C404.956 452.972 405.294 452.887 405.623 452.952C405.951 453.018 406.243 453.229 406.435 453.54C406.626 453.85 406.702 454.235 406.644 454.608C406.586 454.982 406.4 455.314 406.127 455.532C405.688 455.882 395.878 464.057 399.521 483.713V483.82C399.521 483.913 400.72 493.288 410.197 507.882C411.578 510.024 412.709 511.788 413.688 513.509L437.659 554.628C437.785 554.843 437.858 555.094 437.869 555.352C437.88 555.611 437.829 555.868 437.721 556.096C437.613 556.324 437.453 556.515 437.257 556.647C437.062 556.78 436.838 556.849 436.61 556.848H436.654Z" fill="black"/>
<path d="M345.123 600.474H256.494L251.47 570.579H352.603L345.123 600.474ZM258.572 597.618H343.227L349.274 573.435H254.497L258.572 597.618Z" fill="black"/>
<path d="M299.819 600.474C299.486 600.474 299.167 600.323 298.931 600.056C298.696 599.788 298.563 599.425 298.563 599.046V572.028C298.563 571.649 298.696 571.286 298.931 571.018C299.167 570.751 299.486 570.6 299.819 570.6C300.153 570.6 300.472 570.751 300.708 571.018C300.943 571.286 301.075 571.649 301.075 572.028V599.046C301.075 599.425 300.943 599.788 300.708 600.056C300.472 600.323 300.153 600.474 299.819 600.474Z" fill="black"/>
<path d="M260.18 607.335C264.158 607.335 267.383 603.637 267.383 599.074C267.383 594.512 264.158 590.813 260.18 590.813C256.202 590.813 252.977 594.512 252.977 599.074C252.977 603.637 256.202 607.335 260.18 607.335Z" fill="black"/>
<path d="M299.876 607.335C303.889 607.335 307.142 603.637 307.142 599.074C307.142 594.512 303.889 590.813 299.876 590.813C295.863 590.813 292.61 594.512 292.61 599.074C292.61 603.637 295.863 607.335 299.876 607.335Z" fill="black"/>
<path d="M341.418 607.335C345.393 607.335 348.615 603.637 348.615 599.074C348.615 594.512 345.393 590.813 341.418 590.813C337.443 590.813 334.221 594.512 334.221 599.074C334.221 603.637 337.443 607.335 341.418 607.335Z" fill="black"/>
<path d="M370.237 509.082C369.964 509.083 369.699 508.98 369.483 508.789C369.218 508.561 369.043 508.222 368.997 507.847C368.951 507.472 369.038 507.092 369.239 506.79L384.135 484.477C384.383 484.097 384.532 483.645 384.568 483.174C384.603 482.702 384.523 482.228 384.335 481.805C384.148 481.383 383.86 481.027 383.506 480.779C383.151 480.531 382.743 480.4 382.326 480.4H337.01C335.853 480.4 334.714 480.718 333.689 481.327C332.664 481.936 331.785 482.819 331.125 483.899L324.632 494.545C324.538 494.699 324.418 494.831 324.279 494.932C324.14 495.034 323.985 495.103 323.823 495.137C323.661 495.17 323.494 495.167 323.333 495.127C323.171 495.088 323.018 495.012 322.883 494.905C322.747 494.798 322.631 494.662 322.542 494.504C322.453 494.347 322.391 494.17 322.362 493.986C322.333 493.801 322.335 493.612 322.37 493.428C322.405 493.245 322.472 493.071 322.566 492.917L329.059 482.271C329.95 480.812 331.139 479.62 332.524 478.797C333.908 477.974 335.447 477.544 337.01 477.544H382.326C383.21 477.543 384.077 477.822 384.83 478.349C385.582 478.876 386.191 479.631 386.587 480.53C386.984 481.428 387.152 482.434 387.074 483.435C386.996 484.437 386.674 485.393 386.144 486.198L371.242 508.518C371.124 508.694 370.972 508.836 370.798 508.934C370.624 509.032 370.432 509.083 370.237 509.082Z" fill="black"/>
<path d="M260.01 556.263L240.166 495.244C239.561 493.381 239.631 491.321 240.361 489.516C241.091 487.712 242.421 486.31 244.059 485.62L273.927 473.06C274.739 472.719 275.602 472.563 276.467 472.601C277.332 472.639 278.182 472.871 278.968 473.283C279.754 473.695 280.461 474.279 281.049 475.001C281.636 475.724 282.093 476.571 282.392 477.494L300.925 534.479C301.876 537.411 301.765 540.653 300.616 543.493C299.467 546.332 297.373 548.537 294.795 549.623L268.476 560.69C267.664 561.031 266.802 561.188 265.937 561.15C265.072 561.112 264.223 560.881 263.437 560.47C262.65 560.059 261.943 559.476 261.355 558.754C260.767 558.032 260.31 557.186 260.01 556.263Z" fill="white"/>
<path d="M266.184 562.589C264.582 562.58 263.021 562.017 261.708 560.975C260.394 559.933 259.39 558.462 258.83 556.756L238.985 495.737C238.271 493.523 238.359 491.076 239.229 488.935C240.099 486.793 241.68 485.131 243.626 484.313L273.494 471.754C275.445 470.935 277.602 471.03 279.492 472.018C281.382 473.006 282.85 474.806 283.573 477.024L302.105 534.008C303.173 537.295 303.049 540.93 301.76 544.114C300.472 547.297 298.125 549.769 295.235 550.987L268.909 562.054C268.036 562.417 267.113 562.598 266.184 562.589ZM276.232 474.053C275.589 474.051 274.951 474.179 274.348 474.432L244.524 486.948C243.199 487.508 242.125 488.643 241.536 490.104C240.947 491.565 240.892 493.231 241.384 494.738L261.229 555.749C261.723 557.254 262.721 558.475 264.006 559.144C265.29 559.813 266.755 559.876 268.08 559.319L294.406 548.252C296.673 547.3 298.514 545.362 299.524 542.866C300.535 540.371 300.632 537.52 299.794 534.943L281.256 477.959C280.879 476.798 280.198 475.796 279.306 475.088C278.413 474.379 277.352 473.998 276.263 473.996L276.232 474.053Z" fill="black"/>
<path d="M332.444 556.92L281.84 526.561C281.069 526.103 280.386 525.477 279.829 524.719C279.272 523.96 278.853 523.084 278.595 522.14C278.337 521.197 278.246 520.205 278.326 519.221C278.407 518.237 278.657 517.281 279.064 516.408L293.929 484.385C294.332 483.511 294.882 482.737 295.549 482.106C296.215 481.474 296.985 480.999 297.813 480.706C298.641 480.414 299.512 480.31 300.376 480.401C301.24 480.492 302.079 480.776 302.846 481.236L350.103 509.589C352.535 511.049 354.357 513.547 355.17 516.534C355.982 519.521 355.719 522.752 354.437 525.518L341.336 553.743C340.936 554.615 340.389 555.39 339.725 556.022C339.062 556.654 338.295 557.132 337.469 557.427C336.644 557.722 335.775 557.829 334.912 557.742C334.05 557.655 333.211 557.376 332.444 556.92Z" fill="white"/>
<path d="M335.496 559.183C334.224 559.184 332.972 558.831 331.847 558.155L281.243 527.796C279.404 526.69 278.027 524.799 277.414 522.539C276.8 520.28 277.001 517.835 277.971 515.743L292.83 483.721C293.803 481.63 295.465 480.064 297.452 479.366C299.439 478.667 301.589 478.893 303.43 479.993L350.693 508.368C353.415 510.008 355.453 512.807 356.363 516.153C357.273 519.498 356.98 523.118 355.548 526.218L342.448 554.435C341.78 555.872 340.779 557.073 339.553 557.91C338.328 558.747 336.925 559.187 335.496 559.183ZM333.022 555.613C334.273 556.361 335.734 556.514 337.084 556.039C338.434 555.564 339.564 554.499 340.225 553.079L353.325 524.861C354.449 522.43 354.679 519.591 353.966 516.967C353.253 514.342 351.654 512.146 349.519 510.86L302.256 482.521C301.636 482.15 300.959 481.921 300.262 481.847C299.564 481.774 298.861 481.857 298.192 482.092C297.524 482.328 296.902 482.71 296.363 483.219C295.825 483.727 295.379 484.352 295.053 485.056L280.188 517.079C279.532 518.502 279.398 520.162 279.816 521.697C280.233 523.231 281.169 524.516 282.417 525.268L333.022 555.613Z" fill="black"/>
<path d="M364.196 504.384H245.887C245.014 504.383 244.151 504.605 243.364 505.034C242.576 505.462 241.883 506.086 241.336 506.86C240.788 507.633 240.401 508.537 240.202 509.504C240.002 510.47 239.997 511.475 240.185 512.445L252.117 573.963H351.912L369.917 513.452C370.224 512.418 370.31 511.317 370.169 510.238C370.027 509.16 369.662 508.135 369.103 507.249C368.543 506.363 367.807 505.641 366.954 505.143C366.1 504.644 365.155 504.384 364.196 504.384Z" fill="#6938EF"/>
<path d="M299.819 565.666C299.486 565.666 299.167 565.516 298.931 565.248C298.696 564.98 298.563 564.617 298.563 564.238V512.116C298.563 511.738 298.696 511.375 298.931 511.107C299.167 510.839 299.486 510.688 299.819 510.688C300.153 510.688 300.472 510.839 300.708 511.107C300.943 511.375 301.075 511.738 301.075 512.116V564.238C301.075 564.617 300.943 564.98 300.708 565.248C300.472 565.516 300.153 565.666 299.819 565.666Z" fill="black"/>
<path d="M320.28 493.146C319.961 493.146 319.654 493.01 319.421 492.763C319.188 492.517 319.046 492.179 319.024 491.818L317.14 460.609C317.117 460.232 317.227 459.861 317.444 459.576C317.662 459.291 317.97 459.115 318.301 459.088C318.466 459.074 318.631 459.098 318.788 459.157C318.944 459.216 319.089 459.309 319.214 459.432C319.339 459.554 319.441 459.704 319.515 459.871C319.589 460.039 319.633 460.222 319.645 460.409L321.529 491.618C321.541 491.805 321.521 491.993 321.469 492.171C321.417 492.349 321.335 492.513 321.227 492.655C321.119 492.797 320.987 492.913 320.84 492.998C320.693 493.082 320.532 493.132 320.368 493.146H320.28Z" fill="black"/>
<path d="M307.638 462.465C304.242 462.459 300.971 461.013 298.462 458.411C295.954 455.808 294.389 452.236 294.073 448.392L291.517 416.262C291.189 412.168 292.304 408.094 294.617 404.935C296.929 401.775 300.251 399.788 303.851 399.412L374.771 391.772L378.633 439.56C378.798 441.587 378.609 443.631 378.078 445.574C377.548 447.518 376.685 449.324 375.54 450.889C374.395 452.454 372.991 453.747 371.406 454.694C369.822 455.642 368.089 456.225 366.306 456.41L308.894 462.401C308.473 462.444 308.053 462.465 307.638 462.465ZM372.504 394.885L304.084 402.232C301.147 402.542 298.44 404.164 296.556 406.743C294.671 409.322 293.765 412.645 294.036 415.984L296.585 448.114C296.861 451.449 298.288 454.524 300.554 456.665C302.82 458.807 305.74 459.84 308.674 459.538L366.086 453.547C369.021 453.238 371.728 451.616 373.612 449.039C375.496 446.462 376.403 443.14 376.134 439.803L372.504 394.885Z" fill="white"/>
<path d="M380.172 409.957H361.068C359.73 409.945 358.394 410.105 357.087 410.436C354.449 411.15 351.108 412.785 352.503 416.648C352.824 417.496 353.292 418.262 353.879 418.901C354.466 419.54 355.16 420.039 355.919 420.367C362.299 423.223 384.857 433.634 389.869 439.346L406.033 455.054L443.431 430.064C438.567 419.271 432.731 409.083 426.016 399.661C419.611 390.686 411.792 379.548 402.542 374.3C397.474 371.444 391.489 371.337 386.006 372.301C379.363 373.475 372.79 375.115 366.325 377.213C360.673 379.07 354.889 381.076 350.625 385.988L344.301 392.529C343.988 392.827 343.77 393.233 343.678 393.685C343.585 394.137 343.625 394.61 343.79 395.035C343.955 395.459 344.236 395.811 344.593 396.038C344.949 396.264 345.36 396.353 345.764 396.291L372.982 393.357C374.369 393.207 375.762 393.553 376.968 394.345C378.175 395.137 379.134 396.336 379.714 397.777L382.772 405.388C382.971 405.881 383.056 406.423 383.022 406.964C382.987 407.505 382.833 408.028 382.574 408.483C382.315 408.938 381.959 409.312 381.539 409.57C381.12 409.828 380.649 409.961 380.172 409.957Z" fill="white"/>
<path d="M406.724 399.069C406.491 399.069 406.262 398.996 406.064 398.857C405.865 398.719 405.705 398.52 405.6 398.283C400.576 386.759 394.522 380.876 390.346 377.963C385.843 374.814 382.483 374.393 382.445 374.393C382.112 374.354 381.806 374.166 381.595 373.871C381.384 373.576 381.284 373.197 381.318 372.818C381.352 372.44 381.517 372.092 381.777 371.852C382.037 371.611 382.37 371.498 382.703 371.537C383.331 371.608 397.549 373.515 407.823 397.019C407.971 397.358 407.995 397.75 407.889 398.109C407.783 398.468 407.556 398.764 407.258 398.933C407.091 399.024 406.909 399.071 406.724 399.069Z" fill="black"/>
<path d="M305.747 423.716C305.414 423.736 305.088 423.604 304.84 423.351C304.592 423.097 304.443 422.742 304.426 422.363C304.408 421.984 304.524 421.613 304.747 421.331C304.97 421.049 305.283 420.88 305.616 420.86L355.152 414.862C355.485 414.823 355.819 414.935 356.079 415.175C356.339 415.414 356.505 415.762 356.54 416.14C356.575 416.519 356.476 416.898 356.265 417.194C356.055 417.49 355.749 417.679 355.416 417.718L305.879 423.716H305.747Z" fill="#6938EF"/>
<path d="M307.619 438.71C307.454 438.72 307.289 438.693 307.133 438.63C306.978 438.567 306.834 438.471 306.712 438.345C306.589 438.219 306.489 438.067 306.418 437.898C306.347 437.728 306.306 437.545 306.297 437.357C306.288 437.17 306.312 436.982 306.368 436.805C306.423 436.628 306.508 436.465 306.618 436.325C306.729 436.186 306.863 436.072 307.012 435.992C307.161 435.911 307.322 435.864 307.487 435.854L357.024 429.856C357.189 429.837 357.356 429.854 357.515 429.908C357.674 429.961 357.822 430.05 357.951 430.169C358.079 430.287 358.187 430.434 358.266 430.6C358.345 430.765 358.394 430.947 358.412 431.135C358.429 431.322 358.414 431.512 358.367 431.692C358.319 431.873 358.241 432.042 358.137 432.188C358.033 432.335 357.904 432.456 357.758 432.546C357.612 432.636 357.453 432.693 357.288 432.712L307.751 438.71H307.619Z" fill="#6938EF"/>
<path d="M109.115 235.634C115.708 235.634 121.053 229.557 121.053 222.061C121.053 214.565 115.708 208.488 109.115 208.488C102.521 208.488 97.1763 214.565 97.1763 222.061C97.1763 229.557 102.521 235.634 109.115 235.634Z" fill="#6938EF"/>
<path d="M122.498 324.741C134.415 324.741 144.076 313.758 144.076 300.208C144.076 286.659 134.415 275.675 122.498 275.675C110.58 275.675 100.919 286.659 100.919 300.208C100.919 313.758 110.58 324.741 122.498 324.741Z" fill="#FFBB45"/>
<path d="M116.983 278.253C116.429 278.254 115.882 278.112 115.382 277.839C114.887 277.569 114.451 277.179 114.103 276.696C113.754 276.214 113.503 275.651 113.366 275.047L105.736 240.568C105.562 239.788 105.588 238.967 105.809 238.203C106.03 237.438 106.439 236.761 106.986 236.25C107.533 235.74 108.197 235.417 108.9 235.319C109.602 235.221 110.315 235.353 110.955 235.699L146.964 255.148C147.605 255.491 148.146 256.033 148.526 256.713C148.905 257.393 149.106 258.181 149.106 258.986C149.106 259.791 148.905 260.579 148.526 261.259C148.146 261.938 147.605 262.481 146.964 262.824L118.61 277.818C118.104 278.101 117.548 278.25 116.983 278.253ZM109.322 238.133C109.04 238.139 108.768 238.252 108.549 238.455C108.367 238.622 108.232 238.847 108.159 239.1C108.087 239.353 108.08 239.625 108.141 239.883L115.784 274.347C115.827 274.546 115.908 274.73 116.022 274.889C116.136 275.047 116.279 275.174 116.441 275.261C116.603 275.349 116.781 275.394 116.96 275.394C117.14 275.394 117.317 275.349 117.479 275.261L145.834 260.267C146.042 260.154 146.219 259.976 146.342 259.754C146.465 259.531 146.531 259.274 146.531 259.011C146.531 258.748 146.465 258.49 146.342 258.268C146.219 258.045 146.042 257.867 145.834 257.754L109.824 238.305C109.669 238.208 109.498 238.15 109.322 238.133Z" fill="black"/>
<path d="M241.943 326.169H88.7799C88.4468 326.169 88.1273 326.019 87.8918 325.751C87.6563 325.483 87.5239 325.12 87.5239 324.741C87.5239 324.363 87.6563 324 87.8918 323.732C88.1273 323.464 88.4468 323.313 88.7799 323.313H241.943C242.276 323.313 242.595 323.464 242.831 323.732C243.066 324 243.199 324.363 243.199 324.741C243.199 325.12 243.066 325.483 242.831 325.751C242.595 326.019 242.276 326.169 241.943 326.169Z" fill="black"/>
<path d="M154.965 323.285H232.297C229.533 314.123 224.321 306.172 217.389 300.542C210.456 294.913 202.15 291.887 193.631 291.887C185.112 291.887 176.806 294.913 169.873 300.542C162.941 306.172 157.728 314.123 154.965 323.285Z" fill="#FFC1EB"/>
<mask id="mask0_438_948" style="mask-type:alpha" maskUnits="userSpaceOnUse" x="154" y="291" width="79" height="33">
<path d="M154.965 323.285H232.297C229.533 314.123 224.321 306.172 217.389 300.542C210.456 294.913 202.15 291.887 193.631 291.887C185.112 291.887 176.806 294.913 169.873 300.542C162.941 306.172 157.728 314.123 154.965 323.285Z" fill="white"/>
</mask>
<g mask="url(#mask0_438_948)">
<path d="M205.306 310.447C201.129 310.447 197.045 309.039 193.572 306.4C190.099 303.762 187.392 300.012 185.794 295.624C184.195 291.237 183.777 286.409 184.592 281.751C185.407 277.093 187.418 272.814 190.372 269.456C193.325 266.098 197.089 263.811 201.185 262.885C205.282 261.958 209.529 262.434 213.388 264.251C217.247 266.069 220.545 269.146 222.866 273.095C225.187 277.044 226.425 281.686 226.425 286.435C226.419 292.801 224.191 298.904 220.232 303.406C216.273 307.907 210.905 310.439 205.306 310.447ZM205.306 265.886C201.731 265.886 198.237 267.091 195.264 269.349C192.292 271.607 189.976 274.817 188.608 278.571C187.24 282.326 186.882 286.458 187.579 290.444C188.277 294.43 189.998 298.092 192.526 300.965C195.053 303.839 198.274 305.796 201.78 306.589C205.286 307.382 208.92 306.975 212.222 305.42C215.525 303.865 218.348 301.231 220.334 297.852C222.32 294.472 223.38 290.499 223.38 286.435C223.373 280.988 221.467 275.765 218.078 271.913C214.69 268.061 210.097 265.894 205.306 265.886Z" fill="#FB6D6D"/>
<path d="M169.886 351.002C167.77 350.981 165.664 350.686 163.606 350.124C156.252 348.168 148.534 343.141 141.947 335.965C135.359 328.79 130.561 320.257 128.507 312.025C126.372 303.457 127.402 296.089 131.402 291.319C139.441 281.744 157.257 286.185 171.111 301.229C177.724 308.405 182.497 316.937 184.556 325.17C186.692 333.738 185.662 341.106 181.661 345.876C178.785 349.26 174.728 351.002 169.886 351.002ZM143.177 289.598C139.259 289.598 135.899 290.919 133.569 293.697C130.341 297.538 129.575 303.693 131.402 311.061C133.286 318.737 137.795 326.691 144.019 333.445C150.242 340.199 157.433 344.919 164.266 346.733C170.816 348.468 176.198 347.311 179.426 343.462C182.653 339.614 183.426 333.466 181.592 326.098C179.708 318.422 175.205 310.476 168.982 303.714C160.617 294.66 150.833 289.62 143.177 289.62V289.598Z" fill="#FB6D6D"/>
</g>
<path d="M158.632 491.232C158.348 491.23 158.073 491.119 157.852 490.917C157.631 490.715 157.476 490.433 157.414 490.118C154.067 473.539 158.099 454.282 162.074 441.059C164.644 432.477 167.818 424.144 171.563 416.141C171.64 415.97 171.747 415.82 171.876 415.697C172.006 415.575 172.156 415.483 172.317 415.428C172.478 415.373 172.648 415.355 172.815 415.376C172.982 415.397 173.145 415.456 173.292 415.549C173.439 415.642 173.568 415.769 173.671 415.92C173.774 416.071 173.85 416.244 173.893 416.429C173.936 416.614 173.946 416.808 173.922 416.997C173.899 417.187 173.842 417.369 173.755 417.533C170.079 425.402 166.965 433.595 164.441 442.03C160.579 454.882 156.648 473.568 159.857 489.483C159.93 489.851 159.872 490.237 159.696 490.557C159.519 490.877 159.238 491.104 158.915 491.189C158.823 491.217 158.728 491.232 158.632 491.232Z" fill="black"/>
<path d="M161.32 489.583C161.26 489.59 161.199 489.59 161.138 489.583C160.975 489.556 160.818 489.492 160.676 489.396C160.534 489.3 160.411 489.173 160.312 489.022C160.213 488.872 160.142 488.701 160.102 488.519C160.061 488.337 160.053 488.148 160.077 487.962C161.538 476.401 166.409 465.747 173.893 457.745C174.136 457.486 174.46 457.347 174.793 457.359C175.126 457.371 175.442 457.533 175.67 457.81C175.898 458.086 176.021 458.454 176.01 458.833C175.999 459.212 175.857 459.571 175.614 459.83C168.528 467.386 163.915 477.458 162.532 488.39C162.484 488.719 162.337 489.017 162.115 489.235C161.894 489.453 161.613 489.576 161.32 489.583Z" fill="black"/>
<path d="M158.946 506.94C158.63 506.941 158.325 506.807 158.092 506.563C157.859 506.32 157.716 505.985 157.69 505.626C156.493 489.007 153.971 472.546 150.154 456.446C146.536 441.276 141.784 426.485 135.949 412.235C135.869 412.064 135.821 411.877 135.807 411.684C135.794 411.491 135.814 411.297 135.868 411.113C135.923 410.93 136.009 410.761 136.122 410.617C136.236 410.472 136.374 410.356 136.528 410.274C136.682 410.192 136.849 410.146 137.019 410.14C137.19 410.134 137.359 410.167 137.517 410.238C137.676 410.309 137.82 410.415 137.941 410.551C138.062 410.687 138.158 410.849 138.222 411.029C144.119 425.425 148.922 440.369 152.578 455.696C156.444 471.966 159 488.602 160.215 505.398C160.241 505.775 160.135 506.148 159.919 506.435C159.704 506.723 159.397 506.902 159.066 506.933L158.946 506.94Z" fill="black"/>
<path d="M132.834 458.095C138.005 463.632 142.766 469.643 147.071 476.067C150.032 480.481 152.772 485.082 155.279 489.847" fill="white"/>
<path d="M155.279 491.275C155.06 491.273 154.845 491.207 154.655 491.081C154.466 490.956 154.308 490.777 154.199 490.561C148.098 478.963 140.619 468.377 131.974 459.102C131.854 458.973 131.757 458.819 131.69 458.647C131.622 458.476 131.585 458.291 131.581 458.104C131.576 457.916 131.604 457.729 131.663 457.554C131.721 457.378 131.81 457.218 131.924 457.081C132.037 456.945 132.173 456.835 132.324 456.759C132.474 456.682 132.637 456.64 132.802 456.634C132.967 456.629 133.131 456.661 133.285 456.728C133.44 456.795 133.581 456.895 133.701 457.024C142.519 466.471 150.142 477.262 156.353 489.09C156.462 489.306 156.52 489.551 156.521 489.8C156.522 490.049 156.465 490.295 156.356 490.511C156.248 490.728 156.091 490.908 155.902 491.035C155.713 491.161 155.498 491.229 155.279 491.232V491.275Z" fill="black"/>
<path d="M187.866 407.601H183.551C183.47 407.351 183.375 407.102 183.275 406.887L186.415 403.71C186.769 403.391 187.063 402.994 187.278 402.541C187.493 402.089 187.624 401.592 187.665 401.08C187.705 400.569 187.653 400.053 187.512 399.565C187.372 399.076 187.145 398.626 186.846 398.24C186.547 397.855 186.182 397.542 185.774 397.323C185.365 397.103 184.922 396.98 184.47 396.961C184.019 396.942 183.568 397.028 183.147 397.214C182.725 397.4 182.342 397.681 182.019 398.041L178.697 401.382C178.64 401.44 178.603 401.504 178.552 401.561C178.345 401.447 178.132 401.354 177.924 401.261V396.677C177.887 395.701 177.52 394.779 176.899 394.103C176.278 393.427 175.452 393.05 174.593 393.05C173.733 393.05 172.907 393.427 172.287 394.103C171.666 394.779 171.299 395.701 171.261 396.677V401.268C170.955 401.394 170.655 401.54 170.363 401.704C170.267 401.575 170.164 401.454 170.056 401.34L166.652 398.005C166.327 397.648 165.941 397.369 165.518 397.187C165.094 397.005 164.643 396.923 164.191 396.945C163.739 396.968 163.296 397.095 162.889 397.319C162.482 397.543 162.119 397.859 161.823 398.248C161.526 398.637 161.303 399.09 161.166 399.581C161.029 400.071 160.982 400.588 161.026 401.099C161.071 401.611 161.207 402.107 161.426 402.557C161.645 403.008 161.942 403.402 162.3 403.717L165.666 407.016C165.694 407.041 165.723 407.065 165.754 407.087C165.691 407.252 165.641 407.416 165.584 407.58H161.408C160.971 407.58 160.538 407.678 160.134 407.868C159.73 408.058 159.364 408.337 159.054 408.688C158.745 409.04 158.5 409.457 158.333 409.916C158.166 410.375 158.08 410.867 158.08 411.364C158.079 411.862 158.164 412.355 158.331 412.814C158.498 413.274 158.743 413.692 159.052 414.045C159.361 414.397 159.729 414.676 160.133 414.867C160.537 415.057 160.97 415.155 161.408 415.155H165.547C165.578 415.263 165.609 415.37 165.647 415.47H165.616L162.287 418.818C161.933 419.137 161.639 419.535 161.424 419.987C161.21 420.439 161.078 420.936 161.038 421.448C160.997 421.96 161.049 422.475 161.19 422.964C161.33 423.452 161.557 423.903 161.856 424.288C162.155 424.674 162.52 424.986 162.928 425.206C163.337 425.426 163.78 425.549 164.232 425.567C164.684 425.586 165.134 425.5 165.555 425.314C165.977 425.129 166.36 424.847 166.683 424.487L170.012 421.146L170.081 421.06C170.444 421.276 170.82 421.464 171.205 421.624V426.165C171.242 427.141 171.609 428.064 172.23 428.739C172.851 429.415 173.677 429.792 174.536 429.792C175.396 429.792 176.222 429.415 176.843 428.739C177.463 428.064 177.831 427.141 177.868 426.165V421.624C178.1 421.524 178.326 421.417 178.552 421.303L181.812 424.495C182.485 425.087 183.332 425.365 184.179 425.269C185.026 425.173 185.809 424.713 186.366 423.981C186.923 423.249 187.213 422.303 187.175 421.336C187.138 420.369 186.776 419.455 186.164 418.783L183.262 415.927C183.37 415.669 183.464 415.404 183.545 415.134H187.822C188.259 415.134 188.693 415.036 189.097 414.845C189.501 414.655 189.868 414.375 190.177 414.023C190.487 413.671 190.732 413.253 190.899 412.793C191.065 412.333 191.151 411.84 191.15 411.343C191.14 410.355 190.791 409.411 190.178 408.712C189.564 408.013 188.734 407.614 187.866 407.601Z" fill="#FFC1EB"/>
<path d="M187.866 407.601H183.551C183.47 407.351 183.375 407.102 183.275 406.887L186.415 403.71C186.769 403.391 187.063 402.994 187.278 402.541C187.493 402.089 187.624 401.592 187.665 401.08C187.705 400.569 187.653 400.053 187.512 399.565C187.372 399.076 187.145 398.626 186.846 398.24C186.547 397.855 186.182 397.542 185.774 397.323C185.365 397.103 184.922 396.98 184.47 396.961C184.019 396.942 183.568 397.028 183.147 397.214C182.725 397.4 182.342 397.681 182.019 398.041L178.697 401.382C178.64 401.44 178.603 401.504 178.552 401.561C178.345 401.447 178.132 401.354 177.924 401.261V396.677C177.887 395.701 177.52 394.779 176.899 394.103C176.278 393.427 175.452 393.05 174.593 393.05C173.733 393.05 172.907 393.427 172.287 394.103C171.666 394.779 171.299 395.701 171.261 396.677V401.268C170.955 401.394 170.655 401.54 170.363 401.704C170.267 401.575 170.164 401.454 170.056 401.34L166.652 398.005C166.327 397.648 165.941 397.369 165.518 397.187C165.094 397.005 164.643 396.923 164.191 396.945C163.739 396.968 163.296 397.095 162.889 397.319C162.482 397.543 162.119 397.859 161.823 398.248C161.526 398.637 161.303 399.09 161.166 399.581C161.029 400.071 160.982 400.588 161.026 401.099C161.071 401.611 161.207 402.107 161.426 402.557C161.645 403.008 161.942 403.402 162.3 403.717L165.666 407.016C165.694 407.041 165.723 407.065 165.754 407.087C165.691 407.252 165.641 407.416 165.584 407.58H161.408C160.971 407.58 160.538 407.678 160.134 407.868C159.73 408.058 159.364 408.337 159.054 408.688C158.745 409.04 158.5 409.457 158.333 409.916C158.166 410.375 158.08 410.867 158.08 411.364C158.079 411.862 158.164 412.355 158.331 412.814C158.498 413.274 158.743 413.692 159.052 414.045C159.361 414.397 159.729 414.676 160.133 414.867C160.537 415.057 160.97 415.155 161.408 415.155H165.547C165.578 415.263 165.609 415.37 165.647 415.47H165.616L162.287 418.818C161.933 419.137 161.639 419.535 161.424 419.987C161.21 420.439 161.078 420.936 161.038 421.448C160.997 421.96 161.049 422.475 161.19 422.964C161.33 423.452 161.557 423.903 161.856 424.288C162.155 424.674 162.52 424.986 162.928 425.206C163.337 425.426 163.78 425.549 164.232 425.567C164.684 425.586 165.134 425.5 165.555 425.314C165.977 425.129 166.36 424.847 166.683 424.487L170.012 421.146L170.081 421.06C170.444 421.276 170.82 421.464 171.205 421.624V426.165C171.242 427.141 171.609 428.064 172.23 428.739C172.851 429.415 173.677 429.792 174.536 429.792C175.396 429.792 176.222 429.415 176.843 428.739C177.463 428.064 177.831 427.141 177.868 426.165V421.624C178.1 421.524 178.326 421.417 178.552 421.303L181.812 424.495C182.485 425.087 183.332 425.365 184.179 425.269C185.026 425.173 185.809 424.713 186.366 423.981C186.923 423.249 187.213 422.303 187.175 421.336C187.138 420.369 186.776 419.455 186.164 418.783L183.262 415.927C183.37 415.669 183.464 415.404 183.545 415.134H187.822C188.259 415.134 188.693 415.036 189.097 414.845C189.501 414.655 189.868 414.375 190.177 414.023C190.487 413.671 190.732 413.253 190.899 412.793C191.065 412.333 191.151 411.84 191.15 411.343C191.14 410.355 190.791 409.411 190.178 408.712C189.564 408.013 188.734 407.614 187.866 407.601Z" fill="#FFC1EB"/>
<path d="M187.866 407.601H183.551C183.47 407.351 183.375 407.102 183.275 406.887L186.415 403.71C186.769 403.391 187.063 402.994 187.278 402.541C187.493 402.089 187.624 401.592 187.665 401.08C187.705 400.569 187.653 400.053 187.512 399.565C187.372 399.076 187.145 398.626 186.846 398.24C186.547 397.855 186.182 397.542 185.774 397.323C185.365 397.103 184.922 396.98 184.47 396.961C184.019 396.942 183.568 397.028 183.147 397.214C182.725 397.4 182.342 397.681 182.019 398.041L178.697 401.382C178.64 401.44 178.603 401.504 178.552 401.561C178.345 401.447 178.132 401.354 177.924 401.261V396.677C177.887 395.701 177.52 394.779 176.899 394.103C176.278 393.427 175.452 393.05 174.593 393.05C173.733 393.05 172.907 393.427 172.287 394.103C171.666 394.779 171.299 395.701 171.261 396.677V401.268C170.955 401.394 170.655 401.54 170.363 401.704C170.267 401.575 170.164 401.454 170.056 401.34L166.652 398.005C166.327 397.648 165.941 397.369 165.518 397.187C165.094 397.005 164.643 396.923 164.191 396.945C163.739 396.968 163.296 397.095 162.889 397.319C162.482 397.543 162.119 397.859 161.823 398.248C161.526 398.637 161.303 399.09 161.166 399.581C161.029 400.071 160.982 400.588 161.026 401.099C161.071 401.611 161.207 402.107 161.426 402.557C161.645 403.008 161.942 403.402 162.3 403.717L165.666 407.016C165.694 407.041 165.723 407.065 165.754 407.087C165.691 407.252 165.641 407.416 165.584 407.58H161.408C160.971 407.58 160.538 407.678 160.134 407.868C159.73 408.058 159.364 408.337 159.054 408.688C158.745 409.04 158.5 409.457 158.333 409.916C158.166 410.375 158.08 410.867 158.08 411.364C158.079 411.862 158.164 412.355 158.331 412.814C158.498 413.274 158.743 413.692 159.052 414.045C159.361 414.397 159.729 414.676 160.133 414.867C160.537 415.057 160.97 415.155 161.408 415.155H165.547C165.578 415.263 165.609 415.37 165.647 415.47H165.616L162.287 418.818C161.933 419.137 161.639 419.535 161.424 419.987C161.21 420.439 161.078 420.936 161.038 421.448C160.997 421.96 161.049 422.475 161.19 422.964C161.33 423.452 161.557 423.903 161.856 424.288C162.155 424.674 162.52 424.986 162.928 425.206C163.337 425.426 163.78 425.549 164.232 425.567C164.684 425.586 165.134 425.5 165.555 425.314C165.977 425.129 166.36 424.847 166.683 424.487L170.012 421.146L170.081 421.06C170.444 421.276 170.82 421.464 171.205 421.624V426.165C171.242 427.141 171.609 428.064 172.23 428.739C172.851 429.415 173.677 429.792 174.536 429.792C175.396 429.792 176.222 429.415 176.843 428.739C177.463 428.064 177.831 427.141 177.868 426.165V421.624C178.1 421.524 178.326 421.417 178.552 421.303L181.812 424.495C182.485 425.087 183.332 425.365 184.179 425.269C185.026 425.173 185.809 424.713 186.366 423.981C186.923 423.249 187.213 422.303 187.175 421.336C187.138 420.369 186.776 419.455 186.164 418.783L183.262 415.927C183.37 415.669 183.464 415.404 183.545 415.134H187.822C188.259 415.134 188.693 415.036 189.097 414.845C189.501 414.655 189.868 414.375 190.177 414.023C190.487 413.671 190.732 413.253 190.899 412.793C191.065 412.333 191.151 411.84 191.15 411.343C191.14 410.355 190.791 409.411 190.178 408.712C189.564 408.013 188.734 407.614 187.866 407.601Z" fill="#FFC1EB"/>
<path d="M187.866 407.601H183.551C183.47 407.351 183.375 407.102 183.275 406.887L186.415 403.71C186.769 403.391 187.063 402.994 187.278 402.541C187.493 402.089 187.624 401.592 187.665 401.08C187.705 400.569 187.653 400.053 187.512 399.565C187.372 399.076 187.145 398.626 186.846 398.24C186.547 397.855 186.182 397.542 185.774 397.323C185.365 397.103 184.922 396.98 184.47 396.961C184.019 396.942 183.568 397.028 183.147 397.214C182.725 397.4 182.342 397.681 182.019 398.041L178.697 401.382C178.64 401.44 178.603 401.504 178.552 401.561C178.345 401.447 178.132 401.354 177.924 401.261V396.677C177.887 395.701 177.52 394.779 176.899 394.103C176.278 393.427 175.452 393.05 174.593 393.05C173.733 393.05 172.907 393.427 172.287 394.103C171.666 394.779 171.299 395.701 171.261 396.677V401.268C170.955 401.394 170.655 401.54 170.363 401.704C170.267 401.575 170.164 401.454 170.056 401.34L166.652 398.005C166.327 397.648 165.941 397.369 165.518 397.187C165.094 397.005 164.643 396.923 164.191 396.945C163.739 396.968 163.296 397.095 162.889 397.319C162.482 397.543 162.119 397.859 161.823 398.248C161.526 398.637 161.303 399.09 161.166 399.581C161.029 400.071 160.982 400.588 161.026 401.099C161.071 401.611 161.207 402.107 161.426 402.557C161.645 403.008 161.942 403.402 162.3 403.717L165.666 407.016C165.694 407.041 165.723 407.065 165.754 407.087C165.691 407.252 165.641 407.416 165.584 407.58H161.408C160.971 407.58 160.538 407.678 160.134 407.868C159.73 408.058 159.364 408.337 159.054 408.688C158.745 409.04 158.5 409.457 158.333 409.916C158.166 410.375 158.08 410.867 158.08 411.364C158.079 411.862 158.164 412.355 158.331 412.814C158.498 413.274 158.743 413.692 159.052 414.045C159.361 414.397 159.729 414.676 160.133 414.867C160.537 415.057 160.97 415.155 161.408 415.155H165.547C165.578 415.263 165.609 415.37 165.647 415.47H165.616L162.287 418.818C161.933 419.137 161.639 419.535 161.424 419.987C161.21 420.439 161.078 420.936 161.038 421.448C160.997 421.96 161.049 422.475 161.19 422.964C161.33 423.452 161.557 423.903 161.856 424.288C162.155 424.674 162.52 424.986 162.928 425.206C163.337 425.426 163.78 425.549 164.232 425.567C164.684 425.586 165.134 425.5 165.555 425.314C165.977 425.129 166.36 424.847 166.683 424.487L170.012 421.146L170.081 421.06C170.444 421.276 170.82 421.464 171.205 421.624V426.165C171.242 427.141 171.609 428.064 172.23 428.739C172.851 429.415 173.677 429.792 174.536 429.792C175.396 429.792 176.222 429.415 176.843 428.739C177.463 428.064 177.831 427.141 177.868 426.165V421.624C178.1 421.524 178.326 421.417 178.552 421.303L181.812 424.495C182.485 425.087 183.332 425.365 184.179 425.269C185.026 425.173 185.809 424.713 186.366 423.981C186.923 423.249 187.213 422.303 187.175 421.336C187.138 420.369 186.776 419.455 186.164 418.783L183.262 415.927C183.37 415.669 183.464 415.404 183.545 415.134H187.822C188.259 415.134 188.693 415.036 189.097 414.845C189.501 414.655 189.868 414.375 190.177 414.023C190.487 413.671 190.732 413.253 190.899 412.793C191.065 412.333 191.151 411.84 191.15 411.343C191.14 410.355 190.791 409.411 190.178 408.712C189.564 408.013 188.734 407.614 187.866 407.601Z" fill="#FFC1EB"/>
<path d="M187.866 407.601H183.551C183.47 407.351 183.375 407.102 183.275 406.887L186.415 403.71C186.769 403.391 187.063 402.994 187.278 402.541C187.493 402.089 187.624 401.592 187.665 401.08C187.705 400.569 187.653 400.053 187.512 399.565C187.372 399.076 187.145 398.626 186.846 398.24C186.547 397.855 186.182 397.542 185.774 397.323C185.365 397.103 184.922 396.98 184.47 396.961C184.019 396.942 183.568 397.028 183.147 397.214C182.725 397.4 182.342 397.681 182.019 398.041L178.697 401.382C178.64 401.44 178.603 401.504 178.552 401.561C178.345 401.447 178.132 401.354 177.924 401.261V396.677C177.887 395.701 177.52 394.779 176.899 394.103C176.278 393.427 175.452 393.05 174.593 393.05C173.733 393.05 172.907 393.427 172.287 394.103C171.666 394.779 171.299 395.701 171.261 396.677V401.268C170.955 401.394 170.655 401.54 170.363 401.704C170.267 401.575 170.164 401.454 170.056 401.34L166.652 398.005C166.327 397.648 165.941 397.369 165.518 397.187C165.094 397.005 164.643 396.923 164.191 396.945C163.739 396.968 163.296 397.095 162.889 397.319C162.482 397.543 162.119 397.859 161.823 398.248C161.526 398.637 161.303 399.09 161.166 399.581C161.029 400.071 160.982 400.588 161.026 401.099C161.071 401.611 161.207 402.107 161.426 402.557C161.645 403.008 161.942 403.402 162.3 403.717L165.666 407.016C165.694 407.041 165.723 407.065 165.754 407.087C165.691 407.252 165.641 407.416 165.584 407.58H161.408C160.971 407.58 160.538 407.678 160.134 407.868C159.73 408.058 159.364 408.337 159.054 408.688C158.745 409.04 158.5 409.457 158.333 409.916C158.166 410.375 158.08 410.867 158.08 411.364C158.079 411.862 158.164 412.355 158.331 412.814C158.498 413.274 158.743 413.692 159.052 414.045C159.361 414.397 159.729 414.676 160.133 414.867C160.537 415.057 160.97 415.155 161.408 415.155H165.547C165.578 415.263 165.609 415.37 165.647 415.47H165.616L162.287 418.818C161.933 419.137 161.639 419.535 161.424 419.987C161.21 420.439 161.078 420.936 161.038 421.448C160.997 421.96 161.049 422.475 161.19 422.964C161.33 423.452 161.557 423.903 161.856 424.288C162.155 424.674 162.52 424.986 162.928 425.206C163.337 425.426 163.78 425.549 164.232 425.567C164.684 425.586 165.134 425.5 165.555 425.314C165.977 425.129 166.36 424.847 166.683 424.487L170.012 421.146L170.081 421.06C170.444 421.276 170.82 421.464 171.205 421.624V426.165C171.242 427.141 171.609 428.064 172.23 428.739C172.851 429.415 173.677 429.792 174.536 429.792C175.396 429.792 176.222 429.415 176.843 428.739C177.463 428.064 177.831 427.141 177.868 426.165V421.624C178.1 421.524 178.326 421.417 178.552 421.303L181.812 424.495C182.485 425.087 183.332 425.365 184.179 425.269C185.026 425.173 185.809 424.713 186.366 423.981C186.923 423.249 187.213 422.303 187.175 421.336C187.138 420.369 186.776 419.455 186.164 418.783L183.262 415.927C183.37 415.669 183.464 415.404 183.545 415.134H187.822C188.259 415.134 188.693 415.036 189.097 414.845C189.501 414.655 189.868 414.375 190.177 414.023C190.487 413.671 190.732 413.253 190.899 412.793C191.065 412.333 191.151 411.84 191.15 411.343C191.14 410.355 190.791 409.411 190.178 408.712C189.564 408.013 188.734 407.614 187.866 407.601Z" fill="#FFC1EB"/>
<path d="M187.866 407.601H183.551C183.47 407.351 183.375 407.102 183.275 406.887L186.415 403.71C186.769 403.391 187.063 402.994 187.278 402.541C187.493 402.089 187.624 401.592 187.665 401.08C187.705 400.569 187.653 400.053 187.512 399.565C187.372 399.076 187.145 398.626 186.846 398.24C186.547 397.855 186.182 397.542 185.774 397.323C185.365 397.103 184.922 396.98 184.47 396.961C184.019 396.942 183.568 397.028 183.147 397.214C182.725 397.4 182.342 397.681 182.019 398.041L178.697 401.382C178.64 401.44 178.603 401.504 178.552 401.561C178.345 401.447 178.132 401.354 177.924 401.261V396.677C177.887 395.701 177.52 394.779 176.899 394.103C176.278 393.427 175.452 393.05 174.593 393.05C173.733 393.05 172.907 393.427 172.287 394.103C171.666 394.779 171.299 395.701 171.261 396.677V401.268C170.955 401.394 170.655 401.54 170.363 401.704C170.267 401.575 170.164 401.454 170.056 401.34L166.652 398.005C166.327 397.648 165.941 397.369 165.518 397.187C165.094 397.005 164.643 396.923 164.191 396.945C163.739 396.968 163.296 397.095 162.889 397.319C162.482 397.543 162.119 397.859 161.823 398.248C161.526 398.637 161.303 399.09 161.166 399.581C161.029 400.071 160.982 400.588 161.026 401.099C161.071 401.611 161.207 402.107 161.426 402.557C161.645 403.008 161.942 403.402 162.3 403.717L165.666 407.016C165.694 407.041 165.723 407.065 165.754 407.087C165.691 407.252 165.641 407.416 165.584 407.58H161.408C160.971 407.58 160.538 407.678 160.134 407.868C159.73 408.058 159.364 408.337 159.054 408.688C158.745 409.04 158.5 409.457 158.333 409.916C158.166 410.375 158.08 410.867 158.08 411.364C158.079 411.862 158.164 412.355 158.331 412.814C158.498 413.274 158.743 413.692 159.052 414.045C159.361 414.397 159.729 414.676 160.133 414.867C160.537 415.057 160.97 415.155 161.408 415.155H165.547C165.578 415.263 165.609 415.37 165.647 415.47H165.616L162.287 418.818C161.933 419.137 161.639 419.535 161.424 419.987C161.21 420.439 161.078 420.936 161.038 421.448C160.997 421.96 161.049 422.475 161.19 422.964C161.33 423.452 161.557 423.903 161.856 424.288C162.155 424.674 162.52 424.986 162.928 425.206C163.337 425.426 163.78 425.549 164.232 425.567C164.684 425.586 165.134 425.5 165.555 425.314C165.977 425.129 166.36 424.847 166.683 424.487L170.012 421.146L170.081 421.06C170.444 421.276 170.82 421.464 171.205 421.624V426.165C171.242 427.141 171.609 428.064 172.23 428.739C172.851 429.415 173.677 429.792 174.536 429.792C175.396 429.792 176.222 429.415 176.843 428.739C177.463 428.064 177.831 427.141 177.868 426.165V421.624C178.1 421.524 178.326 421.417 178.552 421.303L181.812 424.495C182.485 425.087 183.332 425.365 184.179 425.269C185.026 425.173 185.809 424.713 186.366 423.981C186.923 423.249 187.213 422.303 187.175 421.336C187.138 420.369 186.776 419.455 186.164 418.783L183.262 415.927C183.37 415.669 183.464 415.404 183.545 415.134H187.822C188.259 415.134 188.693 415.036 189.097 414.845C189.501 414.655 189.868 414.375 190.177 414.023C190.487 413.671 190.732 413.253 190.899 412.793C191.065 412.333 191.151 411.84 191.15 411.343C191.14 410.355 190.791 409.411 190.178 408.712C189.564 408.013 188.734 407.614 187.866 407.601Z" fill="#FFC1EB"/>
<path d="M187.866 407.601H183.551C183.47 407.351 183.375 407.102 183.275 406.887L186.415 403.71C186.769 403.391 187.063 402.994 187.278 402.541C187.493 402.089 187.624 401.592 187.665 401.08C187.705 400.569 187.653 400.053 187.512 399.565C187.372 399.076 187.145 398.626 186.846 398.24C186.547 397.855 186.182 397.542 185.774 397.323C185.365 397.103 184.922 396.98 184.47 396.961C184.019 396.942 183.568 397.028 183.147 397.214C182.725 397.4 182.342 397.681 182.019 398.041L178.697 401.382C178.64 401.44 178.603 401.504 178.552 401.561C178.345 401.447 178.132 401.354 177.924 401.261V396.677C177.887 395.701 177.52 394.779 176.899 394.103C176.278 393.427 175.452 393.05 174.593 393.05C173.733 393.05 172.907 393.427 172.287 394.103C171.666 394.779 171.299 395.701 171.261 396.677V401.268C170.955 401.394 170.655 401.54 170.363 401.704C170.267 401.575 170.164 401.454 170.056 401.34L166.652 398.005C166.327 397.648 165.941 397.369 165.518 397.187C165.094 397.005 164.643 396.923 164.191 396.945C163.739 396.968 163.296 397.095 162.889 397.319C162.482 397.543 162.119 397.859 161.823 398.248C161.526 398.637 161.303 399.09 161.166 399.581C161.029 400.071 160.982 400.588 161.026 401.099C161.071 401.611 161.207 402.107 161.426 402.557C161.645 403.008 161.942 403.402 162.3 403.717L165.666 407.016C165.694 407.041 165.723 407.065 165.754 407.087C165.691 407.252 165.641 407.416 165.584 407.58H161.408C160.971 407.58 160.538 407.678 160.134 407.868C159.73 408.058 159.364 408.337 159.054 408.688C158.745 409.04 158.5 409.457 158.333 409.916C158.166 410.375 158.08 410.867 158.08 411.364C158.079 411.862 158.164 412.355 158.331 412.814C158.498 413.274 158.743 413.692 159.052 414.045C159.361 414.397 159.729 414.676 160.133 414.867C160.537 415.057 160.97 415.155 161.408 415.155H165.547C165.578 415.263 165.609 415.37 165.647 415.47H165.616L162.287 418.818C161.933 419.137 161.639 419.535 161.424 419.987C161.21 420.439 161.078 420.936 161.038 421.448C160.997 421.96 161.049 422.475 161.19 422.964C161.33 423.452 161.557 423.903 161.856 424.288C162.155 424.674 162.52 424.986 162.928 425.206C163.337 425.426 163.78 425.549 164.232 425.567C164.684 425.586 165.134 425.5 165.555 425.314C165.977 425.129 166.36 424.847 166.683 424.487L170.012 421.146L170.081 421.06C170.444 421.276 170.82 421.464 171.205 421.624V426.165C171.242 427.141 171.609 428.064 172.23 428.739C172.851 429.415 173.677 429.792 174.536 429.792C175.396 429.792 176.222 429.415 176.843 428.739C177.463 428.064 177.831 427.141 177.868 426.165V421.624C178.1 421.524 178.326 421.417 178.552 421.303L181.812 424.495C182.485 425.087 183.332 425.365 184.179 425.269C185.026 425.173 185.809 424.713 186.366 423.981C186.923 423.249 187.213 422.303 187.175 421.336C187.138 420.369 186.776 419.455 186.164 418.783L183.262 415.927C183.37 415.669 183.464 415.404 183.545 415.134H187.822C188.259 415.134 188.693 415.036 189.097 414.845C189.501 414.655 189.868 414.375 190.177 414.023C190.487 413.671 190.732 413.253 190.899 412.793C191.065 412.333 191.151 411.84 191.15 411.343C191.14 410.355 190.791 409.411 190.178 408.712C189.564 408.013 188.734 407.614 187.866 407.601Z" fill="#FFC1EB"/>
<path d="M143.039 449.22L139.221 451.498C139.045 451.322 138.863 451.15 138.675 450.984L140.176 446.5C140.331 446.035 140.404 445.539 140.39 445.042C140.377 444.545 140.278 444.056 140.098 443.602C139.919 443.149 139.662 442.74 139.344 442.399C139.025 442.058 138.65 441.792 138.241 441.616C137.832 441.44 137.397 441.357 136.959 441.372C136.522 441.387 136.092 441.5 135.693 441.704C135.294 441.908 134.935 442.2 134.635 442.562C134.335 442.924 134.101 443.35 133.946 443.815L132.37 448.535C132.347 448.61 132.328 448.686 132.313 448.763C132.081 448.763 131.855 448.806 131.622 448.835L129.738 444.786C129.311 443.93 128.609 443.296 127.778 443.018C126.948 442.74 126.055 442.841 125.288 443.298C124.522 443.755 123.941 444.533 123.67 445.468C123.399 446.402 123.458 447.42 123.835 448.306L125.719 452.362C125.496 452.637 125.286 452.925 125.091 453.226C124.956 453.156 124.815 453.101 124.67 453.061L120.343 451.919C119.917 451.806 119.476 451.79 119.045 451.872C118.613 451.953 118.2 452.13 117.829 452.393C117.458 452.656 117.136 453 116.881 453.404C116.627 453.808 116.445 454.266 116.346 454.75C116.247 455.234 116.233 455.736 116.305 456.227C116.376 456.717 116.532 457.187 116.763 457.609C116.995 458.031 117.297 458.397 117.652 458.686C118.008 458.975 118.41 459.182 118.836 459.295L123.163 460.437C123.199 460.44 123.234 460.44 123.27 460.437C123.27 460.616 123.301 460.794 123.32 460.965L119.627 463.172C118.846 463.639 118.26 464.44 117.998 465.399C117.735 466.357 117.818 467.395 118.227 468.284C118.43 468.725 118.707 469.116 119.043 469.435C119.378 469.754 119.766 469.994 120.184 470.142C120.602 470.29 121.041 470.343 121.477 470.297C121.913 470.252 122.337 470.108 122.723 469.876L126.385 467.691L126.605 467.92V467.963L125.022 472.668C124.747 473.597 124.799 474.611 125.167 475.498C125.535 476.384 126.191 477.074 126.998 477.422C127.804 477.77 128.697 477.75 129.49 477.366C130.283 476.981 130.915 476.262 131.252 475.36L132.828 470.633C132.828 470.597 132.828 470.562 132.828 470.526C133.248 470.525 133.667 470.494 134.084 470.433L135.968 474.446C136.395 475.302 137.098 475.936 137.928 476.214C138.759 476.491 139.651 476.391 140.418 475.934C141.185 475.477 141.765 474.699 142.036 473.764C142.307 472.83 142.248 471.812 141.871 470.926L139.987 466.906C140.15 466.699 140.314 466.485 140.464 466.263L144.653 467.37C145.503 467.563 146.385 467.372 147.113 466.838C147.842 466.304 148.358 465.469 148.554 464.509C148.75 463.55 148.61 462.541 148.163 461.697C147.716 460.853 146.998 460.24 146.16 459.987L142.43 459.002C142.43 458.723 142.392 458.438 142.361 458.152L146.129 455.896C146.91 455.428 147.496 454.627 147.759 453.669C148.021 452.711 147.939 451.673 147.529 450.784C147.116 449.9 146.411 449.238 145.569 448.945C144.727 448.652 143.817 448.751 143.039 449.22Z" fill="#FFC1EB"/>
<path d="M143.039 449.22L139.221 451.498C139.045 451.322 138.863 451.15 138.675 450.984L140.176 446.5C140.331 446.035 140.404 445.539 140.39 445.042C140.377 444.545 140.278 444.056 140.098 443.602C139.919 443.149 139.662 442.74 139.344 442.399C139.025 442.058 138.65 441.792 138.241 441.616C137.832 441.44 137.397 441.357 136.959 441.372C136.522 441.387 136.092 441.5 135.693 441.704C135.294 441.908 134.935 442.2 134.635 442.562C134.335 442.924 134.101 443.35 133.946 443.815L132.37 448.535C132.347 448.61 132.328 448.686 132.313 448.763C132.081 448.763 131.855 448.806 131.622 448.835L129.738 444.786C129.311 443.93 128.609 443.296 127.778 443.018C126.948 442.74 126.055 442.841 125.288 443.298C124.522 443.755 123.941 444.533 123.67 445.468C123.399 446.402 123.458 447.42 123.835 448.306L125.719 452.362C125.496 452.637 125.286 452.925 125.091 453.226C124.956 453.156 124.815 453.101 124.67 453.061L120.343 451.919C119.917 451.806 119.476 451.79 119.045 451.872C118.613 451.953 118.2 452.13 117.829 452.393C117.458 452.656 117.136 453 116.881 453.404C116.627 453.808 116.445 454.266 116.346 454.75C116.247 455.234 116.233 455.736 116.305 456.227C116.376 456.717 116.532 457.187 116.763 457.609C116.995 458.031 117.297 458.397 117.652 458.686C118.008 458.975 118.41 459.182 118.836 459.295L123.163 460.437C123.199 460.44 123.234 460.44 123.27 460.437C123.27 460.616 123.301 460.794 123.32 460.965L119.627 463.172C118.846 463.639 118.26 464.44 117.998 465.399C117.735 466.357 117.818 467.395 118.227 468.284C118.43 468.725 118.707 469.116 119.043 469.435C119.378 469.754 119.766 469.994 120.184 470.142C120.602 470.29 121.041 470.343 121.477 470.297C121.913 470.252 122.337 470.108 122.723 469.876L126.385 467.691L126.605 467.92V467.963L125.022 472.668C124.747 473.597 124.799 474.611 125.167 475.498C125.535 476.384 126.191 477.074 126.998 477.422C127.804 477.77 128.697 477.75 129.49 477.366C130.283 476.981 130.915 476.262 131.252 475.36L132.828 470.633C132.828 470.597 132.828 470.562 132.828 470.526C133.248 470.525 133.667 470.494 134.084 470.433L135.968 474.446C136.395 475.302 137.098 475.936 137.928 476.214C138.759 476.491 139.651 476.391 140.418 475.934C141.185 475.477 141.765 474.699 142.036 473.764C142.307 472.83 142.248 471.812 141.871 470.926L139.987 466.906C140.15 466.699 140.314 466.485 140.464 466.263L144.653 467.37C145.503 467.563 146.385 467.372 147.113 466.838C147.842 466.304 148.358 465.469 148.554 464.509C148.75 463.55 148.61 462.541 148.163 461.697C147.716 460.853 146.998 460.24 146.16 459.987L142.43 459.002C142.43 458.723 142.392 458.438 142.361 458.152L146.129 455.896C146.91 455.428 147.496 454.627 147.759 453.669C148.021 452.711 147.939 451.673 147.529 450.784C147.116 449.9 146.411 449.238 145.569 448.945C144.727 448.652 143.817 448.751 143.039 449.22Z" fill="#FFC1EB"/>
<path d="M143.039 449.22L139.221 451.498C139.045 451.322 138.863 451.15 138.675 450.984L140.176 446.5C140.331 446.035 140.404 445.539 140.39 445.042C140.377 444.545 140.278 444.056 140.098 443.602C139.919 443.149 139.662 442.74 139.344 442.399C139.025 442.058 138.65 441.792 138.241 441.616C137.832 441.44 137.397 441.357 136.959 441.372C136.522 441.387 136.092 441.5 135.693 441.704C135.294 441.908 134.935 442.2 134.635 442.562C134.335 442.924 134.101 443.35 133.946 443.815L132.37 448.535C132.347 448.61 132.328 448.686 132.313 448.763C132.081 448.763 131.855 448.806 131.622 448.835L129.738 444.786C129.311 443.93 128.609 443.296 127.778 443.018C126.948 442.74 126.055 442.841 125.288 443.298C124.522 443.755 123.941 444.533 123.67 445.468C123.399 446.402 123.458 447.42 123.835 448.306L125.719 452.362C125.496 452.637 125.286 452.925 125.091 453.226C124.956 453.156 124.815 453.101 124.67 453.061L120.343 451.919C119.917 451.806 119.476 451.79 119.045 451.872C118.613 451.953 118.2 452.13 117.829 452.393C117.458 452.656 117.136 453 116.881 453.404C116.627 453.808 116.445 454.266 116.346 454.75C116.247 455.234 116.233 455.736 116.305 456.227C116.376 456.717 116.532 457.187 116.763 457.609C116.995 458.031 117.297 458.397 117.652 458.686C118.008 458.975 118.41 459.182 118.836 459.295L123.163 460.437C123.199 460.44 123.234 460.44 123.27 460.437C123.27 460.616 123.301 460.794 123.32 460.965L119.627 463.172C118.846 463.639 118.26 464.44 117.998 465.399C117.735 466.357 117.818 467.395 118.227 468.284C118.43 468.725 118.707 469.116 119.043 469.435C119.378 469.754 119.766 469.994 120.184 470.142C120.602 470.29 121.041 470.343 121.477 470.297C121.913 470.252 122.337 470.108 122.723 469.876L126.385 467.691L126.605 467.92V467.963L125.022 472.668C124.747 473.597 124.799 474.611 125.167 475.498C125.535 476.384 126.191 477.074 126.998 477.422C127.804 477.77 128.697 477.75 129.49 477.366C130.283 476.981 130.915 476.262 131.252 475.36L132.828 470.633C132.828 470.597 132.828 470.562 132.828 470.526C133.248 470.525 133.667 470.494 134.084 470.433L135.968 474.446C136.395 475.302 137.098 475.936 137.928 476.214C138.759 476.491 139.651 476.391 140.418 475.934C141.185 475.477 141.765 474.699 142.036 473.764C142.307 472.83 142.248 471.812 141.871 470.926L139.987 466.906C140.15 466.699 140.314 466.485 140.464 466.263L144.653 467.37C145.503 467.563 146.385 467.372 147.113 466.838C147.842 466.304 148.358 465.469 148.554 464.509C148.75 463.55 148.61 462.541 148.163 461.697C147.716 460.853 146.998 460.24 146.16 459.987L142.43 459.002C142.43 458.723 142.392 458.438 142.361 458.152L146.129 455.896C146.91 455.428 147.496 454.627 147.759 453.669C148.021 452.711 147.939 451.673 147.529 450.784C147.116 449.9 146.411 449.238 145.569 448.945C144.727 448.652 143.817 448.751 143.039 449.22Z" fill="#FFC1EB"/>
<path d="M143.039 449.22L139.221 451.498C139.045 451.322 138.863 451.15 138.675 450.984L140.176 446.5C140.331 446.035 140.404 445.539 140.39 445.042C140.377 444.545 140.278 444.056 140.098 443.602C139.919 443.149 139.662 442.74 139.344 442.399C139.025 442.058 138.65 441.792 138.241 441.616C137.832 441.44 137.397 441.357 136.959 441.372C136.522 441.387 136.092 441.5 135.693 441.704C135.294 441.908 134.935 442.2 134.635 442.562C134.335 442.924 134.101 443.35 133.946 443.815L132.37 448.535C132.347 448.61 132.328 448.686 132.313 448.763C132.081 448.763 131.855 448.806 131.622 448.835L129.738 444.786C129.311 443.93 128.609 443.296 127.778 443.018C126.948 442.74 126.055 442.841 125.288 443.298C124.522 443.755 123.941 444.533 123.67 445.468C123.399 446.402 123.458 447.42 123.835 448.306L125.719 452.362C125.496 452.637 125.286 452.925 125.091 453.226C124.956 453.156 124.815 453.101 124.67 453.061L120.343 451.919C119.917 451.806 119.476 451.79 119.045 451.872C118.613 451.953 118.2 452.13 117.829 452.393C117.458 452.656 117.136 453 116.881 453.404C116.627 453.808 116.445 454.266 116.346 454.75C116.247 455.234 116.233 455.736 116.305 456.227C116.376 456.717 116.532 457.187 116.763 457.609C116.995 458.031 117.297 458.397 117.652 458.686C118.008 458.975 118.41 459.182 118.836 459.295L123.163 460.437C123.199 460.44 123.234 460.44 123.27 460.437C123.27 460.616 123.301 460.794 123.32 460.965L119.627 463.172C118.846 463.639 118.26 464.44 117.998 465.399C117.735 466.357 117.818 467.395 118.227 468.284C118.43 468.725 118.707 469.116 119.043 469.435C119.378 469.754 119.766 469.994 120.184 470.142C120.602 470.29 121.041 470.343 121.477 470.297C121.913 470.252 122.337 470.108 122.723 469.876L126.385 467.691L126.605 467.92V467.963L125.022 472.668C124.747 473.597 124.799 474.611 125.167 475.498C125.535 476.384 126.191 477.074 126.998 477.422C127.804 477.77 128.697 477.75 129.49 477.366C130.283 476.981 130.915 476.262 131.252 475.36L132.828 470.633C132.828 470.597 132.828 470.562 132.828 470.526C133.248 470.525 133.667 470.494 134.084 470.433L135.968 474.446C136.395 475.302 137.098 475.936 137.928 476.214C138.759 476.491 139.651 476.391 140.418 475.934C141.185 475.477 141.765 474.699 142.036 473.764C142.307 472.83 142.248 471.812 141.871 470.926L139.987 466.906C140.15 466.699 140.314 466.485 140.464 466.263L144.653 467.37C145.503 467.563 146.385 467.372 147.113 466.838C147.842 466.304 148.358 465.469 148.554 464.509C148.75 463.55 148.61 462.541 148.163 461.697C147.716 460.853 146.998 460.24 146.16 459.987L142.43 459.002C142.43 458.723 142.392 458.438 142.361 458.152L146.129 455.896C146.91 455.428 147.496 454.627 147.759 453.669C148.021 452.711 147.939 451.673 147.529 450.784C147.116 449.9 146.411 449.238 145.569 448.945C144.727 448.652 143.817 448.751 143.039 449.22Z" fill="#FFC1EB"/>
<path d="M143.039 449.22L139.221 451.498C139.045 451.322 138.863 451.15 138.675 450.984L140.176 446.5C140.331 446.035 140.404 445.539 140.39 445.042C140.377 444.545 140.278 444.056 140.098 443.602C139.919 443.149 139.662 442.74 139.344 442.399C139.025 442.058 138.65 441.792 138.241 441.616C137.832 441.44 137.397 441.357 136.959 441.372C136.522 441.387 136.092 441.5 135.693 441.704C135.294 441.908 134.935 442.2 134.635 442.562C134.335 442.924 134.101 443.35 133.946 443.815L132.37 448.535C132.347 448.61 132.328 448.686 132.313 448.763C132.081 448.763 131.855 448.806 131.622 448.835L129.738 444.786C129.311 443.93 128.609 443.296 127.778 443.018C126.948 442.74 126.055 442.841 125.288 443.298C124.522 443.755 123.941 444.533 123.67 445.468C123.399 446.402 123.458 447.42 123.835 448.306L125.719 452.362C125.496 452.637 125.286 452.925 125.091 453.226C124.956 453.156 124.815 453.101 124.67 453.061L120.343 451.919C119.917 451.806 119.476 451.79 119.045 451.872C118.613 451.953 118.2 452.13 117.829 452.393C117.458 452.656 117.136 453 116.881 453.404C116.627 453.808 116.445 454.266 116.346 454.75C116.247 455.234 116.233 455.736 116.305 456.227C116.376 456.717 116.532 457.187 116.763 457.609C116.995 458.031 117.297 458.397 117.652 458.686C118.008 458.975 118.41 459.182 118.836 459.295L123.163 460.437C123.199 460.44 123.234 460.44 123.27 460.437C123.27 460.616 123.301 460.794 123.32 460.965L119.627 463.172C118.846 463.639 118.26 464.44 117.998 465.399C117.735 466.357 117.818 467.395 118.227 468.284C118.43 468.725 118.707 469.116 119.043 469.435C119.378 469.754 119.766 469.994 120.184 470.142C120.602 470.29 121.041 470.343 121.477 470.297C121.913 470.252 122.337 470.108 122.723 469.876L126.385 467.691L126.605 467.92V467.963L125.022 472.668C124.747 473.597 124.799 474.611 125.167 475.498C125.535 476.384 126.191 477.074 126.998 477.422C127.804 477.77 128.697 477.75 129.49 477.366C130.283 476.981 130.915 476.262 131.252 475.36L132.828 470.633C132.828 470.597 132.828 470.562 132.828 470.526C133.248 470.525 133.667 470.494 134.084 470.433L135.968 474.446C136.395 475.302 137.098 475.936 137.928 476.214C138.759 476.491 139.651 476.391 140.418 475.934C141.185 475.477 141.765 474.699 142.036 473.764C142.307 472.83 142.248 471.812 141.871 470.926L139.987 466.906C140.15 466.699 140.314 466.485 140.464 466.263L144.653 467.37C145.503 467.563 146.385 467.372 147.113 466.838C147.842 466.304 148.358 465.469 148.554 464.509C148.75 463.55 148.61 462.541 148.163 461.697C147.716 460.853 146.998 460.24 146.16 459.987L142.43 459.002C142.43 458.723 142.392 458.438 142.361 458.152L146.129 455.896C146.91 455.428 147.496 454.627 147.759 453.669C148.021 452.711 147.939 451.673 147.529 450.784C147.116 449.9 146.411 449.238 145.569 448.945C144.727 448.652 143.817 448.751 143.039 449.22Z" fill="#FFC1EB"/>
<path d="M143.039 449.22L139.221 451.498C139.045 451.322 138.863 451.15 138.675 450.984L140.176 446.5C140.331 446.035 140.404 445.539 140.39 445.042C140.377 444.545 140.278 444.056 140.098 443.602C139.919 443.149 139.662 442.74 139.344 442.399C139.025 442.058 138.65 441.792 138.241 441.616C137.832 441.44 137.397 441.357 136.959 441.372C136.522 441.387 136.092 441.5 135.693 441.704C135.294 441.908 134.935 442.2 134.635 442.562C134.335 442.924 134.101 443.35 133.946 443.815L132.37 448.535C132.347 448.61 132.328 448.686 132.313 448.763C132.081 448.763 131.855 448.806 131.622 448.835L129.738 444.786C129.311 443.93 128.609 443.296 127.778 443.018C126.948 442.74 126.055 442.841 125.288 443.298C124.522 443.755 123.941 444.533 123.67 445.468C123.399 446.402 123.458 447.42 123.835 448.306L125.719 452.362C125.496 452.637 125.286 452.925 125.091 453.226C124.956 453.156 124.815 453.101 124.67 453.061L120.343 451.919C119.917 451.806 119.476 451.79 119.045 451.872C118.613 451.953 118.2 452.13 117.829 452.393C117.458 452.656 117.136 453 116.881 453.404C116.627 453.808 116.445 454.266 116.346 454.75C116.247 455.234 116.233 455.736 116.305 456.227C116.376 456.717 116.532 457.187 116.763 457.609C116.995 458.031 117.297 458.397 117.652 458.686C118.008 458.975 118.41 459.182 118.836 459.295L123.163 460.437C123.199 460.44 123.234 460.44 123.27 460.437C123.27 460.616 123.301 460.794 123.32 460.965L119.627 463.172C118.846 463.639 118.26 464.44 117.998 465.399C117.735 466.357 117.818 467.395 118.227 468.284C118.43 468.725 118.707 469.116 119.043 469.435C119.378 469.754 119.766 469.994 120.184 470.142C120.602 470.29 121.041 470.343 121.477 470.297C121.913 470.252 122.337 470.108 122.723 469.876L126.385 467.691L126.605 467.92V467.963L125.022 472.668C124.747 473.597 124.799 474.611 125.167 475.498C125.535 476.384 126.191 477.074 126.998 477.422C127.804 477.77 128.697 477.75 129.49 477.366C130.283 476.981 130.915 476.262 131.252 475.36L132.828 470.633C132.828 470.597 132.828 470.562 132.828 470.526C133.248 470.525 133.667 470.494 134.084 470.433L135.968 474.446C136.395 475.302 137.098 475.936 137.928 476.214C138.759 476.491 139.651 476.391 140.418 475.934C141.185 475.477 141.765 474.699 142.036 473.764C142.307 472.83 142.248 471.812 141.871 470.926L139.987 466.906C140.15 466.699 140.314 466.485 140.464 466.263L144.653 467.37C145.503 467.563 146.385 467.372 147.113 466.838C147.842 466.304 148.358 465.469 148.554 464.509C148.75 463.55 148.61 462.541 148.163 461.697C147.716 460.853 146.998 460.24 146.16 459.987L142.43 459.002C142.43 458.723 142.392 458.438 142.361 458.152L146.129 455.896C146.91 455.428 147.496 454.627 147.759 453.669C148.021 452.711 147.939 451.673 147.529 450.784C147.116 449.9 146.411 449.238 145.569 448.945C144.727 448.652 143.817 448.751 143.039 449.22Z" fill="#FFC1EB"/>
<path d="M143.039 449.22L139.221 451.498C139.045 451.322 138.863 451.15 138.675 450.984L140.176 446.5C140.331 446.035 140.404 445.539 140.39 445.042C140.377 444.545 140.278 444.056 140.098 443.602C139.919 443.149 139.662 442.74 139.344 442.399C139.025 442.058 138.65 441.792 138.241 441.616C137.832 441.44 137.397 441.357 136.959 441.372C136.522 441.387 136.092 441.5 135.693 441.704C135.294 441.908 134.935 442.2 134.635 442.562C134.335 442.924 134.101 443.35 133.946 443.815L132.37 448.535C132.347 448.61 132.328 448.686 132.313 448.763C132.081 448.763 131.855 448.806 131.622 448.835L129.738 444.786C129.311 443.93 128.609 443.296 127.778 443.018C126.948 442.74 126.055 442.841 125.288 443.298C124.522 443.755 123.941 444.533 123.67 445.468C123.399 446.402 123.458 447.42 123.835 448.306L125.719 452.362C125.496 452.637 125.286 452.925 125.091 453.226C124.956 453.156 124.815 453.101 124.67 453.061L120.343 451.919C119.917 451.806 119.476 451.79 119.045 451.872C118.613 451.953 118.2 452.13 117.829 452.393C117.458 452.656 117.136 453 116.881 453.404C116.627 453.808 116.445 454.266 116.346 454.75C116.247 455.234 116.233 455.736 116.305 456.227C116.376 456.717 116.532 457.187 116.763 457.609C116.995 458.031 117.297 458.397 117.652 458.686C118.008 458.975 118.41 459.182 118.836 459.295L123.163 460.437C123.199 460.44 123.234 460.44 123.27 460.437C123.27 460.616 123.301 460.794 123.32 460.965L119.627 463.172C118.846 463.639 118.26 464.44 117.998 465.399C117.735 466.357 117.818 467.395 118.227 468.284C118.43 468.725 118.707 469.116 119.043 469.435C119.378 469.754 119.766 469.994 120.184 470.142C120.602 470.29 121.041 470.343 121.477 470.297C121.913 470.252 122.337 470.108 122.723 469.876L126.385 467.691L126.605 467.92V467.963L125.022 472.668C124.747 473.597 124.799 474.611 125.167 475.498C125.535 476.384 126.191 477.074 126.998 477.422C127.804 477.77 128.697 477.75 129.49 477.366C130.283 476.981 130.915 476.262 131.252 475.36L132.828 470.633C132.828 470.597 132.828 470.562 132.828 470.526C133.248 470.525 133.667 470.494 134.084 470.433L135.968 474.446C136.395 475.302 137.098 475.936 137.928 476.214C138.759 476.491 139.651 476.391 140.418 475.934C141.185 475.477 141.765 474.699 142.036 473.764C142.307 472.83 142.248 471.812 141.871 470.926L139.987 466.906C140.15 466.699 140.314 466.485 140.464 466.263L144.653 467.37C145.503 467.563 146.385 467.372 147.113 466.838C147.842 466.304 148.358 465.469 148.554 464.509C148.75 463.55 148.61 462.541 148.163 461.697C147.716 460.853 146.998 460.24 146.16 459.987L142.43 459.002C142.43 458.723 142.392 458.438 142.361 458.152L146.129 455.896C146.91 455.428 147.496 454.627 147.759 453.669C148.021 452.711 147.939 451.673 147.529 450.784C147.116 449.9 146.411 449.238 145.569 448.945C144.727 448.652 143.817 448.751 143.039 449.22Z" fill="#FFC1EB"/>
<path d="M133.915 413.242C140.699 413.242 146.198 406.989 146.198 399.276C146.198 391.563 140.699 385.31 133.915 385.31C127.13 385.31 121.631 391.563 121.631 399.276C121.631 406.989 127.13 413.242 133.915 413.242Z" fill="#FFBB45"/>
<path d="M175.758 467.97C180.555 467.97 184.443 463.549 184.443 458.095C184.443 452.642 180.555 448.221 175.758 448.221C170.961 448.221 167.073 452.642 167.073 458.095C167.073 463.549 170.961 467.97 175.758 467.97Z" fill="#6938EF"/>
<path d="M173.409 510.96L173.974 492.91C173.991 492.373 173.913 491.839 173.744 491.337C173.575 490.836 173.32 490.379 172.992 489.992C172.664 489.606 172.272 489.298 171.837 489.088C171.403 488.878 170.936 488.769 170.464 488.769H144.961C144.486 488.769 144.017 488.879 143.58 489.091C143.144 489.304 142.751 489.615 142.423 490.005C142.095 490.395 141.841 490.857 141.675 491.363C141.509 491.868 141.434 492.407 141.457 492.945L142.122 509.917C142.193 511.67 141.845 513.412 141.114 514.957C140.383 516.503 139.297 517.794 137.971 518.692C132.055 522.694 127.167 528.391 123.794 535.214C120.421 542.037 118.682 549.746 118.75 557.573C118.818 565.399 120.692 573.068 124.184 579.813C127.675 586.558 132.662 592.143 138.647 596.011C144.632 599.878 151.404 601.893 158.288 601.852C165.172 601.812 171.926 599.719 177.876 595.782C183.825 591.844 188.761 586.201 192.192 579.415C195.622 572.63 197.426 564.939 197.424 557.113C197.424 540.291 189.404 526.489 177.359 519.021C176.109 518.224 175.078 517.049 174.381 515.626C173.683 514.203 173.347 512.587 173.409 510.96Z" fill="white"/>
<path d="M158.111 603.266C157.785 603.266 157.452 603.266 157.119 603.266C148.316 603.025 139.82 599.537 132.913 593.327C126.006 587.116 121.063 578.521 118.828 568.837C116.594 559.153 117.19 548.905 120.526 539.64C123.863 530.375 129.758 522.594 137.324 517.472C138.462 516.709 139.395 515.609 140.026 514.29C140.656 512.971 140.96 511.482 140.904 509.982L140.232 493.01C140.202 492.278 140.303 491.547 140.529 490.861C140.755 490.175 141.101 489.548 141.546 489.018C141.991 488.488 142.526 488.066 143.118 487.778C143.71 487.49 144.348 487.341 144.992 487.341H170.495C171.136 487.343 171.769 487.492 172.358 487.778C172.947 488.063 173.479 488.481 173.924 489.005C174.368 489.529 174.716 490.149 174.945 490.828C175.175 491.507 175.283 492.232 175.262 492.96L174.69 511.01C174.644 512.374 174.929 513.727 175.515 514.919C176.102 516.11 176.966 517.095 178.013 517.764C190.987 525.811 198.737 540.52 198.737 557.113C198.737 569.352 194.461 581.09 186.849 589.745C179.238 598.401 168.914 603.264 158.149 603.266H158.111ZM144.961 490.197C144.656 490.198 144.355 490.27 144.075 490.407C143.795 490.544 143.542 490.744 143.332 490.994C143.121 491.245 142.957 491.541 142.85 491.866C142.743 492.19 142.694 492.535 142.706 492.881L143.378 509.853C143.46 511.865 143.059 513.863 142.22 515.636C141.38 517.409 140.133 518.89 138.612 519.921C131.514 524.725 125.982 532.023 122.852 540.715C119.722 549.406 119.163 559.019 121.259 568.104C123.356 577.188 127.994 585.251 134.473 591.076C140.953 596.901 148.924 600.172 157.182 600.396C162.257 600.533 167.306 599.515 172.03 597.401C176.754 595.287 181.059 592.121 184.692 588.089C188.324 584.056 191.211 579.238 193.182 573.919C195.152 568.599 196.168 562.885 196.168 557.113C196.168 541.583 188.915 527.839 176.763 520.271C175.307 519.347 174.104 517.984 173.287 516.332C172.471 514.68 172.072 512.804 172.134 510.91L172.7 492.86C172.711 492.515 172.66 492.172 172.552 491.85C172.444 491.527 172.28 491.233 172.069 490.985C171.859 490.736 171.607 490.538 171.328 490.403C171.049 490.268 170.749 490.198 170.445 490.197H144.961Z" fill="black"/>
<path d="M174.646 416.64C177.081 416.64 179.055 414.396 179.055 411.628C179.055 408.86 177.081 406.616 174.646 406.616C172.212 406.616 170.238 408.86 170.238 411.628C170.238 414.396 172.212 416.64 174.646 416.64Z" fill="white"/>
<path d="M132.326 464.614C134.76 464.614 136.734 462.37 136.734 459.602C136.734 456.833 134.76 454.589 132.326 454.589C129.891 454.589 127.917 456.833 127.917 459.602C127.917 462.37 129.891 464.614 132.326 464.614Z" fill="white"/>
<path d="M135.283 593.484C136.816 591.478 143.83 582.774 155.499 581.582C170.432 580.047 180.179 592.128 181.247 593.484" fill="white"/>
<path d="M180.298 594.427C179.262 593.106 169.804 581.575 155.612 583.003C145.199 584.066 138.587 591.342 136.225 594.427L134.341 592.549C136.897 589.214 144.069 581.325 155.392 580.168C170.502 578.619 180.361 590.2 182.182 592.542L180.298 594.427Z" fill="black"/>
<path d="M399.263 238.84L373.597 244.552C368.705 244.872 363.902 242.969 360.244 239.263C356.586 235.557 354.373 230.35 354.091 224.789L353.733 217.77L392.82 208.667L399.263 238.84Z" fill="#202020"/>
<path d="M307.362 204.692L393.441 186.023L398.547 216.455L339.234 229.319C332.135 230.859 324.789 229.129 318.812 224.511C312.835 219.892 308.716 212.763 307.362 204.692Z" fill="#202020"/>
<path d="M66.3503 286.937C68.2642 286.431 70.0654 285.545 71.7541 284.281C70.0654 283.142 68.2642 282.257 66.3503 281.624C64.4365 280.992 62.8604 279.348 62.2975 277.071C61.8472 274.921 61.0591 272.897 59.9333 271C58.9201 272.897 58.1321 274.921 57.5692 277.071C57.0063 279.221 55.5428 280.992 53.5164 281.624C51.6025 282.13 49.6887 283.016 48 284.281C49.6887 285.419 51.4899 286.304 53.5164 286.937C55.4302 287.569 57.0063 289.213 57.5692 291.49C58.0195 293.64 58.8075 295.664 59.9333 297.561C60.9465 295.664 61.7346 293.64 62.2975 291.49C62.8604 289.213 64.3239 287.443 66.3503 286.937Z" fill="#6938EF"/>
</g>
<defs>
<filter id="filter0_d_438_948" x="0" y="0" width="636" height="722" filterUnits="userSpaceOnUse" color-interpolation-filters="sRGB">
<feFlood flood-opacity="0" result="BackgroundImageFix"/>
<feColorMatrix in="SourceAlpha" type="matrix" values="0 0 0 0 0 0 0 0 0 0 0 0 0 0 0 0 0 0 127 0" result="hardAlpha"/>
<feOffset dy="4"/>
<feGaussianBlur stdDeviation="2"/>
<feComposite in2="hardAlpha" operator="out"/>
<feColorMatrix type="matrix" values="0 0 0 0 0 0 0 0 0 0 0 0 0 0 0 0 0 0 0.25 0"/>
<feBlend mode="normal" in2="BackgroundImageFix" result="effect1_dropShadow_438_948"/>
<feBlend mode="normal" in="SourceGraphic" in2="effect1_dropShadow_438_948" result="shape"/>
</filter>
</defs>
</svg>
