<svg width="39" height="46" viewBox="0 0 39 46" fill="none" xmlns="http://www.w3.org/2000/svg">
<path d="M38.7362 40.746L36.4366 13.5988C36.4211 13.4183 36.3336 13.2499 36.1915 13.1273C36.0493 13.0047 35.8631 12.937 35.67 12.9375H29.5376V9.34377C29.5376 6.86565 28.4877 4.48903 26.6188 2.73673C24.75 0.98443 22.2153 0 19.5724 0C16.9294 0 14.3947 0.98443 12.5259 2.73673C10.657 4.48903 9.60714 6.86565 9.60714 9.34377V12.9375H3.4747C3.28159 12.937 3.09536 13.0047 2.95324 13.1273C2.81113 13.2499 2.7236 13.4183 2.70815 13.5988L0.408483 40.746C0.352399 41.4167 0.445007 42.091 0.680478 42.7264C0.915948 43.3618 1.28918 43.9447 1.77667 44.4382C2.26417 44.9318 2.85536 45.3253 3.51304 45.5942C4.17071 45.863 4.88062 46.0012 5.59806 46.0001H33.5466C34.2641 46.0012 34.974 45.863 35.6317 45.5942C36.2893 45.3253 36.8805 44.9318 37.368 44.4382C37.8555 43.9447 38.2288 43.3618 38.4642 42.7264C38.6997 42.091 38.7923 41.4167 38.7362 40.746ZM11.1403 9.34377C11.1403 7.2469 12.0286 5.23591 13.61 3.7532C15.1913 2.27048 17.336 1.4375 19.5724 1.4375C21.8087 1.4375 23.9534 2.27048 25.5348 3.7532C27.1161 5.23591 28.0045 7.2469 28.0045 9.34377V12.9375H11.1403V9.34377ZM33.5466 44.5626H5.59806C4.62893 44.5607 3.70007 44.1989 3.01478 43.5563C2.3295 42.9138 1.94362 42.0429 1.94159 41.1342C1.94159 40.9689 1.78062 42.9095 4.17993 14.375H9.60714V17.3794C9.09569 17.549 8.66462 17.8826 8.39013 18.3213C8.11565 18.7601 8.01542 19.2757 8.10715 19.777C8.19888 20.2783 8.47668 20.7331 8.89144 21.0609C9.3062 21.3888 9.83121 21.5686 10.3737 21.5686C10.9162 21.5686 11.4412 21.3888 11.856 21.0609C12.2707 20.7331 12.5485 20.2783 12.6402 19.777C12.732 19.2757 12.6317 18.7601 12.3573 18.3213C12.0828 17.8826 11.6517 17.549 11.1403 17.3794V14.375H28.0045V17.3794C27.493 17.549 27.0619 17.8826 26.7875 18.3213C26.513 18.7601 26.4127 19.2757 26.5045 19.777C26.5962 20.2783 26.874 20.7331 27.2888 21.0609C27.7035 21.3888 28.2285 21.5686 28.771 21.5686C29.3135 21.5686 29.8385 21.3888 30.2533 21.0609C30.668 20.7331 30.9458 20.2783 31.0376 19.777C31.1293 19.2757 31.0291 18.7601 30.7546 18.3213C30.4801 17.8826 30.049 17.549 29.5376 17.3794V14.375H34.9648L37.2031 40.861C37.2411 41.3332 37.1747 41.8077 37.0082 42.2547C36.8418 42.7018 36.5787 43.1119 36.2355 43.4593C35.8924 43.8067 35.4764 44.084 35.0138 44.2738C34.5511 44.4637 34.0517 44.562 33.5466 44.5626ZM10.3737 18.6875C10.577 18.6875 10.772 18.7633 10.9157 18.8981C11.0595 19.0329 11.1403 19.2157 11.1403 19.4063C11.1403 19.5969 11.0595 19.7797 10.9157 19.9145C10.772 20.0493 10.577 20.1251 10.3737 20.1251C10.1704 20.1251 9.97542 20.0493 9.83166 19.9145C9.6879 19.7797 9.60714 19.5969 9.60714 19.4063C9.60714 19.2157 9.6879 19.0329 9.83166 18.8981C9.97542 18.7633 10.1704 18.6875 10.3737 18.6875ZM28.771 18.6875C28.9743 18.6875 29.1693 18.7633 29.313 18.8981C29.4568 19.0329 29.5376 19.2157 29.5376 19.4063C29.5376 19.5969 29.4568 19.7797 29.313 19.9145C29.1693 20.0493 28.9743 20.1251 28.771 20.1251C28.5677 20.1251 28.3727 20.0493 28.229 19.9145C28.0852 19.7797 28.0045 19.5969 28.0045 19.4063C28.0045 19.2157 28.0852 19.0329 28.229 18.8981C28.3727 18.7633 28.5677 18.6875 28.771 18.6875Z" fill="black"/>
</svg>
