<svg width="32" height="31" viewBox="0 0 32 31" fill="none" xmlns="http://www.w3.org/2000/svg">
<rect x="1" width="30" height="30" rx="15" fill="#6938EF"/>
<path d="M31 15C31 19.1421 29.3211 22.8921 26.6066 25.6066C23.8921 28.3211 20.1421 30 16 30C11.8579 30 8.10786 28.3211 5.3934 25.6066C2.67893 22.8921 1 19.1421 1 15C1 10.8579 2.67893 7.10786 5.3934 4.3934C8.10786 1.67893 11.8579 0 16 0C20.1421 0 23.8921 1.67893 26.6066 4.3934C29.3211 7.10786 31 10.8579 31 15Z" fill="#FCF2F4"/>
<path d="M16 15L26.6066 4.3934M16 15L5.3934 25.6066M16 15L26.6066 25.6066M16 15L5.3934 4.3934M26.6066 4.3934C23.8921 1.67893 20.1421 0 16 0C11.8579 0 8.10786 1.67893 5.3934 4.3934M26.6066 4.3934C29.3211 7.10786 31 10.8579 31 15C31 19.1421 29.3211 22.8921 26.6066 25.6066M5.3934 25.6066C8.10786 28.3211 11.8579 30 16 30C20.1421 30 23.8921 28.3211 26.6066 25.6066M5.3934 25.6066C2.67893 22.8921 1 19.1421 1 15C1 10.8579 2.67893 7.10786 5.3934 4.3934" stroke="#FCF2F4"/>
<path d="M22.9946 19.9164L22.2153 11.3108C22.21 11.2536 22.1804 11.2002 22.1322 11.1613C22.084 11.1225 22.0209 11.101 21.9555 11.1012H19.8772V9.96196C19.8772 9.1764 19.5214 8.42301 18.888 7.86754C18.2547 7.31206 17.3957 7 16.5 7C15.6043 7 14.7453 7.31206 14.112 7.86754C13.4786 8.42301 13.1228 9.1764 13.1228 9.96196V11.1012H11.0445C10.9791 11.101 10.916 11.1225 10.8678 11.1613C10.8196 11.2002 10.79 11.2536 10.7847 11.3108L10.0054 19.9164C9.98638 20.129 10.0178 20.3428 10.0976 20.5442C10.1774 20.7456 10.3039 20.9304 10.4691 21.0869C10.6343 21.2433 10.8346 21.3681 11.0575 21.4533C11.2804 21.5385 11.521 21.5823 11.7641 21.582H21.2359C21.479 21.5823 21.7196 21.5385 21.9425 21.4533C22.1654 21.3681 22.3657 21.2433 22.5309 21.0869C22.6961 20.9304 22.8226 20.7456 22.9024 20.5442C22.9822 20.3428 23.0136 20.129 22.9946 19.9164V19.9164ZM13.6424 9.96196C13.6424 9.29726 13.9434 8.65978 14.4794 8.18976C15.0153 7.71974 15.7421 7.45569 16.5 7.45569C17.2579 7.45569 17.9847 7.71974 18.5206 8.18976C19.0566 8.65978 19.3576 9.29726 19.3576 9.96196V11.1012H13.6424V9.96196ZM21.2359 21.1263H11.7641C11.4357 21.1257 11.1209 21.011 10.8887 20.8073C10.6564 20.6036 10.5256 20.3275 10.525 20.0395C10.525 19.9871 10.4704 20.6022 11.2835 11.5569H13.1228V12.5093C12.9495 12.563 12.8034 12.6688 12.7104 12.8078C12.6173 12.9469 12.5834 13.1104 12.6145 13.2693C12.6455 13.4282 12.7397 13.5724 12.8803 13.6763C13.0208 13.7802 13.1987 13.8372 13.3826 13.8372C13.5664 13.8372 13.7444 13.7802 13.8849 13.6763C14.0255 13.5724 14.1196 13.4282 14.1507 13.2693C14.1818 13.1104 14.1478 12.9469 14.0548 12.8078C13.9618 12.6688 13.8157 12.563 13.6424 12.5093V11.5569H19.3576V12.5093C19.1843 12.563 19.0382 12.6688 18.9452 12.8078C18.8522 12.9469 18.8182 13.1104 18.8493 13.2693C18.8804 13.4282 18.9745 13.5724 19.1151 13.6763C19.2556 13.7802 19.4336 13.8372 19.6174 13.8372C19.8013 13.8372 19.9792 13.7802 20.1197 13.6763C20.2603 13.5724 20.3545 13.4282 20.3855 13.2693C20.4166 13.1104 20.3827 12.9469 20.2896 12.8078C20.1966 12.6688 20.0505 12.563 19.8772 12.5093V11.5569H21.7165L22.475 19.9529C22.4879 20.1026 22.4654 20.253 22.409 20.3947C22.3526 20.5364 22.2634 20.6664 22.1471 20.7765C22.0308 20.8867 21.8899 20.9746 21.7331 21.0347C21.5763 21.0949 21.407 21.1261 21.2359 21.1263V21.1263ZM13.3826 12.9239C13.4515 12.9239 13.5176 12.9479 13.5663 12.9907C13.615 13.0334 13.6424 13.0913 13.6424 13.1518C13.6424 13.2122 13.615 13.2701 13.5663 13.3129C13.5176 13.3556 13.4515 13.3796 13.3826 13.3796C13.3137 13.3796 13.2476 13.3556 13.1989 13.3129C13.1502 13.2701 13.1228 13.2122 13.1228 13.1518C13.1228 13.0913 13.1502 13.0334 13.1989 12.9907C13.2476 12.9479 13.3137 12.9239 13.3826 12.9239ZM19.6174 12.9239C19.6863 12.9239 19.7524 12.9479 19.8011 12.9907C19.8498 13.0334 19.8772 13.0913 19.8772 13.1518C19.8772 13.2122 19.8498 13.2701 19.8011 13.3129C19.7524 13.3556 19.6863 13.3796 19.6174 13.3796C19.5485 13.3796 19.4824 13.3556 19.4337 13.3129C19.385 13.2701 19.3576 13.2122 19.3576 13.1518C19.3576 13.0913 19.385 13.0334 19.4337 12.9907C19.4824 12.9479 19.5485 12.9239 19.6174 12.9239Z" fill="black"/>
</svg>
