<svg width="258" height="625" viewBox="0 0 258 625" fill="none" xmlns="http://www.w3.org/2000/svg">
<g opacity="0.2">
<path d="M0 0.37014C4.5378e-06 52.2765 11.7329 103.434 34.2247 149.597C56.7166 195.76 89.3188 235.596 129.325 265.799C169.331 296.003 215.587 315.701 264.254 323.261C312.921 330.82 362.595 326.022 409.152 309.265L324.553 47.5585C317.441 50.1184 309.852 50.8514 302.418 49.6966C294.983 48.5418 287.917 45.5325 281.805 40.9185C275.694 36.3045 270.713 30.2189 267.277 23.1668C263.841 16.1148 262.049 8.29962 262.049 0.370117L0 0.37014Z" fill="#6938EF"/>
<path d="M232.382 729.145C120.706 699.221 59.1432 566.848 94.8787 433.482C130.614 300.115 250.115 216.258 361.792 246.182C473.468 276.105 535.031 408.478 499.295 541.845C463.56 675.211 344.059 759.068 232.382 729.145Z" fill="#26DCD0"/>
</g>
</svg>
