<?xml version="1.0" encoding="UTF-8"?>
<svg width="700pt" height="700pt" version="1.1" viewBox="0 0 700 700" xmlns="http://www.w3.org/2000/svg" xmlns:xlink="http://www.w3.org/1999/xlink">
 <defs>
  <symbol id="w" overflow="visible">
   <path d="m3.6562-0.21875c-0.1875 0.09375-0.38672 0.16797-0.59375 0.21875-0.19922 0.050781-0.40625 0.078125-0.625 0.078125-0.66797 0-1.1992-0.17969-1.5938-0.54688-0.38672-0.375-0.57812-0.87891-0.57812-1.5156 0-0.64453 0.19141-1.1484 0.57812-1.5156 0.39453-0.375 0.92578-0.5625 1.5938-0.5625 0.21875 0 0.42578 0.027344 0.625 0.078125 0.20703 0.054687 0.40625 0.125 0.59375 0.21875v0.82812c-0.1875-0.125-0.375-0.21875-0.5625-0.28125-0.17969-0.0625-0.37109-0.09375-0.57812-0.09375-0.36719 0-0.65625 0.12109-0.875 0.35938-0.21094 0.23047-0.3125 0.55469-0.3125 0.96875 0 0.40625 0.10156 0.73047 0.3125 0.96875 0.21875 0.23047 0.50781 0.34375 0.875 0.34375 0.20703 0 0.39844-0.023437 0.57812-0.078125 0.1875-0.0625 0.375-0.16016 0.5625-0.29688z"/>
  </symbol>
  <symbol id="d" overflow="visible">
   <path d="m2.6875-2.1719c-0.085938-0.039063-0.16797-0.070313-0.25-0.09375-0.085938-0.019531-0.16797-0.03125-0.25-0.03125-0.25 0-0.44531 0.085937-0.57812 0.25-0.125 0.15625-0.1875 0.38281-0.1875 0.67188v1.375h-0.96875v-2.9844h0.96875v0.48438c0.11328-0.19531 0.25-0.33594 0.40625-0.42188 0.16406-0.09375 0.35938-0.14062 0.57812-0.14062h0.10938c0.039063 0 0.09375 0.007812 0.15625 0.015625z"/>
  </symbol>
  <symbol id="a" overflow="visible">
   <path d="m3.4375-1.5v0.26562h-2.2344c0.03125 0.23047 0.11328 0.40234 0.25 0.51562 0.13281 0.10547 0.32812 0.15625 0.57812 0.15625 0.20703 0 0.41406-0.023438 0.625-0.078125 0.20703-0.0625 0.42188-0.15625 0.64062-0.28125v0.73438c-0.21875 0.09375-0.44531 0.16406-0.67188 0.20312-0.23047 0.039062-0.45312 0.0625-0.67188 0.0625-0.54297 0-0.96484-0.13281-1.2656-0.40625-0.30469-0.28125-0.45312-0.67188-0.45312-1.1719 0-0.47656 0.14453-0.85938 0.4375-1.1406 0.30078-0.28125 0.70703-0.42188 1.2188-0.42188 0.46875 0 0.84375 0.14062 1.125 0.42188s0.42188 0.66406 0.42188 1.1406zm-0.96875-0.32812c0-0.17578-0.058594-0.31641-0.17188-0.42188-0.10547-0.11328-0.24219-0.17188-0.40625-0.17188-0.1875 0-0.33984 0.054687-0.45312 0.15625-0.11719 0.10547-0.1875 0.25-0.21875 0.4375z"/>
  </symbol>
  <symbol id="k" overflow="visible">
   <path d="m1.7969-1.3438c-0.19922 0-0.35156 0.039062-0.45312 0.10938-0.09375 0.0625-0.14062 0.16406-0.14062 0.29688 0 0.11719 0.035156 0.21094 0.10938 0.28125 0.082031 0.0625 0.19531 0.09375 0.34375 0.09375 0.17578 0 0.32812-0.0625 0.45312-0.1875s0.1875-0.28516 0.1875-0.48438v-0.10938zm1.4688-0.35938v1.7031h-0.96875v-0.4375c-0.125 0.17969-0.27344 0.30859-0.4375 0.39062-0.15625 0.082031-0.35156 0.125-0.57812 0.125-0.3125 0-0.57031-0.085938-0.76562-0.26562-0.1875-0.1875-0.28125-0.42188-0.28125-0.70312 0-0.35156 0.11719-0.61328 0.35938-0.78125 0.23828-0.16406 0.61719-0.25 1.1406-0.25h0.5625v-0.0625c0-0.15625-0.0625-0.26562-0.1875-0.32812-0.11719-0.070312-0.29688-0.10938-0.54688-0.10938-0.21094 0-0.40234 0.023437-0.57812 0.0625-0.17969 0.042969-0.33984 0.10156-0.48438 0.17188v-0.71875c0.19531-0.050781 0.39844-0.085938 0.60938-0.10938 0.20703-0.03125 0.41406-0.046875 0.625-0.046875 0.53906 0 0.92969 0.10938 1.1719 0.32812 0.23828 0.21094 0.35938 0.55469 0.35938 1.0312z"/>
  </symbol>
  <symbol id="c" overflow="visible">
   <path d="m1.5-3.8438v0.85938h0.98438v0.67188h-0.98438v1.2812c0 0.13672 0.023438 0.23047 0.078125 0.28125 0.0625 0.042969 0.17578 0.0625 0.34375 0.0625h0.48438v0.6875h-0.8125c-0.38672 0-0.65625-0.078125-0.8125-0.23438s-0.23438-0.42188-0.23438-0.79688v-1.2812h-0.46875v-0.67188h0.46875v-0.85938z"/>
  </symbol>
  <symbol id="j" overflow="visible">
   <path d="m2.5-2.5469v-1.6094h0.95312v4.1562h-0.95312v-0.4375c-0.13672 0.17969-0.28125 0.30859-0.4375 0.39062-0.15625 0.082031-0.33984 0.125-0.54688 0.125-0.375 0-0.68359-0.14453-0.92188-0.4375-0.23047-0.28906-0.34375-0.67188-0.34375-1.1406 0-0.45703 0.11328-0.83203 0.34375-1.125 0.23828-0.28906 0.54688-0.4375 0.92188-0.4375 0.19531 0 0.375 0.042969 0.53125 0.125 0.16406 0.085938 0.31641 0.21484 0.45312 0.39062zm-0.64062 1.9375c0.20703 0 0.36328-0.070313 0.46875-0.21875 0.11328-0.15625 0.17188-0.37891 0.17188-0.67188 0-0.28125-0.058594-0.49219-0.17188-0.64062-0.10547-0.15625-0.26172-0.23438-0.46875-0.23438-0.19922 0-0.35547 0.078125-0.46875 0.23438-0.10547 0.14844-0.15625 0.35938-0.15625 0.64062 0 0.29297 0.050781 0.51562 0.15625 0.67188 0.11328 0.14844 0.26953 0.21875 0.46875 0.21875z"/>
  </symbol>
  <symbol id="i" overflow="visible">
   <path d="m2.0469-0.60938c0.20703 0 0.36328-0.070313 0.46875-0.21875 0.11328-0.15625 0.17188-0.37891 0.17188-0.67188 0-0.28125-0.058594-0.49219-0.17188-0.64062-0.10547-0.15625-0.26172-0.23438-0.46875-0.23438-0.19922 0-0.35547 0.078125-0.46875 0.23438-0.10547 0.14844-0.15625 0.35938-0.15625 0.64062 0 0.29297 0.050781 0.51562 0.15625 0.67188 0.11328 0.14844 0.26953 0.21875 0.46875 0.21875zm-0.625-1.9375c0.125-0.17578 0.26562-0.30469 0.42188-0.39062 0.16406-0.082031 0.35156-0.125 0.5625-0.125 0.36328 0 0.66406 0.14844 0.90625 0.4375 0.23828 0.29297 0.35938 0.66797 0.35938 1.125 0 0.46875-0.12109 0.85156-0.35938 1.1406-0.24219 0.29297-0.54297 0.4375-0.90625 0.4375-0.21094 0-0.39844-0.042969-0.5625-0.125-0.15625-0.082031-0.29688-0.21094-0.42188-0.39062v0.4375h-0.96875v-4.1562h0.96875z"/>
  </symbol>
  <symbol id="h" overflow="visible">
   <path d="m0.0625-2.9844h0.95312l0.8125 2.0156 0.6875-2.0156h0.95312l-1.2656 3.2656c-0.125 0.33203-0.27344 0.56641-0.4375 0.70312-0.16797 0.13281-0.39062 0.20312-0.67188 0.20312h-0.54688v-0.64062h0.29688c0.16406 0 0.28516-0.027344 0.35938-0.078125 0.070313-0.054688 0.12891-0.14062 0.17188-0.26562l0.03125-0.09375z"/>
  </symbol>
  <symbol id="g" overflow="visible">
   <path d="m0.5-3.9844h1.0312v3.9844h-1.0312z"/>
  </symbol>
  <symbol id="f" overflow="visible">
   <path d="m2.875-2.8906v0.76562c-0.125-0.082031-0.25781-0.14453-0.39062-0.1875-0.13672-0.039062-0.27344-0.0625-0.40625-0.0625-0.27344 0-0.48047 0.078125-0.625 0.23438-0.14844 0.15625-0.21875 0.37109-0.21875 0.64062 0 0.28125 0.070313 0.5 0.21875 0.65625 0.14453 0.15625 0.35156 0.23438 0.625 0.23438 0.14453 0 0.28516-0.019531 0.42188-0.0625 0.13281-0.039063 0.25781-0.10938 0.375-0.20312v0.78125c-0.14844 0.0625-0.29688 0.10156-0.45312 0.125-0.15625 0.03125-0.3125 0.046875-0.46875 0.046875-0.54297 0-0.96484-0.13281-1.2656-0.40625-0.30469-0.28125-0.45312-0.67188-0.45312-1.1719 0-0.48828 0.14844-0.86719 0.45312-1.1406 0.30078-0.28125 0.72266-0.42188 1.2656-0.42188 0.15625 0 0.3125 0.015625 0.46875 0.046875 0.15625 0.023437 0.30469 0.0625 0.45312 0.125z"/>
  </symbol>
  <symbol id="b" overflow="visible">
   <path d="m1.875-2.375c-0.21094 0-0.37109 0.078125-0.48438 0.23438-0.10547 0.14844-0.15625 0.35938-0.15625 0.64062 0 0.29297 0.050781 0.51562 0.15625 0.67188 0.11328 0.14844 0.27344 0.21875 0.48438 0.21875 0.20703 0 0.36719-0.070313 0.48438-0.21875 0.11328-0.15625 0.17188-0.37891 0.17188-0.67188 0-0.28125-0.058594-0.49219-0.17188-0.64062-0.11719-0.15625-0.27734-0.23438-0.48438-0.23438zm0-0.6875c0.51953 0 0.92188 0.14062 1.2031 0.42188 0.28906 0.27344 0.4375 0.65234 0.4375 1.1406 0 0.5-0.14844 0.89062-0.4375 1.1719-0.28125 0.27344-0.68359 0.40625-1.2031 0.40625-0.51172 0-0.91406-0.13281-1.2031-0.40625-0.29297-0.28125-0.4375-0.67188-0.4375-1.1719 0-0.48828 0.14453-0.86719 0.4375-1.1406 0.28906-0.28125 0.69141-0.42188 1.2031-0.42188z"/>
  </symbol>
  <symbol id="e" overflow="visible">
   <path d="m3.4688-1.8281v1.8281h-0.96875v-1.3906c0-0.25781-0.007812-0.4375-0.015625-0.53125-0.011719-0.10156-0.03125-0.17578-0.0625-0.21875-0.03125-0.0625-0.085937-0.10938-0.15625-0.14062-0.0625-0.039062-0.13281-0.0625-0.20312-0.0625-0.21094 0-0.37109 0.078125-0.48438 0.23438-0.10547 0.15625-0.15625 0.37109-0.15625 0.64062v1.4688h-0.96875v-2.9844h0.96875v0.4375c0.13281-0.17578 0.28516-0.30469 0.45312-0.39062 0.16406-0.082031 0.34375-0.125 0.53125-0.125 0.34375 0 0.60156 0.10938 0.78125 0.32812 0.1875 0.21094 0.28125 0.51172 0.28125 0.90625z"/>
  </symbol>
  <symbol id="v" overflow="visible">
   <path d="m2.5-0.5c-0.13672 0.16797-0.28125 0.29297-0.4375 0.375-0.15625 0.085938-0.33984 0.125-0.54688 0.125-0.36719 0-0.66797-0.14062-0.90625-0.42188-0.24219-0.28906-0.35938-0.66016-0.35938-1.1094 0-0.44531 0.11719-0.8125 0.35938-1.0938 0.23828-0.28906 0.53906-0.4375 0.90625-0.4375 0.20703 0 0.39062 0.042969 0.54688 0.125 0.15625 0.085938 0.30078 0.21484 0.4375 0.39062v-0.4375h0.95312v2.6875c0 0.47656-0.15234 0.84375-0.45312 1.0938-0.30469 0.25781-0.74609 0.39062-1.3281 0.39062-0.17969 0-0.35547-0.015625-0.53125-0.046875-0.17969-0.03125-0.35547-0.078125-0.53125-0.14062v-0.73438c0.16406 0.09375 0.32812 0.16016 0.48438 0.20312 0.16406 0.050781 0.33203 0.078125 0.5 0.078125 0.3125 0 0.53906-0.070313 0.6875-0.20312 0.14453-0.13672 0.21875-0.34766 0.21875-0.64062zm-0.64062-1.875c-0.19922 0-0.35547 0.074219-0.46875 0.21875-0.10547 0.14844-0.15625 0.35547-0.15625 0.625 0 0.27344 0.050781 0.48047 0.15625 0.625 0.11328 0.14844 0.26953 0.21875 0.46875 0.21875 0.19531 0 0.35156-0.070312 0.46875-0.21875 0.11328-0.14453 0.17188-0.35156 0.17188-0.625 0-0.26953-0.058594-0.47656-0.17188-0.625-0.11719-0.14453-0.27344-0.21875-0.46875-0.21875z"/>
  </symbol>
  <symbol id="u" overflow="visible">
   <path d="m0.45312-4.1562h0.96875v2.2656l1.0938-1.0938h1.1094l-1.4531 1.3594 1.5625 1.625h-1.1562l-1.1562-1.25v1.25h-0.96875z"/>
  </symbol>
  <symbol id="t" overflow="visible">
   <path d="m1.5781-0.75h1.75v0.75h-2.8906v-0.75l1.4531-1.2969c0.125-0.11328 0.21875-0.22266 0.28125-0.32812 0.0625-0.11328 0.09375-0.23438 0.09375-0.35938 0-0.1875-0.0625-0.33594-0.1875-0.45312-0.125-0.11328-0.29297-0.17188-0.5-0.17188-0.15625 0-0.33594 0.039063-0.53125 0.10938-0.1875 0.0625-0.39062 0.16406-0.60938 0.29688v-0.875c0.23828-0.070313 0.46875-0.12891 0.6875-0.17188 0.22656-0.039062 0.45312-0.0625 0.67188-0.0625 0.47656 0 0.84766 0.10938 1.1094 0.32812 0.25781 0.21094 0.39062 0.5 0.39062 0.875 0 0.21094-0.058594 0.41406-0.17188 0.60938-0.10547 0.1875-0.33984 0.4375-0.70312 0.75z"/>
  </symbol>
  <symbol id="s" overflow="visible">
   <path d="m1.9844-1.9688c-0.1875 0-0.32812 0.058594-0.42188 0.17188-0.085938 0.11719-0.125 0.29297-0.125 0.53125 0 0.23047 0.039062 0.40625 0.125 0.53125 0.09375 0.11719 0.23438 0.17188 0.42188 0.17188 0.17578 0 0.30469-0.054688 0.39062-0.17188 0.09375-0.125 0.14062-0.30078 0.14062-0.53125 0-0.23828-0.046875-0.41406-0.14062-0.53125-0.085938-0.11328-0.21484-0.17188-0.39062-0.17188zm1.2656-1.9062v0.73438c-0.16797-0.082031-0.32812-0.14062-0.48438-0.17188-0.14844-0.039062-0.29297-0.0625-0.4375-0.0625-0.30469 0-0.54297 0.085938-0.71875 0.25-0.16797 0.16797-0.26562 0.41797-0.29688 0.75 0.125-0.082031 0.25391-0.14453 0.39062-0.1875 0.13281-0.039062 0.28516-0.0625 0.45312-0.0625 0.40625 0 0.73438 0.12109 0.98438 0.35938 0.25 0.23047 0.375 0.54297 0.375 0.9375 0 0.42969-0.14062 0.77344-0.42188 1.0312-0.28125 0.25-0.65625 0.375-1.125 0.375-0.52344 0-0.92188-0.17188-1.2031-0.51562-0.28125-0.35156-0.42188-0.85156-0.42188-1.5 0-0.65625 0.16016-1.1719 0.48438-1.5469 0.33203-0.375 0.78906-0.5625 1.375-0.5625 0.1875 0 0.36328 0.015625 0.53125 0.046875 0.17578 0.023438 0.34766 0.0625 0.51562 0.125z"/>
  </symbol>
  <symbol id="r" overflow="visible">
   <path d="m2.4219-4.1562v0.625h-0.51562c-0.13672 0-0.23438 0.027344-0.29688 0.078125-0.054687 0.054687-0.078125 0.13672-0.078125 0.25v0.21875h0.82812v0.67188h-0.82812v2.3125h-0.95312v-2.3125h-0.46875v-0.67188h0.46875v-0.21875c0-0.32031 0.085937-0.5625 0.26562-0.71875 0.1875-0.15625 0.47266-0.23438 0.85938-0.23438z"/>
  </symbol>
  <symbol id="q" overflow="visible">
   <path d="m3.2344-2.5c0.11328-0.17578 0.25391-0.3125 0.42188-0.40625 0.16406-0.10156 0.35156-0.15625 0.5625-0.15625 0.33203 0 0.58594 0.10938 0.76562 0.32812 0.1875 0.21094 0.28125 0.51172 0.28125 0.90625v1.8281h-0.96875v-1.5625c0.007813-0.019531 0.015625-0.039062 0.015625-0.0625v-0.10938c0-0.21875-0.03125-0.375-0.09375-0.46875s-0.16406-0.14062-0.29688-0.14062c-0.1875 0-0.33594 0.078125-0.4375 0.23438-0.09375 0.14844-0.14062 0.35938-0.14062 0.64062v1.4688h-0.96875v-1.5625c0-0.33203-0.03125-0.54688-0.09375-0.64062-0.054688-0.09375-0.15234-0.14062-0.29688-0.14062-0.17969 0-0.32031 0.078125-0.42188 0.23438-0.09375 0.14844-0.14062 0.35938-0.14062 0.64062v1.4688h-0.96875v-2.9844h0.96875v0.4375c0.11328-0.17578 0.24219-0.30469 0.39062-0.39062 0.15625-0.082031 0.32812-0.125 0.51562-0.125 0.20703 0 0.39062 0.054688 0.54688 0.15625 0.15625 0.09375 0.27344 0.23047 0.35938 0.40625z"/>
  </symbol>
  <symbol id="p" overflow="visible">
   <path d="m3.4688-1.8281v1.8281h-0.96875v-1.3906c0-0.25781-0.007812-0.4375-0.015625-0.53125-0.011719-0.10156-0.03125-0.17578-0.0625-0.21875-0.03125-0.0625-0.085937-0.10938-0.15625-0.14062-0.0625-0.039062-0.13281-0.0625-0.20312-0.0625-0.21094 0-0.37109 0.078125-0.48438 0.23438-0.10547 0.15625-0.15625 0.37109-0.15625 0.64062v1.4688h-0.96875v-4.1562h0.96875v1.6094c0.13281-0.17578 0.28516-0.30469 0.45312-0.39062 0.16406-0.082031 0.34375-0.125 0.53125-0.125 0.34375 0 0.60156 0.10938 0.78125 0.32812 0.1875 0.21094 0.28125 0.51172 0.28125 0.90625z"/>
  </symbol>
  <symbol id="o" overflow="visible">
   <path d="m0.5-3.9844h1.1562l1.4375 2.7344v-2.7344h0.98438v3.9844h-1.1562l-1.4375-2.7344v2.7344h-0.98438z"/>
  </symbol>
  <symbol id="n" overflow="visible">
   <path d="m0.42188-1.1719v-1.8125h0.96875v0.29688 0.60938 0.48438c0 0.24219 0.003906 0.41797 0.015625 0.53125 0.007812 0.10547 0.03125 0.17969 0.0625 0.21875 0.039062 0.0625 0.09375 0.11719 0.15625 0.15625 0.0625 0.03125 0.13281 0.046875 0.21875 0.046875 0.19531 0 0.35156-0.078125 0.46875-0.23438 0.11328-0.15625 0.17188-0.36719 0.17188-0.64062v-1.4688h0.95312v2.9844h-0.95312v-0.4375c-0.14844 0.17969-0.30469 0.30859-0.46875 0.39062-0.15625 0.082031-0.33594 0.125-0.53125 0.125-0.34375 0-0.60938-0.10156-0.79688-0.3125-0.17969-0.21875-0.26562-0.53125-0.26562-0.9375z"/>
  </symbol>
  <symbol id="m" overflow="visible">
   <path d="m0.5-3.9844h1.7031c0.50781 0 0.89844 0.11719 1.1719 0.34375 0.26953 0.21875 0.40625 0.53906 0.40625 0.95312 0 0.41797-0.13672 0.74219-0.40625 0.96875-0.27344 0.21875-0.66406 0.32812-1.1719 0.32812h-0.67188v1.3906h-1.0312zm1.0312 0.75v1.1094h0.5625c0.19531 0 0.34766-0.046875 0.45312-0.14062 0.11328-0.10156 0.17188-0.24219 0.17188-0.42188 0-0.17578-0.058594-0.3125-0.17188-0.40625-0.10547-0.09375-0.25781-0.14062-0.45312-0.14062z"/>
  </symbol>
  <symbol id="l" overflow="visible">
   <path d="m0.45312-2.9844h0.96875v2.9375c0 0.39453-0.10156 0.69531-0.29688 0.90625-0.1875 0.21875-0.46484 0.32812-0.82812 0.32812h-0.48438v-0.64062h0.17188c0.17578 0 0.29688-0.042969 0.35938-0.125 0.070312-0.074219 0.10938-0.23047 0.10938-0.46875zm0-1.1719h0.96875v0.78125h-0.96875z"/>
  </symbol>
 </defs>
 <g>
  <path d="m437.46 238.1c4.0586-0.11328 7.6562-2.6484 9.1328-6.4336 1.4766-3.7852 0.54297-8.0859-2.3711-10.918-2.9141-2.832-7.2383-3.6445-10.98-2.0625-3.7422 1.582-6.1719 5.2461-6.1719 9.3086 0.085937 5.6562 4.7344 10.176 10.391 10.105z"/>
  <path d="m437.46 261.36c4.0586-0.11328 7.6562-2.6484 9.1328-6.4336 1.4766-3.7852 0.54297-8.0859-2.3711-10.918-2.9141-2.832-7.2383-3.6445-10.98-2.0625-3.7422 1.582-6.1719 5.25-6.1719 9.3125 0.085937 5.6562 4.7344 10.172 10.391 10.102z"/>
  <path d="m437.46 284.62c4.0586-0.11328 7.6562-2.6484 9.1328-6.4336 1.4766-3.7812 0.54297-8.082-2.3711-10.914-2.9102-2.832-7.2383-3.6484-10.98-2.0664-3.7422 1.582-6.1719 5.25-6.1719 9.3125 0.085937 5.6562 4.7344 10.176 10.391 10.102z"/>
  <path d="m262.54 236.94c4.0625-0.11328 7.6602-2.6484 9.1367-6.4336 1.4727-3.7852 0.53906-8.0859-2.375-10.918-2.9102-2.832-7.2344-3.6445-10.977-2.0625-3.7422 1.582-6.1758 5.25-6.1758 9.3086 0.089844 5.6562 4.7344 10.176 10.391 10.105z"/>
  <path d="m262.54 260.2c4.0625-0.11328 7.6602-2.6484 9.1367-6.4336 1.4727-3.7852 0.53906-8.0859-2.375-10.918-2.9102-2.832-7.2344-3.6445-10.977-2.0625-3.7422 1.582-6.1758 5.25-6.1758 9.3125 0.089844 5.6562 4.7344 10.172 10.391 10.102z"/>
  <path d="m262.54 283.45c4.0625-0.11328 7.6602-2.6484 9.1367-6.4336 1.4727-3.7852 0.53906-8.0859-2.375-10.918-2.9102-2.832-7.2344-3.6445-10.977-2.0625-3.7422 1.582-6.1758 5.25-6.1758 9.3125 0.089844 5.6562 4.7344 10.172 10.391 10.102z"/>
  <path d="m218.75 310.45c-3.625 0-6.5625 2.9375-6.5625 6.5625v6.4609c0 3.625 2.9375 6.5625 6.5625 6.5625s6.5625-2.9375 6.5625-6.5625v-6.4609c0-3.625-2.9375-6.5625-6.5625-6.5625z"/>
  <path d="m218.75 336.41c-3.625 0-6.5625 2.9375-6.5625 6.5625v88.25-0.003906c0 3.625 2.9375 6.5625 6.5625 6.5625s6.5625-2.9375 6.5625-6.5625v-88.246c0-3.625-2.9375-6.5625-6.5625-6.5625z"/>
  <path d="m458.06 368.59h-216.12c-3.7617 0.22266-6.7148 3.3047-6.7812 7.0703v102.41c0.050781 5.4844 2.2617 10.723 6.1445 14.594 3.8867 3.8672 9.1367 6.0508 14.621 6.0781h188.16c5.4844-0.027344 10.734-2.2109 14.621-6.0781 3.8828-3.8711 6.0938-9.1094 6.1445-14.594v-102.41c-0.066406-3.7656-3.0195-6.8477-6.7812-7.0703zm-6.3438 109.48c-0.10156 4.1641-3.4766 7.4961-7.6406 7.5469h-188.16c-4.1641-0.050781-7.5391-3.3828-7.6406-7.5469v-96.359h203.44z"/>
  <path d="m563.78 339.38c17.551-77.438 18.191-148.9 15.531-195.78-2.9648-52.406-10.367-85.422-10.684-86.801h-0.011718 0.003906c-0.14844-0.66797-0.40234-1.3047-0.74609-1.8945-4.1367-6.7422-8.7656-13.168-13.848-19.23-11.527-13.691-22.488-21.379-32.574-22.863-19.941-2.9258-39.766 7.0664-55.816 28.141-13.395 17.586-23.172 41.305-27.863 67.328h-174.8c-6.8242-37.965-24.297-70.676-46.391-86.32-11.906-8.4297-24.902-11.57-37.598-9.0938-18.77 3.668-43.137 37.75-45.852 41.625v-0.003907c-0.48438 0.69922-0.82422 1.4883-1.0078 2.3164h-0.015625c-0.3125 1.3789-7.7148 34.367-10.68 86.746-2.6602 46.852-2.0195 118.29 15.535 195.72-4.8711 0.56641-9.3672 2.8984-12.637 6.5508-3.2734 3.6562-5.0898 8.3828-5.1133 13.285v98.492c0.027344 5.4336 2.2148 10.637 6.0781 14.457 3.8672 3.8203 9.0938 5.9453 14.527 5.9102h48.301v28.516c0 22.875 19.09 41.484 42 41.484h239.75c22.91 0 42-18.609 42-41.484v-28.516h48.301c5.4336 0.035156 10.66-2.0898 14.527-5.9102 3.8633-3.8203 6.0508-9.0234 6.0781-14.457v-98.492c-0.019531-4.7734-1.7422-9.3828-4.8594-13-3.1133-3.6172-7.4219-6.0039-12.141-6.7266zm-7.3672-276.9c3.9297 19.555 25.57 139.97-6.0273 276.58h-14.559c13.781-62.426 16.711-126.76 8.6562-190.18-5.2305-40.809-13.441-68.559-16.473-77.91 6.1523-7.4062 12.848-11.57 19.492-11.57 2.7461 0.003906 5.9102 1.4219 8.9102 3.0781zm-47.992 50.859h0.003906c2.4375-9.5625 5.8594-18.848 10.215-27.703 9.6992 35.203 31.031 134.62 3.7188 253.42h-10.484v-132.7c10.938-12.938 18.594-29.945 18.594-47.719v-8.6875c-0.046875-7.5195-2.1172-14.887-5.9961-21.328s-9.4219-11.719-16.047-15.277zm-32.344-64.438c13.023-17.105 28.469-25.305 43.465-23.105 8.1875 1.2031 18.184 10.586 26.277 20.531-20.949 1.1953-39.641 24.801-49.812 62.641-2.4648-0.45703-4.9688-0.6875-7.4766-0.69141h-37.395c4.4727-22.875 13.363-44.172 24.941-59.375zm-294.57-23.16c9.2148-1.8008 18.461 0.52734 27.492 6.9219 18.648 13.211 34.148 42.34 40.617 75.613h-44.859c-9.9414-36.676-28.129-59.848-48.605-61.855 8.6914-9.9805 18.695-19.375 25.355-20.68zm6.6172 180.61v132.7h-10.73c-13.984-61.711-16.898-125.41-8.6094-188.14 0.24219-1.8203 0.49219-3.6133 0.74609-5.3789v13.102c0 17.773 7.6562 34.781 18.594 47.719zm-15.094-81.914c3.1484-16.766 6.5508-30.078 9.1367-39.094 3.8633 7.7266 6.9727 15.809 9.2969 24.129-7.8984 2.3203-14.539 7.7109-18.434 14.965zm-28.699-61.961c3-1.6562 6.1641-3.0742 8.918-3.0742 6.6836 0 13.418 4.1445 19.598 11.512-3.1367 9.4297-11.559 37.141-17.016 77.828-8.4336 63.422-5.6953 127.84 8.0938 190.31h-13.535c-31.602-136.52-9.9844-257.01-6.0586-276.58zm354.42 444c0 15.641-13.203 28.359-28.875 28.359h-239.75c-15.672 0-28.875-12.723-28.875-28.359v-98.516c0-3.625-2.9375-6.5625-6.5625-6.5625s-6.5625 2.9375-6.5625 6.5625v56.875h-48.301c-1.957 0.039062-3.8438-0.70312-5.25-2.0625s-2.207-3.2227-2.2305-5.1797v-98.492c0-4.0781 3.3828-6.9219 7.4805-6.9219h48.301v9.8438c0 3.625 2.9375 6.5625 6.5625 6.5625s6.5625-2.9375 6.5625-6.5625v-143.68l31.719 27.605v37.605c0.089844 7.7461 3.2109 15.145 8.6992 20.613 5.4844 5.4688 12.895 8.5664 20.641 8.6328h1.2422c5.6055-0.039062 11.078-1.6914 15.766-4.7578 4.6875-3.0703 8.3906-7.4258 10.668-12.543l13.594 11.77c12.898 11.148 29.383 17.281 46.434 17.27s33.527-6.1641 46.41-17.332l13.594-11.695v-0.003907c2.2773 5.1211 5.9805 9.4727 10.672 12.539 4.6875 3.0664 10.16 4.7188 15.762 4.7539h1.2422c7.7461-0.066406 15.156-3.1641 20.641-8.6328 5.4883-5.4688 8.6094-12.867 8.6992-20.613v-37.605l31.719-27.605zm-261.74-311.8c-1.2031 0-1.8516-1.5-1.8516-2.707v-12.605h55.781v12.605c0 1.2031-0.875 2.707-2.082 2.707zm41.898 13.125v75.754c0 8.7031-6.6289 16.121-15.355 16.121h-1.2422c-4.2656-0.058594-8.3398-1.7773-11.367-4.7852-3.0234-3.0078-4.7617-7.0703-4.8477-11.336v-75.754zm132.23-13.125c-1.2031 0-2.0781-1.5-2.0781-2.707v-12.605h55.781v12.605c0 1.2031-0.64453 2.707-1.8516 2.707zm42.766 13.125v75.754c-0.085938 4.2656-1.8242 8.3281-4.8477 11.336-3.0273 3.0078-7.1016 4.7266-11.367 4.7852h-1.2422c-8.7266 0-15.355-7.418-15.355-16.121v-75.754zm43.797-6.0156-30.672 26.75v-21.715c6.5625-1.6406 10.938-7.6719 10.938-14.855v-18.973c0.082031-1.7227-0.53125-3.4102-1.6992-4.6797-1.1719-1.2656-2.8008-2.0156-4.5273-2.0742h-69.352c-3.6367 0.10156-6.5156 3.1172-6.4531 6.7539v18.977c-0.10156 3.5039 1.0586 6.9297 3.2656 9.6523 2.207 2.7266 5.3164 4.5703 8.7656 5.1992v73.293l-19.938 17.18c-10.562 9.0938-24.035 14.094-37.973 14.094s-27.41-5-37.973-14.094l-20.055-17.18v-73.293c3.4492-0.62891 6.5586-2.4727 8.7656-5.1992 2.207-2.7227 3.3672-6.1484 3.2656-9.6523v-18.977c0.0625-3.6367-2.8164-6.6523-6.4531-6.7539h-69.344c-1.7266 0.054688-3.3594 0.80469-4.5312 2.0742s-1.7852 2.9531-1.7031 4.6797v18.973c0 7.1836 4.375 13.211 10.938 14.855v21.711l-30.672-26.746c-12.477-10.871-19.637-26.609-19.641-43.156v-20.332c0.089844-4.4961 1.9375-8.7812 5.1406-11.938s7.5117-4.9375 12.012-4.9648h288.72c15.672 0 28.812 12.906 28.812 28.547v8.6914c-0.003906 16.547-7.168 32.281-19.641 43.152zm69.953 255.8c-0.023438 1.957-0.82422 3.8203-2.2305 5.1797s-3.293 2.1016-5.25 2.0625h-48.301v-112.66h48.301c4.0977 0 7.4805 2.8438 7.4805 6.9219z"/>
 </g>
</svg>
