<svg xmlns="http://www.w3.org/2000/svg" xmlns:xlink="http://www.w3.org/1999/xlink" width="75" zoomAndPan="magnify" viewBox="0 0 56.879997 56.999997" height="75" preserveAspectRatio="xMidYMid meet" version="1.0"><defs><clipPath id="842ca06260"><path d="M 14 46 L 43 46 L 43 53.617188 L 14 53.617188 Z M 14 46 " clip-rule="nonzero"/></clipPath><clipPath id="1653825328"><path d="M 7.023438 34 L 12 34 L 12 50 L 7.023438 50 Z M 7.023438 34 " clip-rule="nonzero"/></clipPath><clipPath id="1605ff9031"><path d="M 20 5.71875 L 37 5.71875 L 37 11 L 20 11 Z M 20 5.71875 " clip-rule="nonzero"/></clipPath><clipPath id="7a3dc7c467"><path d="M 45 34 L 49.683594 34 L 49.683594 50 L 45 50 Z M 45 34 " clip-rule="nonzero"/></clipPath><clipPath id="f8ca664714"><path d="M 10 13 L 47 13 L 47 53.617188 L 10 53.617188 Z M 10 13 " clip-rule="nonzero"/></clipPath></defs><path fill="#000000" d="M 15.933594 11.554688 C 16.316406 10.828125 17.078125 10.332031 17.960938 10.332031 L 19.304688 10.332031 C 18.894531 9.386719 17.835938 7.414062 15.980469 7.019531 C 14.648438 6.734375 13.359375 7.371094 12.453125 8.019531 C 13.816406 8.316406 15.082031 9.9375 15.933594 11.554688 Z M 15.933594 11.554688 " fill-opacity="1" fill-rule="nonzero"/><g clip-path="url(#842ca06260)"><path fill="#000000" d="M 14.671875 46.71875 L 14.363281 53.597656 L 42.359375 53.597656 L 42.050781 46.71875 Z M 14.671875 46.71875 " fill-opacity="1" fill-rule="nonzero"/></g><g clip-path="url(#1653825328)"><path fill="#000000" d="M 7.863281 36.359375 C 7.03125 42.722656 7.601562 47 9.648438 49.65625 C 9.648438 49.550781 9.652344 49.445312 9.664062 49.339844 L 11.390625 34.546875 C 10.324219 35.589844 9.160156 36.191406 7.863281 36.359375 Z M 7.863281 36.359375 " fill-opacity="1" fill-rule="nonzero"/></g><path fill="#000000" d="M 13.253906 18.535156 C 12.382812 15.621094 12.542969 12.667969 13.730469 9.75 C 13.234375 9.226562 12.734375 8.882812 12.285156 8.785156 C 11.886719 8.699219 11.535156 8.804688 11.207031 9.109375 C 9.832031 10.371094 9.074219 23.101562 11.730469 31.621094 Z M 13.253906 18.535156 " fill-opacity="1" fill-rule="nonzero"/><path fill="#000000" d="M 42.992188 9.75 C 44.183594 12.667969 44.34375 15.621094 43.46875 18.535156 L 44.996094 31.621094 C 47.648438 23.101562 46.890625 10.371094 45.519531 9.109375 C 45.191406 8.804688 44.835938 8.699219 44.441406 8.785156 C 43.992188 8.882812 43.492188 9.226562 42.992188 9.75 Z M 42.992188 9.75 " fill-opacity="1" fill-rule="nonzero"/><g clip-path="url(#1605ff9031)"><path fill="#000000" d="M 23.273438 7.777344 C 23.539062 7.210938 24.117188 6.847656 24.746094 6.847656 L 31.980469 6.847656 C 32.609375 6.847656 33.1875 7.210938 33.453125 7.777344 L 34.652344 10.332031 L 36.234375 10.332031 L 34.984375 7.585938 C 34.472656 6.460938 33.34375 5.738281 32.105469 5.738281 L 24.617188 5.738281 C 23.378906 5.738281 22.25 6.460938 21.742188 7.585938 L 20.492188 10.332031 L 22.074219 10.332031 Z M 23.273438 7.777344 " fill-opacity="1" fill-rule="nonzero"/></g><path fill="#000000" d="M 40.792969 11.554688 C 41.640625 9.9375 42.90625 8.316406 44.269531 8.019531 C 43.359375 7.371094 42.070312 6.734375 40.746094 7.019531 C 38.890625 7.414062 37.828125 9.386719 37.421875 10.332031 L 38.765625 10.332031 C 39.644531 10.332031 40.410156 10.828125 40.792969 11.554688 Z M 40.792969 11.554688 " fill-opacity="1" fill-rule="nonzero"/><path fill="#000000" d="M 14.707031 45.933594 L 42.015625 45.933594 L 41.957031 44.613281 L 14.765625 44.613281 Z M 14.707031 45.933594 " fill-opacity="1" fill-rule="nonzero"/><g clip-path="url(#7a3dc7c467)"><path fill="#000000" d="M 48.863281 36.359375 C 47.5625 36.191406 46.402344 35.589844 45.335938 34.546875 L 47.058594 49.339844 C 47.074219 49.445312 47.074219 49.550781 47.078125 49.65625 C 49.121094 47 49.691406 42.722656 48.863281 36.359375 Z M 48.863281 36.359375 " fill-opacity="1" fill-rule="nonzero"/></g><g clip-path="url(#f8ca664714)"><path fill="#000000" d="M 42.675781 18.546875 C 42.675781 18.542969 42.675781 18.542969 42.675781 18.542969 L 42.40625 16.238281 C 42.3125 15.445312 41.960938 14.6875 41.40625 14.105469 L 41.054688 13.738281 L 41.054688 26.738281 C 41.054688 27.992188 40.027344 29.015625 38.765625 29.015625 L 37.257812 29.015625 C 37.355469 29.15625 37.414062 29.328125 37.414062 29.515625 L 37.414062 31.457031 C 37.414062 31.949219 37.011719 32.351562 36.515625 32.351562 L 36.015625 32.351562 L 36.015625 34.101562 L 33.445312 34.101562 L 33.445312 32.351562 L 32.949219 32.351562 C 32.453125 32.351562 32.050781 31.949219 32.050781 31.457031 L 32.050781 29.515625 C 32.050781 29.328125 32.109375 29.15625 32.207031 29.015625 L 24.519531 29.015625 C 24.617188 29.15625 24.675781 29.328125 24.675781 29.515625 L 24.675781 31.457031 C 24.675781 31.949219 24.273438 32.351562 23.777344 32.351562 L 23.277344 32.351562 L 23.277344 34.101562 L 20.707031 34.101562 L 20.707031 32.351562 L 20.210938 32.351562 C 19.714844 32.351562 19.3125 31.949219 19.3125 31.457031 L 19.3125 29.515625 C 19.3125 29.328125 19.371094 29.15625 19.46875 29.015625 L 17.960938 29.015625 C 16.695312 29.015625 15.667969 27.992188 15.667969 26.738281 L 15.667969 13.738281 L 15.320312 14.105469 C 14.765625 14.6875 14.410156 15.445312 14.316406 16.238281 L 14.050781 18.542969 C 14.050781 18.542969 14.050781 18.542969 14.050781 18.546875 L 10.449219 49.429688 C 10.34375 50.347656 10.679688 51.273438 11.347656 51.910156 L 12.523438 53.027344 C 12.816406 53.304688 13.183594 53.488281 13.574219 53.558594 L 14.136719 41.03125 C 14.207031 39.484375 15.480469 38.273438 17.035156 38.273438 L 39.6875 38.273438 C 41.246094 38.273438 42.519531 39.484375 42.585938 41.03125 L 43.148438 53.558594 C 43.542969 53.488281 43.910156 53.304688 44.203125 53.027344 L 45.375 51.910156 C 46.046875 51.273438 46.382812 50.347656 46.277344 49.429688 Z M 42.675781 18.546875 " fill-opacity="1" fill-rule="nonzero"/></g><path fill="#000000" d="M 21.902344 21.878906 L 22.082031 21.878906 C 22.742188 21.878906 23.277344 22.410156 23.277344 23.066406 L 23.277344 28.230469 L 33.445312 28.230469 L 33.445312 23.066406 C 33.445312 22.410156 33.980469 21.878906 34.640625 21.878906 L 34.820312 21.878906 C 35.480469 21.878906 36.015625 22.410156 36.015625 23.066406 L 36.015625 28.230469 L 38.765625 28.230469 C 39.59375 28.230469 40.265625 27.558594 40.265625 26.738281 L 40.265625 12.609375 C 40.265625 11.789062 39.59375 11.117188 38.765625 11.117188 L 36.847656 11.117188 C 36.847656 11.117188 36.84375 11.117188 36.84375 11.117188 L 17.960938 11.117188 C 17.132812 11.117188 16.457031 11.789062 16.457031 12.609375 L 16.457031 26.738281 C 16.457031 27.558594 17.132812 28.230469 17.960938 28.230469 L 20.707031 28.230469 L 20.707031 23.066406 C 20.707031 22.410156 21.242188 21.878906 21.902344 21.878906 Z M 21.902344 21.878906 " fill-opacity="1" fill-rule="nonzero"/><path fill="#000000" d="M 39.6875 39.058594 L 17.035156 39.058594 C 15.902344 39.058594 14.976562 39.941406 14.925781 41.066406 L 14.800781 43.828125 L 41.921875 43.828125 L 41.796875 41.066406 C 41.75 39.941406 40.820312 39.058594 39.6875 39.058594 Z M 39.6875 39.058594 " fill-opacity="1" fill-rule="nonzero"/></svg>