<svg xmlns="http://www.w3.org/2000/svg" xmlns:xlink="http://www.w3.org/1999/xlink" width="75" zoomAndPan="magnify" viewBox="0 0 56.879997 56.999997" height="75" preserveAspectRatio="xMidYMid meet" version="1.0"><defs><clipPath id="b48cd8dd22"><path d="M 11 15 L 47 15 L 47 51.925781 L 11 51.925781 Z M 11 15 " clip-rule="nonzero"/></clipPath><clipPath id="d05f3d7140"><path d="M 7 4.773438 L 51.609375 4.773438 L 51.609375 31 L 7 31 Z M 7 4.773438 " clip-rule="nonzero"/></clipPath><clipPath id="91b9b3d881"><path d="M 32.394531 48 L 39.128906 48 L 39.128906 52.105469 L 32.394531 52.105469 Z M 32.394531 48 " clip-rule="nonzero"/></clipPath><clipPath id="1c0554a7a9"><path d="M 33 45.371094 L 38 45.371094 L 38 50 L 33 50 Z M 33 45.371094 " clip-rule="nonzero"/></clipPath></defs><g clip-path="url(#b48cd8dd22)"><path fill="#000000" d="M 11.328125 32.878906 L 11.328125 51.09375 C 11.328125 51.550781 11.699219 51.921875 12.152344 51.921875 L 31.542969 51.921875 L 31.542969 35.429688 L 40.652344 35.429688 L 40.652344 51.921875 L 46.070312 51.921875 C 46.523438 51.921875 46.890625 51.550781 46.890625 51.09375 L 46.890625 32.878906 L 29.121094 15.042969 Z M 25.789062 43.113281 L 17.570312 43.113281 L 17.570312 35.433594 L 25.789062 35.433594 Z M 25.789062 43.113281 " fill-opacity="1" fill-rule="nonzero"/></g><g clip-path="url(#d05f3d7140)"><path fill="#000000" d="M 50.496094 26.332031 L 29.113281 4.777344 L 19.023438 14.945312 L 19.023438 10.46875 C 19.023438 9.425781 18.183594 8.578125 17.144531 8.578125 C 16.109375 8.578125 15.269531 9.425781 15.269531 10.46875 L 15.269531 18.730469 L 7.726562 26.332031 C 6.8125 27.257812 6.8125 28.753906 7.726562 29.679688 C 8.1875 30.140625 8.789062 30.371094 9.390625 30.371094 C 9.988281 30.371094 10.589844 30.140625 11.050781 29.679688 L 29.113281 11.472656 L 47.175781 29.679688 C 48.089844 30.605469 49.578125 30.605469 50.496094 29.679688 C 51.410156 28.753906 51.410156 27.253906 50.496094 26.332031 Z M 50.496094 26.332031 " fill-opacity="1" fill-rule="nonzero"/></g><g clip-path="url(#91b9b3d881)"><path fill="#000000" d="M 38.414062 48.464844 C 37.796875 48.464844 37.296875 48.957031 37.296875 49.558594 L 37.296875 49.757812 C 37.050781 49.671875 36.570312 49.558594 35.761719 49.558594 C 34.949219 49.558594 34.472656 49.671875 34.226562 49.757812 L 34.226562 49.558594 C 34.226562 48.957031 33.722656 48.464844 33.109375 48.464844 C 32.722656 48.464844 32.410156 48.769531 32.410156 49.148438 C 32.410156 49.425781 32.578125 49.675781 32.839844 49.78125 C 32.917969 49.8125 32.96875 49.886719 32.96875 49.96875 L 33.109375 50.519531 C 33.109375 51.007812 33.488281 51.414062 33.972656 51.46875 C 33.859375 51.523438 33.78125 51.636719 33.78125 51.769531 C 33.78125 51.953125 33.933594 52.105469 34.121094 52.105469 C 34.308594 52.105469 34.460938 51.953125 34.460938 51.769531 C 34.460938 51.640625 34.386719 51.53125 34.277344 51.476562 L 37.242188 51.476562 C 37.136719 51.53125 37.0625 51.640625 37.0625 51.769531 C 37.0625 51.953125 37.214844 52.105469 37.402344 52.105469 C 37.589844 52.105469 37.742188 51.953125 37.742188 51.769531 C 37.742188 51.636719 37.664062 51.523438 37.546875 51.46875 C 38.035156 51.414062 38.414062 51.007812 38.414062 50.519531 L 38.554688 49.96875 C 38.554688 49.886719 38.605469 49.8125 38.683594 49.78125 C 38.945312 49.675781 39.113281 49.425781 39.113281 49.148438 C 39.113281 48.769531 38.800781 48.464844 38.414062 48.464844 Z M 38.414062 48.464844 " fill-opacity="1" fill-rule="nonzero"/></g><g clip-path="url(#1c0554a7a9)"><path fill="#000000" d="M 34.609375 49.238281 C 34.898438 49.1875 35.277344 49.148438 35.761719 49.148438 C 36.246094 49.148438 36.621094 49.1875 36.914062 49.238281 C 37.023438 48.742188 37.382812 48.339844 37.855469 48.15625 L 37.855469 47.425781 C 37.855469 46.292969 36.917969 45.375 35.761719 45.375 C 34.605469 45.375 33.667969 46.292969 33.667969 47.425781 L 33.667969 48.15625 C 34.140625 48.339844 34.5 48.742188 34.609375 49.238281 Z M 34.609375 49.238281 " fill-opacity="1" fill-rule="nonzero"/></g></svg>