<?xml version="1.0" encoding="utf-8"?>
<!-- Generator: Adobe Illustrator 18.1.1, SVG Export Plug-In . SVG Version: 6.00 Build 0)  -->
<svg version="1.1" xmlns="http://www.w3.org/2000/svg" xmlns:xlink="http://www.w3.org/1999/xlink" x="0px" y="0px"
	 viewBox="0 0 32 32" style="enable-background:new 0 0 32 32;" xml:space="preserve">
<g id="Guides">
</g>
<g id="_x32_0">
</g>
<g id="_x31_9">
</g>
<g id="_x31_8">
</g>
<g id="_x31_7">
</g>
<g id="_x31_6">
</g>
<g id="_x31_5">
</g>
<g id="_x31_4">
</g>
<g id="_x31_3">
</g>
<g id="_x31_2">
</g>
<g id="_x31_1">
	<path d="M28.918,5.498c-0.0371,0-0.0742-0.002-0.1113-0.0059c-0.5493-0.0605-0.9448-0.5557-0.8843-1.1045
		C27.9741,3.9238,28,3.457,28,3c0-0.5527,0.4478-1,1-1s1,0.4473,1,1c0,0.5303-0.0303,1.0713-0.0894,1.6084
		C29.8535,5.1201,29.4209,5.498,28.918,5.498z"/>
	<path d="M14.4917,18.1875c-0.0464,0-0.0933-0.0029-0.1406-0.0098c-1.0811-0.1523-2.1509-0.4541-3.1787-0.8984
		c-0.5068-0.2188-0.7407-0.8076-0.5215-1.3145c0.2188-0.5078,0.8071-0.7402,1.3145-0.5215c0.8638,0.373,1.7603,0.627,2.6641,0.7539
		c0.5469,0.0771,0.9282,0.583,0.8511,1.1299C15.4102,17.8262,14.9819,18.1875,14.4917,18.1875z M17.5234,18.1855
		c-0.4897,0-0.9175-0.3604-0.9883-0.8584c-0.0781-0.5469,0.3018-1.0537,0.8486-1.1318c0.9048-0.1289,1.8008-0.3838,2.6636-0.7578
		c0.5063-0.2188,1.0952,0.0137,1.3149,0.5205s-0.0132,1.0957-0.52,1.3154c-1.0259,0.4443-2.0947,0.748-3.1763,0.9023
		C17.6182,18.1826,17.5708,18.1855,17.5234,18.1855z M8.9458,15.8291c-0.2095,0-0.4204-0.0654-0.6011-0.2012
		c-0.8521-0.6426-1.6499-1.3916-2.3711-2.2246c-0.3613-0.418-0.3154-1.0498,0.1021-1.4111
		c0.4175-0.3604,1.0493-0.3154,1.4106,0.1025c0.6289,0.7266,1.3228,1.3779,2.0625,1.9355c0.4409,0.333,0.5288,0.96,0.1968,1.4004
		C9.5488,15.6914,9.249,15.8291,8.9458,15.8291z M23.0674,15.8203c-0.3032,0-0.6021-0.1367-0.7988-0.3975
		c-0.333-0.4404-0.2456-1.0674,0.1948-1.4004c0.7397-0.5586,1.4331-1.2109,2.061-1.9385c0.3608-0.418,0.9922-0.4639,1.4102-0.1035
		s0.4644,0.9922,0.1035,1.4102c-0.7197,0.834-1.5171,1.584-2.3687,2.2275C23.4888,15.7549,23.2773,15.8203,23.0674,15.8203z
		 M4.9785,11.2637c-0.3481,0-0.6865-0.1816-0.8706-0.5068c-0.5366-0.9453-0.979-1.9404-1.3159-2.959
		C2.6191,7.2734,2.9033,6.708,3.4277,6.5352c0.5273-0.1768,1.0903,0.1104,1.2637,0.6357c0.2949,0.8936,0.6841,1.7676,1.1558,2.5996
		c0.2725,0.4795,0.1045,1.0898-0.376,1.3633C5.3154,11.2217,5.1455,11.2637,4.9785,11.2637z M27.0308,11.249
		c-0.167,0-0.3359-0.042-0.4917-0.1299c-0.4805-0.2715-0.6494-0.8818-0.3774-1.3623c0.4692-0.8301,0.8574-1.7051,1.1533-2.6016
		c0.1738-0.5254,0.7402-0.8115,1.2632-0.6357c0.5244,0.1729,0.8091,0.7383,0.6362,1.2627c-0.3374,1.0205-0.7788,2.0166-1.3125,2.959
		C27.7183,11.0664,27.3794,11.249,27.0308,11.249z"/>
	<path d="M3.082,5.498c-0.5029,0-0.9355-0.3779-0.9927-0.8896C2.0303,4.0713,2,3.5303,2,3c0-0.5527,0.4478-1,1-1s1,0.4473,1,1
		c0,0.457,0.0259,0.9238,0.0776,1.3877c0.0605,0.5488-0.335,1.0439-0.8843,1.1045C3.1563,5.4961,3.1191,5.498,3.082,5.498z"/>
	<path d="M16,27c-1.6543,0-3-1.2178-3-2.7139c0-1.0645,1.3423-3.4648,2.1421-4.7998c0.3613-0.6035,1.3545-0.6035,1.7158,0
		C17.6577,20.8213,19,23.2217,19,24.2861C19,25.7822,17.6543,27,16,27z M16.0005,22.0332c-0.5405,1.0137-0.9727,1.9482-1.001,2.2686
		C15,24.6729,15.458,25,16,25s1-0.3271,1-0.7139C16.9717,23.9756,16.54,23.0459,16.0005,22.0332z"/>
	<path d="M11,25.293h-1c-0.5522,0-1-0.4473-1-1s0.4478-1,1-1h1c0.5522,0,1,0.4473,1,1S11.5522,25.293,11,25.293z"/>
	<path d="M22,25.293h-1c-0.5522,0-1-0.4473-1-1s0.4478-1,1-1h1c0.5522,0,1,0.4473,1,1S22.5522,25.293,22,25.293z"/>
	<path d="M12.293,30c-0.2559,0-0.5117-0.0977-0.707-0.293c-0.3906-0.3906-0.3906-1.0234,0-1.4141l0.707-0.707
		c0.3906-0.3906,1.0234-0.3906,1.4141,0s0.3906,1.0234,0,1.4141L13,29.707C12.8047,29.9023,12.5488,30,12.293,30z"/>
	<path d="M19.707,30c-0.2559,0-0.5117-0.0977-0.707-0.293L18.293,29c-0.3906-0.3906-0.3906-1.0234,0-1.4141s1.0234-0.3906,1.4141,0
		l0.707,0.707c0.3906,0.3906,0.3906,1.0234,0,1.4141C20.2188,29.9023,19.9629,30,19.707,30z"/>
</g>
<g id="_x31_0">
</g>
<g id="_x30_9">
</g>
<g id="_x30_8">
</g>
<g id="_x30_7">
</g>
<g id="_x30_6">
</g>
<g id="_x30_5">
</g>
<g id="_x30_4">
</g>
<g id="_x30_3">
</g>
<g id="_x30_2">
</g>
<g id="_x30_1">
</g>
</svg>
