<svg xmlns="http://www.w3.org/2000/svg" xmlns:xlink="http://www.w3.org/1999/xlink" width="75" zoomAndPan="magnify" viewBox="0 0 56.879997 56.999997" height="75" preserveAspectRatio="xMidYMid meet" version="1.0"><defs><clipPath id="bca2558abb"><path d="M 5.65625 28 L 50 28 L 50 52.21875 L 5.65625 52.21875 Z M 5.65625 28 " clip-rule="nonzero"/></clipPath><clipPath id="53dab40777"><path d="M 36 7.3125 L 45 7.3125 L 45 27 L 36 27 Z M 36 7.3125 " clip-rule="nonzero"/></clipPath><clipPath id="42fd18ce65"><path d="M 26 7.3125 L 33 7.3125 L 33 16 L 26 16 Z M 26 7.3125 " clip-rule="nonzero"/></clipPath><clipPath id="131788e5a6"><path d="M 23 27 L 50.5625 27 L 50.5625 35 L 23 35 Z M 23 27 " clip-rule="nonzero"/></clipPath></defs><g clip-path="url(#bca2558abb)"><path fill="#000000" d="M 49.457031 51.21875 L 46.015625 51.21875 L 46.015625 35.230469 L 27.816406 35.230469 C 27.644531 35.230469 27.488281 35.140625 27.398438 34.996094 L 23.390625 28.480469 L 23.390625 51.21875 L 22.40625 51.21875 L 22.40625 28.480469 L 18.394531 34.996094 C 18.304688 35.140625 18.148438 35.230469 17.980469 35.230469 L 12.566406 35.230469 L 12.566406 51.21875 L 6.171875 51.21875 C 5.902344 51.21875 5.683594 51.441406 5.683594 51.71875 C 5.683594 51.992188 5.902344 52.21875 6.171875 52.21875 L 49.457031 52.21875 C 49.730469 52.21875 49.949219 51.992188 49.949219 51.71875 C 49.949219 51.441406 49.730469 51.21875 49.457031 51.21875 Z M 26.339844 38.726562 C 26.339844 38.453125 26.5625 38.226562 26.832031 38.226562 L 42.570312 38.226562 C 42.84375 38.226562 43.0625 38.453125 43.0625 38.726562 L 43.0625 47.71875 C 43.0625 47.996094 42.84375 48.21875 42.570312 48.21875 L 26.832031 48.21875 C 26.5625 48.21875 26.339844 47.996094 26.339844 47.71875 Z M 26.339844 38.726562 " fill-opacity="1" fill-rule="nonzero"/></g><path fill="#000000" d="M 14.546875 26.238281 L 21.390625 26.238281 C 21.949219 26.238281 22.40625 25.773438 22.40625 25.207031 C 22.40625 24.65625 21.96875 24.238281 21.390625 24.238281 L 14.546875 24.238281 C 13.96875 24.238281 13.53125 24.65625 13.53125 25.207031 C 13.53125 25.773438 13.988281 26.238281 14.546875 26.238281 Z M 14.546875 26.238281 " fill-opacity="1" fill-rule="nonzero"/><g clip-path="url(#53dab40777)"><path fill="#000000" d="M 44.046875 23.300781 L 40.605469 23.300781 C 40.332031 23.300781 40.113281 23.078125 40.113281 22.804688 C 40.113281 22.527344 40.332031 22.304688 40.605469 22.304688 L 44.046875 22.304688 L 44.046875 19.304688 L 41.589844 19.304688 C 41.316406 19.304688 41.097656 19.082031 41.097656 18.804688 C 41.097656 18.53125 41.316406 18.304688 41.589844 18.304688 L 44.046875 18.304688 L 44.046875 15.308594 L 40.605469 15.308594 C 40.332031 15.308594 40.113281 15.085938 40.113281 14.808594 C 40.113281 14.53125 40.332031 14.308594 40.605469 14.308594 L 44.046875 14.308594 L 44.046875 11.3125 L 41.589844 11.3125 C 41.316406 11.3125 41.097656 11.089844 41.097656 10.8125 C 41.097656 10.535156 41.316406 10.3125 41.589844 10.3125 L 44.046875 10.3125 L 44.046875 7.316406 L 36.175781 7.316406 L 36.175781 26.238281 L 44.046875 26.238281 Z M 44.046875 23.300781 " fill-opacity="1" fill-rule="nonzero"/></g><path fill="#000000" d="M 29.785156 16.753906 L 32.242188 16.753906 L 32.242188 26.238281 L 29.785156 26.238281 Z M 29.785156 16.753906 " fill-opacity="1" fill-rule="nonzero"/><g clip-path="url(#42fd18ce65)"><path fill="#000000" d="M 32.242188 13.21875 L 29.292969 7.839844 L 26.339844 13.21875 L 26.339844 15.753906 L 32.242188 15.753906 Z M 32.242188 13.21875 " fill-opacity="1" fill-rule="nonzero"/></g><path fill="#000000" d="M 20.238281 23.238281 L 22.367188 14.566406 L 18.460938 8.34375 L 18.460938 14.964844 C 19.1875 15.160156 19.722656 15.832031 19.722656 16.628906 C 19.722656 17.578125 18.964844 18.351562 18.027344 18.351562 C 17.09375 18.351562 16.335938 17.578125 16.335938 16.628906 C 16.335938 15.875 16.8125 15.234375 17.476562 15.003906 L 17.476562 8.546875 L 13.570312 14.613281 L 15.699219 23.238281 Z M 20.238281 23.238281 " fill-opacity="1" fill-rule="nonzero"/><path fill="#000000" d="M 18.027344 17.351562 C 18.421875 17.351562 18.738281 17.027344 18.738281 16.628906 C 18.738281 16.230469 18.421875 15.90625 18.027344 15.90625 C 17.636719 15.90625 17.316406 16.230469 17.316406 16.628906 C 17.316406 17.027344 17.636719 17.351562 18.027344 17.351562 Z M 18.027344 17.351562 " fill-opacity="1" fill-rule="nonzero"/><path fill="#000000" d="M 26.339844 16.753906 L 28.800781 16.753906 L 28.800781 26.238281 L 26.339844 26.238281 Z M 26.339844 16.753906 " fill-opacity="1" fill-rule="nonzero"/><path fill="#000000" d="M 17.707031 34.230469 L 22.007812 27.234375 L 12.347656 27.234375 L 8.046875 34.230469 Z M 17.707031 34.230469 " fill-opacity="1" fill-rule="nonzero"/><path fill="#000000" d="M 42.082031 39.226562 L 27.324219 39.226562 L 27.324219 47.222656 L 42.082031 47.222656 Z M 32.734375 45.722656 L 30.765625 45.722656 L 30.765625 43.722656 L 32.734375 43.722656 Z M 35.6875 45.722656 L 33.71875 45.722656 L 33.71875 43.722656 L 35.6875 43.722656 Z M 38.636719 45.722656 L 36.667969 45.722656 L 36.667969 43.722656 L 38.636719 43.722656 Z M 38.636719 45.722656 " fill-opacity="1" fill-rule="nonzero"/><g clip-path="url(#131788e5a6)"><path fill="#000000" d="M 46.507812 34.230469 L 50.539062 34.230469 L 46.234375 27.234375 L 29.527344 27.234375 C 29.457031 27.273438 29.378906 27.300781 29.292969 27.300781 C 29.207031 27.300781 29.125 27.273438 29.054688 27.234375 L 23.785156 27.234375 L 28.089844 34.230469 Z M 46.507812 34.230469 " fill-opacity="1" fill-rule="nonzero"/></g></svg>