<?xml version="1.0" encoding="UTF-8" standalone="no"?> <svg width="512" height="512" viewBox="0 0 512 512" fill="none" xmlns="http://www.w3.org/2000/svg">
<path d="M384 296H360V104C360 101.879 359.157 99.8438 357.657 98.3435C356.157 96.8432 354.122 96.0004 352 96.0004H304C301.878 96.0004 299.843 96.8432 298.343 98.3435C296.843 99.8438 296 101.879 296 104V296H280V192C281.125 191.999 282.238 191.761 283.265 191.301C284.291 190.841 285.21 190.169 285.96 189.33C286.71 188.492 287.275 187.504 287.618 186.432C287.961 185.361 288.074 184.229 287.95 183.11L278.97 103.26C289.26 94.5704 296 80.2204 296 64.0004C296 38.8204 264.61 12.6804 261.03 9.78036C259.606 8.63025 257.831 8.00293 256 8.00293C254.169 8.00293 252.394 8.63025 250.97 9.78036C247.39 12.6804 216 38.8204 216 64.0004C216 79.7504 222.35 93.7504 232.14 102.5C232.1 102.73 232.06 102.97 232.04 103.2L224.04 183.2C223.928 184.313 224.051 185.436 224.4 186.498C224.749 187.561 225.317 188.538 226.067 189.367C226.817 190.196 227.732 190.859 228.754 191.312C229.776 191.766 230.882 192 232 192V296H208V256C210.122 256 212.157 255.158 213.657 253.657C215.157 252.157 216 250.122 216 248V136C216 133.879 215.157 131.844 213.657 130.343C212.157 128.843 210.122 128 208 128V104.5L215.94 40.9904C216.08 39.8648 215.98 38.7222 215.645 37.6385C215.31 36.5548 214.749 35.5547 213.998 34.7045C213.247 33.8543 212.324 33.1736 211.29 32.7074C210.256 32.2411 209.134 32.0001 208 32.0004H159C157.855 31.9992 156.724 32.244 155.682 32.7182C154.64 33.1923 153.713 33.8847 152.962 34.7485C152.211 35.6123 151.654 36.6273 151.329 37.7249C151.005 38.8225 150.92 39.977 151.08 41.1104L160 104.56V128C157.878 128 155.843 128.843 154.343 130.343C152.843 131.844 152 133.879 152 136V248C152 250.122 152.843 252.157 154.343 253.657C155.843 255.158 157.878 256 160 256V296H128C125.878 296 123.843 296.843 122.343 298.344C120.843 299.844 120 301.879 120 304V336C120 338.122 120.843 340.157 122.343 341.657C123.843 343.158 125.878 344 128 344H136V476C136.008 483.424 138.961 490.541 144.21 495.79C149.459 501.04 156.576 503.992 164 504H348C355.424 503.992 362.541 501.04 367.79 495.79C373.039 490.541 375.992 483.424 376 476V344H384C386.122 344 388.157 343.158 389.657 341.657C391.157 340.157 392 338.122 392 336V304C392 301.879 391.157 299.844 389.657 298.344C388.157 296.843 386.122 296 384 296ZM312 112H344V128H336C333.878 128 331.843 128.843 330.343 130.343C328.843 131.844 328 133.879 328 136C328 138.122 328.843 140.157 330.343 141.657C331.843 143.158 333.878 144 336 144H344V160H336C333.878 160 331.843 160.843 330.343 162.343C328.843 163.844 328 165.879 328 168C328 170.122 328.843 172.157 330.343 173.657C331.843 175.158 333.878 176 336 176H344V192H336C333.878 192 331.843 192.843 330.343 194.343C328.843 195.844 328 197.879 328 200C328 202.122 328.843 204.157 330.343 205.657C331.843 207.158 333.878 208 336 208H344V224H336C333.878 224 331.843 224.843 330.343 226.343C328.843 227.844 328 229.879 328 232C328 234.122 328.843 236.157 330.343 237.657C331.843 239.158 333.878 240 336 240H344V256H336C333.878 256 331.843 256.843 330.343 258.343C328.843 259.844 328 261.879 328 264C328 266.122 328.843 268.157 330.343 269.657C331.843 271.158 333.878 272 336 272H344V296H312V112ZM232 64.0004C232 51.7304 246.65 35.4204 256 26.6604C265.35 35.4204 280 51.7304 280 64.0004C280 77.9104 273.31 89.7604 264 94.1704V72.0004C264 69.8786 263.157 67.8438 261.657 66.3435C260.157 64.8432 258.122 64.0004 256 64.0004C253.878 64.0004 251.843 64.8432 250.343 66.3435C248.843 67.8438 248 69.8786 248 72.0004V94.1704C238.69 89.7604 232 77.9104 232 64.0004ZM240.84 176L247.24 112H263.85L271.05 176H240.84ZM264 192V296H248V192H264ZM198.94 48.0004L192.94 96.0004H174.95L168.2 48.0004H198.94ZM192 112V128H176V112H192ZM168 144H200V240H168V144ZM192 256V296H176V256H192ZM360 476C359.997 479.182 358.732 482.233 356.482 484.483C354.232 486.733 351.182 487.998 348 488H164C160.818 487.998 157.768 486.733 155.518 484.483C153.268 482.233 152.003 479.182 152 476V376H248C250.122 376 252.157 375.158 253.657 373.657C255.157 372.157 256 370.122 256 368C256 365.879 255.157 363.844 253.657 362.344C252.157 360.843 250.122 360 248 360H152V344H360V476ZM376 328H136V312H376V328Z" fill="black"/>
<path d="M272 376H280C282.122 376 284.157 375.157 285.657 373.657C287.157 372.157 288 370.122 288 368C288 365.878 287.157 363.843 285.657 362.343C284.157 360.843 282.122 360 280 360H272C269.878 360 267.843 360.843 266.343 362.343C264.843 363.843 264 365.878 264 368C264 370.122 264.843 372.157 266.343 373.657C267.843 375.157 269.878 376 272 376Z" fill="black"/>
</svg>
