<svg width="922" height="916" viewBox="0 0 922 916" fill="none" xmlns="http://www.w3.org/2000/svg">
<path d="M526.065 105.523L78.5911 528.349C46.7637 558.421 59.6348 611.448 101.77 623.796L694.081 797.387C736.217 809.744 776.001 772.188 765.693 729.722L620.856 133.306C610.557 90.8857 557.893 75.4511 526.065 105.523Z" fill="#E9A4AF"/>
<path d="M521.603 632.654H327.781C298.358 690.37 283.634 754.375 284.898 819.06L560.115 819.307C559.122 785.168 554.955 751.192 547.668 717.814C541.288 688.78 532.572 660.302 521.603 632.654Z" fill="#6DC8C2"/>
<path d="M504.675 400.896H349.724V564.998H504.675V400.896Z" fill="black"/>
<path d="M443.584 373.554H406.04C394.139 373.554 382.725 368.857 374.309 360.496C365.894 352.136 361.166 340.796 361.166 328.972V281.844C361.166 270.307 365.779 259.242 373.991 251.084C382.202 242.926 393.339 238.343 404.952 238.343H443.427C458.769 238.343 473.482 244.398 484.33 255.176C495.179 265.953 501.273 280.571 501.273 295.813V316.24C501.273 331.441 495.195 346.019 484.376 356.767C473.557 367.516 458.884 373.554 443.584 373.554Z" fill="black"/>
<path d="M490.319 357.799L513.305 282.302C513.625 281.247 514.176 280.275 514.918 279.456C515.66 278.637 516.575 277.99 517.597 277.563C518.619 277.135 519.724 276.936 520.833 276.981C521.941 277.026 523.025 277.314 524.009 277.823L548.829 290.647C549.907 291.203 550.833 292.01 551.529 292.998C552.225 293.986 552.671 295.127 552.828 296.323C552.986 297.519 552.85 298.735 552.434 299.868C552.017 301 551.331 302.017 550.434 302.83L490.319 357.799Z" fill="#FB6D6D"/>
<path d="M484.428 354.84L550.047 314.252C551.066 313.623 552.214 313.23 553.408 313.102C554.601 312.974 555.807 313.114 556.938 313.513C558.069 313.911 559.095 314.558 559.941 315.404C560.786 316.25 561.428 317.275 561.82 318.402L570.524 343.436C570.938 344.625 571.061 345.894 570.884 347.14C570.707 348.385 570.234 349.571 569.504 350.599C568.774 351.627 567.809 352.468 566.688 353.053C565.567 353.637 564.322 353.948 563.056 353.961L484.428 354.84Z" fill="#FB6D6D"/>
<path d="M504.675 360.309C502.024 360.309 499.432 359.528 497.228 358.064C495.023 356.601 493.305 354.521 492.29 352.087C491.275 349.653 491.01 346.975 491.527 344.392C492.044 341.808 493.321 339.435 495.196 337.572C497.071 335.71 499.46 334.441 502.06 333.927C504.661 333.413 507.356 333.677 509.806 334.685C512.255 335.693 514.349 337.4 515.822 339.591C517.295 341.781 518.081 344.356 518.081 346.99C518.076 350.521 516.662 353.906 514.149 356.402C511.636 358.899 508.229 360.304 504.675 360.309ZM504.675 337.335C502.753 337.335 500.875 337.902 499.276 338.962C497.678 340.023 496.433 341.531 495.697 343.295C494.962 345.06 494.769 347.001 495.144 348.874C495.519 350.746 496.445 352.467 497.804 353.817C499.163 355.167 500.894 356.087 502.78 356.459C504.665 356.832 506.619 356.641 508.394 355.91C510.17 355.179 511.688 353.942 512.756 352.354C513.823 350.766 514.393 348.9 514.393 346.99C514.388 344.431 513.363 341.978 511.542 340.169C509.72 338.359 507.251 337.34 504.675 337.335Z" fill="black"/>
<path d="M480.417 326.728C480.95 321.728 479.479 316.72 476.323 312.789C473.167 308.858 468.579 306.32 463.554 305.724L463.674 292.799C463.738 288.7 462.988 284.629 461.465 280.819C459.942 277.008 457.677 273.534 454.8 270.596C451.922 267.657 448.489 265.312 444.698 263.694C440.906 262.077 436.83 261.219 432.704 261.17L384.76 260.831C378.479 260.824 372.452 263.291 368 267.692C363.547 272.093 361.033 278.068 361.009 284.308L360.502 342.483C360.431 347.363 361.329 352.208 363.145 356.742C364.961 361.276 367.659 365.41 371.084 368.908C374.509 372.405 378.595 375.197 383.107 377.125C387.62 379.052 392.471 380.077 397.382 380.14H399.595L399.3 412.383L462.65 412.832L463.001 374.644H462.945L463.231 343.931C467.651 343.467 471.775 341.502 474.906 338.368C478.037 335.234 479.983 331.123 480.417 326.728Z" fill="white"/>
<path d="M603.679 487.99L527.697 532.489L574.885 629.439C574.885 629.439 596.183 669.615 636.124 650.782C644.184 646.91 651.37 641.457 657.249 634.75C663.128 628.043 667.578 620.223 670.331 611.76L711.387 487.99C711.387 487.99 771.705 467.646 780.648 415.287C780.993 413.628 781.021 411.919 780.731 410.249C780.275 407.752 779.129 405.431 777.421 403.544C778.034 402.162 778.527 400.731 778.896 399.266C779.726 395.941 780.519 392.699 777.808 389.951C776.681 388.737 775.125 388.002 773.466 387.9C771.807 387.798 770.172 388.335 768.902 389.401C769.529 385.993 768.588 382.989 766.477 381.67C765.609 381.162 764.605 380.929 763.6 381.001C758.833 381.285 755.367 387.78 754.38 389.593C750.342 396.921 741.813 409.315 729.182 426.691C729.182 426.691 747.355 402.207 737.683 395.465C734.797 393.459 731.349 396.271 729.449 398.268C725.936 401.932 724.581 406.997 721.972 411.211C718.532 416.496 713.933 420.939 708.52 424.209C699.991 429.595 690.55 432.453 682.768 439.021C679.226 441.98 676.067 445.364 673.364 449.097C670.202 453.512 669.086 458.724 666.357 463.185L624.12 531.839L603.679 487.99Z" fill="white"/>
<path d="M615.509 657.624C588.125 657.624 573.429 630.629 573.254 630.29L525.31 531.766L604.5 485.388L624.342 527.992L664.762 462.25C665.885 460.313 666.853 458.292 667.657 456.205C668.739 453.345 670.143 450.616 671.843 448.071C674.631 444.203 677.892 440.695 681.552 437.628C686.42 433.506 691.933 430.795 697.226 428.175C700.739 426.525 704.161 424.69 707.478 422.679C712.674 419.57 717.089 415.325 720.386 410.267C721.297 408.733 722.119 407.149 722.848 405.522C724.24 402.582 725.679 399.55 728.094 397.022C733.304 391.526 736.992 392.781 738.725 393.99C739.666 394.65 740.46 395.496 741.056 396.475C741.653 397.453 742.039 398.544 742.192 399.678C742.455 401.688 742.343 403.728 741.86 405.696C747.041 398.176 750.6 392.625 752.749 388.732L752.804 388.613C754.039 386.369 757.792 379.526 763.481 379.197C764.863 379.082 766.247 379.402 767.436 380.113C768.454 380.807 769.294 381.727 769.891 382.8C770.488 383.873 770.825 385.07 770.875 386.296C772.336 385.931 773.868 385.958 775.315 386.375C776.762 386.792 778.071 387.583 779.109 388.668C782.566 392.158 781.515 396.344 780.676 399.706C780.38 400.903 780.001 402.078 779.542 403.223C780.899 404.965 781.861 406.977 782.362 409.123C782.863 411.268 782.892 413.496 782.446 415.653C778.758 437.482 765.325 457.249 743.722 472.757C734.195 479.614 723.812 485.214 712.835 489.419L672.083 612.328C669.241 621.022 664.66 629.057 658.616 635.95C652.572 642.843 645.188 648.451 636.908 652.439C630.254 655.733 622.942 657.505 615.509 657.624ZM530.095 533.213L576.545 628.642C580.424 635.291 585.584 641.114 591.73 645.78C604.814 655.48 619.483 656.607 635.332 649.123C643.159 645.349 650.138 640.042 655.852 633.523C661.565 627.003 665.894 619.405 668.579 611.183L709.94 486.552L710.816 486.259C711.406 486.057 770.202 465.63 778.85 414.976C779.158 413.525 779.186 412.03 778.933 410.57C778.535 408.408 777.543 406.398 776.066 404.762L775.273 403.846L775.752 402.765C776.324 401.482 776.784 400.152 777.126 398.79C777.984 395.336 778.417 393.129 776.508 391.196C775.715 390.322 774.614 389.786 773.433 389.697C772.252 389.608 771.082 389.974 770.165 390.72L766.127 394.384L767.113 389.053C767.593 386.442 766.957 384.088 765.527 383.218C764.985 382.902 764.356 382.764 763.73 382.824C761.314 382.961 758.732 385.499 756.077 390.344L756.012 390.454C752.186 397.397 744.497 408.774 731.118 427.195L730.704 427.772L727.725 425.61L728.325 424.786C732.013 419.565 739.721 407.043 738.605 400.237C738.53 399.586 738.318 398.957 737.983 398.392C737.648 397.827 737.197 397.339 736.66 396.958C734.816 395.675 731.967 398.323 730.823 399.523C728.813 401.611 727.569 404.258 726.213 407.061C725.417 408.808 724.527 410.511 723.549 412.163C719.972 417.689 715.176 422.335 709.525 425.748C706.081 427.832 702.526 429.731 698.876 431.436C693.51 434.083 688.439 436.575 683.912 440.404C680.512 443.28 677.486 446.567 674.904 450.187C673.366 452.51 672.098 454.999 671.124 457.606C670.241 459.868 669.187 462.061 667.971 464.165L623.936 535.741L602.905 490.601L530.095 533.213Z" fill="black"/>
<path d="M461 334.047C460.746 334.061 460.49 334.061 460.235 334.047C458.746 333.897 457.336 333.311 456.182 332.364C455.028 331.418 454.182 330.152 453.751 328.728C453.321 327.304 453.325 325.785 453.763 324.364C454.201 322.942 455.054 321.681 456.213 320.741C457.372 319.8 458.786 319.222 460.276 319.08C461.766 318.937 463.264 319.237 464.583 319.94C465.901 320.644 466.98 321.72 467.683 323.032C468.387 324.345 468.682 325.835 468.533 327.314C468.344 329.167 467.47 330.885 466.081 332.135C464.691 333.385 462.884 334.08 461.01 334.084L461 334.047ZM461 322.67C460.249 322.67 459.514 322.887 458.885 323.294C458.255 323.701 457.758 324.281 457.453 324.963C457.149 325.645 457.05 326.401 457.169 327.137C457.288 327.874 457.619 328.561 458.123 329.114C458.627 329.668 459.282 330.064 460.008 330.255C460.735 330.446 461.501 330.423 462.214 330.19C462.928 329.957 463.558 329.523 464.028 328.941C464.499 328.359 464.789 327.654 464.864 326.911C464.964 325.894 464.655 324.878 464.003 324.087C463.352 323.296 462.411 322.793 461.388 322.689L461 322.67Z" fill="black"/>
<path d="M400.424 378.354L438.226 377.438C438.472 377.428 438.713 377.507 438.905 377.66C439.097 377.812 439.227 378.028 439.272 378.269C439.316 378.509 439.273 378.757 439.148 378.968C439.024 379.178 438.828 379.338 438.595 379.416L400.268 393.156L400.424 378.354Z" fill="black"/>
<path d="M455.339 329.284C454.88 329.286 454.437 329.118 454.096 328.813C453.755 328.509 453.541 328.088 453.495 327.635C453.286 325.602 453.621 323.551 454.464 321.687C455.307 319.823 456.63 318.213 458.298 317.018C459.9 315.933 461.741 315.244 463.666 315.009C465.591 314.775 467.544 315.002 469.362 315.672C469.598 315.752 469.814 315.879 469.999 316.045C470.184 316.21 470.333 316.412 470.437 316.636C470.542 316.86 470.6 317.103 470.607 317.351C470.614 317.598 470.571 317.844 470.48 318.074C470.389 318.304 470.252 318.514 470.078 318.69C469.903 318.866 469.695 319.005 469.464 319.099C469.234 319.193 468.987 319.24 468.738 319.237C468.489 319.233 468.244 319.18 468.016 319.079C466.771 318.636 465.44 318.488 464.127 318.647C462.814 318.806 461.557 319.268 460.456 319.995C459.314 320.813 458.41 321.915 457.834 323.19C457.257 324.465 457.03 325.869 457.174 327.259C457.198 327.499 457.174 327.741 457.104 327.971C457.035 328.201 456.92 328.416 456.767 328.602C456.613 328.788 456.425 328.943 456.211 329.057C455.998 329.17 455.764 329.241 455.523 329.265L455.339 329.284Z" fill="black"/>
<path d="M269.648 482.631L345.63 527.13L298.442 624.08C298.442 624.08 277.135 664.256 237.203 645.423C229.142 641.554 221.954 636.102 216.075 629.395C210.195 622.687 205.746 614.865 202.997 606.401L161.931 482.631C161.931 482.631 101.614 462.287 92.6794 409.928C92.3338 408.269 92.3057 406.56 92.5964 404.89C93.0474 402.396 94.187 400.074 95.888 398.185C95.2752 396.803 94.7817 395.372 94.4128 393.907C93.583 390.592 92.7901 387.34 95.51 384.592C96.6372 383.381 98.1908 382.648 99.8478 382.546C101.505 382.443 103.138 382.979 104.407 384.042C103.78 380.635 104.73 377.63 106.832 376.311C107.702 375.807 108.704 375.574 109.709 375.642C114.475 375.926 117.942 382.421 118.929 384.234C122.976 391.562 131.505 403.965 144.127 421.333C144.127 421.333 125.954 396.848 135.626 390.106C138.512 388.1 141.96 390.921 143.869 392.909C147.382 396.573 148.728 401.648 151.337 405.852C154.782 411.133 159.38 415.575 164.789 418.85C173.318 424.236 182.759 427.094 190.55 433.662C194.09 436.623 197.249 440.008 199.954 443.738C203.107 448.153 204.232 453.356 206.961 457.817L249.189 526.471L269.648 482.631Z" fill="white"/>
<path d="M257.819 652.265C250.382 652.153 243.065 650.381 236.41 647.081C228.132 643.092 220.75 637.483 214.707 630.59C208.664 623.697 204.085 615.663 201.245 606.969L160.428 484.06C149.449 479.86 139.066 474.259 129.541 467.398C107.948 451.899 94.5603 432.123 90.817 410.23C90.38 408.084 90.414 405.869 90.9168 403.736C91.4196 401.604 92.3793 399.604 93.7306 397.874C93.2807 396.725 92.902 395.55 92.5965 394.356C91.7575 390.985 90.7525 386.808 94.1639 383.309C95.2028 382.226 96.512 381.436 97.9584 381.019C99.4047 380.602 100.936 380.574 102.397 380.937C102.449 379.712 102.786 378.515 103.383 377.442C103.98 376.369 104.82 375.449 105.836 374.754C107.026 374.045 108.409 373.724 109.792 373.838C115.481 374.177 119.233 381.01 120.469 383.254L120.533 383.373C122.718 387.34 126.222 392.826 131.422 400.356C130.934 398.382 130.822 396.335 131.09 394.32C131.239 393.184 131.624 392.092 132.22 391.113C132.817 390.133 133.613 389.288 134.557 388.631C136.29 387.422 139.978 386.213 145.187 391.663C147.594 394.191 149.041 397.232 150.434 400.164C151.159 401.792 151.981 403.376 152.895 404.908C156.179 409.965 160.577 414.212 165.757 417.329C169.077 419.336 172.499 421.17 176.01 422.825C181.339 425.445 186.853 428.166 191.684 432.279C195.344 435.348 198.608 438.855 201.402 442.721C203.099 445.267 204.5 447.995 205.578 450.855C206.392 452.943 207.363 454.967 208.483 456.91L248.912 522.642L268.754 480.039L347.954 526.425L300.01 624.886C299.899 625.261 285.193 652.265 257.819 652.265ZM100.415 384.335C99.0654 384.361 97.7802 384.914 96.8377 385.874C94.9199 387.807 95.3533 390.023 96.2199 393.468C96.5553 394.83 97.0119 396.161 97.5845 397.443L98.0639 398.524L97.2803 399.44C95.7956 401.071 94.8021 403.083 94.4128 405.247C94.1561 406.686 94.1812 408.16 94.4866 409.589C103.153 460.354 161.931 480.735 162.53 480.936L163.397 481.23L204.749 605.861C207.432 614.085 211.76 621.686 217.473 628.207C223.187 634.728 230.167 640.035 237.996 643.81C253.882 651.303 268.588 650.158 281.689 640.385C287.815 635.722 292.953 629.904 296.81 623.265L343.224 527.891L270.469 485.278L249.438 530.364L205.403 458.778C204.182 456.677 203.127 454.484 202.25 452.22C201.272 449.615 200.004 447.126 198.47 444.8C195.851 441.206 192.794 437.948 189.37 435.1C184.843 431.271 179.781 428.779 174.415 426.132C170.784 424.426 167.247 422.527 163.821 420.444C158.167 417.031 153.369 412.386 149.788 406.86C148.807 405.21 147.92 403.506 147.133 401.757C145.805 398.954 144.551 396.316 142.523 394.219C141.38 393.019 138.521 390.372 136.677 391.654C136.141 392.036 135.691 392.525 135.356 393.09C135.021 393.654 134.809 394.282 134.732 394.933C133.616 401.739 141.26 414.169 144.994 419.455L145.611 420.306L142.633 422.468L142.219 421.891C128.813 403.425 121.123 392.084 117.325 385.16L117.26 385.04C114.595 380.195 112.023 377.667 109.598 377.52C108.972 377.465 108.345 377.602 107.8 377.914C106.371 378.83 105.735 381.138 106.224 383.758L107.201 389.08L103.172 385.416C102.423 384.722 101.438 384.336 100.415 384.335Z" fill="black"/>
<path d="M368.911 321.434C370.973 321.434 372.645 319.773 372.645 317.724C372.645 315.675 370.973 314.014 368.911 314.014C366.849 314.014 365.177 315.675 365.177 317.724C365.177 319.773 366.849 321.434 368.911 321.434Z" fill="black"/>
<path d="M408.963 320.829C411.025 320.829 412.697 319.168 412.697 317.119C412.697 315.07 411.025 313.409 408.963 313.409C406.9 313.409 405.229 315.07 405.229 317.119C405.229 319.168 406.9 320.829 408.963 320.829Z" fill="black"/>
<path d="M383.681 334.13C383.47 334.128 383.261 334.091 383.063 334.02C380.297 333.104 377.531 331.748 377.531 329.348C377.563 328.899 377.683 328.461 377.886 328.059C378.088 327.656 378.369 327.298 378.711 327.003C378.95 326.762 379.175 326.509 379.384 326.243C380.32 325.04 380.881 323.591 380.998 322.075L382.547 305.999C382.593 305.513 382.832 305.066 383.211 304.755C383.59 304.444 384.077 304.295 384.566 304.341C385.055 304.387 385.506 304.625 385.819 305.001C386.132 305.377 386.281 305.861 386.235 306.347L384.668 322.432C384.483 324.631 383.663 326.73 382.307 328.478C382.021 328.844 381.772 329.119 381.56 329.348C382.431 329.86 383.36 330.269 384.326 330.566C384.739 330.708 385.087 330.991 385.31 331.364C385.532 331.737 385.614 332.176 385.541 332.604C385.468 333.032 385.245 333.42 384.911 333.699C384.577 333.978 384.154 334.131 383.718 334.13H383.681Z" fill="black"/>
<path d="M389.25 350.141C386.425 350.063 383.67 349.245 381.265 347.769C381.052 347.642 380.867 347.475 380.72 347.276C380.574 347.076 380.469 346.85 380.413 346.609C380.357 346.369 380.35 346.12 380.393 345.877C380.436 345.634 380.528 345.402 380.664 345.196C380.799 344.989 380.975 344.811 381.181 344.674C381.387 344.536 381.619 344.442 381.863 344.395C382.107 344.349 382.358 344.352 382.601 344.405C382.843 344.457 383.073 344.557 383.275 344.7C383.34 344.746 387.139 347.118 390.873 346.303C391.894 346.046 392.852 345.585 393.688 344.947C394.523 344.309 395.219 343.508 395.732 342.593C395.993 342.183 396.408 341.892 396.886 341.786C397.363 341.679 397.863 341.765 398.276 342.025C398.69 342.285 398.982 342.698 399.089 343.172C399.196 343.646 399.11 344.143 398.848 344.554C397.902 346.257 396.511 347.675 394.822 348.658C393.133 349.642 391.208 350.154 389.25 350.141Z" fill="black"/>
<path d="M327.78 632.654L311.645 554.794C308.899 541.553 309.597 527.836 313.674 514.938L349.724 400.887H381.874L389.25 417.155C405.081 452.082 455.256 451.331 470.026 415.955L476.314 400.887H504.675L540.2 516.844C544.784 531.79 545.011 547.721 540.854 562.79L521.603 632.654H327.78Z" fill="#6DC8C2"/>
<path d="M431.035 287.386H413.222C407.716 287.386 402.434 285.212 398.54 281.344C394.647 277.475 392.459 272.228 392.459 266.757V253.494H431.035V287.386Z" fill="black"/>
<path d="M504.675 400.896L542.541 526.544L613.757 484.802C605.888 470.467 597.146 456.622 587.581 443.344C570.699 419.931 561.949 408.105 547.124 402.124C531.367 395.712 515.536 397.938 504.675 400.896Z" fill="black"/>
<path d="M480.519 307.373H448.525C445.44 307.372 442.386 306.767 439.536 305.593C436.686 304.419 434.097 302.698 431.916 300.53C429.736 298.362 428.006 295.789 426.827 292.956C425.647 290.124 425.041 287.089 425.042 284.024V273.472H480.528L480.519 307.373Z" fill="black"/>
<path d="M469.215 253.494H414.079V287.395H469.215V253.494Z" fill="black"/>
<path d="M495.676 435.054C519.904 435.054 539.545 415.541 539.545 391.471C539.545 367.401 519.904 347.888 495.676 347.888C471.448 347.888 451.808 367.401 451.808 391.471C451.808 415.541 471.448 435.054 495.676 435.054Z" fill="black"/>
<path d="M463.609 465.438C481.548 465.438 496.091 450.99 496.091 433.167C496.091 415.345 481.548 400.896 463.609 400.896C445.67 400.896 431.127 415.345 431.127 433.167C431.127 450.99 445.67 465.438 463.609 465.438Z" fill="black"/>
<path d="M521.925 467.27C539.865 467.27 554.408 452.822 554.408 434.999C554.408 417.177 539.865 402.729 521.925 402.729C503.986 402.729 489.443 417.177 489.443 434.999C489.443 452.822 503.986 467.27 521.925 467.27Z" fill="black"/>
<path d="M455.726 576.714H398.663C390.153 576.704 381.993 573.34 375.976 567.361C369.959 561.381 366.576 553.274 366.568 544.819V506.475C366.568 502.369 368.208 498.431 371.128 495.525C374.047 492.619 378.008 490.983 382.141 490.976H472.248C476.379 490.981 480.34 492.613 483.261 495.516C486.182 498.418 487.825 502.352 487.83 506.456V544.8C487.825 553.26 484.442 561.371 478.423 567.355C472.403 573.338 464.24 576.704 455.726 576.714ZM382.141 494.64C378.989 494.645 375.967 495.892 373.739 498.107C371.511 500.322 370.259 503.325 370.256 506.456V544.8C370.264 552.284 373.259 559.459 378.584 564.751C383.91 570.044 391.131 573.022 398.663 573.031H455.726C463.26 573.024 470.483 570.047 475.811 564.755C481.138 559.462 484.134 552.285 484.142 544.8V506.475C484.142 503.339 482.889 500.332 480.659 498.113C478.429 495.894 475.404 494.645 472.248 494.64H382.141Z" fill="white"/>
<path d="M489.444 509.36C507.383 509.36 521.926 494.912 521.926 477.09C521.926 459.267 507.383 444.819 489.444 444.819C471.505 444.819 456.962 459.267 456.962 477.09C456.962 494.912 471.505 509.36 489.444 509.36Z" fill="black"/>
<path d="M603.403 564.082C603.069 564.081 602.741 563.99 602.455 563.818C602.169 563.646 601.936 563.4 601.779 563.107C601.623 562.813 601.55 562.483 601.568 562.151C601.586 561.82 601.695 561.499 601.882 561.224L622.581 530.841C622.716 530.641 622.89 530.47 623.092 530.337C623.294 530.204 623.521 530.112 623.759 530.066C623.997 530.02 624.242 530.021 624.479 530.069C624.717 530.117 624.943 530.211 625.144 530.346C625.345 530.481 625.517 530.653 625.651 530.854C625.785 531.055 625.877 531.28 625.924 531.517C625.97 531.753 625.969 531.996 625.92 532.232C625.872 532.468 625.777 532.693 625.642 532.892L604.933 563.276C604.764 563.525 604.536 563.728 604.269 563.869C604.003 564.009 603.705 564.083 603.403 564.082Z" fill="black"/>
<path d="M757.358 442.428C756.986 442.429 756.622 442.317 756.314 442.109C756.006 441.9 755.769 441.603 755.635 441.258C755.5 440.913 755.473 440.536 755.559 440.175C755.644 439.815 755.838 439.489 756.113 439.24C767.463 428.963 775.273 403.956 775.346 403.708C775.417 403.478 775.533 403.264 775.687 403.078C775.841 402.892 776.031 402.738 776.245 402.625C776.459 402.512 776.693 402.442 776.935 402.419C777.176 402.396 777.42 402.42 777.651 402.49C777.883 402.561 778.099 402.676 778.286 402.829C778.473 402.982 778.628 403.17 778.742 403.383C778.856 403.596 778.926 403.828 778.95 404.068C778.973 404.308 778.949 404.55 778.878 404.78C778.546 405.843 770.7 430.987 758.594 441.951C758.255 442.257 757.815 442.427 757.358 442.428Z" fill="black"/>
<path d="M745.898 432.517C745.515 432.518 745.142 432.402 744.829 432.183C744.516 431.964 744.279 431.654 744.152 431.296C744.024 430.938 744.012 430.549 744.116 430.183C744.221 429.818 744.438 429.494 744.736 429.256C755.238 420.792 767.039 389.08 767.159 388.769C767.347 388.341 767.692 388.001 768.123 387.818C768.555 387.634 769.041 387.621 769.482 387.781C769.922 387.941 770.285 388.262 770.496 388.679C770.707 389.096 770.75 389.576 770.617 390.023C770.119 391.37 758.345 422.999 747.059 432.105C746.731 432.37 746.321 432.516 745.898 432.517Z" fill="black"/>
<path d="M269.916 558.76C269.616 558.76 269.321 558.688 269.056 558.549C268.791 558.41 268.564 558.209 268.394 557.963L247.686 527.57C247.539 527.372 247.433 527.145 247.376 526.905C247.319 526.665 247.311 526.416 247.353 526.173C247.395 525.929 247.486 525.697 247.621 525.49C247.755 525.282 247.931 525.104 248.137 524.966C248.342 524.827 248.574 524.732 248.818 524.685C249.062 524.637 249.313 524.64 249.556 524.691C249.799 524.743 250.029 524.843 250.232 524.985C250.435 525.127 250.607 525.309 250.738 525.519L271.446 555.902C271.634 556.178 271.742 556.499 271.76 556.832C271.777 557.164 271.704 557.495 271.546 557.789C271.389 558.082 271.154 558.328 270.867 558.499C270.579 558.67 270.251 558.761 269.916 558.76Z" fill="black"/>
<path d="M115.96 437.079C115.503 437.077 115.063 436.908 114.725 436.602C102.628 425.61 94.7725 400.494 94.4406 399.431C94.3558 399.198 94.3196 398.95 94.3342 398.702C94.3488 398.454 94.414 398.212 94.5257 397.99C94.6374 397.768 94.7933 397.571 94.984 397.41C95.1747 397.25 95.3962 397.13 95.635 397.057C95.8739 396.985 96.1251 396.961 96.3734 396.988C96.6218 397.014 96.8621 397.091 97.0797 397.213C97.2974 397.334 97.4879 397.499 97.6397 397.696C97.7914 397.893 97.9013 398.119 97.9626 398.359C98.0456 398.607 105.855 423.613 117.196 433.9C117.468 434.15 117.658 434.475 117.742 434.834C117.825 435.192 117.798 435.568 117.664 435.911C117.529 436.254 117.294 436.549 116.989 436.757C116.683 436.966 116.321 437.078 115.951 437.079H115.96Z" fill="black"/>
<path d="M127.411 427.159C126.988 427.158 126.578 427.012 126.25 426.746C114.955 417.65 103.2 386.012 102.683 384.674C102.6 384.448 102.562 384.208 102.572 383.967C102.582 383.727 102.639 383.49 102.741 383.272C102.843 383.053 102.987 382.857 103.166 382.693C103.344 382.53 103.553 382.403 103.781 382.32C104.008 382.237 104.25 382.2 104.492 382.21C104.735 382.219 104.973 382.277 105.193 382.378C105.413 382.479 105.61 382.622 105.775 382.799C105.939 382.977 106.067 383.184 106.15 383.41C106.27 383.731 118.062 415.47 128.573 423.907C128.868 424.146 129.081 424.469 129.184 424.833C129.286 425.197 129.273 425.583 129.146 425.939C129.018 426.295 128.783 426.604 128.473 426.822C128.163 427.04 127.792 427.158 127.411 427.159Z" fill="black"/>
<path d="M422.506 821.011C422.017 821.011 421.548 820.818 421.202 820.474C420.856 820.131 420.662 819.665 420.662 819.179V730.519C420.662 730.033 420.856 729.567 421.202 729.224C421.548 728.88 422.017 728.687 422.506 728.687C422.995 728.687 423.464 728.88 423.81 729.224C424.156 729.567 424.35 730.033 424.35 730.519V819.179C424.35 819.665 424.156 820.131 423.81 820.474C423.464 820.818 422.995 821.011 422.506 821.011Z" fill="white"/>
<path d="M422.506 676.924C422.017 676.924 421.548 676.731 421.202 676.387C420.856 676.044 420.662 675.578 420.662 675.092V632.654C420.662 632.168 420.856 631.702 421.202 631.358C421.548 631.015 422.017 630.822 422.506 630.822C422.995 630.822 423.464 631.015 423.81 631.358C424.156 631.702 424.35 632.168 424.35 632.654V675.092C424.35 675.578 424.156 676.044 423.81 676.387C423.464 676.731 422.995 676.924 422.506 676.924Z" fill="white"/>
<path d="M537.342 679.882C537.234 679.891 537.126 679.891 537.019 679.882C514.236 675.907 502.352 663.394 496.405 653.529C492.505 647.222 489.945 640.19 488.881 632.864C488.857 632.624 488.881 632.381 488.951 632.149C489.021 631.918 489.137 631.702 489.291 631.515C489.445 631.328 489.635 631.173 489.849 631.059C490.064 630.944 490.299 630.873 490.541 630.849C490.783 630.825 491.028 630.848 491.261 630.918C491.494 630.988 491.71 631.103 491.899 631.256C492.087 631.409 492.243 631.598 492.358 631.811C492.473 632.024 492.545 632.257 492.569 632.498C493.634 639.313 496.047 645.851 499.669 651.734C507.764 664.997 520.552 673.241 537.683 676.237C538.172 676.278 538.624 676.511 538.941 676.883C539.257 677.256 539.412 677.739 539.37 678.224C539.328 678.71 539.094 679.16 538.719 679.474C538.344 679.789 537.858 679.942 537.369 679.901L537.342 679.882Z" fill="white"/>
<path d="M315.453 682.319C312.7 682.31 309.95 682.13 307.22 681.779C306.73 681.717 306.286 681.464 305.984 681.077C305.683 680.69 305.548 680.199 305.611 679.713C305.673 679.227 305.927 678.786 306.317 678.486C306.707 678.186 307.201 678.053 307.69 678.115C321.409 679.864 332.455 677.135 340.522 670.026C355.431 656.882 355.422 632.883 355.422 632.645C355.422 632.159 355.616 631.693 355.962 631.349C356.308 631.006 356.777 630.812 357.266 630.812C357.755 630.812 358.224 631.006 358.57 631.349C358.915 631.693 359.11 632.159 359.11 632.645C359.11 633.689 359.11 658.512 342.984 672.774C335.792 679.122 326.554 682.319 315.453 682.319Z" fill="white"/>
<path d="M258.64 481.202L314.273 513.042L349.724 400.896C349.724 400.896 300.572 387.285 258.64 481.202Z" fill="black"/>
<path d="M281.57 368.827H138.66C131.5 368.82 124.635 365.991 119.572 360.961C114.509 355.931 111.662 349.111 111.654 341.998V228.414C111.649 224.885 112.345 221.389 113.701 218.127C115.056 214.865 117.046 211.9 119.556 209.402C122.066 206.905 125.046 204.923 128.327 203.571C131.608 202.218 135.126 201.521 138.678 201.52H281.588C288.748 201.527 295.613 204.356 300.676 209.386C305.739 214.416 308.586 221.236 308.594 228.35V341.934C308.598 345.463 307.903 348.958 306.547 352.221C305.191 355.483 303.202 358.447 300.692 360.945C298.182 363.443 295.202 365.424 291.92 366.777C288.639 368.129 285.122 368.826 281.57 368.827ZM138.678 205.184C132.496 205.191 126.57 207.634 122.198 211.977C117.827 216.32 115.368 222.208 115.361 228.35V341.934C115.368 348.075 117.827 353.963 122.198 358.306C126.57 362.649 132.496 365.092 138.678 365.099H281.588C287.771 365.094 293.699 362.652 298.071 358.309C302.442 353.966 304.901 348.076 304.906 341.934V228.35C304.901 222.204 302.44 216.312 298.064 211.968C293.688 207.624 287.756 205.184 281.57 205.184H138.678Z" fill="black"/>
<path d="M292.274 266.382H243.887C243.398 266.382 242.929 266.189 242.583 265.845C242.237 265.502 242.043 265.036 242.043 264.55C242.043 264.064 242.237 263.598 242.583 263.254C242.929 262.911 243.398 262.718 243.887 262.718H292.274C292.763 262.718 293.232 262.911 293.577 263.254C293.923 263.598 294.118 264.064 294.118 264.55C294.118 265.036 293.923 265.502 293.577 265.845C293.232 266.189 292.763 266.382 292.274 266.382Z" fill="black"/>
<path d="M292.274 285.307H243.887C243.398 285.307 242.929 285.114 242.583 284.77C242.237 284.426 242.043 283.96 242.043 283.475C242.043 282.989 242.237 282.523 242.583 282.179C242.929 281.836 243.398 281.643 243.887 281.643H292.274C292.763 281.643 293.232 281.836 293.577 282.179C293.923 282.523 294.118 282.989 294.118 283.475C294.118 283.96 293.923 284.426 293.577 284.77C293.232 285.114 292.763 285.307 292.274 285.307Z" fill="black"/>
<path d="M279.651 304.222H243.887C243.398 304.222 242.929 304.029 242.583 303.686C242.237 303.342 242.043 302.876 242.043 302.39C242.043 301.904 242.237 301.438 242.583 301.095C242.929 300.751 243.398 300.558 243.887 300.558H279.651C280.14 300.558 280.609 300.751 280.955 301.095C281.301 301.438 281.495 301.904 281.495 302.39C281.495 302.876 281.301 303.342 280.955 303.686C280.609 304.029 280.14 304.222 279.651 304.222Z" fill="black"/>
<path d="M216.218 322.221H153.052L147.289 302.069H220.127L216.218 322.221ZM155.799 318.557H213.175L215.637 305.733H152.13L155.799 318.557Z" fill="black"/>
<path d="M185.267 322.221C184.778 322.221 184.309 322.028 183.963 321.685C183.617 321.341 183.423 320.875 183.423 320.389V303.901C183.423 303.415 183.617 302.949 183.963 302.606C184.309 302.262 184.778 302.069 185.267 302.069C185.756 302.069 186.225 302.262 186.571 302.606C186.917 302.949 187.111 303.415 187.111 303.901V320.389C187.111 320.875 186.917 321.341 186.571 321.685C186.225 322.028 185.756 322.221 185.267 322.221Z" fill="black"/>
<path d="M212.862 325.418C215.632 325.418 217.878 323.167 217.878 320.389C217.878 317.612 215.632 315.36 212.862 315.36C210.092 315.36 207.847 317.612 207.847 320.389C207.847 323.167 210.092 325.418 212.862 325.418Z" fill="black"/>
<path d="M185.23 325.418C188.025 325.418 190.292 323.167 190.292 320.389C190.292 317.612 188.025 315.36 185.23 315.36C182.434 315.36 180.168 317.612 180.168 320.389C180.168 323.167 182.434 325.418 185.23 325.418Z" fill="black"/>
<path d="M156.325 325.418C159.09 325.418 161.331 323.167 161.331 320.389C161.331 317.612 159.09 315.36 156.325 315.36C153.56 315.36 151.318 317.612 151.318 320.389C151.318 323.167 153.56 325.418 156.325 325.418Z" fill="black"/>
<path d="M139.96 269.359C139.674 269.36 139.393 269.295 139.137 269.17C138.881 269.044 138.657 268.861 138.485 268.635L128.158 255.069C127.681 254.437 127.39 253.686 127.318 252.899C127.246 252.112 127.396 251.32 127.751 250.613C128.106 249.906 128.652 249.311 129.328 248.894C130.004 248.478 130.783 248.256 131.579 248.254H163.12C164.338 248.255 165.537 248.542 166.621 249.093C167.705 249.644 168.641 250.443 169.353 251.424L183.607 266.217C183.904 266.574 184.053 267.028 184.026 267.49C183.999 267.952 183.797 268.386 183.461 268.706C183.125 269.026 182.68 269.208 182.214 269.215C181.749 269.222 181.298 269.055 180.952 268.745L166.375 253.64C166.008 253.11 165.517 252.675 164.944 252.375C164.37 252.075 163.732 251.918 163.084 251.918H131.542C131.43 251.917 131.321 251.947 131.226 252.005C131.131 252.064 131.055 252.148 131.007 252.248C130.958 252.345 130.937 252.454 130.947 252.563C130.957 252.671 130.997 252.775 131.063 252.862L141.426 266.419C141.574 266.61 141.682 266.829 141.744 267.062C141.806 267.296 141.822 267.539 141.789 267.778C141.757 268.017 141.677 268.248 141.554 268.456C141.432 268.665 141.269 268.847 141.075 268.993C140.754 269.232 140.362 269.361 139.96 269.359Z" fill="black"/>
<path d="M185.267 306.137H219.694L228.287 267.829C228.42 267.222 228.414 266.592 228.268 265.988C228.123 265.383 227.842 264.819 227.447 264.336C227.052 263.854 226.553 263.467 225.986 263.202C225.42 262.938 224.801 262.804 224.175 262.81H185.267V306.137Z" fill="#6938EF"/>
<path d="M147.981 306.136H185.267V262.81H139.222C138.538 262.808 137.863 262.968 137.253 263.277C136.643 263.586 136.116 264.034 135.716 264.586C135.316 265.138 135.054 265.776 134.952 266.448C134.849 267.121 134.91 267.808 135.128 268.452L147.981 306.136Z" fill="#6938EF"/>
<path d="M185.267 301.034C184.778 301.034 184.309 300.841 183.963 300.498C183.617 300.154 183.423 299.688 183.423 299.202V267.472C183.423 266.986 183.617 266.52 183.963 266.177C184.309 265.833 184.778 265.64 185.267 265.64C185.756 265.64 186.225 265.833 186.571 266.177C186.917 266.52 187.111 266.986 187.111 267.472V299.166C187.116 299.409 187.072 299.652 186.981 299.878C186.891 300.105 186.756 300.311 186.584 300.485C186.412 300.659 186.207 300.797 185.981 300.892C185.755 300.986 185.512 301.034 185.267 301.034Z" fill="black"/>
<path d="M170.773 673.663H111.562C108.599 673.66 105.758 672.49 103.663 670.409C101.568 668.327 100.39 665.505 100.388 662.561V603.745C100.393 600.803 101.572 597.982 103.667 595.903C105.761 593.823 108.601 592.654 111.562 592.652H170.755C173.718 592.654 176.559 593.825 178.654 595.906C180.749 597.988 181.927 600.81 181.929 603.754V662.57C181.925 665.509 180.748 668.326 178.657 670.405C176.566 672.484 173.731 673.656 170.773 673.663ZM111.562 596.316C109.578 596.318 107.675 597.103 106.271 598.497C104.868 599.891 104.078 601.782 104.076 603.754V662.57C104.078 664.542 104.868 666.433 106.271 667.827C107.675 669.221 109.578 670.006 111.562 670.008H170.755C172.74 670.006 174.642 669.221 176.046 667.827C177.449 666.433 178.239 664.542 178.241 662.57V603.745C178.239 601.773 177.449 599.882 176.046 598.488C174.642 597.094 172.74 596.309 170.755 596.307L111.562 596.316Z" fill="black"/>
<path d="M127.808 626.736C125.969 626.738 124.171 626.198 122.641 625.184C121.111 624.17 119.919 622.728 119.214 621.04C118.51 619.353 118.325 617.496 118.683 615.704C119.041 613.912 119.927 612.266 121.227 610.974C122.527 609.682 124.184 608.802 125.988 608.447C127.791 608.091 129.661 608.274 131.359 608.974C133.058 609.674 134.509 610.859 135.53 612.379C136.55 613.899 137.094 615.685 137.092 617.512C137.09 619.958 136.111 622.302 134.37 624.032C132.63 625.761 130.27 626.734 127.808 626.736ZM127.808 611.943C126.699 611.941 125.614 612.266 124.691 612.877C123.768 613.488 123.048 614.357 122.622 615.374C122.197 616.392 122.084 617.512 122.299 618.593C122.515 619.674 123.048 620.667 123.832 621.447C124.615 622.227 125.614 622.758 126.702 622.974C127.789 623.189 128.917 623.079 129.942 622.658C130.967 622.237 131.843 621.523 132.459 620.607C133.075 619.691 133.404 618.614 133.404 617.512C133.404 616.036 132.815 614.621 131.766 613.577C130.716 612.533 129.293 611.945 127.808 611.943Z" fill="black"/>
<path d="M154.545 655.086C152.709 655.086 150.914 654.545 149.387 653.532C147.86 652.518 146.67 651.078 145.967 649.392C145.265 647.707 145.081 645.852 145.439 644.063C145.797 642.273 146.682 640.63 147.98 639.34C149.279 638.05 150.933 637.171 152.734 636.815C154.535 636.46 156.402 636.642 158.098 637.34C159.795 638.038 161.245 639.221 162.265 640.738C163.285 642.255 163.83 644.038 163.83 645.862C163.827 648.308 162.848 650.653 161.108 652.382C159.367 654.111 157.007 655.084 154.545 655.086ZM154.545 640.302C153.438 640.302 152.356 640.628 151.436 641.239C150.516 641.85 149.798 642.719 149.375 643.735C148.951 644.75 148.84 645.868 149.056 646.947C149.272 648.026 149.805 649.016 150.588 649.794C151.371 650.571 152.368 651.101 153.453 651.316C154.539 651.53 155.664 651.42 156.687 650.999C157.71 650.578 158.584 649.866 159.199 648.951C159.814 648.037 160.142 646.962 160.142 645.862C160.144 645.131 160.001 644.406 159.721 643.729C159.441 643.052 159.029 642.437 158.509 641.919C157.989 641.401 157.371 640.989 156.691 640.709C156.011 640.428 155.282 640.284 154.545 640.284V640.302Z" fill="black"/>
<path d="M123.548 660.518C123.222 660.512 122.904 660.421 122.626 660.253C122.208 660.002 121.908 659.597 121.791 659.126C121.673 658.656 121.748 658.159 121.999 657.743L152.96 606.676C153.213 606.259 153.622 605.96 154.098 605.843C154.573 605.726 155.076 605.802 155.495 606.053C155.915 606.304 156.216 606.711 156.334 607.184C156.451 607.656 156.375 608.155 156.122 608.572L125.161 659.63C124.995 659.906 124.758 660.133 124.475 660.289C124.191 660.445 123.872 660.524 123.548 660.518Z" fill="black"/>
<path d="M827.882 690.49H747.668C742.209 690.485 736.976 688.329 733.116 684.494C729.256 680.659 727.085 675.459 727.08 670.036V512.328C727.09 506.914 729.258 501.725 733.109 497.895C736.961 494.065 742.182 491.907 747.631 491.892H827.845C833.304 491.897 838.538 494.053 842.398 497.888C846.258 501.723 848.429 506.923 848.434 512.346V670.036C848.426 675.452 846.26 680.645 842.409 684.478C838.557 688.311 833.334 690.473 827.882 690.49ZM747.631 495.556C743.151 495.561 738.855 497.331 735.687 500.479C732.518 503.627 730.736 507.895 730.731 512.346V670.036C730.736 674.487 732.518 678.755 735.687 681.903C738.855 685.051 743.151 686.821 747.631 686.826H827.845C832.326 686.821 836.622 685.051 839.79 681.903C842.959 678.755 844.741 674.487 844.746 670.036V512.328C844.736 507.886 842.957 503.628 839.797 500.486C836.637 497.343 832.353 495.571 827.882 495.556H747.631Z" fill="black"/>
<path d="M812.254 609.479H763.259C758.544 609.479 754.722 613.277 754.722 617.961V647.356C754.722 652.04 758.544 655.838 763.259 655.838H812.254C816.97 655.838 820.792 652.04 820.792 647.356V617.961C820.792 613.277 816.97 609.479 812.254 609.479Z" fill="#6938EF"/>
<path d="M819.068 627.936H756.584C756.095 627.936 755.626 627.743 755.28 627.4C754.934 627.056 754.74 626.59 754.74 626.104C754.74 625.619 754.934 625.153 755.28 624.809C755.626 624.465 756.095 624.272 756.584 624.272H819.068C819.557 624.272 820.026 624.465 820.372 624.809C820.718 625.153 820.912 625.619 820.912 626.104C820.912 626.59 820.718 627.056 820.372 627.4C820.026 627.743 819.557 627.936 819.068 627.936Z" fill="black"/>
<path d="M775.845 650.122H767.833C766.133 650.059 764.524 649.343 763.344 648.126C762.164 646.909 761.505 645.285 761.505 643.595C761.505 641.906 762.164 640.282 763.344 639.064C764.524 637.847 766.133 637.132 767.833 637.069H775.845C777.544 637.132 779.153 637.847 780.333 639.064C781.513 640.282 782.172 641.906 782.172 643.595C782.172 645.285 781.513 646.909 780.333 648.126C779.153 649.343 777.544 650.059 775.845 650.122ZM767.833 640.733C767.097 640.774 766.404 641.094 765.898 641.626C765.392 642.158 765.11 642.863 765.11 643.595C765.11 644.328 765.392 645.032 765.898 645.565C766.404 646.097 767.097 646.416 767.833 646.458H775.845C776.581 646.416 777.273 646.097 777.779 645.565C778.285 645.032 778.568 644.328 778.568 643.595C778.568 642.863 778.285 642.158 777.779 641.626C777.273 641.094 776.581 640.774 775.845 640.733H767.833Z" fill="black"/>
<path d="M815.03 527.259H760.374C755.658 527.259 751.836 531.056 751.836 535.741V565.135C751.836 569.82 755.658 573.618 760.374 573.618H815.03C819.745 573.618 823.568 569.82 823.568 565.135V535.741C823.568 531.056 819.745 527.259 815.03 527.259Z" fill="#6DC8C2"/>
<path d="M787.702 562.149C785.364 562.149 783.079 561.461 781.135 560.17C779.191 558.88 777.676 557.046 776.782 554.9C775.887 552.754 775.653 550.393 776.109 548.115C776.565 545.837 777.691 543.745 779.344 542.103C780.997 540.46 783.103 539.342 785.396 538.889C787.689 538.436 790.065 538.668 792.225 539.557C794.385 540.446 796.231 541.951 797.53 543.882C798.829 545.813 799.522 548.084 799.522 550.406C799.519 553.52 798.273 556.505 796.057 558.707C793.841 560.909 790.836 562.147 787.702 562.149ZM787.702 542.327C786.094 542.327 784.521 542.801 783.184 543.689C781.847 544.576 780.804 545.838 780.189 547.314C779.573 548.791 779.412 550.415 779.726 551.982C780.04 553.55 780.814 554.989 781.952 556.119C783.089 557.249 784.538 558.018 786.115 558.33C787.693 558.642 789.328 558.482 790.814 557.87C792.3 557.259 793.57 556.223 794.463 554.895C795.357 553.566 795.834 552.004 795.834 550.406C795.831 548.264 794.974 546.211 793.449 544.696C791.925 543.181 789.858 542.33 787.702 542.327Z" fill="black"/>
<path d="M758.594 562.149H751.836V558.485H758.594C760.397 558.284 762.061 557.43 763.27 556.087C764.479 554.744 765.147 553.005 765.147 551.203C765.147 549.401 764.479 547.662 763.27 546.319C762.061 544.976 760.397 544.122 758.594 543.921H751.836V540.257H758.594C761.342 540.507 763.897 541.768 765.758 543.793C767.618 545.819 768.649 548.461 768.649 551.203C768.649 553.945 767.618 556.588 765.758 558.613C763.897 560.638 761.342 561.899 758.594 562.149Z" fill="black"/>
<path d="M823.678 562.204H816.892C814.134 561.966 811.565 560.71 809.694 558.682C807.823 556.655 806.785 554.004 806.785 551.254C806.785 548.503 807.823 545.852 809.694 543.825C811.565 541.798 814.134 540.541 816.892 540.303H823.65V543.967H816.892C815.081 544.158 813.406 545.009 812.188 546.354C810.971 547.699 810.297 549.444 810.297 551.254C810.297 553.063 810.971 554.808 812.188 556.153C813.406 557.498 815.081 558.349 816.892 558.54H823.65L823.678 562.204Z" fill="black"/>
<path d="M836.033 375.386H610.06C602.996 375.366 596.226 372.571 591.23 367.609C586.234 362.647 583.417 355.922 583.396 348.904V211.339C583.415 204.32 586.23 197.593 591.227 192.629C596.223 187.665 602.994 184.868 610.06 184.849H836.033C843.099 184.868 849.869 187.665 854.866 192.629C859.862 197.593 862.677 204.32 862.697 211.339V348.904C862.675 355.922 859.858 362.647 854.862 367.609C849.866 372.571 843.097 375.366 836.033 375.386ZM610.06 188.522C603.972 188.541 598.139 190.952 593.835 195.229C589.53 199.506 587.103 205.3 587.084 211.349V348.904C587.091 354.955 589.514 360.756 593.822 365.034C598.129 369.312 603.969 371.717 610.06 371.722H836.033C842.123 371.717 847.963 369.312 852.271 365.034C856.578 360.756 859.002 354.955 859.009 348.904V211.339C858.99 205.291 856.563 199.496 852.258 195.22C847.953 190.943 842.12 188.532 836.033 188.513L610.06 188.522Z" fill="black"/>
<path d="M700.997 221.708H630.058C622.751 221.708 616.827 227.594 616.827 234.853V317.605C616.827 324.864 622.751 330.749 630.058 330.749H700.997C708.304 330.749 714.227 324.864 714.227 317.605V234.853C714.227 227.594 708.304 221.708 700.997 221.708Z" fill="#6938EF"/>
<path d="M667.372 280.122H663.684V330.759H667.372V280.122Z" fill="black"/>
<path d="M756.98 223.999H739.812C737.241 223.999 735.156 226.07 735.156 228.624V245.68C735.156 248.235 737.241 250.306 739.812 250.306H756.98C759.552 250.306 761.636 248.235 761.636 245.68V228.624C761.636 226.07 759.552 223.999 756.98 223.999Z" fill="#6DC8C2"/>
<path d="M794.119 223.999H776.951C774.38 223.999 772.295 226.07 772.295 228.624V245.68C772.295 248.235 774.38 250.306 776.951 250.306H794.119C796.69 250.306 798.775 248.235 798.775 245.68V228.624C798.775 226.07 796.69 223.999 794.119 223.999Z" fill="#6DC8C2"/>
<path d="M831.266 223.999H814.098C811.527 223.999 809.442 226.07 809.442 228.624V245.68C809.442 248.235 811.527 250.306 814.098 250.306H831.266C833.838 250.306 835.922 248.235 835.922 245.68V228.624C835.922 226.07 833.838 223.999 831.266 223.999Z" fill="#6DC8C2"/>
<path d="M835.931 276.101H736.991C736.502 276.101 736.033 275.908 735.688 275.564C735.342 275.22 735.147 274.754 735.147 274.269C735.147 273.783 735.342 273.317 735.688 272.973C736.033 272.63 736.502 272.437 736.991 272.437H835.931C836.42 272.437 836.889 272.63 837.235 272.973C837.581 273.317 837.775 273.783 837.775 274.269C837.775 274.754 837.581 275.22 837.235 275.564C836.889 275.908 836.42 276.101 835.931 276.101Z" fill="black"/>
<path d="M835.931 295.493H736.991C736.502 295.493 736.033 295.3 735.688 294.956C735.342 294.612 735.147 294.146 735.147 293.661C735.147 293.175 735.342 292.709 735.688 292.365C736.033 292.022 736.502 291.829 736.991 291.829H835.931C836.42 291.829 836.889 292.022 837.235 292.365C837.581 292.709 837.775 293.175 837.775 293.661C837.775 294.146 837.581 294.612 837.235 294.956C836.889 295.3 836.42 295.493 835.931 295.493Z" fill="black"/>
<path d="M801.494 314.884H736.954C736.465 314.884 735.996 314.691 735.65 314.348C735.305 314.004 735.11 313.538 735.11 313.052C735.11 312.566 735.305 312.1 735.65 311.757C735.996 311.413 736.465 311.22 736.954 311.22H801.494C801.983 311.22 802.452 311.413 802.798 311.757C803.144 312.1 803.338 312.566 803.338 313.052C803.338 313.538 803.144 314.004 802.798 314.348C802.452 314.691 801.983 314.884 801.494 314.884Z" fill="black"/>
<path d="M683.893 280.122H646.939C646.552 280.122 646.169 280.046 645.812 279.899C645.454 279.751 645.129 279.535 644.856 279.263C644.583 278.99 644.367 278.667 644.219 278.312C644.072 277.956 643.997 277.575 643.998 277.191V258.623C643.998 258.184 644.174 257.762 644.487 257.451C644.8 257.14 645.224 256.965 645.667 256.965H685.156C685.376 256.964 685.594 257.006 685.798 257.089C686.001 257.172 686.186 257.294 686.342 257.448C686.498 257.602 686.622 257.785 686.706 257.987C686.791 258.188 686.834 258.405 686.834 258.623V277.191C686.835 277.575 686.76 277.956 686.613 278.312C686.466 278.667 686.249 278.99 685.976 279.263C685.703 279.535 685.378 279.751 685.021 279.899C684.663 280.046 684.28 280.122 683.893 280.122Z" fill="#FFBB45"/>
<path d="M665.416 263.616C677.245 263.616 686.834 260.638 686.834 256.966C686.834 253.293 677.245 250.315 665.416 250.315C653.587 250.315 643.998 253.293 643.998 256.966C643.998 260.638 653.587 263.616 665.416 263.616Z" fill="black"/>
<path d="M518.708 634.486H330.62C330.131 634.486 329.662 634.293 329.316 633.949C328.971 633.606 328.776 633.14 328.776 632.654C328.776 632.168 328.971 631.702 329.316 631.358C329.662 631.015 330.131 630.822 330.62 630.822H518.708C519.197 630.822 519.666 631.015 520.012 631.358C520.358 631.702 520.552 632.168 520.552 632.654C520.552 633.14 520.358 633.606 520.012 633.949C519.666 634.293 519.197 634.486 518.708 634.486Z" fill="white"/>
</svg>
