<svg width="60" height="52" viewBox="0 0 60 52" fill="none" xmlns="http://www.w3.org/2000/svg">
<path d="M19.2664 40.5947C19.2584 39.8775 19.2877 39.1619 19.3547 38.448C19.435 37.6316 18.9133 37.0552 18.2702 36.8989C17.9896 36.8296 17.7124 36.841 17.439 36.9328C16.6775 37.1824 15.9053 37.4052 15.1234 37.5941C14.1879 37.8262 13.24 37.9915 12.2794 38.0894C11.4894 38.1632 10.6994 38.1669 9.90902 38.1004C7.99797 37.9474 6.15484 37.5468 4.44075 36.6933C3.07602 36.0144 1.93882 35.0879 1.14036 33.8081C0.62163 32.9685 0.28586 32.0665 0.132619 31.1012C0.0218278 30.4423 -0.0197721 29.7798 0.00866858 29.1128C0.114366 26.625 1.04315 24.4925 2.98264 22.7998C3.83968 22.0516 4.81643 21.4731 5.87043 21.0158C7.15324 20.4568 8.49929 20.1052 9.88482 19.8893C10.5445 19.7869 11.2105 19.7282 11.8786 19.6894C12.5867 19.6482 13.2939 19.6486 14.0007 19.6707C14.0902 19.6719 14.1789 19.6662 14.2672 19.6527C14.356 19.6393 14.4421 19.6189 14.527 19.5911C14.6115 19.5634 14.693 19.5287 14.7715 19.4875C14.8501 19.4463 14.9239 19.399 14.994 19.3451C15.064 19.2917 15.1285 19.2325 15.188 19.1685C15.247 19.104 15.3 19.0355 15.3471 18.9624C15.3943 18.889 15.4342 18.8127 15.4673 18.7327C15.5008 18.6532 15.5267 18.5712 15.545 18.4871C15.5874 18.3064 15.5925 18.1249 15.5615 17.9421C15.5301 17.7597 15.4639 17.5892 15.3637 17.4313C14.7898 16.524 14.2876 15.5812 13.8572 14.6033C13.3453 13.4491 12.9764 12.2546 12.7505 11.0188C12.5948 10.1213 12.5493 9.21884 12.6139 8.3111C12.7047 6.89748 13.026 5.53526 13.6993 4.26525C14.8004 2.18745 16.5412 0.876633 18.8874 0.303024C19.5598 0.138611 20.244 0.0631367 20.9368 0.0190758C21.557 -0.0213135 22.1742 0.00234896 22.7893 0.0908788C23.4039 0.179001 24.0016 0.329542 24.5823 0.542504C25.7246 0.957003 26.7502 1.56774 27.6921 2.30861C29.2992 3.57333 30.5876 5.102 31.6878 6.78488C32.3806 7.83786 32.9711 8.94142 33.4592 10.0952C33.6418 10.5301 33.9525 10.8303 34.4215 10.9646C35.04 11.1388 35.6653 10.9123 36.0359 10.3836C36.6268 9.54359 37.3106 8.78149 38.0883 8.0961C39.914 6.47931 42.039 5.41246 44.4666 4.9127C45.1577 4.76501 45.8568 4.67363 46.5645 4.63813C46.7003 4.63201 46.8366 4.61651 46.9732 4.60835C47.8642 4.5545 48.7306 4.70463 49.5877 4.91188C50.7699 5.19665 51.885 5.63358 52.8953 6.29817C54.5308 7.3744 55.5509 8.84514 55.9325 10.7161C56.1155 11.612 56.1193 12.5169 56.0488 13.4242C55.9839 14.3254 55.7979 15.203 55.4906 16.0564C54.6972 18.2383 53.2328 19.8877 51.1825 21.0745C50.9146 21.2291 50.637 21.3658 50.3556 21.4951C50.2915 21.5233 50.2303 21.5563 50.1718 21.5938C50.1128 21.6314 50.0576 21.673 50.0054 21.7187C49.9532 21.7644 49.9052 21.8133 49.861 21.8664C49.8165 21.919 49.777 21.9745 49.7413 22.0332C49.7061 22.092 49.6755 22.1528 49.6501 22.216C49.6242 22.2788 49.6038 22.3437 49.5885 22.4098C49.5728 22.4759 49.563 22.5428 49.5584 22.6101C49.5533 22.6778 49.5541 22.7456 49.5601 22.8129C49.6136 23.384 50.0364 23.8414 50.6421 23.9707C51.5942 24.1743 52.5315 24.4146 53.4425 24.7487C54.7877 25.2436 56.0441 25.8865 57.1448 26.7906C58.583 27.9729 59.5199 29.4408 59.8582 31.2399C59.9898 31.9559 60.0301 32.6764 59.9779 33.4014C59.9265 34.1794 59.8094 34.9411 59.5716 35.6844C58.9689 37.5639 57.768 38.9938 56.0272 40.0126C54.8373 40.7085 53.5426 41.1369 52.18 41.389C51.4096 41.5314 50.6323 41.6289 49.8479 41.5967C48.9225 41.5612 48.0086 41.4449 47.1057 41.2479C46.2028 41.0512 45.3262 40.7771 44.4756 40.4254C43.6711 40.0974 42.9079 39.6968 42.1854 39.2239C41.4634 38.7511 40.7961 38.215 40.184 37.6157C39.8312 37.271 39.5027 36.9063 39.1975 36.5219C38.9211 36.1727 38.5573 35.9863 38.0985 35.9981C38.0165 36.001 37.9355 36.0108 37.8557 36.0287C37.7758 36.0462 37.6982 36.0707 37.6235 36.103C37.5483 36.1348 37.4774 36.1731 37.4099 36.218C37.3429 36.2633 37.2805 36.3139 37.2232 36.3706C37.1663 36.4269 37.1149 36.4881 37.0703 36.5542C37.0254 36.6199 36.9871 36.6896 36.9562 36.7622C36.9252 36.8353 36.9018 36.9103 36.8857 36.9878C36.8696 37.065 36.8615 37.1429 36.8611 37.222C36.8611 37.5358 36.8963 37.8491 36.9163 38.1628C36.9668 39.0032 36.9668 39.8437 36.9163 40.6841C36.8853 41.2242 36.8399 41.7627 36.7634 42.2984C36.5444 43.8352 36.1509 45.3231 35.4076 46.7106C34.7191 47.9962 33.7827 49.0732 32.5041 49.8549C31.594 50.4105 30.5999 50.7659 29.5463 50.9605C28.8726 51.0865 28.193 51.149 27.507 51.1477C27.3402 51.1477 27.1738 51.1759 27.0066 51.1779C24.382 51.2069 22.3784 50.1364 20.9835 48.01C20.3391 47.0276 19.9503 45.9449 19.6901 44.8181C19.4842 43.9099 19.356 42.992 19.3055 42.0638C19.2758 41.5739 19.2737 41.0847 19.2664 40.5947Z" fill="#FFC2A5"/>
</svg>
