<svg width="655" height="528" viewBox="0 0 655 528" fill="none" xmlns="http://www.w3.org/2000/svg">
<path d="M460.713 4.06002L84.2808 169.012C51.4274 183.41 46.4726 227.98 75.3728 249.229L406.422 492.787C435.314 514.044 476.39 496.048 480.344 460.408L525.727 51.9056C529.688 16.236 493.566 -10.3373 460.713 4.06002Z" fill="#FFC1EB"/>
<path d="M583.761 511.002H33.5963C33.1969 511.002 32.8139 510.843 32.5314 510.561C32.249 510.279 32.0903 509.896 32.0903 509.496C32.0903 509.097 32.249 508.714 32.5314 508.431C32.8139 508.149 33.1969 507.99 33.5963 507.99H583.761C584.16 507.99 584.543 508.149 584.826 508.431C585.108 508.714 585.267 509.097 585.267 509.496C585.267 509.896 585.108 510.279 584.826 510.561C584.543 510.843 584.16 511.002 583.761 511.002Z" fill="black"/>
<path d="M377.371 211.602L396.151 149.54C396.413 148.673 396.862 147.875 397.468 147.203C398.073 146.53 398.82 146 399.654 145.649C400.488 145.298 401.39 145.135 402.294 145.172C403.198 145.21 404.083 145.446 404.886 145.865L425.156 156.407C426.033 156.863 426.786 157.524 427.354 158.333C427.921 159.142 428.285 160.075 428.415 161.055C428.545 162.034 428.437 163.031 428.101 163.96C427.764 164.889 427.209 165.723 426.482 166.392L377.371 211.602Z" fill="#FB6D6D"/>
<path d="M372.559 209.17L426.143 175.812C426.975 175.294 427.912 174.971 428.886 174.865C429.86 174.759 430.846 174.874 431.769 175.201C432.693 175.528 433.531 176.059 434.221 176.753C434.912 177.448 435.437 178.29 435.759 179.215L442.867 199.795C443.204 200.772 443.305 201.815 443.161 202.839C443.016 203.862 442.631 204.837 442.036 205.683C441.441 206.528 440.654 207.22 439.739 207.702C438.825 208.184 437.809 208.442 436.775 208.454L372.559 209.17Z" fill="#FB6D6D"/>
<path d="M296.792 324.01C321.74 324.01 341.965 303.785 341.965 278.837C341.965 253.889 321.74 233.665 296.792 233.665C271.844 233.665 251.62 253.889 251.62 278.837C251.62 303.785 271.844 324.01 296.792 324.01Z" fill="black"/>
<path d="M199.573 82.4699H22.1809C10.9108 82.4699 1.77456 91.6061 1.77456 102.876V181.414C1.77456 192.684 10.9108 201.82 22.1809 201.82H199.573C210.843 201.82 219.979 192.684 219.979 181.414V102.876C219.979 91.6061 210.843 82.4699 199.573 82.4699Z" fill="white"/>
<path d="M199.573 203.326H22.1884C16.3767 203.32 10.8048 201.009 6.69533 196.9C2.58586 192.79 0.274535 187.218 0.268555 181.407V102.884C0.274535 97.0721 2.58586 91.5002 6.69533 87.3907C10.8048 83.2812 16.3767 80.9699 22.1884 80.9639H199.573C205.383 80.9719 210.953 83.2841 215.061 87.3933C219.169 91.5026 221.479 97.0734 221.485 102.884V181.407C221.479 187.217 219.169 192.788 215.061 196.897C210.953 201.006 205.383 203.318 199.573 203.326ZM22.1884 83.9759C17.1749 83.9799 12.368 85.9733 8.82293 89.5183C5.27789 93.0633 3.28454 97.8703 3.28055 102.884V181.407C3.28454 186.42 5.27789 191.227 8.82293 194.772C12.368 198.317 17.1749 200.31 22.1884 200.314H199.573C204.585 200.308 209.39 198.314 212.933 194.769C216.477 191.225 218.469 186.419 218.473 181.407V102.884C218.469 97.8716 216.477 93.0658 212.933 89.521C209.39 85.9761 204.585 83.9819 199.573 83.9759H22.1884Z" fill="black"/>
<path d="M41.6007 122.74C41.2077 122.74 40.8303 122.587 40.5489 122.313C40.2675 122.038 40.1045 121.665 40.0947 121.272C39.9517 115.143 42.2182 111.483 44.1534 109.488C46.2881 107.23 49.226 105.905 52.331 105.798H52.4138C55.4125 105.861 58.2649 107.106 60.3504 109.262C62.3233 111.242 64.6651 114.932 64.5898 121.249C64.5898 121.649 64.4312 122.032 64.1487 122.314C63.8663 122.597 63.4832 122.755 63.0838 122.755C62.6844 122.755 62.3013 122.597 62.0189 122.314C61.7365 122.032 61.5778 121.649 61.5778 121.249C61.6381 115.978 59.7857 112.966 58.2194 111.423C56.6882 109.844 54.6043 108.921 52.4063 108.847H52.3536C50.0609 108.95 47.8991 109.944 46.3296 111.619C44.1383 113.878 43.0239 117.206 43.1218 121.234C43.1268 121.432 43.0928 121.629 43.0217 121.814C42.9506 121.998 42.8438 122.167 42.7075 122.31C42.5711 122.454 42.4078 122.569 42.227 122.649C42.0461 122.729 41.8512 122.773 41.6534 122.778L41.6007 122.74Z" fill="black"/>
<path d="M73.9797 180.789H30.9232C29.8687 180.789 28.8265 180.563 27.8663 180.127C26.9061 179.691 26.0501 179.055 25.3557 178.262C24.6612 177.468 24.1444 176.535 23.8397 175.526C23.535 174.516 23.4495 173.453 23.589 172.408L29.613 127.65C29.8502 125.873 30.7248 124.243 32.0739 123.063C33.423 121.883 35.1548 121.233 36.9472 121.234H66.9618C68.7252 121.234 70.4307 121.864 71.7711 123.01C73.1116 124.156 73.9989 125.742 74.2734 127.484L81.2688 172.25C81.4352 173.304 81.3713 174.381 81.0816 175.408C80.7919 176.435 80.2832 177.387 79.5906 178.198C78.8979 179.01 78.0377 179.661 77.0692 180.109C76.1006 180.556 75.0466 180.788 73.9797 180.789Z" fill="#6938EF"/>
<path d="M190.958 114.405H109.371C106.131 114.405 103.505 117.031 103.505 120.271V124.826C103.505 128.066 106.131 130.692 109.371 130.692H190.958C194.198 130.692 196.824 128.066 196.824 124.826V120.271C196.824 117.031 194.198 114.405 190.958 114.405Z" fill="#FFBB45"/>
<path d="M192.931 151.309H107.405C107.006 151.309 106.623 151.151 106.34 150.868C106.058 150.586 105.899 150.203 105.899 149.803C105.899 149.404 106.058 149.021 106.34 148.738C106.623 148.456 107.006 148.297 107.405 148.297H192.931C193.331 148.297 193.714 148.456 193.996 148.738C194.278 149.021 194.437 149.404 194.437 149.803C194.437 150.203 194.278 150.586 193.996 150.868C193.714 151.151 193.331 151.309 192.931 151.309Z" fill="black"/>
<path d="M180.891 170.661H107.405C107.006 170.661 106.623 170.503 106.34 170.22C106.058 169.938 105.899 169.555 105.899 169.155C105.899 168.756 106.058 168.373 106.34 168.09C106.623 167.808 107.006 167.649 107.405 167.649H180.891C181.29 167.649 181.673 167.808 181.956 168.09C182.238 168.373 182.397 168.756 182.397 169.155C182.397 169.555 182.238 169.938 181.956 170.22C181.673 170.503 181.29 170.661 180.891 170.661Z" fill="black"/>
<path d="M431.881 362.985C457.964 362.985 479.109 341.975 479.109 316.058C479.109 290.141 457.964 269.131 431.881 269.131C405.797 269.131 384.652 290.141 384.652 316.058C384.652 341.975 405.797 362.985 431.881 362.985Z" fill="black"/>
<path d="M384.652 299.673C410.736 299.673 431.881 278.663 431.881 252.746C431.881 226.829 410.736 205.819 384.652 205.819C358.569 205.819 337.424 226.829 337.424 252.746C337.424 278.663 358.569 299.673 384.652 299.673Z" fill="black"/>
<path d="M343.162 245.208H314.458C307.392 245.208 300.395 243.816 293.867 241.112C287.339 238.408 281.408 234.444 276.411 229.447C271.415 224.451 267.453 218.519 264.749 211.99C262.046 205.462 260.655 198.465 260.656 191.399V154.683C260.666 146.242 264.026 138.151 269.999 132.187C275.971 126.223 284.067 122.874 292.508 122.876H331.265C344.398 122.876 356.992 128.093 366.279 137.379C375.565 146.665 380.782 159.26 380.782 172.393V207.656C380.778 212.592 379.802 217.479 377.909 222.038C376.016 226.596 373.244 230.738 369.75 234.225C366.257 237.712 362.111 240.477 357.549 242.361C352.987 244.246 348.098 245.213 343.162 245.208Z" fill="black"/>
<path d="M272.531 135.451C272.531 135.451 255.498 137.966 251.025 173.99C250.496 178.39 248.597 182.512 245.596 185.774L242.855 188.741C242.164 189.488 241.771 190.462 241.75 191.479C241.729 192.496 242.082 193.486 242.742 194.26L246.454 198.628L244.579 221.67C244.579 221.67 240.814 246.225 269.722 245.464H288.11V270.938H345.903V227.151C345.903 227.151 359.073 224.892 361.468 211.926C362.072 208.684 361.935 205.348 361.067 202.168C360.198 198.987 358.621 196.044 356.453 193.56C352.138 188.673 344.533 184.524 332.01 190.367C332.018 190.367 282.275 200.352 272.531 135.451Z" fill="white"/>
<path d="M341.965 217.49C340.773 217.49 339.609 217.137 338.618 216.475C337.628 215.813 336.855 214.872 336.399 213.772C335.944 212.671 335.824 211.46 336.057 210.291C336.289 209.123 336.863 208.049 337.705 207.207C338.548 206.364 339.621 205.791 340.79 205.558C341.958 205.326 343.169 205.445 344.27 205.901C345.371 206.357 346.312 207.129 346.974 208.12C347.636 209.11 347.989 210.275 347.989 211.466C347.989 213.064 347.354 214.596 346.225 215.726C345.095 216.856 343.563 217.49 341.965 217.49ZM341.965 208.409C341.369 208.409 340.787 208.586 340.292 208.917C339.796 209.248 339.41 209.718 339.182 210.269C338.954 210.819 338.895 211.425 339.011 212.009C339.127 212.593 339.414 213.13 339.835 213.551C340.256 213.972 340.793 214.259 341.377 214.375C341.962 214.492 342.567 214.432 343.118 214.204C343.668 213.976 344.138 213.59 344.469 213.095C344.8 212.599 344.977 212.017 344.977 211.421C344.977 210.622 344.66 209.856 344.095 209.291C343.53 208.726 342.764 208.409 341.965 208.409Z" fill="black"/>
<path d="M337.424 212.95C337.033 212.95 336.656 212.797 336.375 212.525C336.094 212.252 335.93 211.88 335.918 211.489C335.813 208.379 336.739 205.864 338.682 204.012C342.537 200.337 348.975 200.804 349.224 200.826C349.623 200.857 349.994 201.046 350.255 201.35C350.515 201.654 350.644 202.05 350.613 202.449C350.582 202.849 350.394 203.219 350.089 203.48C349.785 203.74 349.39 203.869 348.99 203.838C348.938 203.838 343.599 203.462 340.707 206.218C339.405 207.468 338.81 209.162 338.885 211.406C338.892 211.605 338.86 211.802 338.79 211.988C338.72 212.174 338.615 212.344 338.479 212.489C338.343 212.634 338.18 212.751 337.999 212.832C337.818 212.914 337.623 212.959 337.424 212.965V212.95Z" fill="black"/>
<path d="M278.592 190.322C280.559 190.322 282.154 188.727 282.154 186.76C282.154 184.793 280.559 183.199 278.592 183.199C276.625 183.199 275.031 184.793 275.031 186.76C275.031 188.727 276.625 190.322 278.592 190.322Z" fill="black"/>
<path d="M266.085 220.359C264.635 220.365 263.198 220.078 261.861 219.516C257.531 217.686 254.624 212.859 254.632 207.513C254.634 207.065 254.734 206.622 254.925 206.217C255.115 205.811 255.393 205.452 255.737 205.165C256.082 204.878 256.485 204.67 256.918 204.555C257.352 204.44 257.805 204.422 258.246 204.501L276.205 207.709C276.665 207.794 277.098 207.982 277.474 208.258C277.85 208.535 278.159 208.894 278.376 209.307C278.594 209.72 278.715 210.177 278.73 210.644C278.745 211.11 278.654 211.574 278.464 212.001C276.16 217.121 271.062 220.359 266.085 220.359ZM257.704 207.43C257.695 207.452 257.695 207.476 257.704 207.498C257.704 211.655 259.865 215.359 263.096 216.73C268.05 218.823 273.758 215.224 275.784 210.706L275.739 210.615L257.772 207.408L257.704 207.43Z" fill="black"/>
<path d="M287.636 245.494H315.248C315.493 245.496 315.73 245.582 315.919 245.737C316.108 245.893 316.238 246.108 316.287 246.348C316.337 246.588 316.302 246.837 316.19 247.054C316.078 247.272 315.894 247.444 315.67 247.543L287.636 259.515V245.494Z" fill="black"/>
<path d="M287.636 270.351C287.63 268.978 288.066 267.639 288.88 266.532C289.693 265.426 290.841 264.61 292.154 264.206C293.158 263.903 294.19 263.696 295.234 263.589C299.178 263.224 303.129 264.203 306.446 266.368C309.216 264.222 312.618 263.053 316.122 263.045C319.626 263.037 323.033 264.189 325.813 266.322C328.618 264.439 331.894 263.38 335.271 263.265C337.389 263.207 339.501 263.528 341.506 264.214C342.755 264.65 343.837 265.465 344.602 266.544C345.367 267.624 345.777 268.915 345.775 270.238V283.415H287.636V270.351Z" fill="#C7B8F8"/>
<path d="M511.812 460.446L179.55 460.167L194.279 325.327C195.676 312.549 201.733 300.733 211.293 292.14C220.854 283.546 233.246 278.778 246.1 278.747L383.455 278.401C399.481 278.362 415.152 283.111 428.46 292.04C441.768 300.969 452.105 313.669 458.145 328.513C486.006 392.578 506.164 439.354 508.363 444.904C509.409 447.625 510.247 450.422 510.87 453.27C511.359 455.636 511.674 458.034 511.812 460.446Z" fill="#C7B8F8"/>
<path d="M411.286 460.273H240.973V344.845H369.502C371.258 344.845 372.968 345.408 374.381 346.45C375.794 347.492 376.837 348.959 377.356 350.636L411.286 460.273Z" fill="black"/>
<path d="M369.479 346.351C369.121 346.357 368.772 346.233 368.496 346.004C368.22 345.775 368.034 345.455 367.974 345.101C367.552 342.609 357.861 284.025 378.079 276.985C378.456 276.853 378.871 276.877 379.231 277.05C379.591 277.224 379.867 277.534 379.999 277.911C380.131 278.289 380.107 278.703 379.933 279.063C379.76 279.423 379.45 279.699 379.073 279.831C364.261 284.982 368.184 328.332 370.948 344.589C370.981 344.785 370.976 344.985 370.932 345.178C370.888 345.371 370.806 345.554 370.691 345.715C370.577 345.877 370.431 346.014 370.263 346.12C370.095 346.225 369.908 346.296 369.713 346.329C369.636 346.342 369.558 346.35 369.479 346.351Z" fill="black"/>
<path d="M244.738 346.351C244.398 346.352 244.068 346.238 243.801 346.027C243.535 345.817 243.347 345.522 243.269 345.192C239.337 328.8 239.231 311.722 242.96 295.283C244.313 289.43 246.156 283.702 248.472 278.16C248.633 277.802 248.928 277.521 249.292 277.377C249.657 277.233 250.064 277.237 250.426 277.388C250.788 277.539 251.076 277.825 251.23 278.186C251.385 278.547 251.392 278.953 251.251 279.319C249.002 284.706 247.211 290.273 245.897 295.96C242.27 311.951 242.375 328.563 246.206 344.506C246.251 344.699 246.257 344.899 246.224 345.094C246.191 345.289 246.121 345.476 246.016 345.644C245.911 345.812 245.774 345.958 245.613 346.072C245.452 346.187 245.269 346.269 245.076 346.314C244.966 346.341 244.852 346.354 244.738 346.351Z" fill="black"/>
<path d="M223.209 252.181C221.643 250.157 219.847 248.322 217.855 246.714L217.773 246.639C214.048 243.333 210.813 239.515 208.164 235.299C205.815 231.534 204.399 227.678 202.095 221.745C200.943 218.793 200.13 216.474 199.678 215.179C194.309 199.757 190.785 185.932 185.333 183.944C184.513 183.666 183.66 183.491 182.796 183.425C181.645 183.317 180.485 183.44 179.383 183.788C178.281 184.136 177.26 184.701 176.38 185.45C175.797 185.948 175.289 186.529 174.874 187.175C172.766 190.525 173.812 195.382 175.974 204.953C176.32 206.459 176.629 207.701 176.832 208.53L181.207 228.59C181.207 228.59 170.454 231.022 171.056 239.546C171.056 239.546 161.117 233.657 157.262 245.223C157.262 245.223 144.686 246.24 148.338 260.035C148.338 260.035 153.406 278.498 160.914 279.108C160.914 279.108 159.498 307.918 183.436 320.523L222.592 315.599L225.167 304.439C231.944 275.072 228.887 265.547 227.75 262.023C226.651 258.566 225.126 255.26 223.209 252.181Z" fill="white"/>
<path d="M188.511 304.191C188.273 304.191 188.039 304.136 187.827 304.028C187.615 303.921 187.431 303.765 187.291 303.573C182.77 297.435 179.964 290.205 179.159 282.625C177.449 265.306 187.344 252.505 191.395 248.1L188.255 239.998C187.946 239.177 187.547 238.13 187.103 237.091C184.61 231.3 183.489 226.436 183.775 222.626C183.856 221.475 184.169 220.353 184.696 219.326C185.222 218.3 185.952 217.391 186.839 216.655C187.709 215.929 188.716 215.389 189.801 215.065C190.886 214.741 192.025 214.642 193.149 214.772C199.972 215.525 204.053 223.326 204.226 223.65C204.317 223.826 204.373 224.018 204.389 224.216C204.406 224.413 204.384 224.612 204.323 224.801C204.263 224.989 204.167 225.164 204.039 225.316C203.911 225.467 203.755 225.592 203.579 225.683C203.403 225.774 203.21 225.829 203.013 225.846C202.815 225.863 202.617 225.84 202.428 225.78C202.239 225.72 202.064 225.623 201.913 225.496C201.761 225.368 201.636 225.211 201.545 225.035C201.545 224.968 198.029 218.341 192.818 217.769C192.095 217.684 191.363 217.747 190.665 217.954C189.967 218.162 189.319 218.508 188.76 218.974C188.184 219.452 187.712 220.043 187.371 220.709C187.031 221.376 186.829 222.105 186.779 222.852C186.531 226.172 187.57 230.562 189.866 235.901C190.341 236.993 190.755 238.092 191.071 238.913L194.896 248.778L194.226 249.47C190.966 252.851 180.469 265.208 182.178 282.316C182.92 289.357 185.519 296.074 189.708 301.781C189.943 302.103 190.041 302.505 189.98 302.898C189.92 303.292 189.705 303.646 189.384 303.882C189.133 304.074 188.827 304.182 188.511 304.191Z" fill="black"/>
<path d="M273.811 452.916C263.613 452.244 253.38 453.459 243.623 456.5C207.321 467.938 191.214 501.462 187.796 509.052L273.811 509.496V452.916Z" fill="white"/>
<path d="M275.317 511.01L185.469 510.543L186.418 508.434C192.035 495.995 208.797 465.898 243.171 455.062C253.103 451.965 263.521 450.727 273.901 451.41L275.317 451.5V511.01ZM190.153 507.561L272.305 507.983V454.339C262.755 453.874 253.198 455.1 244.075 457.961C212.667 467.833 196.425 494.481 190.153 507.561Z" fill="black"/>
<path d="M175.04 283.265C173.569 283.279 172.115 282.96 170.785 282.331C169.13 281.52 167.727 280.273 166.727 278.724C166.211 279.355 165.566 279.868 164.837 280.23C163.453 280.886 161.869 280.98 160.417 280.494C160.231 280.426 160.06 280.322 159.914 280.189C159.768 280.055 159.65 279.894 159.567 279.715C159.483 279.535 159.436 279.341 159.427 279.143C159.419 278.946 159.449 278.748 159.517 278.562C159.585 278.377 159.688 278.206 159.822 278.06C159.956 277.914 160.117 277.796 160.296 277.712C160.475 277.629 160.67 277.582 160.867 277.573C161.065 277.564 161.262 277.595 161.448 277.663C162.135 277.869 162.874 277.818 163.526 277.52C163.982 277.227 164.374 276.846 164.68 276.4C164.987 275.954 165.201 275.452 165.311 274.922L166.817 270.02L168.225 274.944C168.225 274.944 169.227 278.235 172.133 279.605C174.197 280.584 176.817 280.411 179.919 279.101C180.103 279.015 180.302 278.966 180.504 278.959C180.707 278.951 180.909 278.984 181.098 279.057C181.287 279.129 181.46 279.239 181.606 279.38C181.752 279.52 181.868 279.689 181.947 279.876C182.026 280.062 182.067 280.263 182.066 280.466C182.066 280.668 182.025 280.869 181.945 281.055C181.866 281.242 181.749 281.41 181.603 281.55C181.457 281.691 181.284 281.8 181.094 281.872C179.189 282.736 177.131 283.21 175.04 283.265Z" fill="black"/>
<path d="M166.749 276.879C166.43 276.878 166.119 276.775 165.862 276.586C165.605 276.396 165.414 276.13 165.319 275.825L155.816 245.66C155.696 245.279 155.733 244.865 155.918 244.511C156.103 244.156 156.421 243.89 156.802 243.77C157.184 243.65 157.597 243.687 157.951 243.872C158.306 244.057 158.572 244.375 158.692 244.756L168.157 274.922C168.217 275.111 168.239 275.309 168.221 275.507C168.204 275.704 168.148 275.896 168.056 276.071C167.965 276.247 167.839 276.403 167.687 276.53C167.535 276.657 167.36 276.753 167.171 276.812C167.034 276.854 166.892 276.877 166.749 276.879Z" fill="black"/>
<path d="M181.659 270.637C181.348 270.636 181.046 270.54 180.792 270.361C180.539 270.181 180.347 269.928 180.243 269.636L169.663 240.035C169.597 239.849 169.567 239.651 169.577 239.453C169.587 239.256 169.635 239.062 169.72 238.883C169.804 238.704 169.923 238.543 170.07 238.41C170.217 238.277 170.388 238.174 170.575 238.107C170.761 238.041 170.959 238.011 171.156 238.021C171.354 238.031 171.548 238.079 171.727 238.164C171.906 238.248 172.067 238.367 172.2 238.514C172.333 238.661 172.435 238.832 172.502 239.019L183.044 268.627C183.125 268.854 183.15 269.098 183.117 269.337C183.084 269.576 182.994 269.804 182.854 270.001C182.715 270.198 182.53 270.359 182.315 270.47C182.101 270.58 181.863 270.638 181.621 270.637H181.659Z" fill="black"/>
<path d="M575.952 104.134H477.422C463.133 104.134 451.549 115.716 451.549 130.003C451.549 144.29 463.133 155.872 477.422 155.872H575.952C590.241 155.872 601.825 144.29 601.825 130.003C601.825 115.716 590.241 104.134 575.952 104.134Z" fill="white"/>
<path d="M575.99 157.386H477.415C470.153 157.386 463.189 154.501 458.055 149.367C452.92 144.232 450.035 137.268 450.035 130.007C450.035 122.745 452.92 115.781 458.055 110.647C463.189 105.512 470.153 102.628 477.415 102.628H575.99C583.251 102.628 590.215 105.512 595.35 110.647C600.484 115.781 603.369 122.745 603.369 130.007C603.369 137.268 600.484 144.232 595.35 149.367C590.215 154.501 583.251 157.386 575.99 157.386ZM477.415 105.64C470.952 105.64 464.754 108.207 460.184 112.777C455.615 117.346 453.047 123.544 453.047 130.007C453.047 136.469 455.615 142.667 460.184 147.237C464.754 151.807 470.952 154.374 477.415 154.374H575.99C582.452 154.374 588.65 151.807 593.22 147.237C597.79 142.667 600.357 136.469 600.357 130.007C600.357 123.544 597.79 117.346 593.22 112.777C588.65 108.207 582.452 105.64 575.99 105.64H477.415Z" fill="black"/>
<path d="M485.743 138.433C490.396 138.433 494.169 134.66 494.169 130.007C494.169 125.353 490.396 121.581 485.743 121.581C481.089 121.581 477.317 125.353 477.317 130.007C477.317 134.66 481.089 138.433 485.743 138.433Z" fill="#6DC8C2"/>
<path d="M526.683 138.433C531.337 138.433 535.109 134.66 535.109 130.007C535.109 125.353 531.337 121.581 526.683 121.581C522.03 121.581 518.257 125.353 518.257 130.007C518.257 134.66 522.03 138.433 526.683 138.433Z" fill="#6DC8C2"/>
<path d="M567.624 138.433C572.278 138.433 576.05 134.66 576.05 130.007C576.05 125.353 572.278 121.581 567.624 121.581C562.97 121.581 559.198 125.353 559.198 130.007C559.198 134.66 562.97 138.433 567.624 138.433Z" fill="#6DC8C2"/>
<path d="M83.716 245.961H35.8629C26.065 245.961 18.1222 253.904 18.1222 263.702V311.555C18.1222 321.353 26.065 329.296 35.8629 329.296H83.716C93.5139 329.296 101.457 321.353 101.457 311.555V263.702C101.457 253.904 93.5139 245.961 83.716 245.961Z" fill="white"/>
<path d="M83.7085 330.802H35.8629C30.7595 330.794 25.8675 328.762 22.2595 325.153C18.6516 321.544 16.6222 316.651 16.6162 311.548V263.687C16.6222 258.583 18.6516 253.691 22.2595 250.081C25.8675 246.472 30.7595 244.441 35.8629 244.433H83.7085C88.8132 244.439 93.7071 246.469 97.3167 250.079C100.926 253.688 102.957 258.582 102.963 263.687V311.525C102.963 316.634 100.935 321.533 97.3246 325.148C93.7144 328.762 88.8171 330.796 83.7085 330.802ZM35.8629 247.467C31.561 247.471 27.4362 249.181 24.3929 252.221C21.3496 255.262 19.6362 259.385 19.6282 263.687V311.525C19.6322 315.83 21.3436 319.958 24.3872 323.003C27.4307 326.048 31.5577 327.761 35.8629 327.767H83.7085C88.0144 327.761 92.1421 326.048 95.1869 323.003C98.2316 319.959 99.9447 315.831 99.9507 311.525V263.687C99.9467 259.38 98.2342 255.251 95.1891 252.206C92.1439 249.161 88.015 247.449 83.7085 247.445L35.8629 247.467Z" fill="black"/>
<path d="M83.0308 274.011C82.11 272.32 80.7357 270.919 79.0625 269.967C71.3743 265.667 63.6109 268.333 59.8083 273.92C55.9529 268.265 48.0389 265.592 40.2303 270.155C38.8134 270.98 37.6293 272.151 36.7891 273.559C33.2575 279.492 33.9502 285.449 36.9171 289.688C36.9706 289.764 37.0284 289.837 37.0903 289.906V289.944C37.1505 290.027 40.9306 294.409 43.295 296.804C47.8086 301.201 52.541 305.368 57.474 309.289C58.1121 309.808 58.9099 310.092 59.733 310.092C60.556 310.092 61.3538 309.808 61.992 309.289C66.2464 305.893 69.7027 302.948 72.2704 300.697C74.232 299.064 76.0834 297.303 77.8125 295.426C81.5022 291.352 89.6271 286.013 83.0308 274.011Z" fill="#FB6D6D"/>
<path d="M627.819 214.667H480.946C466.965 214.667 455.63 226.001 455.63 239.982V400.771C455.63 414.752 466.965 426.086 480.946 426.086H627.819C641.8 426.086 653.135 414.752 653.135 400.771V239.982C653.135 226.001 641.8 214.667 627.819 214.667Z" fill="white"/>
<path d="M627.819 427.592H480.946C473.835 427.584 467.017 424.756 461.989 419.728C456.961 414.699 454.132 407.882 454.124 400.771V239.982C454.132 232.871 456.961 226.054 461.989 221.025C467.017 215.997 473.835 213.169 480.946 213.161H627.819C634.93 213.169 641.748 215.997 646.776 221.025C651.804 226.054 654.633 232.871 654.641 239.982V400.771C654.633 407.882 651.804 414.699 646.776 419.728C641.748 424.756 634.93 427.584 627.819 427.592ZM480.946 216.173C474.634 216.181 468.582 218.692 464.119 223.155C459.655 227.619 457.144 233.67 457.136 239.982V400.771C457.144 407.083 459.655 413.134 464.119 417.598C468.582 422.061 474.634 424.572 480.946 424.58H627.819C634.131 424.572 640.183 422.061 644.646 417.598C649.11 413.134 651.621 407.083 651.629 400.771V239.982C651.623 233.67 649.112 227.617 644.648 223.153C640.184 218.689 634.132 216.179 627.819 216.173H480.946Z" fill="black"/>
<path d="M504.974 294.176H485.329C479.627 294.176 475.005 298.798 475.005 304.5V324.145C475.005 329.847 479.627 334.469 485.329 334.469H504.974C510.676 334.469 515.298 329.847 515.298 324.145V304.5C515.298 298.798 510.676 294.176 504.974 294.176Z" fill="#6938EF"/>
<path d="M504.974 355.342H485.329C479.627 355.342 475.005 359.964 475.005 365.666V385.311C475.005 391.013 479.627 395.635 485.329 395.635H504.974C510.676 395.635 515.298 391.013 515.298 385.311V365.666C515.298 359.964 510.676 355.342 504.974 355.342Z" fill="#6938EF"/>
<path d="M631.117 304.522H540.169C539.77 304.522 539.387 304.363 539.105 304.081C538.822 303.799 538.664 303.415 538.664 303.016C538.664 302.617 538.822 302.234 539.105 301.951C539.387 301.669 539.77 301.51 540.169 301.51H631.117C631.516 301.51 631.899 301.669 632.182 301.951C632.464 302.234 632.623 302.617 632.623 303.016C632.623 303.415 632.464 303.799 632.182 304.081C631.899 304.363 631.516 304.522 631.117 304.522Z" fill="black"/>
<path d="M596.23 326.698H540.169C539.77 326.698 539.387 326.539 539.105 326.257C538.822 325.974 538.664 325.591 538.664 325.192C538.664 324.793 538.822 324.409 539.105 324.127C539.387 323.845 539.77 323.686 540.169 323.686H596.23C596.63 323.686 597.013 323.845 597.295 324.127C597.578 324.409 597.736 324.793 597.736 325.192C597.736 325.591 597.578 325.974 597.295 326.257C597.013 326.539 596.63 326.698 596.23 326.698Z" fill="black"/>
<path d="M631.117 365.907H540.169C539.77 365.907 539.387 365.748 539.105 365.466C538.822 365.183 538.664 364.8 538.664 364.401C538.664 364.001 538.822 363.618 539.105 363.336C539.387 363.053 539.77 362.895 540.169 362.895H631.117C631.516 362.895 631.899 363.053 632.182 363.336C632.464 363.618 632.623 364.001 632.623 364.401C632.623 364.8 632.464 365.183 632.182 365.466C631.899 365.748 631.516 365.907 631.117 365.907Z" fill="black"/>
<path d="M596.23 388.083H540.169C539.77 388.083 539.387 387.924 539.105 387.641C538.822 387.359 538.664 386.976 538.664 386.577C538.664 386.177 538.822 385.794 539.105 385.512C539.387 385.229 539.77 385.071 540.169 385.071H596.23C596.63 385.071 597.013 385.229 597.295 385.512C597.578 385.794 597.736 386.177 597.736 386.577C597.736 386.976 597.578 387.359 597.295 387.641C597.013 387.924 596.63 388.083 596.23 388.083Z" fill="black"/>
<path d="M510.938 243.002C510.31 241.843 509.368 240.885 508.22 240.238C502.949 237.287 497.633 239.116 495.027 242.949C492.384 239.071 486.963 237.242 481.624 240.351C480.656 240.922 479.848 241.727 479.274 242.693C476.85 246.752 477.324 250.833 479.357 253.74C479.393 253.793 479.434 253.844 479.478 253.89C479.523 253.951 482.113 256.955 483.732 258.597C485.118 259.99 488.536 263.182 493.446 267.143C493.882 267.495 494.426 267.686 494.986 267.686C495.546 267.686 496.089 267.495 496.526 267.143C499.44 264.809 501.797 262.791 503.566 261.255C504.896 260.136 506.154 258.934 507.331 257.655C509.891 254.892 515.464 251.232 510.938 243.002Z" fill="#FB6D6D"/>
<path d="M447.362 524.895H284.262C281.774 524.896 279.31 524.407 277.01 523.455C274.711 522.503 272.621 521.108 270.861 519.349C269.101 517.589 267.705 515.5 266.752 513.201C265.8 510.902 265.309 508.438 265.309 505.95V474.677C265.311 463.52 269.745 452.821 277.634 444.932C285.523 437.042 296.223 432.609 307.38 432.607H483.973C491.362 432.607 498.449 435.543 503.674 440.768C508.899 445.993 511.834 453.079 511.834 460.468C511.831 468.932 510.161 477.312 506.92 485.13C503.678 492.949 498.928 500.052 492.941 506.034C486.955 512.017 479.848 516.762 472.028 519.998C464.207 523.234 455.826 524.898 447.362 524.895Z" fill="#C7B8F8"/>
<path d="M195.145 527.884C188.393 527.745 181.735 526.276 175.55 523.562C169.366 520.849 163.776 516.944 159.101 512.07C154.426 507.197 150.757 501.45 148.303 495.158C145.849 488.866 144.658 482.152 144.799 475.4L147.608 340.275C147.772 332.515 151.011 325.137 156.612 319.765C162.214 314.392 169.72 311.463 177.48 311.623L221.794 312.549C229.548 312.717 236.917 315.957 242.283 321.557C247.649 327.157 250.571 334.659 250.408 342.413L247.629 477.539C247.489 484.291 246.021 490.949 243.307 497.134C240.594 503.318 236.689 508.907 231.815 513.583C226.941 518.258 221.194 521.927 214.902 524.381C208.611 526.835 201.897 528.025 195.145 527.884Z" fill="#C7B8F8"/>
<path d="M436.308 432.6H395.42C395.021 432.6 394.638 432.441 394.355 432.159C394.073 431.876 393.914 431.493 393.914 431.094C393.914 430.694 394.073 430.311 394.355 430.029C394.638 429.747 395.021 429.588 395.42 429.588H436.308C436.708 429.588 437.091 429.747 437.373 430.029C437.656 430.311 437.814 430.694 437.814 431.094C437.814 431.493 437.656 431.876 437.373 432.159C437.091 432.441 436.708 432.6 436.308 432.6Z" fill="black"/>
<path d="M389.095 213.665C386.931 213.665 384.815 213.024 383.015 211.822C381.215 210.619 379.811 208.911 378.982 206.912C378.153 204.912 377.935 202.712 378.355 200.589C378.776 198.466 379.816 196.515 381.345 194.983C382.874 193.451 384.823 192.406 386.945 191.981C389.068 191.556 391.268 191.77 393.269 192.595C395.27 193.42 396.982 194.82 398.188 196.617C399.393 198.415 400.039 200.529 400.044 202.694C400.046 204.133 399.764 205.559 399.215 206.89C398.666 208.22 397.86 209.429 396.843 210.448C395.826 211.467 394.618 212.276 393.289 212.828C391.96 213.38 390.535 213.664 389.095 213.665ZM389.095 194.78C387.524 194.78 385.989 195.246 384.683 196.119C383.378 196.992 382.361 198.233 381.761 199.685C381.16 201.136 381.005 202.733 381.313 204.273C381.621 205.813 382.379 207.227 383.491 208.337C384.603 209.446 386.02 210.2 387.561 210.503C389.102 210.807 390.698 210.647 392.148 210.042C393.598 209.438 394.836 208.418 395.705 207.109C396.575 205.801 397.036 204.265 397.032 202.694C397.024 200.594 396.184 198.582 394.697 197.099C393.21 195.616 391.196 194.782 389.095 194.78Z" fill="black"/>
<path d="M250.618 346.351C250.219 346.351 249.836 346.193 249.554 345.91C249.271 345.628 249.112 345.245 249.112 344.845C248.917 314.793 224.339 314.138 223.307 314.138C222.908 314.138 222.525 313.979 222.242 313.697C221.96 313.414 221.801 313.031 221.801 312.632C221.801 312.232 221.96 311.849 222.242 311.567C222.525 311.285 222.908 311.126 223.307 311.126C223.593 311.126 251.876 311.781 252.094 344.853C252.094 345.252 251.936 345.635 251.653 345.918C251.371 346.2 250.988 346.359 250.588 346.359L250.618 346.351Z" fill="black"/>
<path d="M338.659 280.343H291.973C291.574 280.343 291.191 280.185 290.908 279.902C290.626 279.62 290.467 279.237 290.467 278.837C290.467 278.438 290.626 278.055 290.908 277.772C291.191 277.49 291.574 277.331 291.973 277.331H338.659C339.059 277.331 339.442 277.49 339.724 277.772C340.007 278.055 340.165 278.438 340.165 278.837C340.165 279.237 340.007 279.62 339.724 279.902C339.442 280.185 339.059 280.343 338.659 280.343Z" fill="black"/>
<path d="M294.413 519.044C294.014 519.044 293.63 518.886 293.348 518.603C293.066 518.321 292.907 517.938 292.907 517.538V449.226C292.907 448.827 293.066 448.444 293.348 448.161C293.63 447.879 294.014 447.72 294.413 447.72C294.812 447.72 295.195 447.879 295.478 448.161C295.76 448.444 295.919 448.827 295.919 449.226V517.538C295.919 517.938 295.76 518.321 295.478 518.603C295.195 518.886 294.812 519.044 294.413 519.044Z" fill="black"/>
<path d="M232.358 339.951H164.054C163.654 339.951 163.271 339.792 162.989 339.51C162.706 339.227 162.548 338.844 162.548 338.445C162.548 338.045 162.706 337.662 162.989 337.38C163.271 337.097 163.654 336.939 164.054 336.939H232.358C232.758 336.939 233.141 337.097 233.423 337.38C233.706 337.662 233.864 338.045 233.864 338.445C233.864 338.844 233.706 339.227 233.423 339.51C233.141 339.792 232.758 339.951 232.358 339.951Z" fill="black"/>
<path d="M68.3322 442.065C68.0236 442.065 67.7223 441.971 67.4691 441.795C67.2159 441.618 67.0231 441.368 66.9166 441.079C58.1818 417.254 40.1248 397.909 39.9441 397.721C39.6695 397.43 39.5216 397.043 39.5329 396.643C39.5442 396.243 39.7138 395.864 40.0044 395.59C40.2949 395.315 40.6827 395.167 41.0823 395.179C41.482 395.19 41.8608 395.36 42.1354 395.65C42.3161 395.846 60.7947 415.62 69.7479 440.077C69.8839 440.452 69.8659 440.865 69.698 441.226C69.5301 441.587 69.2258 441.867 68.8518 442.005C68.6839 442.057 68.5077 442.078 68.3322 442.065Z" fill="black"/>
<path d="M76.8562 444.52C76.4568 444.52 76.0737 444.361 75.7913 444.079C75.5088 443.796 75.3502 443.413 75.3502 443.014V422.389C75.3502 421.99 75.5088 421.607 75.7913 421.324C76.0737 421.042 76.4568 420.883 76.8562 420.883C77.2556 420.883 77.6387 421.042 77.9211 421.324C78.2035 421.607 78.3622 421.99 78.3622 422.389V443.014C78.3622 443.413 78.2035 443.796 77.9211 444.079C77.6387 444.361 77.2556 444.52 76.8562 444.52Z" fill="black"/>
<path d="M121.23 474.03C121.228 469.1 119.269 464.372 115.783 460.886C112.297 457.4 107.569 455.44 102.639 455.438H98.4974V441.395H47.2482V455.446H43.1067C38.1759 455.446 33.4471 457.405 29.9605 460.891C26.4739 464.378 24.5152 469.107 24.5152 474.037C24.5211 478.964 26.4828 483.686 29.9689 487.166C33.4551 490.647 38.1805 492.601 43.1067 492.599C40.6656 492.598 38.2482 493.078 35.9926 494.011C33.737 494.945 31.6874 496.314 29.961 498.039C28.2345 499.765 26.8649 501.814 25.9305 504.069C24.9961 506.325 24.5152 508.742 24.5152 511.183C24.5142 513.625 24.9944 516.043 25.9283 518.299C26.8623 520.555 28.2317 522.605 29.9583 524.331C31.6849 526.058 33.7348 527.427 35.9909 528.361C38.247 529.295 40.665 529.776 43.1067 529.775H102.639C107.57 529.775 112.299 527.816 115.785 524.329C119.272 520.843 121.23 516.114 121.23 511.183C121.228 506.253 119.269 501.527 115.782 498.042C112.296 494.557 107.568 492.599 102.639 492.599C107.566 492.599 112.291 490.643 115.777 487.162C119.263 483.68 121.224 478.957 121.23 474.03Z" fill="#6DC8C2"/>
<path d="M103.422 494.21H82.4208C82.0214 494.21 81.6384 494.052 81.3559 493.769C81.0735 493.487 80.9148 493.104 80.9148 492.704C80.9148 492.305 81.0735 491.922 81.3559 491.639C81.6384 491.357 82.0214 491.198 82.4208 491.198H103.422C103.821 491.198 104.204 491.357 104.487 491.639C104.769 491.922 104.928 492.305 104.928 492.704C104.928 493.104 104.769 493.487 104.487 493.769C104.204 494.052 103.821 494.21 103.422 494.21Z" fill="black"/>
<path d="M52.9861 494.105H41.9923C41.5929 494.105 41.2098 493.946 40.9274 493.664C40.645 493.381 40.4863 492.998 40.4863 492.599C40.4863 492.199 40.645 491.816 40.9274 491.534C41.2098 491.252 41.5929 491.093 41.9923 491.093H52.9861C53.3855 491.093 53.7686 491.252 54.051 491.534C54.3334 491.816 54.4921 492.199 54.4921 492.599C54.4921 492.998 54.3334 493.381 54.051 493.664C53.7686 493.946 53.3855 494.105 52.9861 494.105Z" fill="black"/>
<path d="M72.8803 445.762C87.2902 445.762 98.9718 443.328 98.9718 440.326C98.9718 437.323 87.2902 434.889 72.8803 434.889C58.4704 434.889 46.7889 437.323 46.7889 440.326C46.7889 443.328 58.4704 445.762 72.8803 445.762Z" fill="black"/>
<path d="M76.8562 422.389C83.6557 422.389 89.1677 416.877 89.1677 410.078C89.1677 403.278 83.6557 397.766 76.8562 397.766C70.0567 397.766 64.5446 403.278 64.5446 410.078C64.5446 416.877 70.0567 422.389 76.8562 422.389Z" fill="#FFBB45"/>
<path d="M36.6083 404.844C43.8944 404.844 49.8009 398.938 49.8009 391.652C49.8009 384.366 43.8944 378.459 36.6083 378.459C29.3223 378.459 23.4158 384.366 23.4158 391.652C23.4158 398.938 29.3223 404.844 36.6083 404.844Z" fill="#FFBB45"/>
<path d="M195.431 202.348C193.925 198.236 191.749 192.958 188.692 188.545C186.101 184.78 183.142 183.199 179.889 183.763C178.948 183.876 178.044 184.195 177.241 184.697C176.438 185.2 175.756 185.873 175.243 186.67C172.675 190.789 174.385 198.055 175.243 200.977L175.356 201.354L172.487 202.265L172.352 201.82C171.154 197.694 169.596 190.036 172.691 185.074C173.424 183.914 174.403 182.929 175.558 182.189C176.713 181.449 178.017 180.971 179.377 180.789C183.827 180.036 187.909 182.099 191.177 186.813C194.445 191.527 196.666 197.009 198.262 201.278L195.431 202.348Z" fill="black"/>
</svg>
