<svg width="47" height="40" viewBox="0 0 47 40" fill="none" xmlns="http://www.w3.org/2000/svg">
<path d="M44.6103 6.53009C43.7763 4.99144 42.525 3.71935 41.0003 2.86007C34.0003 -1.05993 26.9403 1.37008 23.4803 6.46008C19.9703 1.31008 12.7703 -1.1199 5.68034 3.0101C4.39483 3.76721 3.32158 4.83701 2.56034 6.12008C-0.659656 11.5101 -0.029671 16.9301 2.67033 20.7901C2.71809 20.861 2.77164 20.9279 2.83036 20.9901C2.89036 21.0701 6.33033 25.0601 8.48033 27.2401C10.3203 29.0901 14.8604 33.3301 21.3804 38.5901C21.9598 39.0568 22.6813 39.3113 23.4253 39.3113C24.1693 39.3113 24.8909 39.0568 25.4703 38.5901C29.3403 35.4901 32.4704 32.8101 34.8204 30.7701C36.5868 29.2845 38.2569 27.688 39.8204 25.9901C43.2204 22.3201 50.6203 17.4601 44.6103 6.53009Z" fill="#E9A4AF"/>
</svg>
