<svg width="207" height="193" viewBox="0 0 207 193" fill="none" xmlns="http://www.w3.org/2000/svg">
<path d="M22.2079 152.954C15.7169 141.107 9.09216 129.737 3.18579 118.004C-1.37348 108.948 -0.240263 99.117 1.67232 89.5839C2.94327 83.249 5.30063 77.1404 6.83514 70.8484C10.2888 56.6873 20.2726 47.5078 30.8229 38.675C48.6907 23.716 67.6518 10.6677 90.325 3.93358C114.722 -3.31242 137.951 -0.786714 159.116 13.5046C181.926 28.9072 198.679 49.2353 204.647 76.7769C210.425 103.444 205.356 128.356 190.434 151.188C184.922 159.622 177.136 165.468 168.263 170.107C143.241 183.189 116.593 190.107 88.4826 191.9C61.4423 193.625 41.1218 182.55 26.6287 160.044C25.1869 157.804 23.7973 155.532 22.2079 152.954Z" fill="#F19821"/>
</svg>
