<svg width="61" height="61" viewBox="0 0 61 61" fill="none" xmlns="http://www.w3.org/2000/svg">
<path d="M54.0026 14H7.99748C4.13289 14 1 16.6615 1 19.9446V53.0554C1 56.3385 4.13289 59 7.99748 59H54.0026C57.8672 59 61 56.3385 61 53.0554V19.9446C61 16.6615 57.8672 14 54.0026 14Z" fill="#FFC1EB"/>
<path d="M59.4512 29H1.54881C1.13804 29 0.744118 28.8946 0.453659 28.7071C0.1632 28.5196 0 28.2652 0 28C0 27.7348 0.1632 27.4804 0.453659 27.2929C0.744118 27.1054 1.13804 27 1.54881 27H59.4512C59.862 27 60.2559 27.1054 60.5464 27.2929C60.8368 27.4804 61 27.7348 61 28C61 28.2652 60.8368 28.5196 60.5464 28.7071C60.2559 28.8946 59.862 29 59.4512 29Z" fill="#FB6D6D"/>
<path d="M33 14H30.5782C16.1878 14 12.0629 9.58739 11.1332 5.88383C10.9601 5.20543 10.9557 4.50205 11.1202 3.82199C11.2847 3.14192 11.6143 2.50128 12.0863 1.94407C12.5584 1.38686 13.1617 0.926268 13.8548 0.593921C14.548 0.261573 15.3145 0.0653514 16.1019 0.0187184C25.3986 -0.538881 31.7266 11.5424 32 12.0587L33 14ZM16.7034 2.75853H16.3128C15.9784 2.78084 15.6533 2.8661 15.3595 3.00861C15.0657 3.15113 14.81 3.34754 14.6097 3.58459C14.4032 3.82388 14.2585 4.10002 14.1856 4.3937C14.1127 4.68739 14.1135 4.99154 14.1878 5.28493C15.055 8.7682 19.9143 10.8265 27.9688 11.1845C25.7423 7.74938 21.4455 2.75164 16.7269 2.75164L16.7034 2.75853Z" fill="#FB6D6D"/>
<path d="M30.4218 14H28L29 12.0587C29.2656 11.5424 35.6014 -0.538881 44.8981 0.0187184C45.6855 0.0653514 46.452 0.261573 47.1452 0.593921C47.8383 0.926268 48.4416 1.38686 48.9137 1.94407C49.3857 2.50128 49.7153 3.14192 49.8798 3.82199C50.0443 4.50205 50.0399 5.20543 49.8668 5.88383C48.9371 9.5805 44.8122 14 30.4218 14ZM44.2966 2.75853C39.6091 2.75853 35.2811 7.75628 33.0312 11.1914C41.0857 10.8334 45.945 8.77509 46.8122 5.29182C46.8865 4.99843 46.8873 4.69426 46.8144 4.40057C46.7415 4.10689 46.5968 3.83077 46.3903 3.59149C46.19 3.35444 45.9343 3.15802 45.6405 3.01551C45.3467 2.873 45.0216 2.78771 44.6872 2.7654L44.2966 2.75853Z" fill="#FB6D6D"/>
<path d="M46.4054 39C46.1254 38.9997 45.8505 38.9345 45.6081 38.8109C45.3657 38.6873 45.1644 38.5097 45.0244 38.2958L30.1527 15.6761L15.9835 37.4648C15.8787 37.6252 15.7391 37.7659 15.5726 37.8788C15.4062 37.9916 15.2162 38.0744 15.0134 38.1225C14.8107 38.1706 14.5992 38.1829 14.3911 38.1589C14.1829 38.1349 13.9822 38.0749 13.8003 37.9824C13.6184 37.8899 13.459 37.7667 13.3311 37.6199C13.2031 37.4731 13.1092 37.3054 13.0548 37.1266C13.0003 36.9477 12.9863 36.7612 13.0135 36.5775C13.0408 36.3939 13.1088 36.2168 13.2136 36.0563L30.1368 10L47.7864 36.8451C47.9978 37.1683 48.0551 37.5522 47.9458 37.9127C47.8365 38.2731 47.5696 38.5806 47.2037 38.7676C46.9673 38.9092 46.6908 38.9897 46.4054 39Z" fill="#FB6D6D"/>
<path d="M30.5 61C30.1022 61 29.7207 60.851 29.4394 60.5859C29.1581 60.3207 29 59.9611 29 59.5862V14.4138C29 14.0389 29.1581 13.6793 29.4394 13.4141C29.7207 13.149 30.1022 13 30.5 13C30.8978 13 31.2793 13.149 31.5606 13.4141C31.8419 13.6793 32 14.0389 32 14.4138V59.5862C32 59.9611 31.8419 60.3207 31.5606 60.5859C31.2793 60.851 30.8978 61 30.5 61Z" fill="#FB6D6D"/>
</svg>
