<svg xmlns="http://www.w3.org/2000/svg" xmlns:xlink="http://www.w3.org/1999/xlink" width="500" zoomAndPan="magnify" viewBox="0 0 375 374.999991" height="500" preserveAspectRatio="xMidYMid meet" version="1.0"><defs><clipPath id="f614ae59f1"><path d="M 84 43.011719 L 310.898438 43.011719 L 310.898438 360 L 84 360 Z M 84 43.011719 " clip-rule="nonzero"/></clipPath></defs><rect x="-37.5" width="450" fill="#ffffff" y="-37.499999" height="449.999989" fill-opacity="0"/><rect x="-37.5" width="450" fill="#ffffff" y="-37.499999" height="449.999989" fill-opacity="0"/><rect x="-37.5" width="450" fill="#ffffff" y="-37.499999" height="449.999989" fill-opacity="0"/><g clip-path="url(#f614ae59f1)"><path fill="#f4e7e7" d="M 233.535156 314.777344 C 228.078125 324.660156 222.234375 334.335938 215.929688 343.703125 C 212.710938 348.484375 209.269531 353.296875 204.472656 356.492188 C 199.679688 359.6875 193.199219 360.980469 188.097656 358.296875 C 179.402344 353.722656 179.378906 341.375 181.480469 331.785156 C 182.203125 328.5 183.03125 325.242188 183.96875 322.011719 C 171.984375 323.167969 160.367188 323.882812 149.316406 324.230469 C 142.933594 331.019531 136.328125 337.597656 129.460938 343.894531 C 125.214844 347.785156 120.738281 351.664062 115.328125 353.652344 C 109.917969 355.640625 103.316406 355.382812 98.984375 351.582031 C 91.597656 345.101562 94.46875 333.089844 98.761719 324.261719 C 109.003906 303.179688 124.121094 284.492188 142.542969 269.984375 C 111.628906 249.222656 110.308594 190.894531 152.722656 164.71875 C 149.539062 162.34375 145.949219 160.414062 142.304688 158.929688 C 133.253906 155.230469 123.460938 153.480469 114.585938 149.378906 C 103.914062 144.453125 94.847656 136.125 89.035156 125.917969 C 84.457031 117.875 82.136719 107.15625 87.699219 99.753906 C 93.5 92.035156 105.023438 91.585938 114.394531 93.953125 C 131.289062 98.222656 145.984375 109.160156 157.03125 122.613281 C 165.046875 132.375 171.277344 143.433594 176.269531 154.980469 C 179.101562 154.273438 182.03125 153.660156 185.09375 153.171875 C 190.941406 152.246094 196.628906 152.085938 202.152344 152.601562 C 201.578125 140.820312 198.171875 129.121094 193.0625 118.429688 C 185.910156 103.460938 175.589844 90.226562 164.765625 77.648438 C 160.695312 72.914062 156.320312 67.753906 155.945312 61.527344 C 155.410156 52.554688 164.042969 44.984375 172.988281 43.984375 C 181.9375 42.988281 190.710938 47.019531 198.148438 52.078125 C 216.324219 64.449219 229.59375 83.800781 234.570312 105.183594 C 238.871094 123.675781 236.933594 143.53125 229.320312 160.910156 C 274.226562 184.558594 303.734375 251.449219 310.867188 291.542969 C 285.820312 302.140625 259.464844 309.636719 233.535156 314.777344 Z M 233.535156 314.777344 " fill-opacity="1" fill-rule="nonzero"/></g><path fill="#231f20" d="M 153.21875 215.84375 C 150.765625 218.871094 143.367188 218.382812 142.457031 214.601562 C 141.542969 210.820312 144.0625 205.6875 147.953125 205.449219 C 152.65625 205.160156 157 211.179688 153.21875 215.84375 Z M 210.664062 205.449219 C 206.773438 205.6875 204.253906 210.820312 205.167969 214.601562 C 206.082031 218.382812 213.476562 218.871094 215.933594 215.84375 C 219.710938 211.179688 215.371094 205.160156 210.664062 205.449219 Z M 210.664062 205.449219 " fill-opacity="1" fill-rule="nonzero"/><path fill="#f28fd9" d="M 178.132812 230.070312 C 173.867188 229.390625 168.972656 223.71875 172.238281 220.246094 C 173.445312 218.960938 186.167969 218.496094 187.894531 222.035156 C 189.28125 224.875 183.539062 230.941406 178.132812 230.070312 Z M 169.164062 295.808594 C 167.570312 295.746094 166.671875 296.839844 165.671875 297.875 C 164.976562 298.589844 164.207031 299.238281 163.484375 299.925781 C 162.0625 301.269531 160.691406 302.664062 159.363281 304.101562 C 156.636719 307.054688 154.121094 310.210938 151.816406 313.5 C 151.089844 314.527344 151.628906 316.089844 152.652344 316.691406 C 153.851562 317.386719 155.085938 316.859375 155.851562 315.855469 C 157.996094 313.03125 160.5 310.179688 163.074219 307.597656 C 164.382812 306.28125 165.738281 305.007812 167.136719 303.773438 C 167.496094 303.460938 167.851562 303.148438 168.21875 302.835938 C 168.367188 302.714844 168.511719 302.589844 168.65625 302.464844 C 168.75 302.386719 168.808594 302.335938 168.84375 302.300781 C 168.882812 302.277344 168.933594 302.242188 169.007812 302.191406 C 170.152344 301.40625 171.535156 300.789062 171.792969 299.261719 C 172.101562 297.484375 171.066406 295.882812 169.164062 295.808594 Z M 202.445312 288.269531 C 200.902344 288.167969 199.777344 289.507812 198.722656 290.46875 C 197.789062 291.320312 196.875 292.199219 195.992188 293.101562 C 194.214844 294.917969 192.609375 296.902344 191.078125 298.9375 C 188.078125 302.925781 185.550781 307.253906 183.53125 311.820312 C 183.046875 312.90625 183.210938 314.183594 184.320312 314.832031 C 185.28125 315.390625 186.816406 315.117188 187.332031 314.042969 C 189.386719 309.730469 191.890625 305.601562 194.875 301.859375 C 196.371094 299.980469 197.980469 298.203125 199.636719 296.46875 C 200.46875 295.601562 201.320312 294.753906 202.199219 293.9375 C 203.351562 292.859375 204.472656 292.144531 204.625 290.445312 C 204.734375 289.21875 203.535156 288.34375 202.445312 288.269531 Z M 260.660156 287.070312 C 258.773438 287.316406 257.28125 288.886719 255.863281 290.070312 C 254.253906 291.421875 252.605469 292.738281 250.972656 294.058594 C 250.570312 294.386719 249.953125 294.980469 249.480469 294.925781 C 249.40625 294.914062 249.367188 294.902344 249.289062 294.648438 C 248.945312 293.605469 249.160156 292.917969 249.507812 291.671875 C 250.566406 287.953125 245.003906 286.335938 243.667969 289.757812 C 239.5 294.4375 235.648438 299.433594 232.425781 304.8125 C 230.648438 307.777344 235.273438 310.464844 237.058594 307.515625 C 239.425781 303.597656 242.074219 299.90625 245.097656 296.507812 C 246.152344 298.257812 247.757812 299.449219 250.089844 298.941406 C 252.480469 298.417969 254.414062 296.191406 256.195312 294.664062 C 257.21875 293.789062 258.246094 292.917969 259.277344 292.058594 C 260.332031 291.1875 261.601562 290.1875 262.019531 288.847656 C 262.265625 288.0625 261.570312 286.953125 260.660156 287.070312 Z M 165.117188 158.550781 C 155.113281 142.410156 135.746094 124.878906 119.285156 115.386719 C 113.886719 112.273438 107.355469 109.546875 101.589844 111.917969 C 100.710938 112.28125 99.832031 112.800781 99.394531 113.648438 C 98.929688 114.5625 99.074219 115.648438 99.265625 116.652344 C 101.554688 128.585938 109.441406 139.328125 120.160156 145.089844 C 123.707031 146.996094 127.507812 148.371094 131.300781 149.734375 C 139.714844 152.777344 150.371094 154.136719 158 161.75 Z M 194.109375 68.464844 C 189.5 64.324219 183.550781 60.515625 177.5 61.859375 C 176.277344 62.128906 174.984375 62.710938 174.480469 63.859375 C 174.117188 64.699219 174.25 65.671875 174.429688 66.574219 C 176.214844 75.652344 181.394531 83.640625 186.054688 91.644531 C 193.609375 104.609375 200.0625 118.222656 205.3125 132.28125 C 207.363281 137.789062 208.636719 147.554688 207.824219 153.378906 L 217.371094 155.820312 C 225.878906 126.902344 216.539062 88.636719 194.109375 68.464844 Z M 194.109375 68.464844 " fill-opacity="1" fill-rule="nonzero"/></svg>