<svg preserveAspectRatio="none" width="226" height="205" viewBox="0 0 226 205" fill="none" xmlns="http://www.w3.org/2000/svg">
<path d="M36.1848 34.9269C53.527 18.1461 73.7411 6.29705 98.742 1.75476C158.504 -9.10315 217.89 31.7465 225.205 87.8327C231.518 136.235 199.81 183.78 144.817 197.838C142.106 198.531 139.407 199.262 135.765 199.964C125.317 199.959 115.773 200.453 106.305 199.873C83.1274 198.452 63.1941 189.374 46.3479 175.025C22.4517 154.671 10.2912 129.444 11.0383 98.777C11.5175 79.1056 17.3344 61.4247 28.782 45.0976C30.0576 43.2782 30.7045 41.0775 31.6429 39.0537C32.1955 38.4595 32.7481 37.8654 33.8738 37.0678C34.643 36.5605 34.8392 36.2567 35.0353 35.9529C35.0353 35.9529 35.0143 35.9384 35.2999 35.876C35.7852 35.5181 35.985 35.2225 36.1848 34.9269ZM86.883 11.8861C85.0656 12.2221 83.0957 12.2465 81.4543 12.9419C63.0392 20.7428 47.0069 31.421 35.6513 47.2882C20.6845 68.2012 15.0924 91.2161 19.2861 116.065C22.1708 133.158 29.4937 148.577 41.9005 161.55C63.7801 184.428 91.1312 195.414 124.274 193.732C144.57 192.702 162.75 186.48 179.008 175.384C182.017 173.33 184.035 170.021 187.333 167.334C188.861 166.45 190.678 165.822 191.872 164.646C222.559 134.436 227.926 87.4205 204.24 51.9036C185.578 23.9204 158.036 8.98084 122.789 6.78416C110.775 6.03538 98.7844 7.19687 86.883 11.8861Z" fill="#B04267"/>
<path d="M31.2691 39.1431C30.7045 41.0774 30.0577 43.2781 28.782 45.0975C17.3345 61.4246 11.5175 79.1054 11.0384 98.7769C10.2913 129.444 22.4517 154.671 46.3479 175.025C63.1941 189.374 83.1275 198.452 106.305 199.873C115.773 200.453 125.317 199.959 135.33 200.016C123.943 204.743 111.352 205.417 98.7853 204.813C71.0861 203.482 47.6859 193.211 28.4569 174.515C-10.4472 136.689 -9.41509 75.7475 31.2691 39.1431Z" fill="#D9CFF4"/>
<path d="M35.8963 34.9875C35.9855 35.2224 35.7857 35.518 35.3078 35.8858C35.2222 35.6547 35.4148 35.3515 35.8963 34.9875Z" fill="#D9CFF4"/>
<path d="M34.7364 36.0073C34.839 36.2565 34.6428 36.5604 34.1637 36.9402C34.0664 36.6981 34.2521 36.38 34.7364 36.0073Z" fill="#D9CFF4"/>
<path d="M186.511 167.29C184.035 170.021 182.016 173.33 179.007 175.384C162.75 186.48 144.569 192.701 124.274 193.731C91.1306 195.413 63.7795 184.428 41.8999 161.55C29.4932 148.577 22.1702 133.158 19.2856 116.065C15.0918 91.216 20.6839 68.201 35.6507 47.2881C47.0064 31.4209 63.0387 20.7427 81.4537 12.9418C83.0951 12.2464 85.0651 12.222 87.7509 11.8225C90.8726 11.6813 93.1362 11.7061 95.3774 11.5098C118.873 9.45172 140.691 14.4613 160.268 26.3846C212.19 58.0066 223.75 121.052 186.511 167.29Z" fill="#E9A4AF"/>
<path d="M186.923 167.312C223.751 121.052 212.191 58.0068 160.269 26.3847C140.692 14.4614 118.874 9.45187 95.3783 11.5099C93.1371 11.7062 90.8734 11.6814 88.0596 11.7661C98.7848 7.19691 110.775 6.03542 122.79 6.7842C158.037 8.98088 185.578 23.9205 204.24 51.9036C227.927 87.4205 222.559 134.436 191.873 164.646C190.678 165.822 188.861 166.45 186.923 167.312Z" fill="#FDF9FB"/>
</svg>
