<svg width="40" height="44" viewBox="0 0 40 44" fill="none" xmlns="http://www.w3.org/2000/svg">
<path d="M30.7174 25.9821C33.9443 25.0407 37.1091 23.5972 39.9636 21.6517C37.1711 19.7062 33.9443 18.3255 30.7174 17.3214C27.3664 16.38 24.8221 13.5559 23.9534 9.97862C23.0846 6.33862 21.7814 3.01241 19.9818 0C18.1822 3.07517 16.879 6.5269 16.0103 9.97862C15.1415 13.6186 12.5352 16.38 9.24624 17.3214C6.01936 18.2628 2.85455 19.7062 0 21.6517C2.79249 23.5972 6.01936 24.9779 9.24624 25.9821C12.5972 26.9234 15.1415 29.7476 16.0103 33.3248C16.879 36.7766 18.1822 40.291 19.9818 43.3035C21.7814 40.2283 23.0846 36.7766 23.9534 33.3248C24.8221 29.7476 27.3664 26.9862 30.7174 25.9821Z" fill="#B6E3E0"/>
</svg>
