<svg width="162" height="375" viewBox="0 0 162 375" fill="none" xmlns="http://www.w3.org/2000/svg">
<g opacity="0.2">
<path d="M-25.8419 0.750921C-11.1752 -0.831783 4.03689 0.973124 18.8002 6.0477C33.5634 11.1223 47.5456 19.3523 59.833 30.2C72.1205 41.0477 82.4366 54.2688 90.1073 68.9995C97.7779 83.7302 102.631 99.6389 104.348 115.686C106.065 131.733 104.609 147.558 100.074 162.125C95.5387 176.693 88.027 189.675 78.0296 200.225C68.0321 210.775 55.774 218.654 42.0562 223.348C28.3384 228.042 13.4696 229.444 -1.57851 227.464L-1.91431 114.265L-25.8419 0.750921Z" fill="#6938EF"/>
<path d="M162 234C162 311.872 77.158 375 -27.5 375C-132.158 375 -217 311.872 -217 234C-217 156.128 -132.158 92.9998 -27.5 92.9998C77.158 92.9998 162 156.128 162 234Z" fill="#26DCD0"/>
</g>
</svg>
