<svg width="1680" height="375" viewBox="0 0 1680 375" fill="none" xmlns="http://www.w3.org/2000/svg">
<g opacity="0.1">
<path d="M157 340C100.5 384 76.8306 326.356 0 188.282V0H1686.17C1708.68 146.917 1752.07 412.222 1686.17 369.433C1611.5 320.947 1662.9 274.218 1558.5 204C1432.04 118.943 1443.56 320.947 1298 320.947C1152.44 320.947 1169.47 229.647 1079.43 188.282C989.394 146.917 900.859 218.95 829.831 287.416C758.802 355.882 714.785 325.215 662.764 251.756C610.743 178.298 495.488 94.7746 526 267.367C550.41 405.441 248.911 143.096 157 340Z" fill="#6938EF"/>
<path d="M1085 255.5C1085 282.286 1063.29 304 1036.5 304C1009.71 304 988 282.286 988 255.5C988 228.714 1009.71 207 1036.5 207C1063.29 207 1085 228.714 1085 255.5Z" fill="#6938EF"/>
<path d="M605 309C605 324.464 592.464 337 577 337C561.536 337 549 324.464 549 309C549 293.536 561.536 281 577 281C592.464 281 605 293.536 605 309Z" fill="#6938EF"/>
</g>
</svg>
