<svg width="51" height="56" viewBox="0 0 51 56" fill="none" xmlns="http://www.w3.org/2000/svg">
<path d="M38.6826 33.4133C42.717 32.3526 46.514 30.4963 50.0738 27.8444C46.514 25.4578 42.717 23.6015 38.6826 22.2755C34.6482 20.9496 31.3258 17.5022 30.1392 12.7289C29.1899 8.22075 27.5287 3.97778 25.1556 0C23.0197 3.97778 21.3585 8.22075 20.1719 12.7289C18.9853 17.237 15.9002 20.9496 11.6285 22.2755C7.59413 23.3363 3.55975 25.1926 0 27.8444C3.55975 30.2311 7.35682 32.0874 11.6285 33.4133C15.6629 34.7393 18.9853 38.1867 20.1719 42.96C21.1212 47.4681 22.7824 51.7111 25.1556 55.6889C27.2914 51.7111 28.9526 47.4681 30.1392 42.96C31.3258 38.1867 34.4109 34.4741 38.6826 33.4133Z" fill="#F7C689"/>
</svg>
