<svg width="86" height="86" viewBox="0 0 86 86" fill="none" xmlns="http://www.w3.org/2000/svg">
<path d="M52.6946 6.88024C54.6803 12.0265 60.3894 14.8506 65.6641 13.1561C71.2491 11.3989 77.2064 14.6623 78.8819 20.2478C79.6886 23.1347 79.4404 26.1471 77.9511 28.6575C75.2206 33.4899 76.5859 39.6402 81.1779 42.7782C86.0183 46.1044 87.1973 52.7568 83.9084 57.652C82.2329 60.0368 79.6886 61.7313 76.772 62.1706C71.3112 62.9864 67.4637 68.0071 67.8361 73.5299C68.2704 79.4292 63.9266 84.5127 58.0313 85.0147C55.1147 85.203 52.1981 84.1989 50.0882 82.1278C46.0546 78.3623 39.7871 78.3623 35.7535 82.1278C31.4716 86.0816 24.7697 85.8934 20.7981 81.563C18.8123 79.3665 17.7574 76.4796 17.9436 73.5299C18.3159 68.0071 14.4685 62.9864 9.0076 62.1706C3.23646 61.2292 -0.797144 55.7692 0.133686 49.9954C0.568074 47.0458 2.24357 44.4727 4.60167 42.7782C9.19376 39.6402 10.559 33.4271 7.82855 28.6575C4.91195 23.5113 6.71155 16.9844 11.738 14.0347C14.2823 12.5285 17.1989 12.2775 20.0534 13.0934C25.3281 14.7878 31.0373 11.9637 33.023 6.81749C35.1329 1.29473 41.3384 -1.4039 46.7372 0.729897C49.4056 1.92231 51.5776 4.11886 52.6946 6.88024Z" fill="#FFBB45"/>
</svg>
