<svg width="139" height="219" viewBox="0 0 139 219" fill="none" xmlns="http://www.w3.org/2000/svg">
<g clip-path="url(#clip0_443_4161)">
<path d="M140.106 85.9945C144.443 82.6229 148.664 79.695 153.288 77.9418C158.101 76.1174 162.938 74.83 167.657 75.54C171.48 76.1171 174.752 77.5959 176.665 81.0386C178.721 84.7418 178.227 88.867 175.821 93.2396C174.589 95.4783 172.906 97.3275 171.065 99.1545C171.856 99.6475 172.654 100.129 173.424 100.622C177.467 103.244 181.481 105.918 185.104 109.1C188.322 111.927 190.618 115.496 190.384 120.678C190.245 123.779 189.11 126.724 187.387 129.528C184.813 133.69 181.978 137.698 178.907 141.517C175.373 145.957 171.302 149.63 166.149 151.276C165.786 151.394 165.636 151.534 165.637 151.965C165.599 156.326 163.736 160.386 161.503 164.365C157.987 170.613 153.449 176.033 148.297 180.934C143.602 185.402 138.778 186.501 133.84 184.621C130.284 183.268 127.486 180.825 124.61 178.496C122.242 176.579 119.992 174.516 117.829 172.276C115.113 177.399 111.194 180.468 106.242 181.762C99.8447 183.432 94.5863 180.571 92.6124 174.622C91.2779 170.6 91.4826 166.188 91.6649 161.722C91.9415 155.009 94.5846 148.721 97.7958 142.283C96.6359 143.093 95.604 143.808 94.5627 144.543C89.7761 147.899 84.7936 150.61 79.5307 152.361C78.9455 152.557 78.8277 152.911 78.7064 153.395C77.6865 157.433 77.2076 161.49 77.2849 165.436C77.2949 165.951 77.2693 166.477 77.2602 166.984L74.2762 167.776C74.05 163.404 74.4603 158.883 75.4937 154.364C75.6611 153.654 75.6476 153.457 74.8863 153.626C72.0558 154.289 69.2337 154.511 66.5135 154.283C65.8606 154.227 65.5809 154.432 65.3001 155.127C64.4074 157.332 63.5956 159.534 63.3214 161.8C63.2507 162.395 63.0304 162.567 62.5518 162.604C62.3527 162.617 62.1481 162.671 61.9468 162.702C60.048 162.994 60.0338 163 60.4647 160.894C60.8834 158.752 61.5645 156.621 62.4898 154.557C62.7721 153.938 62.6123 153.771 62.135 153.656C59.7886 153.079 57.5675 152.267 55.5666 151.02C55.1886 150.785 55.0178 150.965 54.7537 151.31C52.3032 154.495 50.1432 157.891 48.3133 161.437C47.9035 162.237 47.5634 162.377 46.9097 162.08C45.1259 161.281 45.1388 161.316 46.2717 159.264C48.0399 156.024 50.0521 152.902 52.2836 149.938C52.5502 149.579 52.8766 149.312 52.3986 148.922C47.195 144.69 43.5086 139.102 40.9749 132.556C40.3626 130.953 39.6666 129.942 37.7265 129.77C33.6447 129.41 30.5843 127.105 27.8024 124.45C24.8292 121.619 22.4859 118.119 20.8865 114.12C19.6823 111.139 20.2293 108.267 22.5954 105.322C23.4808 104.221 24.4518 103.197 25.4936 102.265C29.1891 98.9705 33.2162 96.1813 37.4464 93.9866C40.1072 92.5864 41.711 90.7414 42.9535 87.9822C44.8221 83.8154 47.3317 79.9189 49.9532 76.1084C50.9272 74.69 51.8887 73.245 52.905 71.8724C53.3047 71.335 53.1318 71.017 52.9991 70.62C51.9742 67.5627 51.5453 64.3262 52.0776 60.7834C53.0455 54.3316 57.2596 49.5399 63.3244 47.9923C65.4469 47.4625 67.5666 47.2898 69.6019 47.4807C70.31 47.5427 70.504 47.3284 70.6263 46.5731C71.4147 41.6689 72.4759 36.7868 74.6201 32.0161C75.6351 29.7589 76.9067 27.6668 78.7086 25.8974C81.571 23.0723 84.5973 22.5463 87.6318 23.4149C91.246 24.4276 94.5894 26.038 97.5565 28.1951C97.8067 28.3813 98.0157 28.5109 98.4271 28.3464C103.285 26.3255 106.634 28.0248 109.309 31.3142C110.521 32.8166 111.446 34.5771 112.045 36.5248C112.24 37.1431 112.608 37.4285 113.213 37.5799C117.697 38.7206 121.974 40.2816 125.856 42.6179C126.47 42.986 126.788 42.9206 127.358 42.1169C130.013 38.3141 133.028 34.805 136.137 31.3863C136.213 31.3025 136.316 31.1462 136.374 31.1521C137.303 31.2525 137.584 32.1813 138.22 32.6603C138.597 32.9406 138.256 33.2032 138.051 33.4411C136.928 34.7398 135.808 36.0408 134.666 37.3204C132.855 39.3472 131.243 41.5332 129.611 43.7066C129.148 44.329 129.038 44.7153 129.636 45.1341C131.608 46.4666 133.371 48.0831 134.887 49.9493C135.44 50.6332 135.788 49.9824 136.14 49.6244C138.529 47.0989 141.089 44.8371 143.708 42.6314C144.347 42.0829 144.628 42.0909 144.993 42.704C146.013 44.4032 146.054 44.3881 144.25 45.8804C141.981 47.8033 139.792 49.8426 137.694 51.9884C137.309 52.3788 136.996 52.7028 137.376 53.2435C138.891 55.3991 140.067 57.8352 140.871 60.4817C141.057 61.0845 141.205 61.2266 141.868 60.7302C145.133 58.3017 148.515 56.1009 151.987 54.1457C152.564 53.8176 152.814 53.8084 152.95 54.4403C153.109 55.1605 153.709 55.9083 153.483 56.489C153.278 57.0164 152.226 57.3493 151.541 57.7527C148.444 59.5757 145.423 61.5943 142.499 63.7952C142.089 64.1041 141.889 64.3346 141.976 64.8406C143.155 71.5007 142.434 78.4005 140.253 85.4789L140.106 85.9945Z" fill="#030303"/>
<path d="M113.114 41.0346C117.049 42.1013 120.781 43.6324 124.251 45.6034C124.684 45.8511 124.709 46.0535 124.381 46.5607C122.892 48.873 121.619 51.2849 120.395 53.7257C120.098 54.3189 120.153 54.5239 120.672 54.7033C122.682 55.4037 122.679 55.427 123.834 53.162C124.695 51.4729 125.638 49.8251 126.619 48.1914C126.936 47.6636 127.171 47.549 127.62 47.8825C129.396 49.2177 131.042 50.7211 132.543 52.3793C133.01 52.8901 132.878 53.2255 132.392 53.7614C131.468 54.7758 130.593 55.8403 129.672 56.8587C129.217 57.3611 128.985 57.7596 129.605 58.0683C129.685 58.114 129.76 58.1693 129.827 58.2334C131.252 59.4771 131.261 59.4838 132.769 57.5992C133.373 56.8108 134.029 56.0645 134.729 55.3681C135.517 56.2408 135.977 57.3694 136.529 58.4135C137.244 59.7659 137.732 61.265 138.247 62.7467C138.42 63.2453 138.297 63.5009 137.837 63.8762C136.589 64.9013 135.399 66.0158 134.158 67.0494C133.668 67.4594 133.704 67.7128 133.972 68.0869C135.24 69.868 135.226 69.8806 137.233 68.0942C137.373 67.9716 137.528 67.8659 137.671 67.7455C139.189 66.4448 139.157 66.4559 139.34 68.3277C140.184 76.9385 137.897 85.4676 133.906 93.9504C131.577 98.897 128.693 103.556 125.485 108.04C122.01 112.946 118.321 117.698 114.433 122.276C107.676 130.159 100.324 137.276 91.8876 142.914C88.1501 145.439 84.2028 147.465 80.1573 148.934C80.5632 147.483 81.2126 146.156 81.8243 144.827C82.0656 144.306 82.0977 144.126 81.5997 143.928C79.5197 143.101 79.5053 143.065 78.4276 145.493C77.8642 146.764 77.4136 148.069 76.9189 149.36C76.7891 149.699 76.7562 150.042 76.2806 150.156C73.2746 150.866 70.3082 151.259 67.3041 151.055C68.2886 149.077 69.4999 147.199 70.9045 145.471C71.4716 144.777 71.3698 144.466 70.8736 144.054C69.3982 142.825 69.4265 142.809 68.0098 144.666C66.7617 146.325 65.6573 148.085 64.7146 149.918C64.4104 150.495 64.1566 150.736 63.6059 150.594C61.5814 150.077 59.648 149.344 57.8315 148.404C57.2986 148.125 57.3195 147.848 57.7929 147.308C59.2579 145.65 60.6777 143.946 62.1458 142.293C62.6444 141.731 62.7095 141.364 62.171 141.052C62.0669 140.984 61.9709 140.905 61.8841 140.816C60.6406 139.636 60.6361 139.632 59.2339 141.269C58.0216 142.696 56.7721 144.096 55.6402 145.584C55.002 146.42 54.6441 146.4 54.0688 145.889C50.8861 143.067 48.2118 139.671 46.1302 135.808C43.8173 131.506 42.1376 126.828 40.8196 121.935C40.6639 121.357 40.5207 121.17 39.895 121.551C39.21 121.968 38.1592 122.128 37.858 122.672C37.5016 123.32 38.1292 124.096 38.2884 124.837C38.4153 125.419 38.5962 125.978 38.7781 126.636C37.0312 126.422 35.4095 125.838 34.0011 124.916C29.2781 121.998 25.6947 117.55 23.6477 112.065C22.8413 109.937 23.5813 108.08 25.884 105.805C29.7306 102.006 34.1221 99.2677 38.5602 96.6134C40.0382 95.7305 41.7496 95.1589 42.9701 93.9783C44.1906 92.7978 44.5548 90.8712 45.3461 89.2911C47.8006 84.3925 50.7903 79.7946 53.855 75.2295C54.4562 74.3341 54.6744 74.4046 55.1107 75.0963C57.6926 79.2142 61.0895 82.3202 65.817 83.6995C70.7069 85.1249 75.0693 82.4573 78.0518 77.6388C79.7531 74.8881 80.8981 71.9616 81.7933 68.9728C82.0247 68.1983 82.2408 67.9574 83.0328 67.9813C87.599 68.1218 91.4996 65.9943 94.6487 61.7387C95.1776 61.0276 95.5114 60.9459 96.146 61.088C98.6872 61.6931 101.352 61.6813 104.112 60.6419C108.601 58.9608 111.276 55.5171 112.438 50.8134C113.253 47.5379 113.323 44.3369 113.114 41.0346Z" fill="white"/>
<path d="M166.549 100.775C169.918 102.495 173.206 104.332 176.167 106.678C176.75 107.137 176.805 107.474 176.279 108.268C173.346 112.704 170.18 116.978 167.161 121.354C162.992 127.401 158.616 133.303 154.296 139.244C153.406 140.469 153.392 140.459 152.41 139.714C151.179 138.779 151.169 138.774 150.002 140.361C149.063 141.64 148.905 141.425 150.1 142.319C151.607 143.44 151.438 143.137 150.294 144.652C145.48 151.043 140.643 157.417 135.753 163.748C132.901 167.439 129.92 171.028 127.025 174.686C126.533 175.31 126.234 175.283 125.795 174.919C123.599 173.122 121.531 171.169 119.599 169.069C117.603 166.963 115.742 164.716 114.023 162.339C112.485 160.183 111.079 157.914 109.809 155.542C107.111 150.56 105.07 145.116 103.73 139.33C103.321 137.523 103.156 137.784 104.726 136.465C105.759 135.595 106.706 134.593 107.681 133.637C107.842 133.452 108.048 133.321 108.264 133.265C108.48 133.209 108.692 133.232 108.865 133.329C111.92 134.601 115.533 134.567 119.066 133.235C124.586 131.216 128.853 127.319 131.811 121.871C135.02 115.962 135.847 110.091 133.314 104.882C132.542 103.298 132.443 102.186 133.603 100.527C134.358 99.4445 134.91 98.223 135.522 97.0518C135.872 96.3795 136.355 96.0965 136.975 96.0813C142.421 95.9469 147.816 95.9809 153.057 96.8068C157.242 97.4926 161.272 98.6213 165.094 100.178C165.618 100.304 165.983 100.741 166.549 100.775Z" fill="#EE262F"/>
<path d="M158.167 148.319C159.306 149.167 160.392 150.092 161.601 150.834C162.488 151.376 162.675 152.189 162.589 153.29C162.381 155.826 161.464 158.262 160.299 160.643C157.687 165.978 154.163 170.709 150.122 175.068C148.913 176.383 147.674 177.656 146.376 178.879C142.501 182.534 138.67 183.019 134.809 181.346C132.745 180.439 130.982 179.107 129.193 177.78C128.597 177.337 128.71 177.03 129.228 176.408C132.461 172.537 135.589 168.578 138.713 164.614C143.569 158.455 148.37 152.252 153.003 145.922C153.563 145.168 153.862 145.028 154.469 145.534C155.65 146.525 156.927 147.398 158.167 148.319Z" fill="white"/>
<path d="M74.5524 51.7482C74.9974 52.0332 76.3047 51.5197 75.4911 52.9743C75.3995 53.4396 74.9123 53.8116 74.9767 54.3128C74.8356 55.0312 74.3322 55.1358 73.8178 55.2208C72.0848 55.61 70.6008 56.4138 69.3162 58.0631C67.5883 60.2805 67.5712 63.0218 68.3769 64.8C69.805 67.9622 72.6315 68.986 76.1709 67.8635C76.795 67.665 77.3217 67.2679 77.8859 66.9417C78.6866 66.4873 79.3924 66.8976 79.1568 67.7493C78.2861 70.8855 77.1641 73.9896 75.2755 76.7961C72.518 80.8984 69.433 81.5843 65.9691 80.2012C61.8009 78.5209 58.8787 75.349 56.8386 71.2555C55.2975 68.1613 54.5211 64.7295 55.0775 60.8059C55.7943 55.7709 58.7632 52.2304 63.6958 51.1258C66.7892 50.4317 69.7042 50.5747 72.4963 51.3089C73.1455 51.5472 73.8357 51.6947 74.5524 51.7482V51.7482Z" fill="#EE262F"/>
<path d="M97.2402 56.612C97.2895 55.8024 97.6804 55.3702 98.4476 54.9484C100.819 53.6424 102.292 51.4967 102.758 48.9231C103.214 46.4222 102.533 44.3266 100.656 43.183C98.559 41.9098 96.1705 42.3249 93.7686 44.0238C93.3717 44.3024 93.1684 44.3176 92.8069 44.1691C92.0441 43.8542 91.3186 43.458 90.4401 43.3668C89.7664 43.296 89.4488 42.9766 90.0163 42.0705C90.9899 40.5284 91.814 38.901 92.7846 37.3566C94.1186 35.2335 95.77 33.3865 97.8195 32.0337C100.247 30.4341 102.513 30.2776 104.544 31.6483C107.274 33.4895 108.694 36.3525 109.538 39.74C110.414 43.2378 110.354 47.1112 109.366 50.9809C108.374 54.9707 105.351 57.6418 101.58 58.0988C100.519 58.2306 99.4723 58.2293 98.4623 58.0948C97.7282 57.9217 97.1011 57.6388 97.2402 56.612Z" fill="#EE262F"/>
<path d="M113.852 173.418C109.396 179.343 99.733 181.878 96.0934 174.38C94.6715 171.452 94.3838 168.091 94.4961 164.569C94.5116 164.078 94.6766 163.897 95.1367 163.757C99.0894 162.555 103.01 161.079 106.937 159.625C107.578 159.385 107.9 159.512 108.235 159.994C110.514 163.272 112.567 166.75 115.185 169.725C115.316 169.848 115.397 170.023 115.415 170.222C115.434 170.421 115.389 170.634 115.288 170.831C114.873 171.768 114.465 172.7 113.852 173.418Z" fill="white"/>
<path d="M79.1913 29.587C81.3927 26.6087 83.4629 25.7102 86.3077 26.5353C89.2044 27.3799 91.9272 28.607 94.4214 30.1922C94.6943 30.3665 95.1025 30.4865 94.5179 30.9955C91.6476 33.5451 89.709 36.7734 87.8909 40.0855C87.382 41.0123 86.9041 41.9534 86.41 42.8883C86.3243 43.0755 86.1983 43.2457 86.044 43.3822C85.8898 43.5187 85.7125 43.6171 85.5295 43.6677C82.7286 44.5191 80.2601 46.1053 78.228 48.6072C77.9204 48.9865 77.6587 49.0615 77.2504 48.9356C76.1467 48.5938 75.0058 48.3361 73.8729 48.0615C73.5225 47.9758 73.3629 47.8141 73.4349 47.3627C74.3518 41.9717 75.3604 36.5973 78.0334 31.408C78.3888 30.7343 78.8585 30.137 79.1913 29.587Z" fill="white"/>
<path d="M92.2893 60.2018C89.0588 64.8559 83.2545 65.817 80.2146 63.5186C76.7808 60.91 76.7667 55.1191 79.9691 50.8945C83.1413 46.7105 88.5687 45.2424 91.9174 47.7103C95.3931 50.2439 95.5117 56.0437 92.2893 60.2018Z" fill="#EE262F"/>
<path d="M111.087 130.192C118.07 122.764 124.211 114.775 129.969 106.468C132.298 109.591 132.191 116.457 128.268 122.325C123.94 128.803 116.897 132.058 111.087 130.192Z" fill="#F3BBD2"/>
<path d="M153.398 93.2972C148.336 92.3715 143.064 92.7416 137.765 92.2573C142.519 86.9577 148.01 83.6063 153.964 80.783C153.895 85.0257 153.759 89.0958 153.398 93.2972Z" fill="#F3BBD2"/>
<path d="M100.888 142.4C101.756 145.475 102.817 148.318 103.941 151.125C104.583 152.75 105.247 154.36 105.936 155.957C106.157 156.474 106.103 156.681 105.467 156.913C102.109 158.144 98.7514 159.377 95.3684 160.466C94.7655 160.655 94.645 160.568 94.689 159.918C94.9254 156.428 96.0516 153.022 97.394 149.635C98.3829 147.163 99.5516 144.743 100.888 142.4V142.4Z" fill="#F3BBD2"/>
<path d="M71.8309 59.8043C72.1466 59.5147 72.4738 59.2409 72.811 58.9843C74.0053 58.1313 74.4093 58.2941 74.5172 59.6078C74.631 61.0725 75.0602 62.4243 75.774 63.5663C76.0253 63.9655 76.1134 64.3323 75.54 64.7176C74.4084 65.4737 72.4933 65.2369 71.6992 64.2331C70.8168 63.1178 70.8253 61.1562 71.8309 59.8043Z" fill="#E7292F"/>
<path d="M97.6254 51.1585C97.4193 49.5508 96.7966 48.1983 95.9887 46.9519C95.864 46.7587 95.605 46.5346 95.8145 46.2343C96.024 45.934 96.3239 46.0595 96.5778 46.0447C98.2702 45.9466 99.2126 46.8972 99.64 48.4314C99.95 49.5541 99.5776 50.6426 98.6321 51.6089C98.0336 51.944 97.7816 51.639 97.6254 51.1585Z" fill="#E52931"/>
<path d="M97.2399 56.6122C97.3172 57.4413 97.9814 57.6743 98.465 58.0971C96.9633 58.1535 96.7358 57.8809 97.2399 56.6122Z" fill="#AD3039"/>
<path d="M74.5525 51.7483C74.1648 51.8994 73.7666 51.9369 73.4043 51.8563C73.042 51.7758 72.7305 51.5805 72.5059 51.2932C73.2621 51.1964 73.9785 51.3557 74.5525 51.7483V51.7483Z" fill="#B13034"/>
<path d="M97.6252 51.1585C97.923 51.3801 98.1844 51.6663 98.6264 51.6164C97.703 52.2979 97.628 52.2651 97.6252 51.1585Z" fill="#9D303F"/>
<path d="M73.8135 55.2231C74.1808 54.8911 74.7012 54.8134 74.9724 54.3152C75.0853 55.4634 74.3991 55.26 73.8135 55.2231Z" fill="#BC2C39"/>
<path d="M74.9755 54.3147C74.5139 53.7161 75.2829 53.4131 75.49 52.9761C75.5237 53.4688 75.2759 53.8984 74.9755 54.3147Z" fill="#BC2C39"/>
<path d="M99.6125 111.043C97.3382 109.352 97.0025 106.907 98.5092 103.656C99.784 100.907 101.79 98.8934 104.595 98.2053C107.608 97.4663 109.944 99.5361 109.832 102.712C109.711 106.119 106.642 110.233 103.422 111.306C101.82 111.842 100.44 111.638 99.6125 111.043Z" fill="#060606"/>
<path d="M80.0614 122.078C81.2164 123.138 82.1446 124.353 82.2513 126.194C82.3744 128.377 80.9156 130.416 78.7927 130.965C75.6748 131.773 72.2914 129.601 71.827 126.493C71.3881 123.556 73.4445 121.009 76.3396 120.902C77.731 120.894 79.0185 121.301 80.0614 122.078V122.078Z" fill="#010101"/>
<path d="M118.514 70.7431C119.617 71.7476 120.483 72.9283 120.533 74.7181C120.557 75.2183 120.483 75.7397 120.313 76.2507C120.144 76.7616 119.884 77.2515 119.549 77.6906C119.214 78.1297 118.811 78.5089 118.364 78.8052C117.918 79.1014 117.436 79.3085 116.95 79.414C113.912 80.1029 110.898 77.9962 110.632 75.0012C110.386 72.1876 112.578 69.7131 115.291 69.726C116.51 69.7292 117.535 70.1556 118.514 70.7431Z" fill="#010101"/>
<path d="M101.925 103.405C102.551 102.484 103.41 101.751 104.368 101.324C105.94 100.654 107.1 101.54 106.882 103.231C106.64 105.137 104.793 107.595 103.046 108.339C101.489 109.002 100.312 108.109 100.535 106.428C100.682 105.318 101.211 104.328 101.925 103.405Z" fill="#F9BD1D"/>
</g>
<defs>
<clipPath id="clip0_443_4161">
<rect width="158.85" height="152.096" fill="white" transform="translate(0 127.458) rotate(-53.3578)"/>
</clipPath>
</defs>
</svg>
