<svg width="410" height="605" viewBox="0 0 410 605" fill="none" xmlns="http://www.w3.org/2000/svg">
<path d="M0 483.614L21.6151 347.52H117.307L138.021 483.614H0Z" fill="#6938EF"/>
<path d="M270.189 526.491C271.765 551.661 286.175 571.012 285.725 572.91C285.499 573.922 275.592 583.155 271.877 586.823L244.859 588.214C244.859 588.214 242.494 533.953 242.382 533.068C242.382 531.677 270.076 523.708 270.189 526.491Z" fill="white"/>
<path d="M243.507 103.663C242.269 97.3392 241.931 90.8886 242.494 84.438C243.057 80.0112 242.945 75.4579 242.157 71.031C241.031 65.3393 237.991 59.7742 233.601 57.1181C229.66 54.8414 210.522 53.4501 205.231 55.0943C200.165 56.6121 195.324 60.6595 193.748 66.3512C192.059 72.6753 196.224 80.1377 193.748 85.9558C193.297 86.9677 192.735 87.9795 192.059 88.7384L193.86 85.4499C193.86 85.5764 191.609 88.4855 189.92 90.8886C186.768 93.2918 183.503 95.3155 179.901 96.9597C169.206 102.272 157.16 104.169 147.253 111.505C129.465 124.659 124.624 151.6 136.333 171.457C138.134 174.619 140.385 177.402 142.862 179.932C142.862 179.932 150.518 167.157 150.743 167.41C154.345 161.592 158.06 155.9 161.663 150.082C168.192 139.963 183.165 148.691 190.821 154.129C198.701 159.821 205.568 167.03 213.336 173.102C221.104 179.173 229.885 184.105 239.229 184.105C248.574 184.105 258.368 178.034 261.182 167.916C263.659 158.809 260.057 149.07 256.567 140.343C251.388 127.948 245.872 116.311 243.507 103.663Z" fill="black"/>
<path d="M244.408 75.4582C244.071 70.3989 241.932 65.7191 238.667 62.4306C235.402 59.2685 231.237 57.7507 226.959 58.0037C221.442 58.1302 215.588 59.142 210.86 62.6835C205.681 66.7309 203.993 72.9285 203.317 79.632C199.489 77.2289 194.649 78.8732 192.51 83.3C190.934 86.5885 191.271 90.6359 193.523 93.4185C194.874 95.0628 202.867 97.213 202.867 97.213C202.867 97.213 201.516 103.411 200.953 106.067C199.827 111.505 192.51 132.248 192.51 132.248L220.879 160.201L230.674 135.41L224.595 132.754L225.495 114.794C225.495 114.794 235.289 119.094 239.905 115.3C246.547 109.988 245.196 85.3237 244.408 75.4582Z" fill="white"/>
<path d="M257.129 493.606L278.744 357.638H374.549L395.151 493.606H257.129Z" fill="#FFBB45"/>
<path d="M23.5288 556.214L38.2766 526.491C46.2697 528.767 55.7263 531.803 63.7194 534.08C63.3816 533.953 60.0043 545.842 59.7791 546.981C58.9911 551.661 58.7659 554.317 62.481 557.352C64.3949 558.617 66.1961 560.008 67.8848 561.653C69.4609 563.297 70.6993 565.826 70.1364 568.23C64.1697 569.874 57.7527 571.012 51.8986 573.289C46.9452 575.186 41.8791 575.818 36.8131 573.795C30.5087 571.139 25.4426 563.423 23.5288 556.214Z" fill="white"/>
<path d="M231.011 224.959C231.011 224.959 183.503 224.453 178.662 223.188L168.418 241.908L163.577 252.153C159.637 261.259 156.147 271.631 156.147 280.485C156.147 300.595 143.65 336.769 92.6522 410.761C75.7654 435.298 23.8667 527.882 23.8667 527.882C23.8667 527.882 77.3415 550.27 112.691 539.645C112.691 539.645 180.013 390.523 185.417 375.219C190.821 359.915 209.171 304.39 209.171 304.39C209.171 304.39 210.072 500.309 204.893 531.55C204.893 531.55 256.904 547.487 285.837 530.918C285.837 530.918 251.613 299.71 244.746 274.034C237.879 247.852 231.011 224.959 231.011 224.959Z" fill="black"/>
<path d="M192.397 132.754C197.013 134.651 211.76 150.588 218.966 156.912C219.866 157.671 221.105 157.544 221.78 156.533C221.893 156.406 222.005 156.28 222.005 156.153L230.674 135.663C232.475 135.41 237.991 136.802 239.905 137.434C247.673 140.09 253.752 146.288 254.766 155.647C257.242 177.655 262.646 209.781 262.646 209.781L320.061 277.575C324.677 282.888 325.465 290.982 321.975 297.18L321.75 297.686C316.571 302.113 311.393 306.54 306.101 310.84C301.936 314.255 297.771 311.599 293.605 308.816C288.989 305.654 282.572 296.295 276.831 289.085C266.699 276.184 257.13 262.777 248.011 248.864C245.759 245.449 243.508 241.908 241.369 238.366C239.793 235.837 238.104 231.41 235.627 229.892C232.925 228.248 182.49 228.88 176.186 227.362L173.596 200.928L149.505 238.872L101.659 316.658L78.2423 309.196C71.375 299.71 72.0504 285.038 76.2159 274.413C80.1561 264.295 86.9108 256.074 93.553 247.979C96.3674 244.564 110.777 227.489 121.472 215.094C125.075 210.92 135.545 191.568 138.584 186.635C147.14 173.102 155.809 159.568 164.365 146.035C168.418 137.054 179.788 131.11 188.682 132.122C189.92 131.995 191.159 132.375 192.397 132.754Z" fill="#C7B8F8"/>
<path d="M243.057 583.155C243.057 583.155 243.282 588.973 243.395 590.997L243.733 599.597C243.845 602.253 245.759 604.277 248.011 604.277H336.385C339.65 604.277 338.862 597.7 337.623 595.676C335.372 592.261 328.955 590.491 325.69 588.72C318.597 585.178 311.73 581.131 305.201 576.578C298.896 572.024 294.055 565.7 287.188 562.032C283.248 559.882 278.97 564.688 276.493 567.977C274.016 571.265 271.877 574.933 268.612 577.084C262.195 581.51 243.057 583.155 243.057 583.155Z" fill="black"/>
<path d="M197.125 85.1973L203.542 90.2565L197.125 85.1973Z" fill="white"/>
<path d="M244.408 75.4582C246.547 74.9522 250.712 72.0431 251.613 70.5253C252.739 68.7545 252.176 66.4779 250.712 64.8336C249.024 63.0629 246.997 61.6716 244.858 60.7862C240.693 58.889 236.415 57.3712 232.024 56.4858C238.554 62.557 243.845 65.972 244.408 75.4582Z" fill="black"/>
<path d="M239.455 84.5644C240.581 85.1968 241.031 86.7146 240.468 87.9794C240.243 88.4853 239.793 88.9913 239.342 89.1178C239.005 89.2442 238.892 89.6237 239.117 90.0031C239.23 90.3826 239.567 90.509 239.905 90.2561C239.905 90.2561 240.018 90.2561 240.018 90.1296C241.706 89.2442 242.382 86.9676 241.594 85.0703C241.256 84.3114 240.806 83.8055 240.13 83.4261C239.905 83.2996 239.567 83.4261 239.342 83.679C239.005 83.932 239.117 84.3115 239.455 84.5644Z" fill="#4B4065"/>
<path d="M220.992 74.8255C223.581 72.4223 227.184 72.0429 230.111 73.8136C227.071 73.9401 224.031 74.3195 220.992 74.8255Z" fill="#4B4065"/>
<path d="M221.667 75.4581C223.919 73.4344 227.071 73.055 229.773 74.5727L230.223 72.802C227.071 73.055 224.031 73.3079 220.879 73.9403C220.429 74.0668 220.204 74.5727 220.316 75.0787C220.429 75.5846 220.879 75.8376 221.329 75.7111C224.257 75.2052 227.184 74.8257 230.223 74.6992C231.011 74.6992 231.462 73.4344 230.674 72.9285C227.409 71.0313 223.356 71.5372 220.541 74.1933C219.641 75.0787 220.879 76.3435 221.667 75.4581Z" fill="#4B4065"/>
<path d="M204.105 81.1498C205.231 82.2881 206.919 82.1616 207.82 80.8968L207.933 80.7703C208.833 79.379 209.509 77.8612 209.734 76.217C209.959 74.5727 210.747 73.0549 211.76 71.7901C213.787 69.8929 216.826 70.9048 219.416 71.0312C222.68 71.2842 225.945 70.0194 228.422 67.6162C230.223 65.972 233.488 61.4187 232.925 58.5096C232.587 56.3594 225.72 56.2329 223.919 56.1064C216.714 55.2211 209.509 56.1064 202.641 58.7625C200.39 59.6479 198.363 62.6835 197.125 64.9601C195.999 67.1103 195.774 69.64 196.562 72.0431C197.238 74.5727 199.94 76.8494 201.516 78.6201C202.304 79.379 203.204 80.1379 204.105 81.1498Z" fill="black"/>
<path d="M202.754 97.2129L208.495 97.9718L201.403 103.663" fill="black"/>
<path d="M225.607 115.047L215.25 109.734C218.29 114.667 222.117 119.22 225.157 124.027" fill="#495894"/>
<path d="M25.2175 550.27C25.2175 550.27 37.0383 568.736 42.5546 568.356C48.071 567.977 55.5012 556.467 65.5207 557.479C70.1364 557.985 70.1364 558.997 70.1364 558.997C70.1364 558.997 83.4207 578.981 89.1622 581.89C96.0295 585.431 111.79 591.503 112.691 596.182V604.657H57.6402C56.627 604.657 55.5012 604.277 54.7131 603.518L15.198 570.633C14.2974 569.874 14.0723 568.356 14.7477 567.218L25.2175 550.27Z" fill="black"/>
<path d="M271.99 539.139C263.321 544.451 252.964 548.119 243.17 549.131C242.832 545.463 242.945 541.669 242.607 538.001C251.501 538.127 262.646 538.254 271.427 536.356L271.99 539.139Z" fill="#6938EF"/>
<path d="M228.647 208.01C225.72 207.252 221.329 207.252 218.402 206.493L228.197 198.651L227.521 202.698L228.647 208.01Z" fill="#6938EF"/>
<path d="M101.884 316.279C99.1818 319.82 93.3277 330.571 90.6258 334.239C80.9441 335.883 70.6994 338.539 61.0177 340.184C58.7661 337.654 56.5145 334.998 54.263 332.342C53.5875 331.457 53.5875 330.192 54.263 329.306C54.7133 328.8 55.5013 328.547 56.0642 328.8C58.6535 329.686 61.2428 330.445 63.7196 331.456C67.9975 329.939 72.3881 327.915 76.6661 326.397C77.3416 323.488 80.4938 312.611 81.1692 309.702L101.884 316.279Z" fill="white"/>
<path d="M270.076 412.025L301.711 493.606L280.208 493.479L268.95 419.108L270.076 412.025Z" fill="black" fill-opacity="0.82"/>
<path d="M243.508 95.3154H232.925C233.15 97.4656 233.938 99.3628 235.289 100.754C236.64 102.019 238.554 102.398 240.243 101.766C241.932 101.007 243.62 97.2127 243.508 95.3154Z" fill="black"/>
<path d="M234.276 86.4619C233.15 81.5291 228.534 78.4935 224.144 79.7584C222.117 80.3908 220.316 81.7821 219.19 83.9322C220.879 86.5884 223.581 88.1061 226.395 88.3591C229.097 88.7385 231.687 87.7267 234.276 86.4619Z" fill="white"/>
<path d="M229.097 80.1377C226.396 81.6555 224.594 84.5645 224.144 87.8531C224.932 88.106 225.607 88.2326 226.395 88.3591C229.21 88.6121 231.687 87.6002 234.276 86.4619C233.488 83.6793 231.574 81.4025 229.097 80.1377Z" fill="black"/>
<path d="M179.338 44.9759C172.245 45.7348 165.828 50.9205 161.888 57.6241C158.286 63.6952 156.597 72.0429 160.087 78.2405C163.126 83.5528 169.318 85.7029 174.835 84.4381C180.351 83.1733 184.967 78.9994 188.344 74.0667C191.947 68.7544 197.688 59.6478 194.986 53.1972C192.397 47.3791 184.742 44.3435 179.338 44.9759Z" fill="black"/>
<path d="M242.269 73.3077C242.157 73.3077 242.044 73.4342 242.044 73.5607V73.8136C242.044 73.9401 242.044 73.9401 242.044 74.0666C242.044 74.1931 242.044 74.1931 242.044 74.3196V74.5725L242.157 74.699C242.157 74.699 242.157 74.699 242.269 74.699H242.382C242.494 74.699 242.494 74.699 242.607 74.699H242.719C243.282 74.699 243.845 74.8255 244.408 74.8255C244.296 74.0666 244.183 73.3077 244.07 72.5488C243.282 72.6753 242.719 72.9283 242.269 73.3077Z" fill="#4B4065"/>
<path d="M244.971 85.8294C244.521 85.3235 244.183 84.6911 244.071 84.0587C243.958 83.0468 244.183 81.9085 244.746 81.1496C244.746 80.6437 244.746 80.2642 244.633 79.7583C243.395 80.7701 242.832 82.5409 243.057 84.3116C243.283 85.5764 243.958 86.5883 244.971 87.2207C244.971 86.8413 244.971 86.2089 244.971 85.8294Z" fill="#4B4065"/>
<path d="M226.66 98.1985C227.208 94.4061 224.915 90.8328 221.54 90.2173C218.164 89.6019 214.984 92.1773 214.436 95.9697C213.888 99.7621 216.18 103.335 219.556 103.951C222.931 104.566 226.112 101.991 226.66 98.1985Z" fill="#FFC1EB"/>
<path d="M294.624 6.17274C293.703 4.4819 292.329 3.08152 290.656 2.12913C282.968 -2.1705 275.204 0.495121 271.402 6.08238C267.546 0.427351 259.632 -2.2458 251.824 2.31738C250.407 3.14206 249.223 4.31321 248.383 5.72093C244.851 11.6546 245.544 17.6108 248.511 21.8502C248.564 21.9262 248.622 21.9991 248.684 22.0686V22.1062C248.744 22.189 252.524 26.5715 254.888 28.966C259.402 33.3631 264.134 37.53 269.067 41.4508C269.706 41.9706 270.503 42.2544 271.326 42.2544C272.149 42.2544 272.947 41.9706 273.585 41.4508C277.84 38.0548 281.296 35.1105 283.864 32.8591C285.825 31.2262 287.677 29.4653 289.406 27.5881C293.096 23.5144 301.221 18.1756 294.624 6.17274Z" fill="#E9A4AF"/>
<path d="M54.3962 541.257L24 540.371L29.066 530L55.6346 537.083L54.3962 541.257Z" fill="#6938EF"/>
<path d="M85.3503 153.937C87.2642 153.431 89.0654 152.545 90.7541 151.281C89.0654 150.142 87.2642 149.257 85.3503 148.624C83.4365 147.992 81.8604 146.348 81.2975 144.071C80.8472 141.921 80.0591 139.897 78.9333 138C77.9201 139.897 77.1321 141.921 76.5692 144.071C76.0063 146.221 74.5428 147.992 72.5164 148.624C70.6025 149.13 68.6887 150.016 67 151.281C68.6887 152.419 70.4899 153.304 72.5164 153.937C74.4302 154.569 76.0063 156.213 76.5692 158.49C77.0195 160.64 77.8075 162.664 78.9333 164.561C79.9465 162.664 80.7346 160.64 81.2975 158.49C81.8604 156.213 83.3239 154.443 85.3503 153.937Z" fill="#6938EF"/>
</svg>
